solid Mesh
  facet normal -0.242808 0.175611 0.954047
    outer loop
      vertex -168.696 86.14 1475.98
      vertex -191.322 95.2258 1468.55
      vertex -191.368 95.1213 1468.56
    endloop
  endfacet
  facet normal -0.24307 0.174997 0.954093
    outer loop
      vertex -191.322 95.2258 1468.55
      vertex -168.696 86.14 1475.98
      vertex -186.508 105.203 1467.95
    endloop
  endfacet
  facet normal -0.243062 0.175004 0.954093
    outer loop
      vertex -168.696 86.14 1475.98
      vertex -164.802 94.185 1475.5
      vertex -186.508 105.203 1467.95
    endloop
  endfacet
  facet normal -0.243062 0.175006 0.954093
    outer loop
      vertex -186.508 105.203 1467.95
      vertex -164.802 94.185 1475.5
      vertex -186.243 105.705 1467.92
    endloop
  endfacet
  facet normal -0.243068 0.174994 0.954094
    outer loop
      vertex -164.802 94.185 1475.5
      vertex -160.389 101.966 1475.2
      vertex -186.243 105.705 1467.92
    endloop
  endfacet
  facet normal -0.243068 0.174996 0.954093
    outer loop
      vertex -186.243 105.705 1467.92
      vertex -160.389 101.966 1475.2
      vertex -180.439 115.788 1467.55
    endloop
  endfacet
  facet normal -0.24307 0.174991 0.954094
    outer loop
      vertex -191.368 95.1213 1468.56
      vertex -192.185 93.2355 1468.7
      vertex -168.696 86.14 1475.98
    endloop
  endfacet
  facet normal -0.243067 0.174999 0.954093
    outer loop
      vertex -192.185 93.2355 1468.7
      vertex -195.646 84.3986 1469.44
      vertex -168.696 86.14 1475.98
    endloop
  endfacet
  facet normal -0.243067 0.175002 0.954093
    outer loop
      vertex -168.696 86.14 1475.98
      vertex -195.646 84.3986 1469.44
      vertex -172.053 77.8688 1476.64
    endloop
  endfacet
  facet normal -0.243064 0.17501 0.954092
    outer loop
      vertex -195.646 84.3986 1469.44
      vertex -196.865 80.8688 1469.77
      vertex -172.053 77.8688 1476.64
    endloop
  endfacet
  facet normal -0.243067 0.174994 0.954094
    outer loop
      vertex -172.053 77.8688 1476.64
      vertex -196.865 80.8688 1469.77
      vertex -199.187 73.2724 1470.57
    endloop
  endfacet
  facet normal -0.24305 0.175005 0.954096
    outer loop
      vertex -155.477 109.448 1475.08
      vertex -163.942 137.871 1467.71
      vertex -166.773 134.594 1467.59
    endloop
  endfacet
  facet normal -0.243072 0.174994 0.954093
    outer loop
      vertex -166.773 134.594 1467.59
      vertex -172.336 127.601 1467.45
      vertex -155.477 109.448 1475.08
    endloop
  endfacet
  facet normal -0.243044 0.175021 0.954095
    outer loop
      vertex -172.336 127.601 1467.45
      vertex -173.939 125.432 1467.44
      vertex -155.477 109.448 1475.08
    endloop
  endfacet
  facet normal -0.24306 0.175002 0.954094
    outer loop
      vertex -155.477 109.448 1475.08
      vertex -173.939 125.432 1467.44
      vertex -160.389 101.966 1475.2
    endloop
  endfacet
  facet normal -0.243068 0.174997 0.954093
    outer loop
      vertex -173.939 125.432 1467.44
      vertex -179.876 116.685 1467.53
      vertex -160.389 101.966 1475.2
    endloop
  endfacet
  facet normal -0.243059 0.175009 0.954093
    outer loop
      vertex -160.389 101.966 1475.2
      vertex -179.876 116.685 1467.53
      vertex -180.439 115.788 1467.55
    endloop
  endfacet
  facet normal -0.243066 0.174988 0.954095
    outer loop
      vertex -199.187 73.2724 1470.57
      vertex -200.517 68.1912 1471.17
      vertex -172.053 77.8688 1476.64
    endloop
  endfacet
  facet normal -0.243072 0.175007 0.954091
    outer loop
      vertex -200.517 68.1912 1471.17
      vertex -201.921 61.8992 1471.96
      vertex -172.053 77.8688 1476.64
    endloop
  endfacet
  facet normal -0.24307 0.175003 0.954092
    outer loop
      vertex -172.053 77.8688 1476.64
      vertex -201.921 61.8992 1471.96
      vertex -203.113 55.2932 1472.87
    endloop
  endfacet
  facet normal -0.24306 0.174996 0.954096
    outer loop
      vertex -123.11 171.114 1472.01
      vertex -134.265 164.104 1470.45
      vertex -155.477 109.448 1475.08
    endloop
  endfacet
  facet normal -0.243058 0.174995 0.954096
    outer loop
      vertex -134.265 164.104 1470.45
      vertex -141.608 158.751 1469.57
      vertex -155.477 109.448 1475.08
    endloop
  endfacet
  facet normal -0.243077 0.175 0.95409
    outer loop
      vertex -155.477 109.448 1475.08
      vertex -141.608 158.751 1469.57
      vertex -144.839 156.188 1469.21
    endloop
  endfacet
  facet normal -0.24306 0.174989 0.954097
    outer loop
      vertex -203.113 55.2932 1472.87
      vertex -203.821 50.3338 1473.6
      vertex -172.053 77.8688 1476.64
    endloop
  endfacet
  facet normal -0.243076 0.175008 0.954089
    outer loop
      vertex -203.821 50.3338 1473.6
      vertex -204.635 42.2671 1474.87
      vertex -172.053 77.8688 1476.64
    endloop
  endfacet
  facet normal -0.24306 0.174993 0.954096
    outer loop
      vertex -172.053 77.8688 1476.64
      vertex -204.635 42.2671 1474.87
      vertex -204.865 38.6345 1475.48
    endloop
  endfacet
  facet normal -0.243067 0.174999 0.954093
    outer loop
      vertex -204.865 38.6345 1475.48
      vertex -205.072 29.206 1477.16
      vertex -172.053 77.8688 1476.64
    endloop
  endfacet
  facet normal -0.243103 0.175023 0.954079
    outer loop
      vertex -205.072 29.206 1477.16
      vertex -205.035 26.8632 1477.6
      vertex -172.053 77.8688 1476.64
    endloop
  endfacet
  facet normal -0.243064 0.174998 0.954094
    outer loop
      vertex -172.053 77.8688 1476.64
      vertex -205.035 26.8632 1477.6
      vertex -204.421 16.2033 1479.71
    endloop
  endfacet
  facet normal -0.243062 0.174997 0.954095
    outer loop
      vertex -144.839 156.188 1469.21
      vertex -154.755 147.423 1468.29
      vertex -155.477 109.448 1475.08
    endloop
  endfacet
  facet normal -0.243077 0.174997 0.954091
    outer loop
      vertex -154.755 147.423 1468.29
      vertex -158.973 143.229 1467.99
      vertex -155.477 109.448 1475.08
    endloop
  endfacet
  facet normal -0.24307 0.174998 0.954093
    outer loop
      vertex -155.477 109.448 1475.08
      vertex -158.973 143.229 1467.99
      vertex -163.942 137.871 1467.71
    endloop
  endfacet
  facet normal -0.0874525 -0.653 -0.752292
    outer loop
      vertex -177.391 78.2214 1421.36
      vertex -172.343 83.1244 1416.52
      vertex -195.692 52.1293 1446.14
    endloop
  endfacet
  facet normal -0.0874421 -0.653003 -0.75229
    outer loop
      vertex -204.19 16.8291 1477.77
      vertex -203.485 25.9641 1469.76
      vertex -172.343 83.1244 1416.52
    endloop
  endfacet
  facet normal -0.0876271 -0.652936 -0.752327
    outer loop
      vertex -203.485 25.9641 1469.76
      vertex -203.348 26.96 1468.88
      vertex -172.343 83.1244 1416.52
    endloop
  endfacet
  facet normal -0.0871844 -0.653098 -0.752238
    outer loop
      vertex -172.343 83.1244 1416.52
      vertex -203.348 26.96 1468.88
      vertex -203.3 27.2905 1468.58
    endloop
  endfacet
  facet normal -0.0874366 -0.653006 -0.752289
    outer loop
      vertex -203.3 27.2905 1468.58
      vertex -201.807 34.9703 1461.74
      vertex -172.343 83.1244 1416.52
    endloop
  endfacet
  facet normal -0.0874754 -0.65299 -0.752298
    outer loop
      vertex -201.807 34.9703 1461.74
      vertex -200.857 38.5511 1458.52
      vertex -172.343 83.1244 1416.52
    endloop
  endfacet
  facet normal -0.087414 -0.653015 -0.752283
    outer loop
      vertex -172.343 83.1244 1416.52
      vertex -200.857 38.5511 1458.52
      vertex -200.43 39.9854 1457.23
    endloop
  endfacet
  facet normal -0.0873808 -0.653029 -0.752275
    outer loop
      vertex -195.692 52.1293 1446.14
      vertex -185.674 68.5542 1430.72
      vertex -184.859 69.618 1429.7
    endloop
  endfacet
  facet normal -0.0875062 -0.652977 -0.752306
    outer loop
      vertex -200.43 39.9854 1457.23
      vertex -199.166 43.7889 1453.78
      vertex -172.343 83.1244 1416.52
    endloop
  endfacet
  facet normal -0.087433 -0.653009 -0.752287
    outer loop
      vertex -199.166 43.7889 1453.78
      vertex -196.83 49.6491 1448.42
      vertex -172.343 83.1244 1416.52
    endloop
  endfacet
  facet normal -0.0874368 -0.653007 -0.752288
    outer loop
      vertex -172.343 83.1244 1416.52
      vertex -196.83 49.6491 1448.42
      vertex -195.692 52.1293 1446.14
    endloop
  endfacet
  facet normal -0.0873935 -0.653024 -0.752278
    outer loop
      vertex -185.674 68.5542 1430.72
      vertex -195.692 52.1293 1446.14
      vertex -189.13 63.6823 1435.35
    endloop
  endfacet
  facet normal -0.0870971 -0.653134 -0.752217
    outer loop
      vertex -195.692 52.1293 1446.14
      vertex -195.581 52.3626 1445.92
      vertex -189.13 63.6823 1435.35
    endloop
  endfacet
  facet normal -0.0875366 -0.65297 -0.752308
    outer loop
      vertex -189.13 63.6823 1435.35
      vertex -195.581 52.3626 1445.92
      vertex -191.074 60.6357 1438.22
    endloop
  endfacet
  facet normal -0.0874285 -0.653009 -0.752286
    outer loop
      vertex -184.859 69.618 1429.7
      vertex -180.784 74.5433 1424.95
      vertex -195.692 52.1293 1446.14
    endloop
  endfacet
  facet normal -0.0873913 -0.653025 -0.752277
    outer loop
      vertex -180.784 74.5433 1424.95
      vertex -179.417 76.0668 1423.47
      vertex -195.692 52.1293 1446.14
    endloop
  endfacet
  facet normal -0.0875161 -0.652971 -0.752309
    outer loop
      vertex -195.692 52.1293 1446.14
      vertex -179.417 76.0668 1423.47
      vertex -177.391 78.2214 1421.36
    endloop
  endfacet
  facet normal -0.828732 0.263921 -0.493507
    outer loop
      vertex -179.417 76.0668 1423.47
      vertex -180.784 74.5433 1424.95
      vertex -179.398 78.9241 1424.96
    endloop
  endfacet
  facet normal -0.874461 0.200405 -0.441764
    outer loop
      vertex -185.674 68.5542 1430.72
      vertex -189.13 63.6823 1435.35
      vertex -187.614 70.3308 1435.36
    endloop
  endfacet
  facet normal -0.957169 0.0616227 -0.282895
    outer loop
      vertex -199.166 43.7889 1453.78
      vertex -200.43 39.9854 1457.23
      vertex -199.79 49.9451 1457.23
    endloop
  endfacet
  facet normal -0.973259 -0.0149146 -0.229227
    outer loop
      vertex -201.807 34.9703 1461.74
      vertex -203.3 27.2905 1468.58
      vertex -203.473 38.6094 1468.58
    endloop
  endfacet
  facet normal -0.644225 0.746335 -0.167205
    outer loop
      vertex -144.839 156.188 1469.21
      vertex -148.674 152.287 1466.58
      vertex -154.755 147.423 1468.29
    endloop
  endfacet
  facet normal -0.578976 0.622236 -0.526886
    outer loop
      vertex -147.333 129.869 1423.51
      vertex -147.023 131.391 1424.96
      vertex -143.962 135.927 1426.96
    endloop
  endfacet
  facet normal -0.772793 0.362884 -0.520679
    outer loop
      vertex -175.718 88.6106 1424.96
      vertex -171.313 97.99 1424.96
      vertex -168.791 89.9468 1415.62
    endloop
  endfacet
  facet normal -0.726248 0.442085 -0.526426
    outer loop
      vertex -161.361 104.02 1415.76
      vertex -161.567 103.633 1415.72
      vertex -166.21 107.009 1424.96
    endloop
  endfacet
  facet normal -0.73951 0.420879 -0.525344
    outer loop
      vertex -161.567 103.633 1415.72
      vertex -165.191 96.7986 1415.35
      vertex -166.21 107.009 1424.96
    endloop
  endfacet
  facet normal -0.741281 0.419436 -0.524
    outer loop
      vertex -166.21 107.009 1424.96
      vertex -165.191 96.7986 1415.35
      vertex -171.313 97.99 1424.96
    endloop
  endfacet
  facet normal -0.75193 0.395057 -0.52776
    outer loop
      vertex -165.191 96.7986 1415.35
      vertex -166.009 95.2467 1415.35
      vertex -171.313 97.99 1424.96
    endloop
  endfacet
  facet normal -0.762561 0.374234 -0.527684
    outer loop
      vertex -171.313 97.99 1424.96
      vertex -166.009 95.2467 1415.35
      vertex -168.791 89.9468 1415.62
    endloop
  endfacet
  facet normal -0.713747 0.462097 -0.526338
    outer loop
      vertex -161.361 104.02 1415.76
      vertex -166.21 107.009 1424.96
      vertex -157.945 110.403 1416.74
    endloop
  endfacet
  facet normal -0.710741 0.47672 -0.517286
    outer loop
      vertex -166.21 107.009 1424.96
      vertex -160.438 115.614 1424.96
      vertex -157.945 110.403 1416.74
    endloop
  endfacet
  facet normal -0.699267 0.48891 -0.521529
    outer loop
      vertex -157.945 110.403 1416.74
      vertex -160.438 115.614 1424.96
      vertex -156.62 112.865 1417.27
    endloop
  endfacet
  facet normal -0.685009 0.508699 -0.521524
    outer loop
      vertex -156.62 112.865 1417.27
      vertex -160.438 115.614 1424.96
      vertex -154.349 117.063 1418.38
    endloop
  endfacet
  facet normal -0.676644 0.532466 -0.50856
    outer loop
      vertex -160.438 115.614 1424.96
      vertex -154.03 123.757 1424.96
      vertex -154.349 117.063 1418.38
    endloop
  endfacet
  facet normal -0.670433 0.536291 -0.512749
    outer loop
      vertex -154.349 117.063 1418.38
      vertex -154.03 123.757 1424.96
      vertex -151.744 121.848 1419.98
    endloop
  endfacet
  facet normal -0.645591 0.592587 -0.481718
    outer loop
      vertex -147.023 131.391 1424.96
      vertex -147.333 129.869 1423.51
      vertex -154.03 123.757 1424.96
    endloop
  endfacet
  facet normal -0.639712 0.581036 -0.503156
    outer loop
      vertex -147.333 129.869 1423.51
      vertex -150.804 123.566 1420.64
      vertex -154.03 123.757 1424.96
    endloop
  endfacet
  facet normal -0.654144 0.555978 -0.51282
    outer loop
      vertex -154.03 123.757 1424.96
      vertex -150.804 123.566 1420.64
      vertex -151.744 121.848 1419.98
    endloop
  endfacet
  facet normal -0.611423 0.650911 -0.449974
    outer loop
      vertex -143.962 135.927 1426.96
      vertex -150.895 135.225 1435.36
      vertex -141.306 140.653 1430.18
    endloop
  endfacet
  facet normal -0.611154 0.653039 -0.447248
    outer loop
      vertex -150.895 135.225 1435.36
      vertex -143.027 142.588 1435.36
      vertex -141.306 140.653 1430.18
    endloop
  endfacet
  facet normal -0.59213 0.670262 -0.44736
    outer loop
      vertex -141.306 140.653 1430.18
      vertex -143.027 142.588 1435.36
      vertex -140.713 141.701 1430.97
    endloop
  endfacet
  facet normal -0.570765 0.692848 -0.440668
    outer loop
      vertex -143.027 142.588 1435.36
      vertex -137.608 147.149 1435.51
      vertex -140.713 141.701 1430.97
    endloop
  endfacet
  facet normal -0.547005 0.77373 -0.319575
    outer loop
      vertex -129.366 161.183 1452.02
      vertex -131.886 156.973 1446.14
      vertex -137.4 153.075 1446.14
    endloop
  endfacet
  facet normal -0.541311 0.76566 -0.347486
    outer loop
      vertex -131.886 156.973 1446.14
      vertex -131.914 156.925 1446.08
      vertex -137.4 153.075 1446.14
    endloop
  endfacet
  facet normal -0.580051 0.71374 -0.392577
    outer loop
      vertex -137.608 147.149 1435.51
      vertex -146.079 146.108 1446.14
      vertex -135.565 150.692 1438.94
    endloop
  endfacet
  facet normal -0.57764 0.719632 -0.385307
    outer loop
      vertex -146.079 146.108 1446.14
      vertex -137.4 153.075 1446.14
      vertex -135.565 150.692 1438.94
    endloop
  endfacet
  facet normal -0.561888 0.731963 -0.385373
    outer loop
      vertex -135.565 150.692 1438.94
      vertex -137.4 153.075 1446.14
      vertex -134.668 152.235 1440.56
    endloop
  endfacet
  facet normal -0.535181 0.756454 -0.375977
    outer loop
      vertex -137.4 153.075 1446.14
      vertex -131.914 156.925 1446.08
      vertex -134.668 152.235 1440.56
    endloop
  endfacet
  facet normal -0.491338 0.814551 -0.308372
    outer loop
      vertex -127.037 164.986 1458.35
      vertex -129.365 161.185 1452.02
      vertex -130.267 162.614 1457.23
    endloop
  endfacet
  facet normal -0.524737 0.793447 -0.308371
    outer loop
      vertex -129.365 161.185 1452.02
      vertex -129.366 161.183 1452.02
      vertex -130.267 162.614 1457.23
    endloop
  endfacet
  facet normal -0.537524 0.784894 -0.308236
    outer loop
      vertex -130.267 162.614 1457.23
      vertex -129.366 161.183 1452.02
      vertex -139.69 156.16 1457.23
    endloop
  endfacet
  facet normal -0.495327 0.840178 -0.220801
    outer loop
      vertex -131.87 165.155 1468.58
      vertex -123.978 169.801 1468.55
      vertex -124.947 168.304 1465.03
    endloop
  endfacet
  facet normal -0.502432 0.842601 -0.193868
    outer loop
      vertex -134.265 164.104 1470.45
      vertex -123.11 171.114 1472.01
      vertex -123.978 169.801 1468.55
    endloop
  endfacet
  facet normal -0.50088 0.849943 -0.163451
    outer loop
      vertex -123.978 169.801 1468.55
      vertex -131.87 165.155 1468.58
      vertex -134.265 164.104 1470.45
    endloop
  endfacet
  facet normal -0.546928 0.798626 -0.251128
    outer loop
      vertex -131.87 165.155 1468.58
      vertex -141.481 158.573 1468.58
      vertex -134.265 164.104 1470.45
    endloop
  endfacet
  facet normal -0.557865 0.801183 -0.216549
    outer loop
      vertex -134.265 164.104 1470.45
      vertex -141.481 158.573 1468.58
      vertex -141.608 158.751 1469.57
    endloop
  endfacet
  facet normal -0.709883 0.651599 -0.267368
    outer loop
      vertex -156.935 141.208 1457.23
      vertex -164.658 132.794 1457.23
      vertex -163.942 137.871 1467.71
    endloop
  endfacet
  facet normal -0.757495 0.59609 -0.26623
    outer loop
      vertex -171.721 123.819 1457.23
      vertex -172.336 127.601 1467.45
      vertex -164.658 132.794 1457.23
    endloop
  endfacet
  facet normal -0.753436 0.604376 -0.258968
    outer loop
      vertex -172.336 127.601 1467.45
      vertex -166.773 134.594 1467.59
      vertex -164.658 132.794 1457.23
    endloop
  endfacet
  facet normal -0.726268 0.636735 -0.259043
    outer loop
      vertex -164.658 132.794 1457.23
      vertex -166.773 134.594 1467.59
      vertex -163.942 137.871 1467.71
    endloop
  endfacet
  facet normal -0.859857 0.440547 -0.258002
    outer loop
      vertex -186.508 105.203 1467.95
      vertex -186.243 105.705 1467.92
      vertex -183.707 104.394 1457.23
    endloop
  endfacet
  facet normal -0.841454 0.474842 -0.257839
    outer loop
      vertex -186.243 105.705 1467.92
      vertex -180.439 115.788 1467.55
      vertex -183.707 104.394 1457.23
    endloop
  endfacet
  facet normal -0.840638 0.475656 -0.258997
    outer loop
      vertex -183.707 104.394 1457.23
      vertex -180.439 115.788 1467.55
      vertex -178.082 114.334 1457.23
    endloop
  endfacet
  facet normal -0.820563 0.509419 -0.259169
    outer loop
      vertex -180.439 115.788 1467.55
      vertex -179.876 116.685 1467.53
      vertex -178.082 114.334 1457.23
    endloop
  endfacet
  facet normal -0.801419 0.537541 -0.262254
    outer loop
      vertex -178.082 114.334 1457.23
      vertex -179.876 116.685 1467.53
      vertex -171.721 123.819 1457.23
    endloop
  endfacet
  facet normal -0.80037 0.540491 -0.259379
    outer loop
      vertex -179.876 116.685 1467.53
      vertex -173.939 125.432 1467.44
      vertex -171.721 123.819 1457.23
    endloop
  endfacet
  facet normal -0.775943 0.574947 -0.259516
    outer loop
      vertex -171.721 123.819 1457.23
      vertex -173.939 125.432 1467.44
      vertex -172.336 127.601 1467.45
    endloop
  endfacet
  facet normal -0.766767 0.290233 -0.572567
    outer loop
      vertex -191.368 95.1213 1468.56
      vertex -195.465 84.3406 1468.58
      vertex -192.185 93.2355 1468.7
    endloop
  endfacet
  facet normal -0.915009 0.340249 -0.21677
    outer loop
      vertex -195.465 84.3406 1468.58
      vertex -195.646 84.3986 1469.44
      vertex -192.185 93.2355 1468.7
    endloop
  endfacet
  facet normal -0.928857 0.300232 -0.21699
    outer loop
      vertex -195.646 84.3986 1469.44
      vertex -195.465 84.3406 1468.58
      vertex -196.865 80.8688 1469.77
    endloop
  endfacet
  facet normal -0.918128 0.271193 -0.288955
    outer loop
      vertex -195.465 84.3406 1468.58
      vertex -198.764 73.1691 1468.58
      vertex -196.865 80.8688 1469.77
    endloop
  endfacet
  facet normal -0.940382 0.264962 -0.213255
    outer loop
      vertex -196.865 80.8688 1469.77
      vertex -198.764 73.1691 1468.58
      vertex -199.187 73.2724 1470.57
    endloop
  endfacet
  facet normal -0.950979 0.223855 -0.213373
    outer loop
      vertex -199.187 73.2724 1470.57
      vertex -198.764 73.1691 1468.58
      vertex -200.517 68.1912 1471.17
    endloop
  endfacet
  facet normal -0.946602 0.203058 -0.250425
    outer loop
      vertex -198.764 73.1691 1468.58
      vertex -201.208 61.7795 1468.58
      vertex -200.517 68.1912 1471.17
    endloop
  endfacet
  facet normal -0.959755 0.187715 -0.208888
    outer loop
      vertex -200.517 68.1912 1471.17
      vertex -201.208 61.7795 1468.58
      vertex -201.921 61.8992 1471.96
    endloop
  endfacet
  facet normal -0.967005 0.145767 -0.208932
    outer loop
      vertex -201.921 61.8992 1471.96
      vertex -201.208 61.7795 1468.58
      vertex -203.113 55.2932 1472.87
    endloop
  endfacet
  facet normal -0.964399 0.131391 -0.229503
    outer loop
      vertex -201.208 61.7795 1468.58
      vertex -202.78 50.2375 1468.58
      vertex -203.113 55.2932 1472.87
    endloop
  endfacet
  facet normal -0.972944 0.108958 -0.203736
    outer loop
      vertex -203.113 55.2932 1472.87
      vertex -202.78 50.2375 1468.58
      vertex -203.821 50.3338 1473.6
    endloop
  endfacet
  facet normal -0.976775 0.066417 -0.203714
    outer loop
      vertex -203.821 50.3338 1473.6
      vertex -202.78 50.2375 1468.58
      vertex -204.635 42.2671 1474.87
    endloop
  endfacet
  facet normal -0.975154 0.0580972 -0.213774
    outer loop
      vertex -202.78 50.2375 1468.58
      vertex -203.473 38.6094 1468.58
      vertex -204.635 42.2671 1474.87
    endloop
  endfacet
  facet normal -0.979808 0.0291462 -0.197806
    outer loop
      vertex -204.635 42.2671 1474.87
      vertex -203.473 38.6094 1468.58
      vertex -204.865 38.6345 1475.48
    endloop
  endfacet
  facet normal -0.980162 -0.0137117 -0.197721
    outer loop
      vertex -204.865 38.6345 1475.48
      vertex -203.473 38.6094 1468.58
      vertex -205.072 29.206 1477.16
    endloop
  endfacet
  facet normal -0.979866 -0.0150112 -0.199091
    outer loop
      vertex -203.473 38.6094 1468.58
      vertex -203.3 27.2905 1468.58
      vertex -205.072 29.206 1477.16
    endloop
  endfacet
  facet normal -0.980237 -0.0512174 -0.19108
    outer loop
      vertex -205.072 29.206 1477.16
      vertex -203.3 27.2905 1468.58
      vertex -205.035 26.8632 1477.6
    endloop
  endfacet
  facet normal -0.990805 -0.0375461 -0.129987
    outer loop
      vertex -204.19 16.8291 1477.77
      vertex -204.421 16.2033 1479.71
      vertex -203.485 25.9641 1469.76
    endloop
  endfacet
  facet normal -0.978768 -0.0926128 -0.182855
    outer loop
      vertex -204.421 16.2033 1479.71
      vertex -205.035 26.8632 1477.6
      vertex -203.485 25.9641 1469.76
    endloop
  endfacet
  facet normal -0.981193 -0.0332964 -0.190135
    outer loop
      vertex -203.485 25.9641 1469.76
      vertex -205.035 26.8632 1477.6
      vertex -203.348 26.96 1468.88
    endloop
  endfacet
  facet normal -0.981432 -0.0255985 -0.190096
    outer loop
      vertex -205.035 26.8632 1477.6
      vertex -203.3 27.2905 1468.58
      vertex -203.348 26.96 1468.88
    endloop
  endfacet
  facet normal -0.902309 0.193556 -0.385194
    outer loop
      vertex -192.129 71.48 1446.14
      vertex -191.074 60.6357 1438.22
      vertex -194.463 60.5985 1446.14
    endloop
  endfacet
  facet normal -0.911316 0.133892 -0.389329
    outer loop
      vertex -191.074 60.6357 1438.22
      vertex -195.581 52.3626 1445.92
      vertex -194.463 60.5985 1446.14
    endloop
  endfacet
  facet normal -0.931936 0.1353 -0.336437
    outer loop
      vertex -194.463 60.5985 1446.14
      vertex -195.581 52.3626 1445.92
      vertex -195.692 52.1293 1446.14
    endloop
  endfacet
  facet normal -0.776491 0.347559 -0.525609
    outer loop
      vertex -168.791 89.9468 1415.62
      vertex -170.623 86.4357 1416
      vertex -175.718 88.6106 1424.96
    endloop
  endfacet
  facet normal -0.785851 0.325784 -0.525645
    outer loop
      vertex -170.623 86.4357 1416
      vertex -172.343 83.1244 1416.52
      vertex -175.718 88.6106 1424.96
    endloop
  endfacet
  facet normal -0.800074 0.303996 -0.517173
    outer loop
      vertex -175.718 88.6106 1424.96
      vertex -172.343 83.1244 1416.52
      vertex -179.398 78.9241 1424.96
    endloop
  endfacet
  facet normal -0.799274 0.321052 -0.508022
    outer loop
      vertex -172.343 83.1244 1416.52
      vertex -177.391 78.2214 1421.36
      vertex -179.398 78.9241 1424.96
    endloop
  endfacet
  facet normal -0.817185 0.271623 -0.50836
    outer loop
      vertex -179.398 78.9241 1424.96
      vertex -177.391 78.2214 1421.36
      vertex -179.417 76.0668 1423.47
    endloop
  endfacet
  facet normal -0.875814 0.406866 -0.259633
    outer loop
      vertex -186.508 105.203 1467.95
      vertex -183.707 104.394 1457.23
      vertex -191.322 95.2258 1468.55
    endloop
  endfacet
  facet normal -0.875045 0.410898 -0.255849
    outer loop
      vertex -183.707 104.394 1457.23
      vertex -188.561 94.0568 1457.23
      vertex -191.322 95.2258 1468.55
    endloop
  endfacet
  facet normal -0.89114 0.374594 -0.256025
    outer loop
      vertex -191.322 95.2258 1468.55
      vertex -188.561 94.0568 1457.23
      vertex -191.368 95.1213 1468.56
    endloop
  endfacet
  facet normal -0.903603 0.343332 -0.256175
    outer loop
      vertex -188.561 94.0568 1457.23
      vertex -192.617 83.3808 1457.23
      vertex -191.368 95.1213 1468.56
    endloop
  endfacet
  facet normal -0.903858 0.342963 -0.255766
    outer loop
      vertex -191.368 95.1213 1468.56
      vertex -192.617 83.3808 1457.23
      vertex -195.465 84.3406 1468.58
    endloop
  endfacet
  facet normal -0.92714 0.273857 -0.255761
    outer loop
      vertex -192.617 83.3808 1457.23
      vertex -195.853 72.4279 1457.23
      vertex -195.465 84.3406 1468.58
    endloop
  endfacet
  facet normal -0.927141 0.273855 -0.25576
    outer loop
      vertex -195.465 84.3406 1468.58
      vertex -195.853 72.4279 1457.23
      vertex -198.764 73.1691 1468.58
    endloop
  endfacet
  facet normal -0.945237 0.202764 -0.25576
    outer loop
      vertex -195.853 72.4279 1457.23
      vertex -198.248 61.2612 1457.23
      vertex -198.764 73.1691 1468.58
    endloop
  endfacet
  facet normal -0.945237 0.202765 -0.255761
    outer loop
      vertex -198.764 73.1691 1468.58
      vertex -198.248 61.2612 1457.23
      vertex -201.208 61.7795 1468.58
    endloop
  endfacet
  facet normal -0.957891 0.130505 -0.255761
    outer loop
      vertex -198.248 61.2612 1457.23
      vertex -199.79 49.9451 1457.23
      vertex -201.208 61.7795 1468.58
    endloop
  endfacet
  facet normal -0.957891 0.130504 -0.25576
    outer loop
      vertex -201.208 61.7795 1468.58
      vertex -199.79 49.9451 1457.23
      vertex -202.78 50.2375 1468.58
    endloop
  endfacet
  facet normal -0.964733 0.062103 -0.255801
    outer loop
      vertex -199.79 49.9451 1457.23
      vertex -200.43 39.9854 1457.23
      vertex -202.78 50.2375 1468.58
    endloop
  endfacet
  facet normal -0.966025 0.0575533 -0.251959
    outer loop
      vertex -202.78 50.2375 1468.58
      vertex -200.43 39.9854 1457.23
      vertex -203.473 38.6094 1468.58
    endloop
  endfacet
  facet normal -0.965947 0.0603707 -0.251597
    outer loop
      vertex -200.43 39.9854 1457.23
      vertex -200.857 38.5511 1458.52
      vertex -203.473 38.6094 1468.58
    endloop
  endfacet
  facet normal -0.967314 0.0301804 -0.251777
    outer loop
      vertex -203.473 38.6094 1468.58
      vertex -200.857 38.5511 1458.52
      vertex -201.807 34.9703 1461.74
    endloop
  endfacet
  facet normal -0.701564 0.664365 -0.257735
    outer loop
      vertex -163.942 137.871 1467.71
      vertex -158.973 143.229 1467.99
      vertex -156.935 141.208 1457.23
    endloop
  endfacet
  facet normal -0.671813 0.694431 -0.257748
    outer loop
      vertex -158.973 143.229 1467.99
      vertex -154.755 147.423 1468.29
      vertex -156.935 141.208 1457.23
    endloop
  endfacet
  facet normal -0.658754 0.703901 -0.265643
    outer loop
      vertex -156.935 141.208 1457.23
      vertex -154.755 147.423 1468.29
      vertex -148.597 149.011 1457.23
    endloop
  endfacet
  facet normal -0.646867 0.717992 -0.257002
    outer loop
      vertex -154.755 147.423 1468.29
      vertex -148.674 152.287 1466.58
      vertex -148.597 149.011 1457.23
    endloop
  endfacet
  facet normal -0.603023 0.751254 -0.268294
    outer loop
      vertex -148.597 149.011 1457.23
      vertex -148.674 152.287 1466.58
      vertex -139.69 156.16 1457.23
    endloop
  endfacet
  facet normal -0.573546 0.763802 -0.29606
    outer loop
      vertex -144.839 156.188 1469.21
      vertex -141.608 158.751 1469.57
      vertex -148.674 152.287 1466.58
    endloop
  endfacet
  facet normal -0.607606 0.764209 -0.216333
    outer loop
      vertex -141.608 158.751 1469.57
      vertex -141.481 158.573 1468.58
      vertex -148.674 152.287 1466.58
    endloop
  endfacet
  facet normal -0.594763 0.762097 -0.255863
    outer loop
      vertex -148.674 152.287 1466.58
      vertex -141.481 158.573 1468.58
      vertex -139.69 156.16 1457.23
    endloop
  endfacet
  facet normal -0.546242 0.797625 -0.255761
    outer loop
      vertex -141.481 158.573 1468.58
      vertex -131.87 165.155 1468.58
      vertex -139.69 156.16 1457.23
    endloop
  endfacet
  facet normal -0.546243 0.797625 -0.255761
    outer loop
      vertex -139.69 156.16 1457.23
      vertex -131.87 165.155 1468.58
      vertex -130.267 162.614 1457.23
    endloop
  endfacet
  facet normal -0.505871 0.823772 -0.255917
    outer loop
      vertex -131.87 165.155 1468.58
      vertex -124.947 168.304 1465.03
      vertex -130.267 162.614 1457.23
    endloop
  endfacet
  facet normal -0.517132 0.819956 -0.245451
    outer loop
      vertex -130.267 162.614 1457.23
      vertex -124.947 168.304 1465.03
      vertex -127.037 164.986 1458.35
    endloop
  endfacet
  facet normal -0.541873 0.77416 -0.327184
    outer loop
      vertex -129.366 161.183 1452.02
      vertex -137.4 153.075 1446.14
      vertex -139.69 156.16 1457.23
    endloop
  endfacet
  facet normal -0.59154 0.73695 -0.327086
    outer loop
      vertex -137.4 153.075 1446.14
      vertex -146.079 146.108 1446.14
      vertex -139.69 156.16 1457.23
    endloop
  endfacet
  facet normal -0.591541 0.736949 -0.327085
    outer loop
      vertex -139.69 156.16 1457.23
      vertex -146.079 146.108 1446.14
      vertex -148.597 149.011 1457.23
    endloop
  endfacet
  facet normal -0.64572 0.689972 -0.327085
    outer loop
      vertex -146.079 146.108 1446.14
      vertex -154.205 138.504 1446.14
      vertex -148.597 149.011 1457.23
    endloop
  endfacet
  facet normal -0.645718 0.689973 -0.327087
    outer loop
      vertex -148.597 149.011 1457.23
      vertex -154.205 138.504 1446.14
      vertex -156.935 141.208 1457.23
    endloop
  endfacet
  facet normal -0.696179 0.639022 -0.327087
    outer loop
      vertex -154.205 138.504 1446.14
      vertex -161.731 130.305 1446.14
      vertex -156.935 141.208 1457.23
    endloop
  endfacet
  facet normal -0.69618 0.639021 -0.327085
    outer loop
      vertex -156.935 141.208 1457.23
      vertex -161.731 130.305 1446.14
      vertex -164.658 132.794 1457.23
    endloop
  endfacet
  facet normal -0.742631 0.584392 -0.327085
    outer loop
      vertex -161.731 130.305 1446.14
      vertex -168.613 121.559 1446.14
      vertex -164.658 132.794 1457.23
    endloop
  endfacet
  facet normal -0.74263 0.584393 -0.327086
    outer loop
      vertex -164.658 132.794 1457.23
      vertex -168.613 121.559 1446.14
      vertex -171.721 123.819 1457.23
    endloop
  endfacet
  facet normal -0.784806 0.526397 -0.327086
    outer loop
      vertex -168.613 121.559 1446.14
      vertex -174.812 112.317 1446.14
      vertex -171.721 123.819 1457.23
    endloop
  endfacet
  facet normal -0.784806 0.526398 -0.327087
    outer loop
      vertex -171.721 123.819 1457.23
      vertex -174.812 112.317 1446.14
      vertex -178.082 114.334 1457.23
    endloop
  endfacet
  facet normal -0.822462 0.465371 -0.327087
    outer loop
      vertex -174.812 112.317 1446.14
      vertex -180.293 102.63 1446.14
      vertex -178.082 114.334 1457.23
    endloop
  endfacet
  facet normal -0.822462 0.465371 -0.327087
    outer loop
      vertex -178.082 114.334 1457.23
      vertex -180.293 102.63 1446.14
      vertex -183.707 104.394 1457.23
    endloop
  endfacet
  facet normal -0.855382 0.401667 -0.327087
    outer loop
      vertex -180.293 102.63 1446.14
      vertex -185.023 92.5567 1446.14
      vertex -183.707 104.394 1457.23
    endloop
  endfacet
  facet normal -0.855383 0.401666 -0.327086
    outer loop
      vertex -183.707 104.394 1457.23
      vertex -185.023 92.5567 1446.14
      vertex -188.561 94.0568 1457.23
    endloop
  endfacet
  facet normal -0.883378 0.335647 -0.327086
    outer loop
      vertex -185.023 92.5567 1446.14
      vertex -188.976 82.1533 1446.14
      vertex -188.561 94.0568 1457.23
    endloop
  endfacet
  facet normal -0.883378 0.335647 -0.327086
    outer loop
      vertex -188.561 94.0568 1457.23
      vertex -188.976 82.1533 1446.14
      vertex -192.617 83.3808 1457.23
    endloop
  endfacet
  facet normal -0.906285 0.267697 -0.327086
    outer loop
      vertex -188.976 82.1533 1446.14
      vertex -192.129 71.48 1446.14
      vertex -192.617 83.3808 1457.23
    endloop
  endfacet
  facet normal -0.906285 0.267697 -0.327086
    outer loop
      vertex -192.617 83.3808 1457.23
      vertex -192.129 71.48 1446.14
      vertex -195.853 72.4279 1457.23
    endloop
  endfacet
  facet normal -0.923975 0.198204 -0.327086
    outer loop
      vertex -192.129 71.48 1446.14
      vertex -194.463 60.5985 1446.14
      vertex -195.853 72.4279 1457.23
    endloop
  endfacet
  facet normal -0.923975 0.198203 -0.327086
    outer loop
      vertex -195.853 72.4279 1457.23
      vertex -194.463 60.5985 1446.14
      vertex -198.248 61.2612 1457.23
    endloop
  endfacet
  facet normal -0.935161 0.135767 -0.327172
    outer loop
      vertex -194.463 60.5985 1446.14
      vertex -195.692 52.1293 1446.14
      vertex -198.248 61.2612 1457.23
    endloop
  endfacet
  facet normal -0.938288 0.127834 -0.321362
    outer loop
      vertex -198.248 61.2612 1457.23
      vertex -195.692 52.1293 1446.14
      vertex -199.79 49.9451 1457.23
    endloop
  endfacet
  facet normal -0.937793 0.135461 -0.319678
    outer loop
      vertex -195.692 52.1293 1446.14
      vertex -196.83 49.6491 1448.42
      vertex -199.79 49.9451 1457.23
    endloop
  endfacet
  facet normal -0.943731 0.0837451 -0.319935
    outer loop
      vertex -199.79 49.9451 1457.23
      vertex -196.83 49.6491 1448.42
      vertex -199.166 43.7889 1453.78
    endloop
  endfacet
  facet normal -0.584536 0.707754 -0.39674
    outer loop
      vertex -137.608 147.149 1435.51
      vertex -143.027 142.588 1435.36
      vertex -146.079 146.108 1446.14
    endloop
  endfacet
  facet normal -0.627269 0.670258 -0.396595
    outer loop
      vertex -143.027 142.588 1435.36
      vertex -150.895 135.225 1435.36
      vertex -146.079 146.108 1446.14
    endloop
  endfacet
  facet normal -0.62727 0.670258 -0.396594
    outer loop
      vertex -146.079 146.108 1446.14
      vertex -150.895 135.225 1435.36
      vertex -154.205 138.504 1446.14
    endloop
  endfacet
  facet normal -0.676288 0.620764 -0.396594
    outer loop
      vertex -150.895 135.225 1435.36
      vertex -158.182 127.287 1435.36
      vertex -154.205 138.504 1446.14
    endloop
  endfacet
  facet normal -0.676288 0.620764 -0.396594
    outer loop
      vertex -154.205 138.504 1446.14
      vertex -158.182 127.287 1435.36
      vertex -161.731 130.305 1446.14
    endloop
  endfacet
  facet normal -0.721412 0.567695 -0.396594
    outer loop
      vertex -158.182 127.287 1435.36
      vertex -164.845 118.819 1435.36
      vertex -161.731 130.305 1446.14
    endloop
  endfacet
  facet normal -0.721412 0.567695 -0.396594
    outer loop
      vertex -161.731 130.305 1446.14
      vertex -164.845 118.819 1435.36
      vertex -168.613 121.559 1446.14
    endloop
  endfacet
  facet normal -0.762383 0.511357 -0.396594
    outer loop
      vertex -164.845 118.819 1435.36
      vertex -170.848 109.87 1435.36
      vertex -168.613 121.559 1446.14
    endloop
  endfacet
  facet normal -0.762382 0.511357 -0.396594
    outer loop
      vertex -168.613 121.559 1446.14
      vertex -170.848 109.87 1435.36
      vertex -174.812 112.317 1446.14
    endloop
  endfacet
  facet normal -0.798962 0.452075 -0.396594
    outer loop
      vertex -170.848 109.87 1435.36
      vertex -176.154 100.492 1435.36
      vertex -174.812 112.317 1446.14
    endloop
  endfacet
  facet normal -0.798963 0.452075 -0.396594
    outer loop
      vertex -174.812 112.317 1446.14
      vertex -176.154 100.492 1435.36
      vertex -180.293 102.63 1446.14
    endloop
  endfacet
  facet normal -0.830943 0.390189 -0.396594
    outer loop
      vertex -176.154 100.492 1435.36
      vertex -180.734 90.7379 1435.36
      vertex -180.293 102.63 1446.14
    endloop
  endfacet
  facet normal -0.830942 0.39019 -0.396595
    outer loop
      vertex -180.293 102.63 1446.14
      vertex -180.734 90.7379 1435.36
      vertex -185.023 92.5567 1446.14
    endloop
  endfacet
  facet normal -0.858137 0.326057 -0.396595
    outer loop
      vertex -180.734 90.7379 1435.36
      vertex -184.562 80.6649 1435.36
      vertex -185.023 92.5567 1446.14
    endloop
  endfacet
  facet normal -0.858138 0.326056 -0.396595
    outer loop
      vertex -185.023 92.5567 1446.14
      vertex -184.562 80.6649 1435.36
      vertex -188.976 82.1533 1446.14
    endloop
  endfacet
  facet normal -0.880391 0.260048 -0.396595
    outer loop
      vertex -184.562 80.6649 1435.36
      vertex -187.614 70.3308 1435.36
      vertex -188.976 82.1533 1446.14
    endloop
  endfacet
  facet normal -0.880391 0.260048 -0.396595
    outer loop
      vertex -188.976 82.1533 1446.14
      vertex -187.614 70.3308 1435.36
      vertex -192.129 71.48 1446.14
    endloop
  endfacet
  facet normal -0.894765 0.204924 -0.396738
    outer loop
      vertex -187.614 70.3308 1435.36
      vertex -189.13 63.6823 1435.35
      vertex -192.129 71.48 1446.14
    endloop
  endfacet
  facet normal -0.896808 0.200719 -0.394268
    outer loop
      vertex -192.129 71.48 1446.14
      vertex -189.13 63.6823 1435.35
      vertex -191.074 60.6357 1438.22
    endloop
  endfacet
  facet normal -0.626147 0.626495 -0.464159
    outer loop
      vertex -143.962 135.927 1426.96
      vertex -147.023 131.391 1424.96
      vertex -150.895 135.225 1435.36
    endloop
  endfacet
  facet normal -0.652634 0.599052 -0.463902
    outer loop
      vertex -147.023 131.391 1424.96
      vertex -154.03 123.757 1424.96
      vertex -150.895 135.225 1435.36
    endloop
  endfacet
  facet normal -0.652634 0.599052 -0.463902
    outer loop
      vertex -150.895 135.225 1435.36
      vertex -154.03 123.757 1424.96
      vertex -158.182 127.287 1435.36
    endloop
  endfacet
  facet normal -0.69618 0.547839 -0.463902
    outer loop
      vertex -154.03 123.757 1424.96
      vertex -160.438 115.614 1424.96
      vertex -158.182 127.287 1435.36
    endloop
  endfacet
  facet normal -0.69618 0.547839 -0.463902
    outer loop
      vertex -158.182 127.287 1435.36
      vertex -160.438 115.614 1424.96
      vertex -164.845 118.819 1435.36
    endloop
  endfacet
  facet normal -0.735717 0.493472 -0.463902
    outer loop
      vertex -160.438 115.614 1424.96
      vertex -166.21 107.009 1424.96
      vertex -164.845 118.819 1435.36
    endloop
  endfacet
  facet normal -0.735718 0.493472 -0.463901
    outer loop
      vertex -164.845 118.819 1435.36
      vertex -166.21 107.009 1424.96
      vertex -170.848 109.87 1435.36
    endloop
  endfacet
  facet normal -0.771019 0.436263 -0.463901
    outer loop
      vertex -166.21 107.009 1424.96
      vertex -171.313 97.99 1424.96
      vertex -170.848 109.87 1435.36
    endloop
  endfacet
  facet normal -0.771018 0.436264 -0.463902
    outer loop
      vertex -170.848 109.87 1435.36
      vertex -171.313 97.99 1424.96
      vertex -176.154 100.492 1435.36
    endloop
  endfacet
  facet normal -0.80188 0.376542 -0.463902
    outer loop
      vertex -171.313 97.99 1424.96
      vertex -175.718 88.6106 1424.96
      vertex -176.154 100.492 1435.36
    endloop
  endfacet
  facet normal -0.80188 0.376542 -0.463902
    outer loop
      vertex -176.154 100.492 1435.36
      vertex -175.718 88.6106 1424.96
      vertex -180.734 90.7379 1435.36
    endloop
  endfacet
  facet normal -0.828123 0.314654 -0.463902
    outer loop
      vertex -175.718 88.6106 1424.96
      vertex -179.398 78.9241 1424.96
      vertex -180.734 90.7379 1435.36
    endloop
  endfacet
  facet normal -0.828124 0.314653 -0.463901
    outer loop
      vertex -180.734 90.7379 1435.36
      vertex -179.398 78.9241 1424.96
      vertex -184.562 80.6649 1435.36
    endloop
  endfacet
  facet normal -0.844049 0.268667 -0.464111
    outer loop
      vertex -179.398 78.9241 1424.96
      vertex -180.784 74.5433 1424.95
      vertex -184.562 80.6649 1435.36
    endloop
  endfacet
  facet normal -0.852817 0.251903 -0.457437
    outer loop
      vertex -184.562 80.6649 1435.36
      vertex -180.784 74.5433 1424.95
      vertex -187.614 70.3308 1435.36
    endloop
  endfacet
  facet normal -0.851427 0.272166 -0.448328
    outer loop
      vertex -180.784 74.5433 1424.95
      vertex -184.859 69.618 1429.7
      vertex -187.614 70.3308 1435.36
    endloop
  endfacet
  facet normal -0.863104 0.231426 -0.448881
    outer loop
      vertex -187.614 70.3308 1435.36
      vertex -184.859 69.618 1429.7
      vertex -185.674 68.5542 1430.72
    endloop
  endfacet
  facet normal 0.883619 -0.466039 -0.0450032
    outer loop
      vertex -123.978 169.801 1468.55
      vertex -123.11 171.114 1472.01
      vertex -155.477 109.448 1475.08
    endloop
  endfacet
  facet normal 0.883619 -0.466039 -0.0450022
    outer loop
      vertex -166.872 88.1269 1472.14
      vertex -168.242 85.4549 1472.9
      vertex -172.343 83.1244 1416.52
    endloop
  endfacet
  facet normal 0.883619 -0.466039 -0.0450022
    outer loop
      vertex -168.242 85.4549 1472.9
      vertex -169.569 82.8428 1473.92
      vertex -172.343 83.1244 1416.52
    endloop
  endfacet
  facet normal 0.883619 -0.466039 -0.0450038
    outer loop
      vertex -204.421 16.2033 1479.71
      vertex -204.19 16.8291 1477.77
      vertex -172.053 77.8688 1476.64
    endloop
  endfacet
  facet normal 0.883619 -0.466039 -0.0450022
    outer loop
      vertex -204.19 16.8291 1477.77
      vertex -172.343 83.1244 1416.52
      vertex -172.053 77.8688 1476.64
    endloop
  endfacet
  facet normal 0.883619 -0.466039 -0.0450022
    outer loop
      vertex -172.053 77.8688 1476.64
      vertex -172.343 83.1244 1416.52
      vertex -170.842 80.3083 1475.17
    endloop
  endfacet
  facet normal 0.883619 -0.46604 -0.0450022
    outer loop
      vertex -172.343 83.1244 1416.52
      vertex -169.569 82.8428 1473.92
      vertex -170.842 80.3083 1475.17
    endloop
  endfacet
  facet normal 0.884026 -0.465438 -0.0431925
    outer loop
      vertex -155.477 109.448 1475.08
      vertex -129.366 161.183 1452.02
      vertex -129.365 161.185 1452.02
    endloop
  endfacet
  facet normal 0.88362 -0.466037 -0.0450021
    outer loop
      vertex -166.009 95.2467 1415.35
      vertex -162.592 96.3191 1471.35
      vertex -164.037 93.5775 1471.36
    endloop
  endfacet
  facet normal 0.883619 -0.466039 -0.0450027
    outer loop
      vertex -134.668 152.235 1440.56
      vertex -131.914 156.925 1446.08
      vertex -155.477 109.448 1475.08
    endloop
  endfacet
  facet normal 0.883652 -0.465987 -0.0448904
    outer loop
      vertex -131.914 156.925 1446.08
      vertex -131.886 156.973 1446.14
      vertex -155.477 109.448 1475.08
    endloop
  endfacet
  facet normal 0.883619 -0.466039 -0.0450031
    outer loop
      vertex -155.477 109.448 1475.08
      vertex -131.886 156.973 1446.14
      vertex -129.366 161.183 1452.02
    endloop
  endfacet
  facet normal 0.883619 -0.466038 -0.0450024
    outer loop
      vertex -166.872 88.1269 1472.14
      vertex -172.343 83.1244 1416.52
      vertex -165.467 90.8406 1471.62
    endloop
  endfacet
  facet normal 0.883619 -0.466039 -0.0450022
    outer loop
      vertex -172.343 83.1244 1416.52
      vertex -170.623 86.4357 1416
      vertex -165.467 90.8406 1471.62
    endloop
  endfacet
  facet normal 0.883619 -0.466039 -0.0450022
    outer loop
      vertex -165.467 90.8406 1471.62
      vertex -170.623 86.4357 1416
      vertex -164.037 93.5775 1471.36
    endloop
  endfacet
  facet normal 0.883619 -0.466038 -0.0450024
    outer loop
      vertex -170.623 86.4357 1416
      vertex -168.791 89.9468 1415.62
      vertex -164.037 93.5775 1471.36
    endloop
  endfacet
  facet normal 0.883618 -0.46604 -0.0450022
    outer loop
      vertex -164.037 93.5775 1471.36
      vertex -168.791 89.9468 1415.62
      vertex -166.009 95.2467 1415.35
    endloop
  endfacet
  facet normal 0.88362 -0.466037 -0.045001
    outer loop
      vertex -155.477 109.448 1475.08
      vertex -141.306 140.653 1430.18
      vertex -140.713 141.701 1430.97
    endloop
  endfacet
  facet normal 0.883619 -0.46604 -0.0450037
    outer loop
      vertex -129.365 161.185 1452.02
      vertex -127.037 164.986 1458.35
      vertex -155.477 109.448 1475.08
    endloop
  endfacet
  facet normal 0.883619 -0.466039 -0.0450016
    outer loop
      vertex -127.037 164.986 1458.35
      vertex -124.947 168.304 1465.03
      vertex -155.477 109.448 1475.08
    endloop
  endfacet
  facet normal 0.883619 -0.466039 -0.0450005
    outer loop
      vertex -155.477 109.448 1475.08
      vertex -124.947 168.304 1465.03
      vertex -123.978 169.801 1468.55
    endloop
  endfacet
  facet normal 0.883621 -0.466035 -0.0450023
    outer loop
      vertex -166.009 95.2467 1415.35
      vertex -165.191 96.7986 1415.35
      vertex -162.592 96.3191 1471.35
    endloop
  endfacet
  facet normal 0.883619 -0.466039 -0.0450022
    outer loop
      vertex -165.191 96.7986 1415.35
      vertex -161.567 103.633 1415.72
      vertex -162.592 96.3191 1471.35
    endloop
  endfacet
  facet normal 0.883618 -0.466041 -0.0450025
    outer loop
      vertex -162.592 96.3191 1471.35
      vertex -161.567 103.633 1415.72
      vertex -161.141 99.0465 1471.59
    endloop
  endfacet
  facet normal 0.883619 -0.46604 -0.0450027
    outer loop
      vertex -156.853 106.96 1473.84
      vertex -147.333 129.869 1423.51
      vertex -155.477 109.448 1475.08
    endloop
  endfacet
  facet normal 0.883618 -0.46604 -0.0450028
    outer loop
      vertex -147.333 129.869 1423.51
      vertex -143.962 135.927 1426.96
      vertex -155.477 109.448 1475.08
    endloop
  endfacet
  facet normal 0.883619 -0.466038 -0.0450017
    outer loop
      vertex -155.477 109.448 1475.08
      vertex -143.962 135.927 1426.96
      vertex -141.306 140.653 1430.18
    endloop
  endfacet
  facet normal 0.883619 -0.466039 -0.0450026
    outer loop
      vertex -140.713 141.701 1430.97
      vertex -137.608 147.149 1435.51
      vertex -155.477 109.448 1475.08
    endloop
  endfacet
  facet normal 0.883619 -0.46604 -0.0450032
    outer loop
      vertex -137.608 147.149 1435.51
      vertex -135.565 150.692 1438.94
      vertex -155.477 109.448 1475.08
    endloop
  endfacet
  facet normal 0.883619 -0.46604 -0.0450029
    outer loop
      vertex -155.477 109.448 1475.08
      vertex -135.565 150.692 1438.94
      vertex -134.668 152.235 1440.56
    endloop
  endfacet
  facet normal 0.883619 -0.466039 -0.0450022
    outer loop
      vertex -159.694 101.741 1472.1
      vertex -154.349 117.063 1418.38
      vertex -158.261 104.385 1472.85
    endloop
  endfacet
  facet normal 0.883618 -0.46604 -0.0450026
    outer loop
      vertex -154.349 117.063 1418.38
      vertex -151.744 121.848 1419.98
      vertex -158.261 104.385 1472.85
    endloop
  endfacet
  facet normal 0.883619 -0.46604 -0.0450024
    outer loop
      vertex -158.261 104.385 1472.85
      vertex -151.744 121.848 1419.98
      vertex -156.853 106.96 1473.84
    endloop
  endfacet
  facet normal 0.88362 -0.466037 -0.0450013
    outer loop
      vertex -151.744 121.848 1419.98
      vertex -150.804 123.566 1420.64
      vertex -156.853 106.96 1473.84
    endloop
  endfacet
  facet normal 0.883619 -0.466039 -0.0450021
    outer loop
      vertex -156.853 106.96 1473.84
      vertex -150.804 123.566 1420.64
      vertex -147.333 129.869 1423.51
    endloop
  endfacet
  facet normal 0.883621 -0.466035 -0.045002
    outer loop
      vertex -161.567 103.633 1415.72
      vertex -161.361 104.02 1415.76
      vertex -161.141 99.0465 1471.59
    endloop
  endfacet
  facet normal 0.883619 -0.466039 -0.0450024
    outer loop
      vertex -161.361 104.02 1415.76
      vertex -157.945 110.403 1416.74
      vertex -161.141 99.0465 1471.59
    endloop
  endfacet
  facet normal 0.883618 -0.46604 -0.0450025
    outer loop
      vertex -161.141 99.0465 1471.59
      vertex -157.945 110.403 1416.74
      vertex -159.694 101.741 1472.1
    endloop
  endfacet
  facet normal 0.883618 -0.46604 -0.0450025
    outer loop
      vertex -157.945 110.403 1416.74
      vertex -156.62 112.865 1417.27
      vertex -159.694 101.741 1472.1
    endloop
  endfacet
  facet normal 0.883619 -0.466039 -0.0450023
    outer loop
      vertex -159.694 101.741 1472.1
      vertex -156.62 112.865 1417.27
      vertex -154.349 117.063 1418.38
    endloop
  endfacet
  facet normal 0.911659 -0.362498 0.193578
    outer loop
      vertex -169.569 82.8428 1473.92
      vertex -168.696 86.14 1475.98
      vertex -170.842 80.3083 1475.17
    endloop
  endfacet
  facet normal 0.919247 -0.360373 0.15848
    outer loop
      vertex -168.696 86.14 1475.98
      vertex -172.053 77.8688 1476.64
      vertex -170.842 80.3083 1475.17
    endloop
  endfacet
  facet normal 0.901827 -0.374099 0.216238
    outer loop
      vertex -169.569 82.8428 1473.92
      vertex -168.242 85.4549 1472.9
      vertex -168.696 86.14 1475.98
    endloop
  endfacet
  facet normal 0.892286 -0.394579 0.21939
    outer loop
      vertex -168.242 85.4549 1472.9
      vertex -166.872 88.1269 1472.14
      vertex -168.696 86.14 1475.98
    endloop
  endfacet
  facet normal 0.885762 -0.416406 0.205018
    outer loop
      vertex -168.696 86.14 1475.98
      vertex -166.872 88.1269 1472.14
      vertex -164.802 94.185 1475.5
    endloop
  endfacet
  facet normal 0.884151 -0.41795 0.208792
    outer loop
      vertex -166.872 88.1269 1472.14
      vertex -165.467 90.8406 1471.62
      vertex -164.802 94.185 1475.5
    endloop
  endfacet
  facet normal 0.872348 -0.434146 0.22478
    outer loop
      vertex -165.467 90.8406 1471.62
      vertex -164.037 93.5775 1471.36
      vertex -164.802 94.185 1475.5
    endloop
  endfacet
  facet normal 0.862024 -0.453815 0.225757
    outer loop
      vertex -164.037 93.5775 1471.36
      vertex -162.592 96.3191 1471.35
      vertex -164.802 94.185 1475.5
    endloop
  endfacet
  facet normal 0.853938 -0.476129 0.20998
    outer loop
      vertex -164.802 94.185 1475.5
      vertex -162.592 96.3191 1471.35
      vertex -160.389 101.966 1475.2
    endloop
  endfacet
  facet normal 0.856101 -0.474088 0.205747
    outer loop
      vertex -162.592 96.3191 1471.35
      vertex -161.141 99.0465 1471.59
      vertex -160.389 101.966 1475.2
    endloop
  endfacet
  facet normal 0.840647 -0.492964 0.224276
    outer loop
      vertex -160.389 101.966 1475.2
      vertex -161.141 99.0465 1471.59
      vertex -159.694 101.741 1472.1
    endloop
  endfacet
  facet normal 0.829118 -0.512622 0.223118
    outer loop
      vertex -159.694 101.741 1472.1
      vertex -158.261 104.385 1472.85
      vertex -160.389 101.966 1475.2
    endloop
  endfacet
  facet normal 0.824257 -0.529015 0.201849
    outer loop
      vertex -158.261 104.385 1472.85
      vertex -156.853 106.96 1473.84
      vertex -160.389 101.966 1475.2
    endloop
  endfacet
  facet normal 0.825395 -0.539176 0.167371
    outer loop
      vertex -160.389 101.966 1475.2
      vertex -156.853 106.96 1473.84
      vertex -155.477 109.448 1475.08
    endloop
  endfacet
endsolid Mesh
