solid Mesh
  facet normal 0.127505 0.113164 -0.985361
    outer loop
      vertex 82.4227 -115.449 1317.45
      vertex 68.7354 -94.4871 1318.08
      vertex 77.2785 -92.6358 1319.4
    endloop
  endfacet
  facet normal 0.127509 0.113165 -0.985361
    outer loop
      vertex 77.2785 -92.6358 1319.4
      vertex 85.6391 -90.1119 1320.77
      vertex 82.4227 -115.449 1317.45
    endloop
  endfacet
  facet normal 0.127497 0.113166 -0.985362
    outer loop
      vertex 85.6391 -90.1119 1320.77
      vertex 93.7648 -86.9312 1322.19
      vertex 82.4227 -115.449 1317.45
    endloop
  endfacet
  facet normal 0.127523 0.113155 -0.98536
    outer loop
      vertex 82.4227 -115.449 1317.45
      vertex 93.7648 -86.9312 1322.19
      vertex 101.605 -83.1136 1323.64
    endloop
  endfacet
  facet normal 0.825942 -0.41735 -0.378998
    outer loop
      vertex 118.484 -188.065 1476
      vertex 123.702 -186.302 1485.43
      vertex 99.4419 -223.339 1473.35
    endloop
  endfacet
  facet normal 0.825942 -0.417349 -0.378999
    outer loop
      vertex 92.4859 -112.1 1335.69
      vertex 90.3874 -121.279 1341.22
      vertex 82.4227 -115.449 1317.45
    endloop
  endfacet
  facet normal 0.82594 -0.417348 -0.379003
    outer loop
      vertex 101.605 -83.1136 1323.64
      vertex 98.1149 -92.948 1326.87
      vertex 82.4227 -115.449 1317.45
    endloop
  endfacet
  facet normal 0.825941 -0.417351 -0.378997
    outer loop
      vertex 98.1149 -92.948 1326.87
      vertex 95.0679 -102.633 1330.89
      vertex 82.4227 -115.449 1317.45
    endloop
  endfacet
  facet normal 0.82594 -0.41735 -0.379001
    outer loop
      vertex 87.4816 -140.83 1356.42
      vertex 87.1265 -146.443 1361.83
      vertex 67.4276 -193.319 1370.52
    endloop
  endfacet
  facet normal 0.825943 -0.417351 -0.378994
    outer loop
      vertex 87.1265 -146.443 1361.83
      vertex 87.0493 -152.662 1368.51
      vertex 67.4276 -193.319 1370.52
    endloop
  endfacet
  facet normal 0.825944 -0.417351 -0.378991
    outer loop
      vertex 67.4276 -193.319 1370.52
      vertex 87.0493 -152.662 1368.51
      vertex 87.0772 -153.839 1369.87
    endloop
  endfacet
  facet normal 0.825942 -0.417339 -0.379009
    outer loop
      vertex 95.0679 -102.633 1330.89
      vertex 94.9544 -103.02 1331.07
      vertex 82.4227 -115.449 1317.45
    endloop
  endfacet
  facet normal 0.825941 -0.417349 -0.378999
    outer loop
      vertex 94.9544 -103.02 1331.07
      vertex 92.8362 -110.722 1334.94
      vertex 82.4227 -115.449 1317.45
    endloop
  endfacet
  facet normal 0.825939 -0.417357 -0.378996
    outer loop
      vertex 82.4227 -115.449 1317.45
      vertex 92.8362 -110.722 1334.94
      vertex 92.4859 -112.1 1335.69
    endloop
  endfacet
  facet normal 0.825944 -0.41735 -0.378994
    outer loop
      vertex 83.1109 -220.018 1434.1
      vertex 81.2513 -218.799 1428.7
      vertex 97.5055 -184.311 1426.15
    endloop
  endfacet
  facet normal 0.825942 -0.41735 -0.378997
    outer loop
      vertex 97.5055 -184.311 1426.15
      vertex 100.914 -186.729 1436.24
      vertex 83.1109 -220.018 1434.1
    endloop
  endfacet
  facet normal 0.825942 -0.41735 -0.378997
    outer loop
      vertex 100.914 -186.729 1436.24
      vertex 101.995 -187.283 1439.2
      vertex 83.1109 -220.018 1434.1
    endloop
  endfacet
  facet normal 0.825942 -0.41735 -0.378998
    outer loop
      vertex 83.1109 -220.018 1434.1
      vertex 101.995 -187.283 1439.2
      vertex 88.0437 -222.227 1447.28
    endloop
  endfacet
  facet normal 0.825941 -0.41735 -0.378999
    outer loop
      vertex 101.995 -187.283 1439.2
      vertex 104.745 -188.322 1446.34
      vertex 88.0437 -222.227 1447.28
    endloop
  endfacet
  facet normal 0.825941 -0.41735 -0.378999
    outer loop
      vertex 88.0437 -222.227 1447.28
      vertex 104.745 -188.322 1446.34
      vertex 92.5543 -223.228 1458.21
    endloop
  endfacet
  facet normal 0.825942 -0.417349 -0.378998
    outer loop
      vertex 104.745 -188.322 1446.34
      vertex 108.272 -189.015 1454.79
      vertex 92.5543 -223.228 1458.21
    endloop
  endfacet
  facet normal 0.825944 -0.41735 -0.378992
    outer loop
      vertex 92.5543 -223.228 1458.21
      vertex 108.272 -189.015 1454.79
      vertex 93.5007 -223.337 1460.4
    endloop
  endfacet
  facet normal 0.825938 -0.41735 -0.379007
    outer loop
      vertex 108.272 -189.015 1454.79
      vertex 108.971 -189.079 1456.38
      vertex 93.5007 -223.337 1460.4
    endloop
  endfacet
  facet normal 0.825941 -0.41735 -0.378999
    outer loop
      vertex 93.5007 -223.337 1460.4
      vertex 108.971 -189.079 1456.38
      vertex 99.4419 -223.339 1473.35
    endloop
  endfacet
  facet normal 0.825942 -0.41735 -0.378997
    outer loop
      vertex 108.971 -189.079 1456.38
      vertex 113.562 -188.993 1466.29
      vertex 99.4419 -223.339 1473.35
    endloop
  endfacet
  facet normal 0.825942 -0.41735 -0.378998
    outer loop
      vertex 99.4419 -223.339 1473.35
      vertex 113.562 -188.993 1466.29
      vertex 118.484 -188.065 1476
    endloop
  endfacet
  facet normal 0.82594 -0.417352 -0.378999
    outer loop
      vertex 90.3874 -121.279 1341.22
      vertex 88.7876 -130.104 1347.46
      vertex 82.4227 -115.449 1317.45
    endloop
  endfacet
  facet normal 0.825942 -0.41735 -0.378998
    outer loop
      vertex 88.7876 -130.104 1347.46
      vertex 88.2367 -133.92 1350.46
      vertex 82.4227 -115.449 1317.45
    endloop
  endfacet
  facet normal 0.825941 -0.41735 -0.378998
    outer loop
      vertex 82.4227 -115.449 1317.45
      vertex 88.2367 -133.92 1350.46
      vertex 67.4276 -193.319 1370.52
    endloop
  endfacet
  facet normal 0.82594 -0.417351 -0.379001
    outer loop
      vertex 88.2367 -133.92 1350.46
      vertex 87.698 -138.513 1354.34
      vertex 67.4276 -193.319 1370.52
    endloop
  endfacet
  facet normal 0.825944 -0.41735 -0.378992
    outer loop
      vertex 67.4276 -193.319 1370.52
      vertex 87.698 -138.513 1354.34
      vertex 87.4816 -140.83 1356.42
    endloop
  endfacet
  facet normal 0.825941 -0.41735 -0.378999
    outer loop
      vertex 87.0772 -153.839 1369.87
      vertex 87.5504 -160.647 1378.39
      vertex 67.4276 -193.319 1370.52
    endloop
  endfacet
  facet normal 0.825941 -0.417349 -0.378999
    outer loop
      vertex 87.5504 -160.647 1378.39
      vertex 88.5427 -166.817 1387.35
      vertex 67.4276 -193.319 1370.52
    endloop
  endfacet
  facet normal 0.825942 -0.41735 -0.378998
    outer loop
      vertex 67.4276 -193.319 1370.52
      vertex 88.5427 -166.817 1387.35
      vertex 69.2823 -200.627 1382.61
    endloop
  endfacet
  facet normal 0.825942 -0.417349 -0.378997
    outer loop
      vertex 81.2513 -218.799 1428.7
      vertex 80.7683 -218.442 1427.26
      vertex 97.5055 -184.311 1426.15
    endloop
  endfacet
  facet normal 0.825941 -0.417349 -0.379
    outer loop
      vertex 80.7683 -218.442 1427.26
      vertex 78.7385 -216.725 1420.94
      vertex 97.5055 -184.311 1426.15
    endloop
  endfacet
  facet normal 0.825942 -0.41735 -0.378996
    outer loop
      vertex 97.5055 -184.311 1426.15
      vertex 78.7385 -216.725 1420.94
      vertex 94.5447 -181.084 1416.14
    endloop
  endfacet
  facet normal 0.825942 -0.41735 -0.378997
    outer loop
      vertex 78.7385 -216.725 1420.94
      vertex 76.1537 -213.943 1412.25
      vertex 94.5447 -181.084 1416.14
    endloop
  endfacet
  facet normal 0.82594 -0.417349 -0.379003
    outer loop
      vertex 94.5447 -181.084 1416.14
      vertex 76.1537 -213.943 1412.25
      vertex 93.5486 -179.662 1412.4
    endloop
  endfacet
  facet normal 0.825942 -0.41735 -0.378997
    outer loop
      vertex 76.1537 -213.943 1412.25
      vertex 74.9586 -212.373 1407.91
      vertex 93.5486 -179.662 1412.4
    endloop
  endfacet
  facet normal 0.825944 -0.417352 -0.378991
    outer loop
      vertex 93.5486 -179.662 1412.4
      vertex 74.9586 -212.373 1407.91
      vertex 92.7434 -178.346 1409.2
    endloop
  endfacet
  facet normal 0.825942 -0.41735 -0.378997
    outer loop
      vertex 74.9586 -212.373 1407.91
      vertex 72.3809 -208.152 1397.65
      vertex 92.7434 -178.346 1409.2
    endloop
  endfacet
  facet normal 0.82594 -0.417346 -0.379005
    outer loop
      vertex 92.7434 -178.346 1409.2
      vertex 72.3809 -208.152 1397.65
      vertex 92.0526 -177.073 1406.29
    endloop
  endfacet
  facet normal 0.825941 -0.417348 -0.379001
    outer loop
      vertex 72.3809 -208.152 1397.65
      vertex 71.7988 -206.994 1395.1
      vertex 92.0526 -177.073 1406.29
    endloop
  endfacet
  facet normal 0.825942 -0.41735 -0.378998
    outer loop
      vertex 92.0526 -177.073 1406.29
      vertex 71.7988 -206.994 1395.1
      vertex 90.0471 -172.306 1396.67
    endloop
  endfacet
  facet normal 0.825942 -0.41735 -0.378998
    outer loop
      vertex 71.7988 -206.994 1395.1
      vertex 69.2823 -200.627 1382.61
      vertex 90.0471 -172.306 1396.67
    endloop
  endfacet
  facet normal 0.825942 -0.417352 -0.378995
    outer loop
      vertex 90.0471 -172.306 1396.67
      vertex 69.2823 -200.627 1382.61
      vertex 89.7394 -171.371 1394.97
    endloop
  endfacet
  facet normal 0.825942 -0.417351 -0.378996
    outer loop
      vertex 69.2823 -200.627 1382.61
      vertex 88.5427 -166.817 1387.35
      vertex 89.7394 -171.371 1394.97
    endloop
  endfacet
  facet normal -0.0755346 0.879267 0.470301
    outer loop
      vertex 48.3678 -181.762 1394.98
      vertex 33.959 -183 1394.98
      vertex 34.3014 -190.576 1409.2
    endloop
  endfacet
  facet normal -0.139961 0.831504 0.537598
    outer loop
      vertex 60.845 -170.878 1381.39
      vertex 47.2765 -173.162 1381.39
      vertex 48.3678 -181.762 1394.98
    endloop
  endfacet
  facet normal -0.195935 0.77437 0.601631
    outer loop
      vertex 71.4255 -158.203 1368.52
      vertex 58.8486 -161.386 1368.52
      vertex 60.845 -170.878 1381.39
    endloop
  endfacet
  facet normal -0.254103 0.584718 0.770413
    outer loop
      vertex 80.5044 -117.627 1334.97
      vertex 71.1834 -121.678 1334.97
      vertex 75.6677 -133.259 1345.24
    endloop
  endfacet
  facet normal -0.233444 0.53718 0.810519
    outer loop
      vertex 71.1834 -121.678 1334.97
      vertex 80.5044 -117.627 1334.97
      vertex 67.96 -113.399 1328.56
    endloop
  endfacet
  facet normal -0.169284 0.619274 0.766709
    outer loop
      vertex 62.8379 -137.965 1345.63
      vertex 65.0967 -136.867 1345.24
      vertex 65.5996 -127.785 1338.02
    endloop
  endfacet
  facet normal -0.376774 0.904091 0.201647
    outer loop
      vertex 108.971 -189.079 1456.38
      vertex 108.272 -189.015 1454.79
      vertex 98.7853 -192.965 1454.78
    endloop
  endfacet
  facet normal -0.35916 0.893798 0.26857
    outer loop
      vertex 104.745 -188.322 1446.34
      vertex 101.995 -187.283 1439.2
      vertex 97.3118 -189.159 1439.19
    endloop
  endfacet
  facet normal -0.295056 0.901782 0.315802
    outer loop
      vertex 100.914 -186.729 1436.24
      vertex 97.5055 -184.311 1426.15
      vertex 95.4043 -184.233 1423.96
    endloop
  endfacet
  facet normal -0.291511 0.856863 0.425215
    outer loop
      vertex 93.5486 -179.662 1412.4
      vertex 92.7434 -178.346 1409.2
      vertex 78.8058 -183.085 1409.2
    endloop
  endfacet
  facet normal -0.283034 0.674636 0.681732
    outer loop
      vertex 87.1265 -146.443 1361.83
      vertex 87.4816 -140.83 1356.42
      vertex 79.8495 -144.06 1356.45
    endloop
  endfacet
  facet normal -0.38472 0.407962 0.827984
    outer loop
      vertex 101.605 -83.1136 1323.64
      vertex 97.6552 -91.0216 1325.7
      vertex 98.1149 -92.948 1326.87
    endloop
  endfacet
  facet normal -0.350211 0.396146 0.848776
    outer loop
      vertex 101.605 -83.1136 1323.64
      vertex 93.7648 -86.9312 1322.19
      vertex 97.6552 -91.0216 1325.7
    endloop
  endfacet
  facet normal -0.315202 0.427963 0.847051
    outer loop
      vertex 93.7648 -86.9312 1322.19
      vertex 85.6391 -90.1119 1320.77
      vertex 97.6552 -91.0216 1325.7
    endloop
  endfacet
  facet normal -0.318153 0.415789 0.851996
    outer loop
      vertex 97.6552 -91.0216 1325.7
      vertex 85.6391 -90.1119 1320.77
      vertex 90.4323 -96.5484 1325.7
    endloop
  endfacet
  facet normal -0.274711 0.447437 0.851078
    outer loop
      vertex 85.6391 -90.1119 1320.77
      vertex 77.2785 -92.6358 1319.4
      vertex 90.4323 -96.5484 1325.7
    endloop
  endfacet
  facet normal -0.280376 0.43543 0.855448
    outer loop
      vertex 90.4323 -96.5484 1325.7
      vertex 77.2785 -92.6358 1319.4
      vertex 82.7855 -101.472 1325.7
    endloop
  endfacet
  facet normal -0.232504 0.464567 0.85447
    outer loop
      vertex 77.2785 -92.6358 1319.4
      vertex 68.7354 -94.4871 1318.08
      vertex 82.7855 -101.472 1325.7
    endloop
  endfacet
  facet normal -0.241429 0.451528 0.858973
    outer loop
      vertex 82.7855 -101.472 1325.7
      vertex 68.7354 -94.4871 1318.08
      vertex 74.7651 -105.761 1325.7
    endloop
  endfacet
  facet normal -0.224172 0.460646 0.858809
    outer loop
      vertex 68.7354 -94.4871 1318.08
      vertex 68.5587 -105.969 1324.2
      vertex 74.7651 -105.761 1325.7
    endloop
  endfacet
  facet normal -0.220818 0.495245 0.840222
    outer loop
      vertex 74.7651 -105.761 1325.7
      vertex 68.5587 -105.969 1324.2
      vertex 68.3922 -108.597 1325.7
    endloop
  endfacet
  facet normal -0.288374 0.443425 0.848655
    outer loop
      vertex 98.1149 -92.948 1326.87
      vertex 97.6552 -91.0216 1325.7
      vertex 95.0679 -102.633 1330.89
    endloop
  endfacet
  facet normal -0.341094 0.445771 0.827613
    outer loop
      vertex 97.6552 -91.0216 1325.7
      vertex 90.4323 -96.5484 1325.7
      vertex 95.0679 -102.633 1330.89
    endloop
  endfacet
  facet normal -0.305793 0.472017 0.826855
    outer loop
      vertex 95.0679 -102.633 1330.89
      vertex 90.4323 -96.5484 1325.7
      vertex 94.9544 -103.02 1331.07
    endloop
  endfacet
  facet normal -0.304502 0.472898 0.826829
    outer loop
      vertex 90.4323 -96.5484 1325.7
      vertex 82.7855 -101.472 1325.7
      vertex 94.9544 -103.02 1331.07
    endloop
  endfacet
  facet normal -0.298043 0.492331 0.81779
    outer loop
      vertex 94.9544 -103.02 1331.07
      vertex 82.7855 -101.472 1325.7
      vertex 92.8362 -110.722 1334.94
    endloop
  endfacet
  facet normal -0.222878 0.644558 0.731348
    outer loop
      vertex 87.698 -138.513 1354.34
      vertex 88.2367 -133.92 1350.46
      vertex 85.9118 -128.808 1345.24
    endloop
  endfacet
  facet normal -0.285444 0.617627 0.732842
    outer loop
      vertex 88.2367 -133.92 1350.46
      vertex 88.7876 -130.104 1347.46
      vertex 85.9118 -128.808 1345.24
    endloop
  endfacet
  facet normal -0.312125 0.585121 0.748473
    outer loop
      vertex 85.9118 -128.808 1345.24
      vertex 88.7876 -130.104 1347.46
      vertex 90.3874 -121.279 1341.22
    endloop
  endfacet
  facet normal -0.253733 0.709432 0.657515
    outer loop
      vertex 87.1265 -146.443 1361.83
      vertex 79.8495 -144.06 1356.45
      vertex 87.0493 -152.662 1368.51
    endloop
  endfacet
  facet normal -0.278789 0.836106 0.472444
    outer loop
      vertex 92.0526 -177.073 1406.29
      vertex 90.0471 -172.306 1396.67
      vertex 76.6492 -175.814 1394.98
    endloop
  endfacet
  facet normal -0.278074 0.819586 0.500953
    outer loop
      vertex 90.0471 -172.306 1396.67
      vertex 89.7394 -171.371 1394.97
      vertex 76.6492 -175.814 1394.98
    endloop
  endfacet
  facet normal -0.273531 0.806214 0.524595
    outer loop
      vertex 76.6492 -175.814 1394.98
      vertex 89.7394 -171.371 1394.97
      vertex 88.5427 -166.817 1387.35
    endloop
  endfacet
  facet normal -0.37425 0.912448 0.165456
    outer loop
      vertex 108.971 -189.079 1456.38
      vertex 98.7853 -192.965 1454.78
      vertex 113.562 -188.993 1466.29
    endloop
  endfacet
  facet normal -0.320583 0.939348 0.121872
    outer loop
      vertex 99.8158 -195.626 1470.64
      vertex 84.1154 -200.985 1470.64
      vertex 84.3627 -201.795 1477.53
    endloop
  endfacet
  facet normal -0.307464 0.939446 0.151348
    outer loop
      vertex 84.3627 -201.795 1477.53
      vertex 91.9988 -199.512 1478.88
      vertex 99.8158 -195.626 1470.64
    endloop
  endfacet
  facet normal -0.342398 0.932499 0.114934
    outer loop
      vertex 91.9988 -199.512 1478.88
      vertex 100.231 -196.68 1480.42
      vertex 99.8158 -195.626 1470.64
    endloop
  endfacet
  facet normal -0.395925 0.911066 0.114899
    outer loop
      vertex 99.8158 -195.626 1470.64
      vertex 100.231 -196.68 1480.42
      vertex 115.031 -189.014 1470.64
    endloop
  endfacet
  facet normal -0.384895 0.913281 0.133316
    outer loop
      vertex 100.231 -196.68 1480.42
      vertex 108.157 -193.571 1482.01
      vertex 115.031 -189.014 1470.64
    endloop
  endfacet
  facet normal -0.419972 0.901176 0.107266
    outer loop
      vertex 115.031 -189.014 1470.64
      vertex 108.157 -193.571 1482.01
      vertex 115.646 -190.271 1483.6
    endloop
  endfacet
  facet normal -0.150867 0.963543 0.220963
    outer loop
      vertex 51.7135 -208.084 1472.71
      vertex 58.3156 -207.248 1473.57
      vertex 68.0326 -205.054 1470.64
    endloop
  endfacet
  facet normal -0.181479 0.975017 0.128087
    outer loop
      vertex 58.3156 -207.248 1473.57
      vertex 68.1535 -205.599 1474.96
      vertex 68.0326 -205.054 1470.64
    endloop
  endfacet
  facet normal -0.243273 0.961461 0.128106
    outer loop
      vertex 68.0326 -205.054 1470.64
      vertex 68.1535 -205.599 1474.96
      vertex 84.1154 -200.985 1470.64
    endloop
  endfacet
  facet normal -0.228925 0.957284 0.176636
    outer loop
      vertex 68.1535 -205.599 1474.96
      vertex 75.3447 -204.082 1476.06
      vertex 84.1154 -200.985 1470.64
    endloop
  endfacet
  facet normal -0.262709 0.957145 0.121888
    outer loop
      vertex 84.1154 -200.985 1470.64
      vertex 75.3447 -204.082 1476.06
      vertex 84.3627 -201.795 1477.53
    endloop
  endfacet
  facet normal -0.0278722 0.993929 0.106435
    outer loop
      vertex 23.6294 -209.284 1469.66
      vertex 41.0354 -208.986 1471.43
      vertex 37.7665 -208.722 1468.11
    endloop
  endfacet
  facet normal -0.104191 0.97807 0.180344
    outer loop
      vertex 41.0354 -208.986 1471.43
      vertex 51.7135 -208.084 1472.71
      vertex 37.7665 -208.722 1468.11
    endloop
  endfacet
  facet normal -0.089143 0.987042 0.133423
    outer loop
      vertex 37.7665 -208.722 1468.11
      vertex 51.7135 -208.084 1472.71
      vertex 51.6731 -207.808 1470.64
    endloop
  endfacet
  facet normal -0.1645 0.977288 0.133594
    outer loop
      vertex 51.7135 -208.084 1472.71
      vertex 68.0326 -205.054 1470.64
      vertex 51.6731 -207.808 1470.64
    endloop
  endfacet
  facet normal 0.144702 0.972334 0.183382
    outer loop
      vertex 2.06117 -207.652 1467.99
      vertex 2.3467 -205.203 1454.78
      vertex -11.0546 -205.563 1467.26
    endloop
  endfacet
  facet normal 0.153892 0.969025 0.193153
    outer loop
      vertex 2.3467 -205.203 1454.78
      vertex -13.8092 -202.637 1454.78
      vertex -11.0546 -205.563 1467.26
    endloop
  endfacet
  facet normal 0.184234 0.965207 0.185563
    outer loop
      vertex -11.0546 -205.563 1467.26
      vertex -13.8092 -202.637 1454.78
      vertex -14.2664 -204.922 1467.11
    endloop
  endfacet
  facet normal 0.225804 0.956355 0.185465
    outer loop
      vertex -13.8092 -202.637 1454.78
      vertex -28.0808 -201.571 1466.65
      vertex -14.2664 -204.922 1467.11
    endloop
  endfacet
  facet normal 0.246688 0.951133 0.185718
    outer loop
      vertex -29.2556 -198.911 1454.83
      vertex -29.6883 -198.865 1455.17
      vertex -30.3232 -200.933 1466.6
    endloop
  endfacet
  facet normal 0.266823 0.945657 0.185846
    outer loop
      vertex -29.6883 -198.865 1455.17
      vertex -34.3976 -198.253 1458.81
      vertex -30.3232 -200.933 1466.6
    endloop
  endfacet
  facet normal 0.306857 0.937832 0.162205
    outer loop
      vertex -30.3232 -200.933 1466.6
      vertex -34.3976 -198.253 1458.81
      vertex -44.7309 -196.192 1466.44
    endloop
  endfacet
  facet normal 0.264639 0.946144 0.186489
    outer loop
      vertex -30.3232 -200.933 1466.6
      vertex -28.0808 -201.571 1466.65
      vertex -29.2556 -198.911 1454.83
    endloop
  endfacet
  facet normal 0.230743 0.953961 0.191615
    outer loop
      vertex -28.0808 -201.571 1466.65
      vertex -13.8092 -202.637 1454.78
      vertex -29.2556 -198.911 1454.83
    endloop
  endfacet
  facet normal 0.230658 0.953584 0.193583
    outer loop
      vertex -29.2556 -198.911 1454.83
      vertex -13.8092 -202.637 1454.78
      vertex -24.2137 -199.311 1450.79
    endloop
  endfacet
  facet normal 0.209229 0.946947 0.243957
    outer loop
      vertex -13.8092 -202.637 1454.78
      vertex -14.2504 -199.358 1442.42
      vertex -24.2137 -199.311 1450.79
    endloop
  endfacet
  facet normal 0.067588 0.944382 0.32183
    outer loop
      vertex 4.73685 -196.423 1424.91
      vertex 3.35467 -196.785 1426.27
      vertex 2.82293 -201.15 1439.19
    endloop
  endfacet
  facet normal 0.114698 0.939702 0.322188
    outer loop
      vertex 3.35467 -196.785 1426.27
      vertex -4.57759 -198.393 1433.78
      vertex 2.82293 -201.15 1439.19
    endloop
  endfacet
  facet normal 0.144426 0.947448 0.285453
    outer loop
      vertex 2.82293 -201.15 1439.19
      vertex -4.57759 -198.393 1433.78
      vertex -10.5975 -199.115 1439.22
    endloop
  endfacet
  facet normal -0.00437544 0.94481 0.327589
    outer loop
      vertex 34.5927 -197.022 1423.96
      vertex 18.9934 -197.094 1423.96
      vertex 18.8038 -202.374 1439.19
    endloop
  endfacet
  facet normal 0.066565 0.94245 0.327654
    outer loop
      vertex 18.9934 -197.094 1423.96
      vertex 5.69113 -196.159 1423.97
      vertex 18.8038 -202.374 1439.19
    endloop
  endfacet
  facet normal 0.0639417 0.941919 0.329698
    outer loop
      vertex 5.69113 -196.159 1423.97
      vertex 4.73685 -196.423 1424.91
      vertex 18.8038 -202.374 1439.19
    endloop
  endfacet
  facet normal 0.0722842 0.943876 0.322292
    outer loop
      vertex 4.73685 -196.423 1424.91
      vertex 2.82293 -201.15 1439.19
      vertex 18.8038 -202.374 1439.19
    endloop
  endfacet
  facet normal 0.0738736 0.964631 0.253041
    outer loop
      vertex 18.8038 -202.374 1439.19
      vertex 2.82293 -201.15 1439.19
      vertex 2.3467 -205.203 1454.78
    endloop
  endfacet
  facet normal 0.145698 0.956407 0.253097
    outer loop
      vertex 2.82293 -201.15 1439.19
      vertex -10.5975 -199.115 1439.22
      vertex 2.3467 -205.203 1454.78
    endloop
  endfacet
  facet normal 0.151945 0.95676 0.248037
    outer loop
      vertex 2.3467 -205.203 1454.78
      vertex -10.5975 -199.115 1439.22
      vertex -13.8092 -202.637 1454.78
    endloop
  endfacet
  facet normal 0.148274 0.95749 0.247444
    outer loop
      vertex -10.5975 -199.115 1439.22
      vertex -13.1227 -199.298 1441.44
      vertex -13.8092 -202.637 1454.78
    endloop
  endfacet
  facet normal 0.164876 0.954729 0.247607
    outer loop
      vertex -13.8092 -202.637 1454.78
      vertex -13.1227 -199.298 1441.44
      vertex -14.2504 -199.358 1442.42
    endloop
  endfacet
  facet normal -0.00578216 0.913467 0.406872
    outer loop
      vertex 34.3014 -190.576 1409.2
      vertex 19.8383 -190.675 1409.21
      vertex 19.2416 -190.971 1409.87
    endloop
  endfacet
  facet normal -0.0941329 0.837754 0.537873
    outer loop
      vertex 47.2765 -173.162 1381.39
      vertex 42.4107 -173.714 1381.4
      vertex 48.3678 -181.762 1394.98
    endloop
  endfacet
  facet normal -0.094892 0.837537 0.538077
    outer loop
      vertex 42.4107 -173.714 1381.4
      vertex 37.1525 -178.877 1388.51
      vertex 48.3678 -181.762 1394.98
    endloop
  endfacet
  facet normal -0.0736273 0.857066 0.509919
    outer loop
      vertex 48.3678 -181.762 1394.98
      vertex 37.1525 -178.877 1388.51
      vertex 33.959 -183 1394.98
    endloop
  endfacet
  facet normal 0.00861892 0.841312 0.540482
    outer loop
      vertex 37.1525 -178.877 1388.51
      vertex 29.8925 -184.658 1397.62
      vertex 33.959 -183 1394.98
    endloop
  endfacet
  facet normal -0.0529911 0.880775 0.470561
    outer loop
      vertex 33.959 -183 1394.98
      vertex 29.8925 -184.658 1397.62
      vertex 34.3014 -190.576 1409.2
    endloop
  endfacet
  facet normal -0.0152734 0.887879 0.459824
    outer loop
      vertex 29.8925 -184.658 1397.62
      vertex 22.0325 -189.532 1406.77
      vertex 34.3014 -190.576 1409.2
    endloop
  endfacet
  facet normal -0.00572477 0.907532 0.419945
    outer loop
      vertex 34.3014 -190.576 1409.2
      vertex 22.0325 -189.532 1406.77
      vertex 19.8383 -190.675 1409.21
    endloop
  endfacet
  facet normal -0.144829 0.785384 0.601827
    outer loop
      vertex 58.8486 -161.386 1368.52
      vertex 50.9894 -162.838 1368.53
      vertex 60.845 -170.878 1381.39
    endloop
  endfacet
  facet normal -0.160018 0.777315 0.608421
    outer loop
      vertex 50.9894 -162.838 1368.53
      vertex 49.6736 -164.756 1370.63
      vertex 60.845 -170.878 1381.39
    endloop
  endfacet
  facet normal -0.133847 0.795181 0.591415
    outer loop
      vertex 60.845 -170.878 1381.39
      vertex 49.6736 -164.756 1370.63
      vertex 47.2765 -173.162 1381.39
    endloop
  endfacet
  facet normal -0.111154 0.795005 0.596332
    outer loop
      vertex 49.6736 -164.756 1370.63
      vertex 43.7616 -172.227 1379.49
      vertex 47.2765 -173.162 1381.39
    endloop
  endfacet
  facet normal -0.0916254 0.81609 0.570616
    outer loop
      vertex 47.2765 -173.162 1381.39
      vertex 43.7616 -172.227 1379.49
      vertex 42.4107 -173.714 1381.4
    endloop
  endfacet
  facet normal -0.180491 0.701357 0.68958
    outer loop
      vertex 59.2452 -147.565 1353.64
      vertex 57.8364 -150.689 1356.45
      vertex 68.3902 -147.971 1356.45
    endloop
  endfacet
  facet normal -0.183881 0.714501 0.675038
    outer loop
      vertex 57.8364 -150.689 1356.45
      vertex 56.9796 -152.46 1358.09
      vertex 68.3902 -147.971 1356.45
    endloop
  endfacet
  facet normal -0.242944 0.533302 0.810288
    outer loop
      vertex 67.96 -113.399 1328.56
      vertex 67.511 -117.094 1330.86
      vertex 71.1834 -121.678 1334.97
    endloop
  endfacet
  facet normal -0.186585 0.569619 0.80045
    outer loop
      vertex 67.511 -117.094 1330.86
      vertex 65.5996 -127.785 1338.02
      vertex 71.1834 -121.678 1334.97
    endloop
  endfacet
  facet normal -0.229852 0.594336 0.77067
    outer loop
      vertex 71.1834 -121.678 1334.97
      vertex 65.5996 -127.785 1338.02
      vertex 75.6677 -133.259 1345.24
    endloop
  endfacet
  facet normal -0.210139 0.615735 0.759416
    outer loop
      vertex 65.5996 -127.785 1338.02
      vertex 65.0967 -136.867 1345.24
      vertex 75.6677 -133.259 1345.24
    endloop
  endfacet
  facet normal -0.224683 0.658349 0.718397
    outer loop
      vertex 75.6677 -133.259 1345.24
      vertex 65.0967 -136.867 1345.24
      vertex 68.3902 -147.971 1356.45
    endloop
  endfacet
  facet normal -0.200206 0.665895 0.71868
    outer loop
      vertex 65.0967 -136.867 1345.24
      vertex 62.8379 -137.965 1345.63
      vertex 68.3902 -147.971 1356.45
    endloop
  endfacet
  facet normal -0.190447 0.670027 0.717492
    outer loop
      vertex 68.3902 -147.971 1356.45
      vertex 62.8379 -137.965 1345.63
      vertex 59.2452 -147.565 1353.64
    endloop
  endfacet
  facet normal -0.228714 0.513004 0.827355
    outer loop
      vertex 68.3922 -108.597 1325.7
      vertex 67.96 -113.399 1328.56
      vertex 74.7651 -105.761 1325.7
    endloop
  endfacet
  facet normal -0.24245 0.521722 0.817939
    outer loop
      vertex 67.96 -113.399 1328.56
      vertex 80.5044 -117.627 1334.97
      vertex 74.7651 -105.761 1325.7
    endloop
  endfacet
  facet normal -0.271396 0.507573 0.817749
    outer loop
      vertex 74.7651 -105.761 1325.7
      vertex 80.5044 -117.627 1334.97
      vertex 82.7855 -101.472 1325.7
    endloop
  endfacet
  facet normal -0.271396 0.507573 0.817749
    outer loop
      vertex 80.5044 -117.627 1334.97
      vertex 89.4668 -112.835 1334.97
      vertex 82.7855 -101.472 1325.7
    endloop
  endfacet
  facet normal -0.298887 0.491566 0.817942
    outer loop
      vertex 82.7855 -101.472 1325.7
      vertex 89.4668 -112.835 1334.97
      vertex 92.8362 -110.722 1334.94
    endloop
  endfacet
  facet normal -0.24821 0.65984 0.709227
    outer loop
      vertex 87.4816 -140.83 1356.42
      vertex 87.698 -138.513 1354.34
      vertex 75.6677 -133.259 1345.24
    endloop
  endfacet
  facet normal -0.273965 0.630422 0.726299
    outer loop
      vertex 87.698 -138.513 1354.34
      vertex 85.9118 -128.808 1345.24
      vertex 75.6677 -133.259 1345.24
    endloop
  endfacet
  facet normal -0.254103 0.584718 0.770413
    outer loop
      vertex 75.6677 -133.259 1345.24
      vertex 85.9118 -128.808 1345.24
      vertex 80.5044 -117.627 1334.97
    endloop
  endfacet
  facet normal -0.274947 0.57487 0.770667
    outer loop
      vertex 85.9118 -128.808 1345.24
      vertex 90.3874 -121.279 1341.22
      vertex 80.5044 -117.627 1334.97
    endloop
  endfacet
  facet normal -0.292999 0.547976 0.783501
    outer loop
      vertex 80.5044 -117.627 1334.97
      vertex 90.3874 -121.279 1341.22
      vertex 89.4668 -112.835 1334.97
    endloop
  endfacet
  facet normal -0.316396 0.541838 0.778656
    outer loop
      vertex 90.3874 -121.279 1341.22
      vertex 92.4859 -112.1 1335.69
      vertex 89.4668 -112.835 1334.97
    endloop
  endfacet
  facet normal -0.31439 0.5159 0.796873
    outer loop
      vertex 89.4668 -112.835 1334.97
      vertex 92.4859 -112.1 1335.69
      vertex 92.8362 -110.722 1334.94
    endloop
  endfacet
  facet normal -0.26884 0.641412 0.718551
    outer loop
      vertex 87.4816 -140.83 1356.42
      vertex 75.6677 -133.259 1345.24
      vertex 79.8495 -144.06 1356.45
    endloop
  endfacet
  facet normal -0.224683 0.658349 0.718397
    outer loop
      vertex 75.6677 -133.259 1345.24
      vertex 68.3902 -147.971 1356.45
      vertex 79.8495 -144.06 1356.45
    endloop
  endfacet
  facet normal -0.242075 0.70931 0.662027
    outer loop
      vertex 79.8495 -144.06 1356.45
      vertex 68.3902 -147.971 1356.45
      vertex 71.4255 -158.203 1368.52
    endloop
  endfacet
  facet normal -0.189844 0.724935 0.662139
    outer loop
      vertex 68.3902 -147.971 1356.45
      vertex 56.9796 -152.46 1358.09
      vertex 71.4255 -158.203 1368.52
    endloop
  endfacet
  facet normal -0.184732 0.730097 0.6579
    outer loop
      vertex 71.4255 -158.203 1368.52
      vertex 56.9796 -152.46 1358.09
      vertex 58.8486 -161.386 1368.52
    endloop
  endfacet
  facet normal -0.184634 0.73012 0.657903
    outer loop
      vertex 56.9796 -152.46 1358.09
      vertex 54.8468 -156.516 1362
      vertex 58.8486 -161.386 1368.52
    endloop
  endfacet
  facet normal -0.138491 0.751222 0.645357
    outer loop
      vertex 58.8486 -161.386 1368.52
      vertex 54.8468 -156.516 1362
      vertex 50.9894 -162.838 1368.53
    endloop
  endfacet
  facet normal -0.257996 0.755961 0.601631
    outer loop
      vertex 74.1841 -167.503 1381.39
      vertex 87.206 -163.059 1381.39
      vertex 83.7034 -154.013 1368.52
    endloop
  endfacet
  facet normal -0.289109 0.849781 0.440782
    outer loop
      vertex 92.7434 -178.346 1409.2
      vertex 92.0526 -177.073 1406.29
      vertex 78.8058 -183.085 1409.2
    endloop
  endfacet
  facet normal -0.277169 0.837781 0.470425
    outer loop
      vertex 92.0526 -177.073 1406.29
      vertex 76.6492 -175.814 1394.98
      vertex 78.8058 -183.085 1409.2
    endloop
  endfacet
  facet normal -0.216474 0.855544 0.470302
    outer loop
      vertex 78.8058 -183.085 1409.2
      vertex 76.6492 -175.814 1394.98
      vertex 64.1899 -186.783 1409.2
    endloop
  endfacet
  facet normal -0.278222 0.695657 0.66231
    outer loop
      vertex 87.0493 -152.662 1368.51
      vertex 79.8495 -144.06 1356.45
      vertex 83.7034 -154.013 1368.52
    endloop
  endfacet
  facet normal -0.242075 0.709309 0.662027
    outer loop
      vertex 79.8495 -144.06 1356.45
      vertex 71.4255 -158.203 1368.52
      vertex 83.7034 -154.013 1368.52
    endloop
  endfacet
  facet normal -0.257996 0.755961 0.601631
    outer loop
      vertex 83.7034 -154.013 1368.52
      vertex 71.4255 -158.203 1368.52
      vertex 74.1841 -167.503 1381.39
    endloop
  endfacet
  facet normal -0.195934 0.77437 0.601631
    outer loop
      vertex 71.4255 -158.203 1368.52
      vertex 60.845 -170.878 1381.39
      vertex 74.1841 -167.503 1381.39
    endloop
  endfacet
  facet normal -0.206832 0.81744 0.537598
    outer loop
      vertex 74.1841 -167.503 1381.39
      vertex 60.845 -170.878 1381.39
      vertex 62.6291 -179.361 1394.98
    endloop
  endfacet
  facet normal -0.13996 0.831504 0.537598
    outer loop
      vertex 60.845 -170.878 1381.39
      vertex 48.3678 -181.762 1394.98
      vertex 62.6291 -179.361 1394.98
    endloop
  endfacet
  facet normal -0.146484 0.870263 0.470302
    outer loop
      vertex 62.6291 -179.361 1394.98
      vertex 48.3678 -181.762 1394.98
      vertex 49.3225 -189.285 1409.2
    endloop
  endfacet
  facet normal -0.0755335 0.879267 0.470302
    outer loop
      vertex 48.3678 -181.762 1394.98
      vertex 34.3014 -190.576 1409.2
      vertex 49.3225 -189.285 1409.2
    endloop
  endfacet
  facet normal -0.0784384 0.913083 0.400159
    outer loop
      vertex 49.3225 -189.285 1409.2
      vertex 34.3014 -190.576 1409.2
      vertex 34.5927 -197.022 1423.96
    endloop
  endfacet
  facet normal -0.00615892 0.916413 0.400187
    outer loop
      vertex 34.3014 -190.576 1409.2
      vertex 19.2416 -190.971 1409.87
      vertex 34.5927 -197.022 1423.96
    endloop
  endfacet
  facet normal -0.00424751 0.917186 0.398437
    outer loop
      vertex 34.5927 -197.022 1423.96
      vertex 19.2416 -190.971 1409.87
      vertex 18.9934 -197.094 1423.96
    endloop
  endfacet
  facet normal 0.0207622 0.916835 0.398725
    outer loop
      vertex 19.2416 -190.971 1409.87
      vertex 13.6277 -193.463 1415.89
      vertex 18.9934 -197.094 1423.96
    endloop
  endfacet
  facet normal 0.0654123 0.925539 0.372959
    outer loop
      vertex 18.9934 -197.094 1423.96
      vertex 13.6277 -193.463 1415.89
      vertex 5.69113 -196.159 1423.97
    endloop
  endfacet
  facet normal -0.365802 0.848712 0.381938
    outer loop
      vertex 97.5055 -184.311 1426.15
      vertex 94.5447 -181.084 1416.14
      vertex 95.4043 -184.233 1423.96
    endloop
  endfacet
  facet normal -0.128755 0.914923 0.382542
    outer loop
      vertex 94.5447 -181.084 1416.14
      vertex 93.5486 -179.662 1412.4
      vertex 95.4043 -184.233 1423.96
    endloop
  endfacet
  facet normal -0.297132 0.870633 0.39206
    outer loop
      vertex 95.4043 -184.233 1423.96
      vertex 93.5486 -179.662 1412.4
      vertex 80.6409 -189.271 1423.96
    endloop
  endfacet
  facet normal -0.289042 0.869626 0.400258
    outer loop
      vertex 93.5486 -179.662 1412.4
      vertex 78.8058 -183.085 1409.2
      vertex 80.6409 -189.271 1423.96
    endloop
  endfacet
  facet normal -0.224798 0.888447 0.400159
    outer loop
      vertex 80.6409 -189.271 1423.96
      vertex 78.8058 -183.085 1409.2
      vertex 65.518 -193.098 1423.96
    endloop
  endfacet
  facet normal -0.224799 0.888447 0.400159
    outer loop
      vertex 78.8058 -183.085 1409.2
      vertex 64.1899 -186.783 1409.2
      vertex 65.518 -193.098 1423.96
    endloop
  endfacet
  facet normal -0.152119 0.903733 0.400159
    outer loop
      vertex 65.518 -193.098 1423.96
      vertex 64.1899 -186.783 1409.2
      vertex 50.1349 -195.687 1423.96
    endloop
  endfacet
  facet normal -0.356315 0.886456 0.295355
    outer loop
      vertex 101.995 -187.283 1439.2
      vertex 100.914 -186.729 1436.24
      vertex 97.3118 -189.159 1439.19
    endloop
  endfacet
  facet normal -0.329147 0.885555 0.327802
    outer loop
      vertex 100.914 -186.729 1436.24
      vertex 95.4043 -184.233 1423.96
      vertex 97.3118 -189.159 1439.19
    endloop
  endfacet
  facet normal -0.305168 0.89418 0.327589
    outer loop
      vertex 97.3118 -189.159 1439.19
      vertex 95.4043 -184.233 1423.96
      vertex 82.1433 -194.336 1439.19
    endloop
  endfacet
  facet normal -0.305168 0.89418 0.327588
    outer loop
      vertex 95.4043 -184.233 1423.96
      vertex 80.6409 -189.271 1423.96
      vertex 82.1433 -194.336 1439.19
    endloop
  endfacet
  facet normal -0.23176 0.915955 0.327589
    outer loop
      vertex 82.1433 -194.336 1439.19
      vertex 80.6409 -189.271 1423.96
      vertex 66.6053 -198.268 1439.19
    endloop
  endfacet
  facet normal -0.231759 0.915955 0.327589
    outer loop
      vertex 80.6409 -189.271 1423.96
      vertex 65.518 -193.098 1423.96
      vertex 66.6053 -198.268 1439.19
    endloop
  endfacet
  facet normal -0.156828 0.931714 0.327589
    outer loop
      vertex 66.6053 -198.268 1439.19
      vertex 65.518 -193.098 1423.96
      vertex 50.8 -200.928 1439.19
    endloop
  endfacet
  facet normal -0.156829 0.931714 0.327588
    outer loop
      vertex 65.518 -193.098 1423.96
      vertex 50.1349 -195.687 1423.96
      vertex 50.8 -200.928 1439.19
    endloop
  endfacet
  facet normal -0.080867 0.941353 0.327588
    outer loop
      vertex 50.8 -200.928 1439.19
      vertex 50.1349 -195.687 1423.96
      vertex 34.8312 -202.3 1439.19
    endloop
  endfacet
  facet normal -0.374409 0.898312 0.229899
    outer loop
      vertex 108.272 -189.015 1454.79
      vertex 104.745 -188.322 1446.34
      vertex 98.7853 -192.965 1454.78
    endloop
  endfacet
  facet normal -0.345503 0.903604 0.253234
    outer loop
      vertex 104.745 -188.322 1446.34
      vertex 97.3118 -189.159 1439.19
      vertex 98.7853 -192.965 1454.78
    endloop
  endfacet
  facet normal -0.312479 0.915602 0.253042
    outer loop
      vertex 98.7853 -192.965 1454.78
      vertex 97.3118 -189.159 1439.19
      vertex 83.3038 -198.249 1454.78
    endloop
  endfacet
  facet normal -0.312479 0.915602 0.253042
    outer loop
      vertex 97.3118 -189.159 1439.19
      vertex 82.1433 -194.336 1439.19
      vertex 83.3038 -198.249 1454.78
    endloop
  endfacet
  facet normal -0.237312 0.937898 0.253042
    outer loop
      vertex 83.3038 -198.249 1454.78
      vertex 82.1433 -194.336 1439.19
      vertex 67.4452 -202.261 1454.78
    endloop
  endfacet
  facet normal -0.237312 0.937898 0.253042
    outer loop
      vertex 82.1433 -194.336 1439.19
      vertex 66.6053 -198.268 1439.19
      vertex 67.4452 -202.261 1454.78
    endloop
  endfacet
  facet normal -0.160585 0.954035 0.253042
    outer loop
      vertex 67.4452 -202.261 1454.78
      vertex 66.6053 -198.268 1439.19
      vertex 51.3138 -204.976 1454.78
    endloop
  endfacet
  facet normal -0.160585 0.954035 0.253042
    outer loop
      vertex 66.6053 -198.268 1439.19
      vertex 50.8 -200.928 1439.19
      vertex 51.3138 -204.976 1454.78
    endloop
  endfacet
  facet normal -0.0828046 0.963905 0.253042
    outer loop
      vertex 51.3138 -204.976 1454.78
      vertex 50.8 -200.928 1439.19
      vertex 35.0155 -206.377 1454.78
    endloop
  endfacet
  facet normal -0.0828043 0.963905 0.253042
    outer loop
      vertex 50.8 -200.928 1439.19
      vertex 34.8312 -202.3 1439.19
      vertex 35.0155 -206.377 1454.78
    endloop
  endfacet
  facet normal -0.0044804 0.967445 0.253042
    outer loop
      vertex 35.0155 -206.377 1454.78
      vertex 34.8312 -202.3 1439.19
      vertex 18.6573 -206.452 1454.78
    endloop
  endfacet
  facet normal 0.10249 0.97767 0.183459
    outer loop
      vertex 2.06117 -207.652 1467.99
      vertex 6.2239 -208.141 1468.26
      vertex 2.3467 -205.203 1454.78
    endloop
  endfacet
  facet normal 0.0749444 0.978611 0.191582
    outer loop
      vertex 6.2239 -208.141 1468.26
      vertex 18.6573 -206.452 1454.78
      vertex 2.3467 -205.203 1454.78
    endloop
  endfacet
  facet normal 0.0738738 0.964631 0.253042
    outer loop
      vertex 2.3467 -205.203 1454.78
      vertex 18.6573 -206.452 1454.78
      vertex 18.8038 -202.374 1439.19
    endloop
  endfacet
  facet normal -0.00448111 0.967445 0.253042
    outer loop
      vertex 18.6573 -206.452 1454.78
      vertex 34.8312 -202.3 1439.19
      vertex 18.8038 -202.374 1439.19
    endloop
  endfacet
  facet normal -0.00437627 0.94481 0.327588
    outer loop
      vertex 18.8038 -202.374 1439.19
      vertex 34.8312 -202.3 1439.19
      vertex 34.5927 -197.022 1423.96
    endloop
  endfacet
  facet normal -0.0808672 0.941353 0.327588
    outer loop
      vertex 34.8312 -202.3 1439.19
      vertex 50.1349 -195.687 1423.96
      vertex 34.5927 -197.022 1423.96
    endloop
  endfacet
  facet normal -0.0784386 0.913083 0.400159
    outer loop
      vertex 34.5927 -197.022 1423.96
      vertex 50.1349 -195.687 1423.96
      vertex 49.3225 -189.285 1409.2
    endloop
  endfacet
  facet normal -0.152119 0.903733 0.400159
    outer loop
      vertex 50.1349 -195.687 1423.96
      vertex 64.1899 -186.783 1409.2
      vertex 49.3225 -189.285 1409.2
    endloop
  endfacet
  facet normal -0.146485 0.870263 0.470302
    outer loop
      vertex 49.3225 -189.285 1409.2
      vertex 64.1899 -186.783 1409.2
      vertex 62.6291 -179.361 1394.98
    endloop
  endfacet
  facet normal -0.216474 0.855544 0.470302
    outer loop
      vertex 64.1899 -186.783 1409.2
      vertex 76.6492 -175.814 1394.98
      vertex 62.6291 -179.361 1394.98
    endloop
  endfacet
  facet normal -0.206833 0.81744 0.537598
    outer loop
      vertex 62.6291 -179.361 1394.98
      vertex 76.6492 -175.814 1394.98
      vertex 74.1841 -167.503 1381.39
    endloop
  endfacet
  facet normal -0.26152 0.801504 0.537772
    outer loop
      vertex 76.6492 -175.814 1394.98
      vertex 88.5427 -166.817 1387.35
      vertex 74.1841 -167.503 1381.39
    endloop
  endfacet
  facet normal -0.268432 0.786539 0.556148
    outer loop
      vertex 74.1841 -167.503 1381.39
      vertex 88.5427 -166.817 1387.35
      vertex 87.206 -163.059 1381.39
    endloop
  endfacet
  facet normal -0.380858 0.741204 0.552779
    outer loop
      vertex 88.5427 -166.817 1387.35
      vertex 87.5504 -160.647 1378.39
      vertex 87.206 -163.059 1381.39
    endloop
  endfacet
  facet normal -0.203688 0.774 0.59953
    outer loop
      vertex 87.206 -163.059 1381.39
      vertex 87.5504 -160.647 1378.39
      vertex 83.7034 -154.013 1368.52
    endloop
  endfacet
  facet normal -0.280494 0.742498 0.608293
    outer loop
      vertex 87.5504 -160.647 1378.39
      vertex 87.0772 -153.839 1369.87
      vertex 83.7034 -154.013 1368.52
    endloop
  endfacet
  facet normal -0.288326 0.720361 0.630832
    outer loop
      vertex 83.7034 -154.013 1368.52
      vertex 87.0772 -153.839 1369.87
      vertex 87.0493 -152.662 1368.51
    endloop
  endfacet
  facet normal 0.0624618 0.981599 0.180449
    outer loop
      vertex 6.2239 -208.141 1468.26
      vertex 18.5655 -209.1 1469.21
      vertex 18.6573 -206.452 1454.78
    endloop
  endfacet
  facet normal 0.0198659 0.983374 0.180504
    outer loop
      vertex 18.5655 -209.1 1469.21
      vertex 23.6294 -209.284 1469.66
      vertex 18.6573 -206.452 1454.78
    endloop
  endfacet
  facet normal -0.00454818 0.982079 0.188415
    outer loop
      vertex 18.6573 -206.452 1454.78
      vertex 23.6294 -209.284 1469.66
      vertex 35.0155 -206.377 1454.78
    endloop
  endfacet
  facet normal -0.0197382 0.983983 0.177165
    outer loop
      vertex 23.6294 -209.284 1469.66
      vertex 37.7665 -208.722 1468.11
      vertex 35.0155 -206.377 1454.78
    endloop
  endfacet
  facet normal -0.0840405 0.978291 0.189429
    outer loop
      vertex 35.0155 -206.377 1454.78
      vertex 37.7665 -208.722 1468.11
      vertex 51.3138 -204.976 1454.78
    endloop
  endfacet
  facet normal -0.0965639 0.979456 0.177034
    outer loop
      vertex 37.7665 -208.722 1468.11
      vertex 51.6731 -207.808 1470.64
      vertex 51.3138 -204.976 1454.78
    endloop
  endfacet
  facet normal -0.163368 0.970565 0.17696
    outer loop
      vertex 51.3138 -204.976 1454.78
      vertex 51.6731 -207.808 1470.64
      vertex 67.4452 -202.261 1454.78
    endloop
  endfacet
  facet normal -0.163368 0.970565 0.176959
    outer loop
      vertex 51.6731 -207.808 1470.64
      vertex 68.0326 -205.054 1470.64
      vertex 67.4452 -202.261 1454.78
    endloop
  endfacet
  facet normal -0.241423 0.954149 0.176959
    outer loop
      vertex 67.4452 -202.261 1454.78
      vertex 68.0326 -205.054 1470.64
      vertex 83.3038 -198.249 1454.78
    endloop
  endfacet
  facet normal -0.241423 0.954149 0.17696
    outer loop
      vertex 68.0326 -205.054 1470.64
      vertex 84.1154 -200.985 1470.64
      vertex 83.3038 -198.249 1454.78
    endloop
  endfacet
  facet normal -0.317893 0.931466 0.17696
    outer loop
      vertex 83.3038 -198.249 1454.78
      vertex 84.1154 -200.985 1470.64
      vertex 98.7853 -192.965 1454.78
    endloop
  endfacet
  facet normal -0.317893 0.931466 0.17696
    outer loop
      vertex 84.1154 -200.985 1470.64
      vertex 99.8158 -195.626 1470.64
      vertex 98.7853 -192.965 1454.78
    endloop
  endfacet
  facet normal -0.381837 0.907117 0.177029
    outer loop
      vertex 98.7853 -192.965 1454.78
      vertex 99.8158 -195.626 1470.64
      vertex 113.562 -188.993 1466.29
    endloop
  endfacet
  facet normal -0.394748 0.908358 0.138056
    outer loop
      vertex 99.8158 -195.626 1470.64
      vertex 115.031 -189.014 1470.64
      vertex 113.562 -188.993 1466.29
    endloop
  endfacet
  facet normal -0.503776 0.845997 0.174636
    outer loop
      vertex 113.562 -188.993 1466.29
      vertex 115.031 -189.014 1470.64
      vertex 118.484 -188.065 1476
    endloop
  endfacet
  facet normal -0.414929 0.90351 0.107253
    outer loop
      vertex 115.031 -189.014 1470.64
      vertex 115.646 -190.271 1483.6
      vertex 118.484 -188.065 1476
    endloop
  endfacet
  facet normal -0.456008 0.885735 0.0867698
    outer loop
      vertex 118.484 -188.065 1476
      vertex 115.646 -190.271 1483.6
      vertex 123.702 -186.302 1485.43
    endloop
  endfacet
  facet normal -0.09371 -0.252846 0.962958
    outer loop
      vertex 23.6294 -209.284 1469.66
      vertex 22.145 -233.952 1463.04
      vertex 32.9809 -234.035 1464.07
    endloop
  endfacet
  facet normal -0.0937082 -0.252845 0.962958
    outer loop
      vertex 23.6294 -209.284 1469.66
      vertex 32.9809 -234.035 1464.07
      vertex 41.0354 -208.986 1471.43
    endloop
  endfacet
  facet normal -0.0937198 -0.252842 0.962958
    outer loop
      vertex 32.9809 -234.035 1464.07
      vertex 41.8108 -233.734 1465.01
      vertex 41.0354 -208.986 1471.43
    endloop
  endfacet
  facet normal -0.0937198 -0.252842 0.962958
    outer loop
      vertex 41.0354 -208.986 1471.43
      vertex 41.8108 -233.734 1465.01
      vertex 51.7135 -208.084 1472.71
    endloop
  endfacet
  facet normal -0.0937192 -0.252842 0.962958
    outer loop
      vertex 41.8108 -233.734 1465.01
      vertex 49.9875 -233.159 1465.95
      vertex 51.7135 -208.084 1472.71
    endloop
  endfacet
  facet normal -0.093709 -0.252843 0.962959
    outer loop
      vertex 51.7135 -208.084 1472.71
      vertex 49.9875 -233.159 1465.95
      vertex 58.3156 -207.248 1473.57
    endloop
  endfacet
  facet normal -0.0937131 -0.252841 0.962958
    outer loop
      vertex 49.9875 -233.159 1465.95
      vertex 61.3439 -231.882 1467.39
      vertex 58.3156 -207.248 1473.57
    endloop
  endfacet
  facet normal -0.0937235 -0.252842 0.962957
    outer loop
      vertex 58.3156 -207.248 1473.57
      vertex 61.3439 -231.882 1467.39
      vertex 68.1535 -205.599 1474.96
    endloop
  endfacet
  facet normal -0.0937074 -0.252847 0.962958
    outer loop
      vertex 61.3439 -231.882 1467.39
      vertex 66.9068 -231.05 1468.15
      vertex 68.1535 -205.599 1474.96
    endloop
  endfacet
  facet normal -0.0937109 -0.252846 0.962957
    outer loop
      vertex 68.1535 -205.599 1474.96
      vertex 66.9068 -231.05 1468.15
      vertex 75.3447 -204.082 1476.06
    endloop
  endfacet
  facet normal -0.0937114 -0.252846 0.962958
    outer loop
      vertex 123.702 -186.302 1485.43
      vertex 115.646 -190.271 1483.6
      vertex 99.4419 -223.339 1473.35
    endloop
  endfacet
  facet normal -0.0937107 -0.252846 0.962958
    outer loop
      vertex 115.646 -190.271 1483.6
      vertex 108.157 -193.571 1482.01
      vertex 99.4419 -223.339 1473.35
    endloop
  endfacet
  facet normal -0.0937213 -0.252843 0.962957
    outer loop
      vertex 99.4419 -223.339 1473.35
      vertex 108.157 -193.571 1482.01
      vertex 100.231 -196.68 1480.42
    endloop
  endfacet
  facet normal -0.0937126 -0.252841 0.962959
    outer loop
      vertex -14.2664 -204.922 1467.11
      vertex -28.0808 -201.571 1466.65
      vertex -17.0081 -229.491 1460.4
    endloop
  endfacet
  facet normal -0.0937096 -0.25284 0.962959
    outer loop
      vertex -28.0808 -201.571 1466.65
      vertex -30.3232 -200.933 1466.6
      vertex -17.0081 -229.491 1460.4
    endloop
  endfacet
  facet normal -0.0937161 -0.252843 0.962958
    outer loop
      vertex -17.0081 -229.491 1460.4
      vertex -30.3232 -200.933 1466.6
      vertex -44.7309 -196.192 1466.44
    endloop
  endfacet
  facet normal -0.0937106 -0.252843 0.962958
    outer loop
      vertex 100.231 -196.68 1480.42
      vertex 91.9988 -199.512 1478.88
      vertex 99.4419 -223.339 1473.35
    endloop
  endfacet
  facet normal -0.0937122 -0.252844 0.962958
    outer loop
      vertex 91.9988 -199.512 1478.88
      vertex 84.3627 -201.795 1477.53
      vertex 99.4419 -223.339 1473.35
    endloop
  endfacet
  facet normal -0.0937114 -0.252843 0.962958
    outer loop
      vertex 99.4419 -223.339 1473.35
      vertex 84.3627 -201.795 1477.53
      vertex 83.6485 -227.703 1470.66
    endloop
  endfacet
  facet normal -0.0937098 -0.252843 0.962958
    outer loop
      vertex 84.3627 -201.795 1477.53
      vertex 75.3447 -204.082 1476.06
      vertex 83.6485 -227.703 1470.66
    endloop
  endfacet
  facet normal -0.0937052 -0.252842 0.962959
    outer loop
      vertex 83.6485 -227.703 1470.66
      vertex 75.3447 -204.082 1476.06
      vertex 80.6013 -228.408 1470.18
    endloop
  endfacet
  facet normal -0.0937181 -0.252844 0.962957
    outer loop
      vertex 75.3447 -204.082 1476.06
      vertex 66.9068 -231.05 1468.15
      vertex 80.6013 -228.408 1470.18
    endloop
  endfacet
  facet normal -0.0937087 -0.252846 0.962958
    outer loop
      vertex 22.145 -233.952 1463.04
      vertex 23.6294 -209.284 1469.66
      vertex 15.9747 -233.684 1462.51
    endloop
  endfacet
  facet normal -0.0937156 -0.252844 0.962958
    outer loop
      vertex 23.6294 -209.284 1469.66
      vertex 18.5655 -209.1 1469.21
      vertex 15.9747 -233.684 1462.51
    endloop
  endfacet
  facet normal -0.0937164 -0.252844 0.962958
    outer loop
      vertex 15.9747 -233.684 1462.51
      vertex 18.5655 -209.1 1469.21
      vertex 2.49073 -232.534 1461.5
    endloop
  endfacet
  facet normal -0.0937209 -0.252841 0.962958
    outer loop
      vertex 18.5655 -209.1 1469.21
      vertex 6.2239 -208.141 1468.26
      vertex 2.49073 -232.534 1461.5
    endloop
  endfacet
  facet normal -0.0937038 -0.252844 0.962959
    outer loop
      vertex 2.49073 -232.534 1461.5
      vertex 6.2239 -208.141 1468.26
      vertex -0.946038 -232.118 1461.27
    endloop
  endfacet
  facet normal -0.0936939 -0.252847 0.962959
    outer loop
      vertex 6.2239 -208.141 1468.26
      vertex 2.06117 -207.652 1467.99
      vertex -0.946038 -232.118 1461.27
    endloop
  endfacet
  facet normal -0.0937136 -0.252844 0.962958
    outer loop
      vertex -0.946038 -232.118 1461.27
      vertex 2.06117 -207.652 1467.99
      vertex -17.0081 -229.491 1460.4
    endloop
  endfacet
  facet normal -0.0937158 -0.252842 0.962958
    outer loop
      vertex 2.06117 -207.652 1467.99
      vertex -11.0546 -205.563 1467.26
      vertex -17.0081 -229.491 1460.4
    endloop
  endfacet
  facet normal -0.093728 -0.252839 0.962958
    outer loop
      vertex -17.0081 -229.491 1460.4
      vertex -11.0546 -205.563 1467.26
      vertex -14.2664 -204.922 1467.11
    endloop
  endfacet
  facet normal -0.598547 -0.369255 -0.71091
    outer loop
      vertex 82.4227 -115.449 1317.45
      vertex 67.4276 -193.319 1370.52
      vertex 62.8379 -137.965 1345.63
    endloop
  endfacet
  facet normal -0.598546 -0.369256 -0.71091
    outer loop
      vertex -17.0081 -229.491 1460.4
      vertex -44.7309 -196.192 1466.44
      vertex -34.3976 -198.253 1458.81
    endloop
  endfacet
  facet normal -0.598542 -0.36926 -0.710911
    outer loop
      vertex 62.8379 -137.965 1345.63
      vertex 65.5996 -127.785 1338.02
      vertex 82.4227 -115.449 1317.45
    endloop
  endfacet
  facet normal -0.598546 -0.369254 -0.710911
    outer loop
      vertex 65.5996 -127.785 1338.02
      vertex 67.511 -117.094 1330.86
      vertex 82.4227 -115.449 1317.45
    endloop
  endfacet
  facet normal -0.598546 -0.369254 -0.710911
    outer loop
      vertex 82.4227 -115.449 1317.45
      vertex 67.511 -117.094 1330.86
      vertex 67.96 -113.399 1328.56
    endloop
  endfacet
  facet normal -0.598549 -0.369255 -0.710907
    outer loop
      vertex -5.85342 -229.526 1451.02
      vertex -17.0081 -229.491 1460.4
      vertex -24.2137 -199.311 1450.79
    endloop
  endfacet
  facet normal -0.598546 -0.369257 -0.71091
    outer loop
      vertex 67.96 -113.399 1328.56
      vertex 68.3922 -108.597 1325.7
      vertex 82.4227 -115.449 1317.45
    endloop
  endfacet
  facet normal -0.598546 -0.36926 -0.710908
    outer loop
      vertex 68.3922 -108.597 1325.7
      vertex 68.5587 -105.969 1324.2
      vertex 82.4227 -115.449 1317.45
    endloop
  endfacet
  facet normal -0.598544 -0.369252 -0.710913
    outer loop
      vertex 82.4227 -115.449 1317.45
      vertex 68.5587 -105.969 1324.2
      vertex 68.7354 -94.4871 1318.08
    endloop
  endfacet
  facet normal -0.598545 -0.369255 -0.710911
    outer loop
      vertex -34.3976 -198.253 1458.81
      vertex -29.6883 -198.865 1455.17
      vertex -17.0081 -229.491 1460.4
    endloop
  endfacet
  facet normal -0.598585 -0.369265 -0.710872
    outer loop
      vertex -29.6883 -198.865 1455.17
      vertex -29.2556 -198.911 1454.83
      vertex -17.0081 -229.491 1460.4
    endloop
  endfacet
  facet normal -0.598543 -0.369255 -0.710913
    outer loop
      vertex -17.0081 -229.491 1460.4
      vertex -29.2556 -198.911 1454.83
      vertex -24.2137 -199.311 1450.79
    endloop
  endfacet
  facet normal -0.59855 -0.369257 -0.710906
    outer loop
      vertex 49.6736 -164.756 1370.63
      vertex 50.9894 -162.838 1368.53
      vertex 67.4276 -193.319 1370.52
    endloop
  endfacet
  facet normal -0.598544 -0.369254 -0.710912
    outer loop
      vertex 50.9894 -162.838 1368.53
      vertex 54.8468 -156.516 1362
      vertex 67.4276 -193.319 1370.52
    endloop
  endfacet
  facet normal -0.598551 -0.369255 -0.710906
    outer loop
      vertex 67.4276 -193.319 1370.52
      vertex 54.8468 -156.516 1362
      vertex 56.9796 -152.46 1358.09
    endloop
  endfacet
  facet normal -0.598537 -0.369251 -0.71092
    outer loop
      vertex 19.2416 -190.971 1409.87
      vertex 19.8383 -190.675 1409.21
      vertex 35.1252 -219.266 1411.19
    endloop
  endfacet
  facet normal -0.598547 -0.369255 -0.71091
    outer loop
      vertex 19.8383 -190.675 1409.21
      vertex 22.0325 -189.532 1406.77
      vertex 35.1252 -219.266 1411.19
    endloop
  endfacet
  facet normal -0.598548 -0.369255 -0.710909
    outer loop
      vertex 35.1252 -219.266 1411.19
      vertex 22.0325 -189.532 1406.77
      vertex 44.1516 -214.177 1400.95
    endloop
  endfacet
  facet normal -0.598547 -0.369254 -0.71091
    outer loop
      vertex 22.0325 -189.532 1406.77
      vertex 29.8925 -184.658 1397.62
      vertex 44.1516 -214.177 1400.95
    endloop
  endfacet
  facet normal -0.598548 -0.369254 -0.710909
    outer loop
      vertex 44.1516 -214.177 1400.95
      vertex 29.8925 -184.658 1397.62
      vertex 52.5772 -208.131 1390.72
    endloop
  endfacet
  facet normal -0.598548 -0.369255 -0.710908
    outer loop
      vertex 29.8925 -184.658 1397.62
      vertex 37.1525 -178.877 1388.51
      vertex 52.5772 -208.131 1390.72
    endloop
  endfacet
  facet normal -0.598548 -0.369255 -0.710909
    outer loop
      vertex 52.5772 -208.131 1390.72
      vertex 37.1525 -178.877 1388.51
      vertex 60.3515 -201.165 1380.55
    endloop
  endfacet
  facet normal -0.598546 -0.369251 -0.710912
    outer loop
      vertex 37.1525 -178.877 1388.51
      vertex 42.4107 -173.714 1381.4
      vertex 60.3515 -201.165 1380.55
    endloop
  endfacet
  facet normal -0.598546 -0.369252 -0.710912
    outer loop
      vertex 60.3515 -201.165 1380.55
      vertex 42.4107 -173.714 1381.4
      vertex 67.4276 -193.319 1370.52
    endloop
  endfacet
  facet normal -0.598548 -0.369257 -0.710907
    outer loop
      vertex 42.4107 -173.714 1381.4
      vertex 43.7616 -172.227 1379.49
      vertex 67.4276 -193.319 1370.52
    endloop
  endfacet
  facet normal -0.598548 -0.369256 -0.710909
    outer loop
      vertex 67.4276 -193.319 1370.52
      vertex 43.7616 -172.227 1379.49
      vertex 49.6736 -164.756 1370.63
    endloop
  endfacet
  facet normal -0.598544 -0.369255 -0.710912
    outer loop
      vertex 56.9796 -152.46 1358.09
      vertex 57.8364 -150.689 1356.45
      vertex 67.4276 -193.319 1370.52
    endloop
  endfacet
  facet normal -0.598544 -0.369255 -0.710912
    outer loop
      vertex 57.8364 -150.689 1356.45
      vertex 59.2452 -147.565 1353.64
      vertex 67.4276 -193.319 1370.52
    endloop
  endfacet
  facet normal -0.598544 -0.369255 -0.710912
    outer loop
      vertex 67.4276 -193.319 1370.52
      vertex 59.2452 -147.565 1353.64
      vertex 62.8379 -137.965 1345.63
    endloop
  endfacet
  facet normal -0.598545 -0.369253 -0.710912
    outer loop
      vertex -24.2137 -199.311 1450.79
      vertex -14.2504 -199.358 1442.42
      vertex -5.85342 -229.526 1451.02
    endloop
  endfacet
  facet normal -0.598554 -0.369253 -0.710904
    outer loop
      vertex -14.2504 -199.358 1442.42
      vertex -13.1227 -199.298 1441.44
      vertex -5.85342 -229.526 1451.02
    endloop
  endfacet
  facet normal -0.598545 -0.369253 -0.710912
    outer loop
      vertex -5.85342 -229.526 1451.02
      vertex -13.1227 -199.298 1441.44
      vertex -0.562442 -229.167 1446.38
    endloop
  endfacet
  facet normal -0.598548 -0.369254 -0.710909
    outer loop
      vertex -13.1227 -199.298 1441.44
      vertex -10.5975 -199.115 1439.22
      vertex -0.562442 -229.167 1446.38
    endloop
  endfacet
  facet normal -0.598548 -0.369254 -0.71091
    outer loop
      vertex -0.562442 -229.167 1446.38
      vertex -10.5975 -199.115 1439.22
      vertex 3.64325 -228.699 1442.6
    endloop
  endfacet
  facet normal -0.598548 -0.369254 -0.710909
    outer loop
      vertex -10.5975 -199.115 1439.22
      vertex -4.57759 -198.393 1433.78
      vertex 3.64325 -228.699 1442.6
    endloop
  endfacet
  facet normal -0.598541 -0.369253 -0.710915
    outer loop
      vertex 35.1252 -219.266 1411.19
      vertex 34.1683 -219.732 1412.24
      vertex 19.2416 -190.971 1409.87
    endloop
  endfacet
  facet normal -0.598534 -0.369249 -0.710924
    outer loop
      vertex 34.1683 -219.732 1412.24
      vertex 32.5793 -220.478 1413.97
      vertex 19.2416 -190.971 1409.87
    endloop
  endfacet
  facet normal -0.598547 -0.369254 -0.71091
    outer loop
      vertex 19.2416 -190.971 1409.87
      vertex 32.5793 -220.478 1413.97
      vertex 13.6277 -193.463 1415.89
    endloop
  endfacet
  facet normal -0.598548 -0.369254 -0.710909
    outer loop
      vertex 32.5793 -220.478 1413.97
      vertex 25.5526 -223.367 1421.38
      vertex 13.6277 -193.463 1415.89
    endloop
  endfacet
  facet normal -0.598548 -0.369254 -0.710909
    outer loop
      vertex 13.6277 -193.463 1415.89
      vertex 25.5526 -223.367 1421.38
      vertex 5.69113 -196.159 1423.97
    endloop
  endfacet
  facet normal -0.598547 -0.369253 -0.71091
    outer loop
      vertex 25.5526 -223.367 1421.38
      vertex 19.7527 -225.289 1427.26
      vertex 5.69113 -196.159 1423.97
    endloop
  endfacet
  facet normal -0.59853 -0.369247 -0.710928
    outer loop
      vertex 5.69113 -196.159 1423.97
      vertex 19.7527 -225.289 1427.26
      vertex 4.73685 -196.423 1424.91
    endloop
  endfacet
  facet normal -0.598549 -0.369255 -0.710907
    outer loop
      vertex 19.7527 -225.289 1427.26
      vertex 16.3028 -226.248 1430.67
      vertex 4.73685 -196.423 1424.91
    endloop
  endfacet
  facet normal -0.59855 -0.369256 -0.710907
    outer loop
      vertex 4.73685 -196.423 1424.91
      vertex 16.3028 -226.248 1430.67
      vertex 3.35467 -196.785 1426.27
    endloop
  endfacet
  facet normal -0.598534 -0.369251 -0.710922
    outer loop
      vertex 16.3028 -226.248 1430.67
      vertex 15.4911 -226.455 1431.46
      vertex 3.35467 -196.785 1426.27
    endloop
  endfacet
  facet normal -0.598548 -0.369254 -0.710908
    outer loop
      vertex 3.35467 -196.785 1426.27
      vertex 15.4911 -226.455 1431.46
      vertex -4.57759 -198.393 1433.78
    endloop
  endfacet
  facet normal -0.598547 -0.369253 -0.710911
    outer loop
      vertex 15.4911 -226.455 1431.46
      vertex 5.00142 -228.513 1441.36
      vertex -4.57759 -198.393 1433.78
    endloop
  endfacet
  facet normal -0.598564 -0.369254 -0.710896
    outer loop
      vertex -4.57759 -198.393 1433.78
      vertex 5.00142 -228.513 1441.36
      vertex 3.64325 -228.699 1442.6
    endloop
  endfacet
  facet normal 0.0652145 -0.958552 -0.277352
    outer loop
      vertex 49.0316 -224.15 1427.24
      vertex 49.4963 -228.558 1442.58
      vertex 32.8415 -229.691 1442.58
    endloop
  endfacet
  facet normal 0.265263 -0.940862 -0.210748
    outer loop
      vertex 92.5543 -223.228 1458.21
      vertex 83.1697 -225.87 1458.2
      vertex 82.3256 -222.611 1442.58
    endloop
  endfacet
  facet normal 0.209216 -0.965419 -0.155547
    outer loop
      vertex 80.6013 -228.408 1470.18
      vertex 66.9068 -231.05 1468.15
      vertex 66.6215 -229.507 1458.2
    endloop
  endfacet
  facet normal -0.150007 -0.97391 -0.170284
    outer loop
      vertex -0.885658 -231.589 1458.2
      vertex -0.946038 -232.118 1461.27
      vertex -17.0081 -229.491 1460.4
    endloop
  endfacet
  facet normal -0.0792209 -0.982665 -0.167609
    outer loop
      vertex 16.0026 -232.951 1458.2
      vertex 15.9747 -233.684 1462.51
      vertex -0.885658 -231.589 1458.2
    endloop
  endfacet
  facet normal -0.0673451 -0.975278 -0.210472
    outer loop
      vertex 15.9747 -233.684 1462.51
      vertex 2.49073 -232.534 1461.5
      vertex -0.885658 -231.589 1458.2
    endloop
  endfacet
  facet normal -0.107676 -0.979473 -0.170408
    outer loop
      vertex -0.885658 -231.589 1458.2
      vertex 2.49073 -232.534 1461.5
      vertex -0.946038 -232.118 1461.27
    endloop
  endfacet
  facet normal 0.130408 -0.978415 -0.160304
    outer loop
      vertex 61.3439 -231.882 1467.39
      vertex 49.9875 -233.159 1465.95
      vertex 49.8493 -231.907 1458.2
    endloop
  endfacet
  facet normal 0.087697 -0.983163 -0.16031
    outer loop
      vertex 49.9875 -233.159 1465.95
      vertex 41.8108 -233.734 1465.01
      vertex 49.8493 -231.907 1458.2
    endloop
  endfacet
  facet normal 0.066714 -0.980588 -0.184381
    outer loop
      vertex 49.8493 -231.907 1458.2
      vertex 41.8108 -233.734 1465.01
      vertex 32.9453 -233.057 1458.2
    endloop
  endfacet
  facet normal 0.0510031 -0.985078 -0.16438
    outer loop
      vertex 41.8108 -233.734 1465.01
      vertex 32.9809 -234.035 1464.07
      vertex 32.9453 -233.057 1458.2
    endloop
  endfacet
  facet normal -0.00617255 -0.986399 -0.164253
    outer loop
      vertex 32.9453 -233.057 1458.2
      vertex 32.9809 -234.035 1464.07
      vertex 16.0026 -232.951 1458.2
    endloop
  endfacet
  facet normal 0.0134443 -0.975638 -0.218975
    outer loop
      vertex 32.9809 -234.035 1464.07
      vertex 22.145 -233.952 1463.04
      vertex 16.0026 -232.951 1458.2
    endloop
  endfacet
  facet normal -0.0285179 -0.985417 -0.167749
    outer loop
      vertex 16.0026 -232.951 1458.2
      vertex 22.145 -233.952 1463.04
      vertex 15.9747 -233.684 1462.51
    endloop
  endfacet
  facet normal 0.268171 -0.95159 -0.150206
    outer loop
      vertex 83.1697 -225.87 1458.2
      vertex 92.5543 -223.228 1458.21
      vertex 83.6485 -227.703 1470.66
    endloop
  endfacet
  facet normal 0.256949 -0.953282 -0.158842
    outer loop
      vertex 92.5543 -223.228 1458.21
      vertex 93.5007 -223.337 1460.4
      vertex 83.6485 -227.703 1470.66
    endloop
  endfacet
  facet normal 0.284626 -0.94968 -0.130752
    outer loop
      vertex 83.6485 -227.703 1470.66
      vertex 93.5007 -223.337 1460.4
      vertex 99.4419 -223.339 1473.35
    endloop
  endfacet
  facet normal 0.172769 -0.946295 -0.27327
    outer loop
      vertex 81.2513 -218.799 1428.7
      vertex 83.1109 -220.018 1434.1
      vertex 82.3256 -222.611 1442.58
    endloop
  endfacet
  facet normal 0.274091 -0.926495 -0.257839
    outer loop
      vertex 83.1109 -220.018 1434.1
      vertex 88.0437 -222.227 1447.28
      vertex 82.3256 -222.611 1442.58
    endloop
  endfacet
  facet normal 0.207441 -0.962689 -0.173773
    outer loop
      vertex 82.3256 -222.611 1442.58
      vertex 88.0437 -222.227 1447.28
      vertex 92.5543 -223.228 1458.21
    endloop
  endfacet
  facet normal 0.193461 -0.919262 -0.342826
    outer loop
      vertex 64.2547 -216.442 1412.23
      vertex 76.1537 -213.943 1412.25
      vertex 65.2311 -221.832 1427.24
    endloop
  endfacet
  facet normal 0.184841 -0.91877 -0.348848
    outer loop
      vertex 76.1537 -213.943 1412.25
      vertex 78.7385 -216.725 1420.94
      vertex 65.2311 -221.832 1427.24
    endloop
  endfacet
  facet normal 0.179209 -0.865099 -0.468495
    outer loop
      vertex 63.0966 -210.049 1397.64
      vertex 61.7624 -202.684 1383.53
      vertex 69.2823 -200.627 1382.61
    endloop
  endfacet
  facet normal 0.165451 -0.864843 -0.473996
    outer loop
      vertex 69.2823 -200.627 1382.61
      vertex 71.7988 -206.994 1395.1
      vertex 63.0966 -210.049 1397.64
    endloop
  endfacet
  facet normal 0.179961 -0.87909 -0.441379
    outer loop
      vertex 71.7988 -206.994 1395.1
      vertex 72.3809 -208.152 1397.65
      vertex 63.0966 -210.049 1397.64
    endloop
  endfacet
  facet normal 0.183191 -0.895027 -0.406656
    outer loop
      vertex 63.0966 -210.049 1397.64
      vertex 72.3809 -208.152 1397.65
      vertex 64.2547 -216.442 1412.23
    endloop
  endfacet
  facet normal 0.174005 -0.894625 -0.411545
    outer loop
      vertex 72.3809 -208.152 1397.65
      vertex 74.9586 -212.373 1407.91
      vertex 64.2547 -216.442 1412.23
    endloop
  endfacet
  facet normal 0.190507 -0.904984 -0.380408
    outer loop
      vertex 64.2547 -216.442 1412.23
      vertex 74.9586 -212.373 1407.91
      vertex 76.1537 -213.943 1412.25
    endloop
  endfacet
  facet normal 0.149749 -0.870628 -0.468596
    outer loop
      vertex 63.0966 -210.049 1397.64
      vertex 52.5772 -208.131 1390.72
      vertex 61.7624 -202.684 1383.53
    endloop
  endfacet
  facet normal 0.121679 -0.859661 -0.496162
    outer loop
      vertex 52.5772 -208.131 1390.72
      vertex 60.3515 -201.165 1380.55
      vertex 61.7624 -202.684 1383.53
    endloop
  endfacet
  facet normal 0.168231 -0.843562 -0.510002
    outer loop
      vertex 61.7624 -202.684 1383.53
      vertex 60.3515 -201.165 1380.55
      vertex 69.2823 -200.627 1382.61
    endloop
  endfacet
  facet normal 0.171814 -0.831175 -0.528799
    outer loop
      vertex 60.3515 -201.165 1380.55
      vertex 67.4276 -193.319 1370.52
      vertex 69.2823 -200.627 1382.61
    endloop
  endfacet
  facet normal 0.112916 -0.906565 -0.406682
    outer loop
      vertex 47.7763 -212.241 1397.64
      vertex 48.4574 -218.702 1412.23
      vertex 44.1516 -214.177 1400.95
    endloop
  endfacet
  facet normal 0.0694809 -0.91645 -0.39407
    outer loop
      vertex 48.4574 -218.702 1412.23
      vertex 35.1252 -219.266 1411.19
      vertex 44.1516 -214.177 1400.95
    endloop
  endfacet
  facet normal 0.00151959 -0.962858 -0.270005
    outer loop
      vertex 16.3028 -226.248 1430.67
      vertex 19.7527 -225.289 1427.26
      vertex 32.7048 -225.261 1427.24
    endloop
  endfacet
  facet normal 0.00141004 -0.950948 -0.309349
    outer loop
      vertex 19.7527 -225.289 1427.26
      vertex 25.5526 -223.367 1421.38
      vertex 32.7048 -225.261 1427.24
    endloop
  endfacet
  facet normal 0.0286362 -0.940291 -0.339166
    outer loop
      vertex 32.7048 -225.261 1427.24
      vertex 25.5526 -223.367 1421.38
      vertex 32.5793 -220.478 1413.97
    endloop
  endfacet
  facet normal -0.0693363 -0.97253 -0.222212
    outer loop
      vertex 16.1485 -229.587 1442.58
      vertex 3.64325 -228.699 1442.6
      vertex 5.00142 -228.513 1441.36
    endloop
  endfacet
  facet normal -0.150588 -0.972892 -0.17551
    outer loop
      vertex -17.0081 -229.491 1460.4
      vertex -5.85342 -229.526 1451.02
      vertex -0.885658 -231.589 1458.2
    endloop
  endfacet
  facet normal -0.111569 -0.972898 -0.20254
    outer loop
      vertex -5.85342 -229.526 1451.02
      vertex -0.562442 -229.167 1446.38
      vertex -0.885658 -231.589 1458.2
    endloop
  endfacet
  facet normal -0.0786961 -0.976155 -0.202308
    outer loop
      vertex -0.885658 -231.589 1458.2
      vertex -0.562442 -229.167 1446.38
      vertex 16.0026 -232.951 1458.2
    endloop
  endfacet
  facet normal -0.0763372 -0.975683 -0.205465
    outer loop
      vertex -0.562442 -229.167 1446.38
      vertex 3.64325 -228.699 1442.6
      vertex 16.0026 -232.951 1458.2
    endloop
  endfacet
  facet normal 0.245294 -0.957738 -0.150231
    outer loop
      vertex 83.6485 -227.703 1470.66
      vertex 80.6013 -228.408 1470.18
      vertex 83.1697 -225.87 1458.2
    endloop
  endfacet
  facet normal 0.2119 -0.964307 -0.158779
    outer loop
      vertex 80.6013 -228.408 1470.18
      vertex 66.6215 -229.507 1458.2
      vertex 83.1697 -225.87 1458.2
    endloop
  endfacet
  facet normal 0.209807 -0.95478 -0.210655
    outer loop
      vertex 83.1697 -225.87 1458.2
      vertex 66.6215 -229.507 1458.2
      vertex 82.3256 -222.611 1442.58
    endloop
  endfacet
  facet normal 0.209806 -0.95478 -0.210655
    outer loop
      vertex 66.6215 -229.507 1458.2
      vertex 66.0213 -226.194 1442.58
      vertex 82.3256 -222.611 1442.58
    endloop
  endfacet
  facet normal 0.206411 -0.939329 -0.273961
    outer loop
      vertex 82.3256 -222.611 1442.58
      vertex 66.0213 -226.194 1442.58
      vertex 81.2513 -218.799 1428.7
    endloop
  endfacet
  facet normal 0.203152 -0.939036 -0.277381
    outer loop
      vertex 66.0213 -226.194 1442.58
      vertex 65.2311 -221.832 1427.24
      vertex 81.2513 -218.799 1428.7
    endloop
  endfacet
  facet normal 0.203833 -0.932334 -0.298671
    outer loop
      vertex 81.2513 -218.799 1428.7
      vertex 65.2311 -221.832 1427.24
      vertex 80.7683 -218.442 1427.26
    endloop
  endfacet
  facet normal 0.202589 -0.92652 -0.317046
    outer loop
      vertex 65.2311 -221.832 1427.24
      vertex 78.7385 -216.725 1420.94
      vertex 80.7683 -218.442 1427.26
    endloop
  endfacet
  facet normal -0.0695013 -0.975074 -0.210716
    outer loop
      vertex 3.64325 -228.699 1442.6
      vertex 16.1485 -229.587 1442.58
      vertex 16.0026 -232.951 1458.2
    endloop
  endfacet
  facet normal -0.00611614 -0.977541 -0.210655
    outer loop
      vertex 16.1485 -229.587 1442.58
      vertex 32.8415 -229.691 1442.58
      vertex 16.0026 -232.951 1458.2
    endloop
  endfacet
  facet normal -0.00611712 -0.977541 -0.210656
    outer loop
      vertex 16.0026 -232.951 1458.2
      vertex 32.8415 -229.691 1442.58
      vertex 32.9453 -233.057 1458.2
    endloop
  endfacet
  facet normal 0.0663543 -0.975306 -0.210656
    outer loop
      vertex 32.8415 -229.691 1442.58
      vertex 49.4963 -228.558 1442.58
      vertex 32.9453 -233.057 1458.2
    endloop
  endfacet
  facet normal 0.0663547 -0.975306 -0.210656
    outer loop
      vertex 32.9453 -233.057 1458.2
      vertex 49.4963 -228.558 1442.58
      vertex 49.8493 -231.907 1458.2
    endloop
  endfacet
  facet normal -0.0633714 -0.961618 -0.266973
    outer loop
      vertex 5.00142 -228.513 1441.36
      vertex 15.4911 -226.455 1431.46
      vertex 16.1485 -229.587 1442.58
    endloop
  endfacet
  facet normal -0.017762 -0.962704 -0.269974
    outer loop
      vertex 15.4911 -226.455 1431.46
      vertex 16.3028 -226.248 1430.67
      vertex 16.1485 -229.587 1442.58
    endloop
  endfacet
  facet normal -0.00602439 -0.962878 -0.269871
    outer loop
      vertex 16.1485 -229.587 1442.58
      vertex 16.3028 -226.248 1430.67
      vertex 32.8415 -229.691 1442.58
    endloop
  endfacet
  facet normal -0.000154896 -0.960753 -0.277405
    outer loop
      vertex 16.3028 -226.248 1430.67
      vertex 32.7048 -225.261 1427.24
      vertex 32.8415 -229.691 1442.58
    endloop
  endfacet
  facet normal 0.0652151 -0.958553 -0.277352
    outer loop
      vertex 32.8415 -229.691 1442.58
      vertex 32.7048 -225.261 1427.24
      vertex 49.0316 -224.15 1427.24
    endloop
  endfacet
  facet normal 0.063861 -0.93865 -0.338908
    outer loop
      vertex 32.7048 -225.261 1427.24
      vertex 32.5793 -220.478 1413.97
      vertex 49.0316 -224.15 1427.24
    endloop
  endfacet
  facet normal 0.0673521 -0.936999 -0.342779
    outer loop
      vertex 49.0316 -224.15 1427.24
      vertex 32.5793 -220.478 1413.97
      vertex 48.4574 -218.702 1412.23
    endloop
  endfacet
  facet normal 0.0673404 -0.936971 -0.342857
    outer loop
      vertex 32.5793 -220.478 1413.97
      vertex 34.1683 -219.732 1412.24
      vertex 48.4574 -218.702 1412.23
    endloop
  endfacet
  facet normal 0.0670404 -0.932899 -0.353843
    outer loop
      vertex 48.4574 -218.702 1412.23
      vertex 34.1683 -219.732 1412.24
      vertex 35.1252 -219.266 1411.19
    endloop
  endfacet
  facet normal 0.166905 -0.973617 -0.155605
    outer loop
      vertex 66.9068 -231.05 1468.15
      vertex 61.3439 -231.882 1467.39
      vertex 66.6215 -229.507 1458.2
    endloop
  endfacet
  facet normal 0.139536 -0.975214 -0.171719
    outer loop
      vertex 61.3439 -231.882 1467.39
      vertex 49.8493 -231.907 1458.2
      vertex 66.6215 -229.507 1458.2
    endloop
  endfacet
  facet normal 0.138462 -0.967705 -0.210655
    outer loop
      vertex 66.6215 -229.507 1458.2
      vertex 49.8493 -231.907 1458.2
      vertex 66.0213 -226.194 1442.58
    endloop
  endfacet
  facet normal 0.138462 -0.967705 -0.210656
    outer loop
      vertex 49.8493 -231.907 1458.2
      vertex 49.4963 -228.558 1442.58
      vertex 66.0213 -226.194 1442.58
    endloop
  endfacet
  facet normal 0.136083 -0.951082 -0.277352
    outer loop
      vertex 66.0213 -226.194 1442.58
      vertex 49.4963 -228.558 1442.58
      vertex 65.2311 -221.832 1427.24
    endloop
  endfacet
  facet normal 0.136083 -0.951082 -0.277352
    outer loop
      vertex 49.4963 -228.558 1442.58
      vertex 49.0316 -224.15 1427.24
      vertex 65.2311 -221.832 1427.24
    endloop
  endfacet
  facet normal 0.13306 -0.92996 -0.342738
    outer loop
      vertex 65.2311 -221.832 1427.24
      vertex 49.0316 -224.15 1427.24
      vertex 64.2547 -216.442 1412.23
    endloop
  endfacet
  facet normal 0.13306 -0.92996 -0.342738
    outer loop
      vertex 49.0316 -224.15 1427.24
      vertex 48.4574 -218.702 1412.23
      vertex 64.2547 -216.442 1412.23
    endloop
  endfacet
  facet normal 0.129408 -0.904436 -0.406509
    outer loop
      vertex 64.2547 -216.442 1412.23
      vertex 48.4574 -218.702 1412.23
      vertex 63.0966 -210.049 1397.64
    endloop
  endfacet
  facet normal 0.129409 -0.904436 -0.406509
    outer loop
      vertex 48.4574 -218.702 1412.23
      vertex 47.7763 -212.241 1397.64
      vertex 63.0966 -210.049 1397.64
    endloop
  endfacet
  facet normal 0.127226 -0.889178 -0.439517
    outer loop
      vertex 63.0966 -210.049 1397.64
      vertex 47.7763 -212.241 1397.64
      vertex 52.5772 -208.131 1390.72
    endloop
  endfacet
  facet normal -0.0180382 -0.854272 -0.519513
    outer loop
      vertex 47.7763 -212.241 1397.64
      vertex 44.1516 -214.177 1400.95
      vertex 52.5772 -208.131 1390.72
    endloop
  endfacet
endsolid Mesh
