solid Mesh
  facet normal 0.766987 -0.321128 -0.555525
    outer loop
      vertex 123.702 -186.302 1485.43
      vertex 124.997 -185.943 1487.01
      vertex 99.4419 -223.339 1473.35
    endloop
  endfacet
  facet normal 0.766987 -0.321128 -0.555525
    outer loop
      vertex 124.997 -185.943 1487.01
      vertex 99.8172 -223.269 1473.82
      vertex 99.4419 -223.339 1473.35
    endloop
  endfacet
  facet normal -0.860384 -0.321161 0.395721
    outer loop
      vertex -137.166 -140.218 1510.58
      vertex -141.8 -133.366 1506.07
      vertex -115.828 -196.439 1511.35
    endloop
  endfacet
  facet normal -0.860386 -0.32116 0.395718
    outer loop
      vertex -82.0293 -214.48 1570.19
      vertex -83.884 -174.275 1598.79
      vertex -87.4734 -175.318 1590.14
    endloop
  endfacet
  facet normal -0.860381 -0.321162 0.395725
    outer loop
      vertex -121.918 -158.588 1528.83
      vertex -122.863 -157.629 1527.55
      vertex -115.828 -196.439 1511.35
    endloop
  endfacet
  facet normal -0.860385 -0.32116 0.395718
    outer loop
      vertex -122.863 -157.629 1527.55
      vertex -127.665 -152.391 1521.36
      vertex -115.828 -196.439 1511.35
    endloop
  endfacet
  facet normal -0.860383 -0.321161 0.395723
    outer loop
      vertex -115.828 -196.439 1511.35
      vertex -127.665 -152.391 1521.36
      vertex -132.408 -146.619 1515.73
    endloop
  endfacet
  facet normal -0.860592 -0.321188 0.395246
    outer loop
      vertex -132.408 -146.619 1515.73
      vertex -132.443 -146.574 1515.69
      vertex -115.828 -196.439 1511.35
    endloop
  endfacet
  facet normal -0.860372 -0.321159 0.395748
    outer loop
      vertex -132.443 -146.574 1515.69
      vertex -133.074 -145.761 1514.98
      vertex -115.828 -196.439 1511.35
    endloop
  endfacet
  facet normal -0.860385 -0.321161 0.395719
    outer loop
      vertex -115.828 -196.439 1511.35
      vertex -133.074 -145.761 1514.98
      vertex -137.166 -140.218 1510.58
    endloop
  endfacet
  facet normal -0.860384 -0.321161 0.395721
    outer loop
      vertex -87.4734 -175.318 1590.14
      vertex -90.5152 -175.623 1583.28
      vertex -82.0293 -214.48 1570.19
    endloop
  endfacet
  facet normal -0.860382 -0.321162 0.395724
    outer loop
      vertex -90.5152 -175.623 1583.28
      vertex -91.3141 -175.626 1581.54
      vertex -82.0293 -214.48 1570.19
    endloop
  endfacet
  facet normal -0.860384 -0.321161 0.395721
    outer loop
      vertex -82.0293 -214.48 1570.19
      vertex -91.3141 -175.626 1581.54
      vertex -86.451 -213.729 1561.19
    endloop
  endfacet
  facet normal -0.860386 -0.32116 0.395718
    outer loop
      vertex -91.3141 -175.626 1581.54
      vertex -95.38 -175.195 1573.05
      vertex -86.451 -213.729 1561.19
    endloop
  endfacet
  facet normal -0.860389 -0.321159 0.395712
    outer loop
      vertex -86.451 -213.729 1561.19
      vertex -95.38 -175.195 1573.05
      vertex -87.2341 -213.536 1559.64
    endloop
  endfacet
  facet normal -0.860384 -0.321161 0.39572
    outer loop
      vertex -95.38 -175.195 1573.05
      vertex -98.635 -174.366 1566.64
      vertex -87.2341 -213.536 1559.64
    endloop
  endfacet
  facet normal -0.860383 -0.321161 0.395722
    outer loop
      vertex -87.2341 -213.536 1559.64
      vertex -98.635 -174.366 1566.64
      vertex -92.653 -211.749 1549.31
    endloop
  endfacet
  facet normal -0.86038 -0.321163 0.395728
    outer loop
      vertex -98.635 -174.366 1566.64
      vertex -99.6431 -174.03 1564.73
      vertex -92.653 -211.749 1549.31
    endloop
  endfacet
  facet normal -0.860385 -0.32116 0.395719
    outer loop
      vertex -92.653 -211.749 1549.31
      vertex -99.6431 -174.03 1564.73
      vertex -98.2547 -209.127 1539.26
    endloop
  endfacet
  facet normal -0.860385 -0.32116 0.395719
    outer loop
      vertex -99.6431 -174.03 1564.73
      vertex -104.074 -172.137 1556.63
      vertex -98.2547 -209.127 1539.26
    endloop
  endfacet
  facet normal -0.860383 -0.321161 0.395722
    outer loop
      vertex -98.2547 -209.127 1539.26
      vertex -104.074 -172.137 1556.63
      vertex -101.419 -207.326 1533.84
    endloop
  endfacet
  facet normal -0.860383 -0.321162 0.395723
    outer loop
      vertex -104.074 -172.137 1556.63
      vertex -108.065 -169.896 1549.77
      vertex -101.419 -207.326 1533.84
    endloop
  endfacet
  facet normal -0.860388 -0.321159 0.395714
    outer loop
      vertex -101.419 -207.326 1533.84
      vertex -108.065 -169.896 1549.77
      vertex -102.768 -206.49 1531.59
    endloop
  endfacet
  facet normal -0.860396 -0.321154 0.395701
    outer loop
      vertex -108.065 -169.896 1549.77
      vertex -108.644 -169.531 1548.81
      vertex -102.768 -206.49 1531.59
    endloop
  endfacet
  facet normal -0.860378 -0.321165 0.395731
    outer loop
      vertex -102.768 -206.49 1531.59
      vertex -108.644 -169.531 1548.81
      vertex -104.007 -205.688 1529.55
    endloop
  endfacet
  facet normal -0.860361 -0.321177 0.395758
    outer loop
      vertex -108.644 -169.531 1548.81
      vertex -108.851 -169.398 1548.47
      vertex -104.007 -205.688 1529.55
    endloop
  endfacet
  facet normal -0.860386 -0.32116 0.395718
    outer loop
      vertex -104.007 -205.688 1529.55
      vertex -108.851 -169.398 1548.47
      vertex -109.876 -201.45 1520.22
    endloop
  endfacet
  facet normal -0.860384 -0.321162 0.39572
    outer loop
      vertex -108.851 -169.398 1548.47
      vertex -113.319 -166.228 1541.32
      vertex -109.876 -201.45 1520.22
    endloop
  endfacet
  facet normal -0.860382 -0.321163 0.395723
    outer loop
      vertex -109.876 -201.45 1520.22
      vertex -113.319 -166.228 1541.32
      vertex -113.161 -198.771 1515.26
    endloop
  endfacet
  facet normal -0.860385 -0.321161 0.39572
    outer loop
      vertex -113.319 -166.228 1541.32
      vertex -118.07 -162.252 1534.22
      vertex -113.161 -198.771 1515.26
    endloop
  endfacet
  facet normal -0.860384 -0.321161 0.39572
    outer loop
      vertex -113.161 -198.771 1515.26
      vertex -118.07 -162.252 1534.22
      vertex -115.828 -196.439 1511.35
    endloop
  endfacet
  facet normal -0.86039 -0.321156 0.395713
    outer loop
      vertex -118.07 -162.252 1534.22
      vertex -119.109 -161.301 1532.73
      vertex -115.828 -196.439 1511.35
    endloop
  endfacet
  facet normal -0.860383 -0.321161 0.395722
    outer loop
      vertex -115.828 -196.439 1511.35
      vertex -119.109 -161.301 1532.73
      vertex -121.918 -158.588 1528.83
    endloop
  endfacet
  facet normal 0.0937182 0.252844 -0.962957
    outer loop
      vertex -44.7309 -196.192 1466.44
      vertex -32.2114 -200.376 1466.56
      vertex -17.0081 -229.491 1460.4
    endloop
  endfacet
  facet normal 0.0937072 0.252839 -0.96296
    outer loop
      vertex -32.2114 -200.376 1466.56
      vertex -28.0808 -201.571 1466.65
      vertex -17.0081 -229.491 1460.4
    endloop
  endfacet
  facet normal 0.0935172 0.252904 -0.962961
    outer loop
      vertex 108.157 -193.571 1482.01
      vertex 108.441 -193.453 1482.07
      vertex 99.4419 -223.339 1473.35
    endloop
  endfacet
  facet normal 0.093716 0.252843 -0.962958
    outer loop
      vertex 108.441 -193.453 1482.07
      vertex 111.51 -192.139 1482.71
      vertex 99.4419 -223.339 1473.35
    endloop
  endfacet
  facet normal 0.0937155 0.252843 -0.962958
    outer loop
      vertex 99.4419 -223.339 1473.35
      vertex 111.51 -192.139 1482.71
      vertex 123.702 -186.302 1485.43
    endloop
  endfacet
  facet normal 0.093714 0.252842 -0.962958
    outer loop
      vertex -28.0808 -201.571 1466.65
      vertex -16.5488 -204.436 1467.02
      vertex -17.0081 -229.491 1460.4
    endloop
  endfacet
  facet normal 0.0937192 0.252841 -0.962958
    outer loop
      vertex -16.5488 -204.436 1467.02
      vertex -11.0546 -205.563 1467.26
      vertex -17.0081 -229.491 1460.4
    endloop
  endfacet
  facet normal 0.0937105 0.252844 -0.962958
    outer loop
      vertex -17.0081 -229.491 1460.4
      vertex -11.0546 -205.563 1467.26
      vertex -2.11714 -231.964 1461.2
    endloop
  endfacet
  facet normal 0.0937157 0.252845 -0.962957
    outer loop
      vertex -11.0546 -205.563 1467.26
      vertex -0.605041 -207.296 1467.82
      vertex -2.11714 -231.964 1461.2
    endloop
  endfacet
  facet normal 0.0937165 0.252845 -0.962957
    outer loop
      vertex -2.11714 -231.964 1461.2
      vertex -0.605041 -207.296 1467.82
      vertex 2.49073 -232.534 1461.5
    endloop
  endfacet
  facet normal 0.0937032 0.252844 -0.962959
    outer loop
      vertex -0.605041 -207.296 1467.82
      vertex 6.2239 -208.141 1468.26
      vertex 2.49073 -232.534 1461.5
    endloop
  endfacet
  facet normal 0.093716 0.252842 -0.962958
    outer loop
      vertex 2.49073 -232.534 1461.5
      vertex 6.2239 -208.141 1468.26
      vertex 15.0554 -233.63 1462.43
    endloop
  endfacet
  facet normal 0.0937153 0.252842 -0.962958
    outer loop
      vertex 6.2239 -208.141 1468.26
      vertex 15.5376 -208.932 1468.96
      vertex 15.0554 -233.63 1462.43
    endloop
  endfacet
  facet normal 0.0937101 0.252842 -0.962959
    outer loop
      vertex 15.0554 -233.63 1462.43
      vertex 15.5376 -208.932 1468.96
      vertex 22.145 -233.952 1463.04
    endloop
  endfacet
  facet normal 0.093724 0.252845 -0.962957
    outer loop
      vertex 15.5376 -208.932 1468.96
      vertex 23.6294 -209.284 1469.66
      vertex 22.145 -233.952 1463.04
    endloop
  endfacet
  facet normal 0.0937122 0.252846 -0.962957
    outer loop
      vertex 22.145 -233.952 1463.04
      vertex 23.6294 -209.284 1469.66
      vertex 32.3207 -234.044 1464
    endloop
  endfacet
  facet normal 0.0937067 0.252844 -0.962958
    outer loop
      vertex 23.6294 -209.284 1469.66
      vertex 31.7939 -209.324 1470.44
      vertex 32.3207 -234.044 1464
    endloop
  endfacet
  facet normal 0.0937166 0.252844 -0.962957
    outer loop
      vertex 32.3207 -234.044 1464
      vertex 31.7939 -209.324 1470.44
      vertex 41.8108 -233.734 1465.01
    endloop
  endfacet
  facet normal 0.0937097 0.252842 -0.962959
    outer loop
      vertex 31.7939 -209.324 1470.44
      vertex 41.0354 -208.986 1471.43
      vertex 41.8108 -233.734 1465.01
    endloop
  endfacet
  facet normal 0.0937167 0.252842 -0.962958
    outer loop
      vertex 41.8108 -233.734 1465.01
      vertex 41.0354 -208.986 1471.43
      vertex 49.5899 -233.194 1465.91
    endloop
  endfacet
  facet normal 0.0937257 0.252844 -0.962956
    outer loop
      vertex 41.0354 -208.986 1471.43
      vertex 48.0749 -208.453 1472.25
      vertex 49.5899 -233.194 1465.91
    endloop
  endfacet
  facet normal 0.0937146 0.252844 -0.962958
    outer loop
      vertex 49.5899 -233.194 1465.91
      vertex 48.0749 -208.453 1472.25
      vertex 61.3439 -231.882 1467.39
    endloop
  endfacet
  facet normal 0.0937087 0.252841 -0.962959
    outer loop
      vertex 48.0749 -208.453 1472.25
      vertex 58.3156 -207.248 1473.57
      vertex 61.3439 -231.882 1467.39
    endloop
  endfacet
  facet normal 0.0937026 0.25284 -0.96296
    outer loop
      vertex 61.3439 -231.882 1467.39
      vertex 58.3156 -207.248 1473.57
      vertex 66.7714 -231.071 1468.14
    endloop
  endfacet
  facet normal 0.0937125 0.252844 -0.962958
    outer loop
      vertex 58.3156 -207.248 1473.57
      vertex 64.2874 -206.305 1474.4
      vertex 66.7714 -231.071 1468.14
    endloop
  endfacet
  facet normal 0.0937203 0.252844 -0.962957
    outer loop
      vertex 66.7714 -231.071 1468.14
      vertex 64.2874 -206.305 1474.4
      vertex 80.6013 -228.408 1470.18
    endloop
  endfacet
  facet normal 0.0937212 0.252845 -0.962957
    outer loop
      vertex 64.2874 -206.305 1474.4
      vertex 75.3447 -204.082 1476.06
      vertex 80.6013 -228.408 1470.18
    endloop
  endfacet
  facet normal 0.0936984 0.252841 -0.96296
    outer loop
      vertex 80.6013 -228.408 1470.18
      vertex 75.3447 -204.082 1476.06
      vertex 83.7709 -227.674 1470.68
    endloop
  endfacet
  facet normal 0.0936991 0.252841 -0.96296
    outer loop
      vertex 75.3447 -204.082 1476.06
      vertex 80.3333 -202.871 1476.86
      vertex 83.7709 -227.674 1470.68
    endloop
  endfacet
  facet normal 0.0937131 0.252842 -0.962958
    outer loop
      vertex 83.7709 -227.674 1470.68
      vertex 80.3333 -202.871 1476.86
      vertex 99.4419 -223.339 1473.35
    endloop
  endfacet
  facet normal 0.0937159 0.252845 -0.962957
    outer loop
      vertex 80.3333 -202.871 1476.86
      vertex 91.9988 -199.512 1478.88
      vertex 99.4419 -223.339 1473.35
    endloop
  endfacet
  facet normal 0.0937152 0.252845 -0.962957
    outer loop
      vertex 99.4419 -223.339 1473.35
      vertex 91.9988 -199.512 1478.88
      vertex 108.157 -193.571 1482.01
    endloop
  endfacet
  facet normal 0.0274573 -0.9883 -0.150033
    outer loop
      vertex 32.3207 -234.044 1464
      vertex 32.3245 -234.185 1464.93
      vertex 32.1546 -234.187 1464.91
    endloop
  endfacet
  facet normal 0.00571771 -0.98806 -0.153964
    outer loop
      vertex 32.3207 -234.044 1464
      vertex 32.1546 -234.187 1464.91
      vertex 22.145 -233.952 1463.04
    endloop
  endfacet
  facet normal 0.000205766 -0.992149 -0.125061
    outer loop
      vertex 32.1546 -234.187 1464.91
      vertex 20.875 -234.055 1463.85
      vertex 22.145 -233.952 1463.04
    endloop
  endfacet
  facet normal -0.0301593 -0.984709 -0.171578
    outer loop
      vertex 22.145 -233.952 1463.04
      vertex 20.875 -234.055 1463.85
      vertex 15.0554 -233.63 1462.43
    endloop
  endfacet
  facet normal -0.159024 -0.980497 -0.11549
    outer loop
      vertex -18.4409 -229.36 1461.26
      vertex -17.0081 -229.491 1460.4
      vertex -1.90468 -232.145 1462.13
    endloop
  endfacet
  facet normal -0.153837 -0.97605 -0.153818
    outer loop
      vertex -17.0081 -229.491 1460.4
      vertex -2.11714 -231.964 1461.2
      vertex -1.90468 -232.145 1462.13
    endloop
  endfacet
  facet normal -0.112908 -0.979999 -0.163869
    outer loop
      vertex -1.90468 -232.145 1462.13
      vertex -2.11714 -231.964 1461.2
      vertex 1.13381 -232.528 1462.33
    endloop
  endfacet
  facet normal -0.110132 -0.979033 -0.171362
    outer loop
      vertex -2.11714 -231.964 1461.2
      vertex 2.49073 -232.534 1461.5
      vertex 1.13381 -232.528 1462.33
    endloop
  endfacet
  facet normal -0.0797987 -0.989334 -0.12186
    outer loop
      vertex 1.13381 -232.528 1462.33
      vertex 2.49073 -232.534 1461.5
      vertex 15.048 -233.776 1463.35
    endloop
  endfacet
  facet normal -0.0741899 -0.984848 -0.156747
    outer loop
      vertex 2.49073 -232.534 1461.5
      vertex 15.0554 -233.63 1462.43
      vertex 15.048 -233.776 1463.35
    endloop
  endfacet
  facet normal -0.0465499 -0.986534 -0.156795
    outer loop
      vertex 15.048 -233.776 1463.35
      vertex 15.0554 -233.63 1462.43
      vertex 15.0713 -233.778 1463.36
    endloop
  endfacet
  facet normal -0.0338573 -0.987004 -0.157088
    outer loop
      vertex 15.0554 -233.63 1462.43
      vertex 20.875 -234.055 1463.85
      vertex 15.0713 -233.778 1463.36
    endloop
  endfacet
  facet normal 0.04597 -0.987616 -0.150006
    outer loop
      vertex 32.3245 -234.185 1464.93
      vertex 32.3207 -234.044 1464
      vertex 40.6364 -233.931 1465.8
    endloop
  endfacet
  facet normal 0.0500144 -0.984368 -0.168872
    outer loop
      vertex 32.3207 -234.044 1464
      vertex 41.8108 -233.734 1465.01
      vertex 40.6364 -233.931 1465.8
    endloop
  endfacet
  facet normal 0.0803137 -0.988857 -0.125348
    outer loop
      vertex 40.6364 -233.931 1465.8
      vertex 41.8108 -233.734 1465.01
      vertex 49.263 -233.356 1466.79
    endloop
  endfacet
  facet normal 0.0855291 -0.985306 -0.147839
    outer loop
      vertex 41.8108 -233.734 1465.01
      vertex 49.5899 -233.194 1465.91
      vertex 49.263 -233.356 1466.79
    endloop
  endfacet
  facet normal 0.101595 -0.984666 -0.141815
    outer loop
      vertex 49.263 -233.356 1466.79
      vertex 49.5899 -233.194 1465.91
      vertex 49.6038 -233.326 1466.84
    endloop
  endfacet
  facet normal 0.125662 -0.98189 -0.141781
    outer loop
      vertex 49.6038 -233.326 1466.84
      vertex 49.5899 -233.194 1465.91
      vertex 60.272 -232.155 1468.18
    endloop
  endfacet
  facet normal 0.129855 -0.978003 -0.16324
    outer loop
      vertex 49.5899 -233.194 1465.91
      vertex 61.3439 -231.882 1467.39
      vertex 60.272 -232.155 1468.18
    endloop
  endfacet
  facet normal 0.160012 -0.979463 -0.122673
    outer loop
      vertex 60.272 -232.155 1468.18
      vertex 61.3439 -231.882 1467.39
      vertex 66.3105 -231.272 1469
    endloop
  endfacet
  facet normal 0.164661 -0.976632 -0.138119
    outer loop
      vertex 61.3439 -231.882 1467.39
      vertex 66.7714 -231.071 1468.14
      vertex 66.3105 -231.272 1469
    endloop
  endfacet
  facet normal 0.175352 -0.975591 -0.132187
    outer loop
      vertex 66.3105 -231.272 1469
      vertex 66.7714 -231.071 1468.14
      vertex 66.7941 -231.194 1469.07
    endloop
  endfacet
  facet normal 0.204633 -0.969877 -0.132151
    outer loop
      vertex 66.7941 -231.194 1469.07
      vertex 66.7714 -231.071 1468.14
      vertex 79.6362 -228.742 1470.96
    endloop
  endfacet
  facet normal 0.208837 -0.965623 -0.154787
    outer loop
      vertex 66.7714 -231.071 1468.14
      vertex 80.6013 -228.408 1470.18
      vertex 79.6362 -228.742 1470.96
    endloop
  endfacet
  facet normal 0.238763 -0.963987 -0.117134
    outer loop
      vertex 79.6362 -228.742 1470.96
      vertex 80.6013 -228.408 1470.18
      vertex 83.2076 -227.926 1471.52
    endloop
  endfacet
  facet normal 0.242628 -0.961987 -0.125352
    outer loop
      vertex 80.6013 -228.408 1470.18
      vertex 83.7709 -227.674 1470.68
      vertex 83.2076 -227.926 1471.52
    endloop
  endfacet
  facet normal 0.248411 -0.961042 -0.121202
    outer loop
      vertex 83.2076 -227.926 1471.52
      vertex 83.7709 -227.674 1470.68
      vertex 83.8006 -227.785 1471.62
    endloop
  endfacet
  facet normal 0.282379 -0.95162 -0.121168
    outer loop
      vertex 83.8006 -227.785 1471.62
      vertex 83.7709 -227.674 1470.68
      vertex 98.5859 -223.717 1474.13
    endloop
  endfacet
  facet normal 0.286434 -0.947277 -0.143601
    outer loop
      vertex 83.7709 -227.674 1470.68
      vertex 99.4419 -223.339 1473.35
      vertex 98.5859 -223.717 1474.13
    endloop
  endfacet
  facet normal 0.315778 -0.942535 -0.109141
    outer loop
      vertex 98.5859 -223.717 1474.13
      vertex 99.4419 -223.339 1473.35
      vertex 99.8172 -223.269 1473.82
    endloop
  endfacet
  facet normal 0.378659 -0.524793 0.762371
    outer loop
      vertex 99.8172 -223.269 1473.82
      vertex 124.997 -185.943 1487.01
      vertex 111.818 -193.393 1488.43
    endloop
  endfacet
  facet normal 0.378668 -0.524796 0.762365
    outer loop
      vertex -54.3126 -199.652 1566.63
      vertex -57.7054 -197.568 1569.75
      vertex -70.7547 -221.741 1559.6
    endloop
  endfacet
  facet normal 0.378657 -0.524793 0.762372
    outer loop
      vertex -67.3452 -190.679 1579.28
      vertex -76.0919 -182.897 1588.99
      vertex -82.0293 -214.48 1570.19
    endloop
  endfacet
  facet normal 0.378668 -0.524793 0.762367
    outer loop
      vertex -76.0919 -182.897 1588.99
      vertex -77.0935 -181.89 1590.18
      vertex -82.0293 -214.48 1570.19
    endloop
  endfacet
  facet normal 0.378665 -0.524793 0.762368
    outer loop
      vertex -82.0293 -214.48 1570.19
      vertex -77.0935 -181.89 1590.18
      vertex -83.884 -174.275 1598.79
    endloop
  endfacet
  facet normal 0.378663 -0.524792 0.76237
    outer loop
      vertex 14.7146 -217.889 1519.8
      vertex 1.32466 -217.141 1526.96
      vertex -3.0065 -241.567 1512.3
    endloop
  endfacet
  facet normal 0.378659 -0.524793 0.762371
    outer loop
      vertex -70.7547 -221.741 1559.6
      vertex -57.7054 -197.568 1569.75
      vertex -82.0293 -214.48 1570.19
    endloop
  endfacet
  facet normal 0.37866 -0.524795 0.76237
    outer loop
      vertex -57.7054 -197.568 1569.75
      vertex -64.42 -192.934 1576.28
      vertex -82.0293 -214.48 1570.19
    endloop
  endfacet
  facet normal 0.378659 -0.524794 0.76237
    outer loop
      vertex -82.0293 -214.48 1570.19
      vertex -64.42 -192.934 1576.28
      vertex -67.3452 -190.679 1579.28
    endloop
  endfacet
  facet normal 0.378651 -0.524787 0.762379
    outer loop
      vertex -54.3126 -199.652 1566.63
      vertex -70.7547 -221.741 1559.6
      vertex -50.1807 -201.983 1562.98
    endloop
  endfacet
  facet normal 0.378653 -0.524789 0.762377
    outer loop
      vertex -70.7547 -221.741 1559.6
      vertex -70.2524 -222.029 1559.15
      vertex -50.1807 -201.983 1562.98
    endloop
  endfacet
  facet normal 0.378662 -0.524797 0.762367
    outer loop
      vertex -50.1807 -201.983 1562.98
      vertex -70.2524 -222.029 1559.15
      vertex -47.2403 -203.514 1560.46
    endloop
  endfacet
  facet normal 0.378659 -0.524793 0.762371
    outer loop
      vertex -70.2524 -222.029 1559.15
      vertex -57.537 -228.432 1548.42
      vertex -47.2403 -203.514 1560.46
    endloop
  endfacet
  facet normal 0.37866 -0.524793 0.76237
    outer loop
      vertex -47.2403 -203.514 1560.46
      vertex -57.537 -228.432 1548.42
      vertex -36.0235 -208.475 1551.48
    endloop
  endfacet
  facet normal 0.378666 -0.524799 0.762364
    outer loop
      vertex -57.537 -228.432 1548.42
      vertex -54.8353 -229.594 1546.28
      vertex -36.0235 -208.475 1551.48
    endloop
  endfacet
  facet normal 0.378661 -0.524795 0.762368
    outer loop
      vertex -36.0235 -208.475 1551.48
      vertex -54.8353 -229.594 1546.28
      vertex -24.1339 -212.418 1542.86
    endloop
  endfacet
  facet normal 0.378659 -0.52479 0.762373
    outer loop
      vertex -54.8353 -229.594 1546.28
      vertex -43.9748 -233.644 1538.1
      vertex -24.1339 -212.418 1542.86
    endloop
  endfacet
  facet normal 0.378661 -0.524792 0.762371
    outer loop
      vertex -24.1339 -212.418 1542.86
      vertex -43.9748 -233.644 1538.1
      vertex -18.5302 -213.865 1539.08
    endloop
  endfacet
  facet normal 0.378661 -0.524792 0.762371
    outer loop
      vertex -43.9748 -233.644 1538.1
      vertex -29.664 -237.627 1528.25
      vertex -18.5302 -213.865 1539.08
    endloop
  endfacet
  facet normal 0.378657 -0.524791 0.762373
    outer loop
      vertex -18.5302 -213.865 1539.08
      vertex -29.664 -237.627 1528.25
      vertex -11.6553 -215.313 1534.67
    endloop
  endfacet
  facet normal 0.378659 -0.524792 0.762372
    outer loop
      vertex -29.664 -237.627 1528.25
      vertex -20.6824 -239.428 1522.55
      vertex -11.6553 -215.313 1534.67
    endloop
  endfacet
  facet normal 0.378653 -0.524792 0.762375
    outer loop
      vertex -11.6553 -215.313 1534.67
      vertex -20.6824 -239.428 1522.55
      vertex -8.50692 -215.862 1532.72
    endloop
  endfacet
  facet normal 0.378664 -0.524794 0.762368
    outer loop
      vertex 111.818 -193.393 1488.43
      vertex 98.2723 -199.93 1490.66
      vertex 99.8172 -223.269 1473.82
    endloop
  endfacet
  facet normal 0.378659 -0.524795 0.76237
    outer loop
      vertex 98.2723 -199.93 1490.66
      vertex 97.0182 -200.481 1490.9
      vertex 99.8172 -223.269 1473.82
    endloop
  endfacet
  facet normal 0.378647 -0.524799 0.762373
    outer loop
      vertex 99.8172 -223.269 1473.82
      vertex 97.0182 -200.481 1490.9
      vertex 98.5859 -223.717 1474.13
    endloop
  endfacet
  facet normal 0.378664 -0.524794 0.762368
    outer loop
      vertex 97.0182 -200.481 1490.9
      vertex 82.2996 -229.83 1478.01
      vertex 98.5859 -223.717 1474.13
    endloop
  endfacet
  facet normal 0.378669 -0.524795 0.762365
    outer loop
      vertex -3.0065 -241.567 1512.3
      vertex 0.785441 -241.799 1510.25
      vertex 14.7146 -217.889 1519.8
    endloop
  endfacet
  facet normal 0.378661 -0.524793 0.76237
    outer loop
      vertex 0.785441 -241.799 1510.25
      vertex 14.7555 -242.007 1503.17
      vertex 14.7146 -217.889 1519.8
    endloop
  endfacet
  facet normal 0.378657 -0.524794 0.762372
    outer loop
      vertex 14.7146 -217.889 1519.8
      vertex 14.7555 -242.007 1503.17
      vertex 28.4204 -217.552 1513.22
    endloop
  endfacet
  facet normal 0.378659 -0.524793 0.762371
    outer loop
      vertex 97.0182 -200.481 1490.9
      vertex 84.4543 -205.509 1493.68
      vertex 82.2996 -229.83 1478.01
    endloop
  endfacet
  facet normal 0.378665 -0.524792 0.762369
    outer loop
      vertex 84.4543 -205.509 1493.68
      vertex 81.4317 -206.588 1494.44
      vertex 82.2996 -229.83 1478.01
    endloop
  endfacet
  facet normal 0.37866 -0.524793 0.76237
    outer loop
      vertex 82.2996 -229.83 1478.01
      vertex 81.4317 -206.588 1494.44
      vertex 65.8493 -234.742 1482.8
    endloop
  endfacet
  facet normal 0.378655 -0.524792 0.762374
    outer loop
      vertex 81.4317 -206.588 1494.44
      vertex 70.4614 -210.088 1497.48
      vertex 65.8493 -234.742 1482.8
    endloop
  endfacet
  facet normal 0.378659 -0.524792 0.762372
    outer loop
      vertex 65.8493 -234.742 1482.8
      vertex 70.4614 -210.088 1497.48
      vertex 49.8452 -238.325 1488.28
    endloop
  endfacet
  facet normal 0.378662 -0.524793 0.76237
    outer loop
      vertex 70.4614 -210.088 1497.48
      vertex 56.3922 -213.638 1502.02
      vertex 49.8452 -238.325 1488.28
    endloop
  endfacet
  facet normal 0.378583 -0.524794 0.762408
    outer loop
      vertex 49.8452 -238.325 1488.28
      vertex 56.3922 -213.638 1502.02
      vertex 49.3538 -238.417 1488.46
    endloop
  endfacet
  facet normal 0.378659 -0.524794 0.76237
    outer loop
      vertex 56.3922 -213.638 1502.02
      vertex 48.8905 -215.1 1504.74
      vertex 49.3538 -238.417 1488.46
    endloop
  endfacet
  facet normal 0.378661 -0.524794 0.76237
    outer loop
      vertex 49.3538 -238.417 1488.46
      vertex 48.8905 -215.1 1504.74
      vertex 32.9324 -240.828 1494.96
    endloop
  endfacet
  facet normal 0.378664 -0.524794 0.762368
    outer loop
      vertex 48.8905 -215.1 1504.74
      vertex 42.3456 -216.131 1507.28
      vertex 32.9324 -240.828 1494.96
    endloop
  endfacet
  facet normal 0.378714 -0.524799 0.762339
    outer loop
      vertex 32.9324 -240.828 1494.96
      vertex 42.3456 -216.131 1507.28
      vertex 32.4225 -240.883 1495.17
    endloop
  endfacet
  facet normal 0.378656 -0.524793 0.762373
    outer loop
      vertex 42.3456 -216.131 1507.28
      vertex 32.1199 -217.278 1511.57
      vertex 32.4225 -240.883 1495.17
    endloop
  endfacet
  facet normal 0.378644 -0.524795 0.762377
    outer loop
      vertex 32.4225 -240.883 1495.17
      vertex 32.1199 -217.278 1511.57
      vertex 28.7334 -241.242 1496.76
    endloop
  endfacet
  facet normal 0.378666 -0.524793 0.762368
    outer loop
      vertex 32.1199 -217.278 1511.57
      vertex 28.4204 -217.552 1513.22
      vertex 28.7334 -241.242 1496.76
    endloop
  endfacet
  facet normal 0.378664 -0.524793 0.762369
    outer loop
      vertex 28.7334 -241.242 1496.76
      vertex 28.4204 -217.552 1513.22
      vertex 16.7039 -241.958 1502.24
    endloop
  endfacet
  facet normal 0.378642 -0.524789 0.762382
    outer loop
      vertex 28.4204 -217.552 1513.22
      vertex 14.7555 -242.007 1503.17
      vertex 16.7039 -241.958 1502.24
    endloop
  endfacet
  facet normal 0.378669 -0.524795 0.762364
    outer loop
      vertex -8.50692 -215.862 1532.72
      vertex -20.6824 -239.428 1522.55
      vertex -1.78641 -216.806 1528.74
    endloop
  endfacet
  facet normal 0.378668 -0.524795 0.762366
    outer loop
      vertex -20.6824 -239.428 1522.55
      vertex -14.7078 -240.352 1518.95
      vertex -1.78641 -216.806 1528.74
    endloop
  endfacet
  facet normal 0.378651 -0.52479 0.762377
    outer loop
      vertex -1.78641 -216.806 1528.74
      vertex -14.7078 -240.352 1518.95
      vertex 1.32466 -217.141 1526.96
    endloop
  endfacet
  facet normal 0.378661 -0.524794 0.762369
    outer loop
      vertex -14.7078 -240.352 1518.95
      vertex -8.28955 -241.113 1515.23
      vertex 1.32466 -217.141 1526.96
    endloop
  endfacet
  facet normal 0.378651 -0.524793 0.762375
    outer loop
      vertex 1.32466 -217.141 1526.96
      vertex -8.28955 -241.113 1515.23
      vertex -3.0065 -241.567 1512.3
    endloop
  endfacet
  facet normal -0.512151 -0.278905 -0.81235
    outer loop
      vertex -115.828 -196.439 1511.35
      vertex -141.8 -133.366 1506.07
      vertex -133.98 -143.077 1504.47
    endloop
  endfacet
  facet normal -0.512129 -0.278904 -0.812365
    outer loop
      vertex -120.477 -157.108 1500.78
      vertex -116.641 -160.574 1499.55
      vertex -115.828 -196.439 1511.35
    endloop
  endfacet
  facet normal -0.512143 -0.278902 -0.812357
    outer loop
      vertex -116.641 -160.574 1499.55
      vertex -107.239 -168.24 1496.25
      vertex -115.828 -196.439 1511.35
    endloop
  endfacet
  facet normal -0.512145 -0.2789 -0.812356
    outer loop
      vertex -115.828 -196.439 1511.35
      vertex -107.239 -168.24 1496.25
      vertex -104.357 -204.065 1506.74
    endloop
  endfacet
  facet normal -0.512136 -0.278897 -0.812363
    outer loop
      vertex -17.0081 -229.491 1460.4
      vertex -18.4409 -229.36 1461.26
      vertex -44.7309 -196.192 1466.44
    endloop
  endfacet
  facet normal -0.511979 -0.278749 -0.812512
    outer loop
      vertex -18.4409 -229.36 1461.26
      vertex -18.7024 -229.362 1461.42
      vertex -44.7309 -196.192 1466.44
    endloop
  endfacet
  facet normal -0.512104 -0.278893 -0.812384
    outer loop
      vertex -133.98 -143.077 1504.47
      vertex -132.255 -145.047 1504.06
      vertex -115.828 -196.439 1511.35
    endloop
  endfacet
  facet normal -0.512144 -0.278902 -0.812356
    outer loop
      vertex -132.255 -145.047 1504.06
      vertex -125.574 -152.167 1502.29
      vertex -115.828 -196.439 1511.35
    endloop
  endfacet
  facet normal -0.512154 -0.278903 -0.812349
    outer loop
      vertex -115.828 -196.439 1511.35
      vertex -125.574 -152.167 1502.29
      vertex -120.477 -157.108 1500.78
    endloop
  endfacet
  facet normal -0.512149 -0.2789 -0.812353
    outer loop
      vertex -107.239 -168.24 1496.25
      vertex -97.4339 -175.115 1492.43
      vertex -104.357 -204.065 1506.74
    endloop
  endfacet
  facet normal -0.512141 -0.278904 -0.812357
    outer loop
      vertex -97.4339 -175.115 1492.43
      vertex -93.7829 -177.408 1490.92
      vertex -104.357 -204.065 1506.74
    endloop
  endfacet
  facet normal -0.512145 -0.278901 -0.812355
    outer loop
      vertex -104.357 -204.065 1506.74
      vertex -93.7829 -177.408 1490.92
      vertex -102.111 -205.424 1505.79
    endloop
  endfacet
  facet normal -0.512138 -0.278905 -0.812359
    outer loop
      vertex -93.7829 -177.408 1490.92
      vertex -87.2903 -181.152 1488.11
      vertex -102.111 -205.424 1505.79
    endloop
  endfacet
  facet normal -0.512147 -0.278905 -0.812353
    outer loop
      vertex -18.7024 -229.362 1461.42
      vertex -30.7899 -228.933 1468.89
      vertex -44.7309 -196.192 1466.44
    endloop
  endfacet
  facet normal -0.512143 -0.278903 -0.812356
    outer loop
      vertex -30.7899 -228.933 1468.89
      vertex -43.2406 -227.419 1476.22
      vertex -44.7309 -196.192 1466.44
    endloop
  endfacet
  facet normal -0.512157 -0.278901 -0.812348
    outer loop
      vertex -44.7309 -196.192 1466.44
      vertex -43.2406 -227.419 1476.22
      vertex -47.6855 -195.65 1468.12
    endloop
  endfacet
  facet normal -0.512152 -0.278901 -0.812351
    outer loop
      vertex -43.2406 -227.419 1476.22
      vertex -47.4246 -226.668 1478.6
      vertex -47.6855 -195.65 1468.12
    endloop
  endfacet
  facet normal -0.512141 -0.278903 -0.812358
    outer loop
      vertex -47.4246 -226.668 1478.6
      vertex -53.2904 -225.413 1481.87
      vertex -47.6855 -195.65 1468.12
    endloop
  endfacet
  facet normal -0.512137 -0.278905 -0.81236
    outer loop
      vertex -47.6855 -195.65 1468.12
      vertex -53.2904 -225.413 1481.87
      vertex -55.5254 -193.855 1472.45
    endloop
  endfacet
  facet normal -0.512144 -0.278904 -0.812355
    outer loop
      vertex -53.2904 -225.413 1481.87
      vertex -55.7168 -224.824 1483.2
      vertex -55.5254 -193.855 1472.45
    endloop
  endfacet
  facet normal -0.512148 -0.278903 -0.812353
    outer loop
      vertex -55.5254 -193.855 1472.45
      vertex -55.7168 -224.824 1483.2
      vertex -63.6521 -191.448 1476.74
    endloop
  endfacet
  facet normal -0.512142 -0.278903 -0.812357
    outer loop
      vertex -55.7168 -224.824 1483.2
      vertex -68.1421 -221.166 1489.78
      vertex -63.6521 -191.448 1476.74
    endloop
  endfacet
  facet normal -0.512147 -0.278901 -0.812354
    outer loop
      vertex -63.6521 -191.448 1476.74
      vertex -68.1421 -221.166 1489.78
      vertex -66.265 -190.554 1478.08
    endloop
  endfacet
  facet normal -0.512144 -0.278902 -0.812356
    outer loop
      vertex -68.1421 -221.166 1489.78
      vertex -80.4405 -216.467 1495.92
      vertex -66.265 -190.554 1478.08
    endloop
  endfacet
  facet normal -0.512142 -0.278903 -0.812356
    outer loop
      vertex -66.265 -190.554 1478.08
      vertex -80.4405 -216.467 1495.92
      vertex -76.8772 -186.31 1483.32
    endloop
  endfacet
  facet normal -0.512158 -0.278898 -0.812348
    outer loop
      vertex -80.4405 -216.467 1495.92
      vertex -82.4075 -215.613 1496.86
      vertex -76.8772 -186.31 1483.32
    endloop
  endfacet
  facet normal -0.512157 -0.278898 -0.812349
    outer loop
      vertex -76.8772 -186.31 1483.32
      vertex -82.4075 -215.613 1496.86
      vertex -79.0827 -185.301 1484.36
    endloop
  endfacet
  facet normal -0.512137 -0.278905 -0.812359
    outer loop
      vertex -82.4075 -215.613 1496.86
      vertex -86.474 -213.756 1498.79
      vertex -79.0827 -185.301 1484.36
    endloop
  endfacet
  facet normal -0.512145 -0.278901 -0.812356
    outer loop
      vertex -79.0827 -185.301 1484.36
      vertex -86.474 -213.756 1498.79
      vertex -87.2903 -181.152 1488.11
    endloop
  endfacet
  facet normal -0.512139 -0.278902 -0.812359
    outer loop
      vertex -86.474 -213.756 1498.79
      vertex -92.5367 -210.755 1501.58
      vertex -87.2903 -181.152 1488.11
    endloop
  endfacet
  facet normal -0.512144 -0.2789 -0.812357
    outer loop
      vertex -87.2903 -181.152 1488.11
      vertex -92.5367 -210.755 1501.58
      vertex -102.111 -205.424 1505.79
    endloop
  endfacet
  facet normal -0.313142 -0.949433 -0.0227912
    outer loop
      vertex -40.8283 -234.723 1530.98
      vertex -54.9967 -230.119 1533.89
      vertex -54.8537 -229.721 1515.31
    endloop
  endfacet
  facet normal -0.321815 -0.930397 -0.175489
    outer loop
      vertex -55.7168 -224.824 1483.2
      vertex -53.2904 -225.413 1481.87
      vertex -54.2072 -227.917 1496.83
    endloop
  endfacet
  facet normal -0.0368216 -0.990919 -0.129316
    outer loop
      vertex 16.7039 -241.958 1502.24
      vertex 14.7555 -242.007 1503.17
      vertex 14.8039 -241.181 1496.83
    endloop
  endfacet
  facet normal -0.415714 -0.902416 0.113261
    outer loop
      vertex -70.2524 -222.029 1559.15
      vertex -70.7547 -221.741 1559.6
      vertex -71.0837 -222.488 1552.44
    endloop
  endfacet
  facet normal -0.372108 -0.921746 0.10918
    outer loop
      vertex -70.2524 -222.029 1559.15
      vertex -71.0837 -222.488 1552.44
      vertex -57.537 -228.432 1548.42
    endloop
  endfacet
  facet normal -0.386782 -0.920368 0.0576338
    outer loop
      vertex -71.0837 -222.488 1552.44
      vertex -71.5218 -223.465 1533.89
      vertex -57.537 -228.432 1548.42
    endloop
  endfacet
  facet normal -0.369196 -0.928578 0.0379081
    outer loop
      vertex -57.537 -228.432 1548.42
      vertex -71.5218 -223.465 1533.89
      vertex -54.8353 -229.594 1546.28
    endloop
  endfacet
  facet normal -0.225849 -0.972956 -0.0484661
    outer loop
      vertex -20.6824 -239.428 1522.55
      vertex -29.664 -237.627 1528.25
      vertex -37.8959 -235.071 1515.31
    endloop
  endfacet
  facet normal -0.161752 -0.983749 -0.0779306
    outer loop
      vertex -20.5761 -239.099 1515.31
      vertex -8.28955 -241.113 1515.23
      vertex -14.7078 -240.352 1518.95
    endloop
  endfacet
  facet normal -0.161538 -0.98147 -0.103063
    outer loop
      vertex -20.5761 -239.099 1515.31
      vertex -20.2145 -237.218 1496.83
      vertex -8.28955 -241.113 1515.23
    endloop
  endfacet
  facet normal -0.149795 -0.98248 -0.110885
    outer loop
      vertex -20.2145 -237.218 1496.83
      vertex -2.78178 -239.875 1496.83
      vertex -8.28955 -241.113 1515.23
    endloop
  endfacet
  facet normal -0.145361 -0.983288 -0.109612
    outer loop
      vertex -8.28955 -241.113 1515.23
      vertex -2.78178 -239.875 1496.83
      vertex -3.0065 -241.567 1512.3
    endloop
  endfacet
  facet normal -0.0734413 -0.988878 -0.12933
    outer loop
      vertex 14.8039 -241.181 1496.83
      vertex 14.7555 -242.007 1503.17
      vertex -2.78178 -239.875 1496.83
    endloop
  endfacet
  facet normal -0.076369 -0.98965 -0.121495
    outer loop
      vertex 14.7555 -242.007 1503.17
      vertex 0.785441 -241.799 1510.25
      vertex -2.78178 -239.875 1496.83
    endloop
  endfacet
  facet normal -0.119514 -0.986763 -0.109617
    outer loop
      vertex -2.78178 -239.875 1496.83
      vertex 0.785441 -241.799 1510.25
      vertex -3.0065 -241.567 1512.3
    endloop
  endfacet
  facet normal 0.0265799 -0.982136 -0.186283
    outer loop
      vertex 32.9324 -240.828 1494.96
      vertex 32.4225 -240.883 1495.17
      vertex 32.2967 -237.735 1478.56
    endloop
  endfacet
  facet normal 0.0155728 -0.98238 -0.186246
    outer loop
      vertex 32.4225 -240.883 1495.17
      vertex 28.7334 -241.242 1496.76
      vertex 32.2967 -237.735 1478.56
    endloop
  endfacet
  facet normal 0.00298532 -0.982041 -0.188646
    outer loop
      vertex 32.2967 -237.735 1478.56
      vertex 28.7334 -241.242 1496.76
      vertex 14.9246 -237.788 1478.56
    endloop
  endfacet
  facet normal 0.0696803 -0.979788 -0.187512
    outer loop
      vertex 32.9324 -240.828 1494.96
      vertex 32.2967 -237.735 1478.56
      vertex 49.3538 -238.417 1488.46
    endloop
  endfacet
  facet normal 0.0784659 -0.976154 -0.2024
    outer loop
      vertex 32.2967 -237.735 1478.56
      vertex 49.613 -236.343 1478.56
      vertex 49.3538 -238.417 1488.46
    endloop
  endfacet
  facet normal 0.107003 -0.973701 -0.201139
    outer loop
      vertex 49.3538 -238.417 1488.46
      vertex 49.613 -236.343 1478.56
      vertex 49.8452 -238.325 1488.28
    endloop
  endfacet
  facet normal 0.225336 -0.952847 -0.203242
    outer loop
      vertex 82.2996 -229.83 1478.01
      vertex 65.8493 -234.742 1482.8
      vertex 66.7705 -233.621 1478.56
    endloop
  endfacet
  facet normal 0.138818 -0.964392 -0.225115
    outer loop
      vertex 65.8493 -234.742 1482.8
      vertex 49.8452 -238.325 1488.28
      vertex 66.7705 -233.621 1478.56
    endloop
  endfacet
  facet normal 0.214892 -0.94968 -0.227882
    outer loop
      vertex 79.6362 -228.742 1470.96
      vertex 82.2996 -229.83 1478.01
      vertex 66.7941 -231.194 1469.07
    endloop
  endfacet
  facet normal 0.222022 -0.944789 -0.240997
    outer loop
      vertex 82.2996 -229.83 1478.01
      vertex 66.7705 -233.621 1478.56
      vertex 66.7941 -231.194 1469.07
    endloop
  endfacet
  facet normal 0.18698 -0.951862 -0.242892
    outer loop
      vertex 66.7941 -231.194 1469.07
      vertex 66.7705 -233.621 1478.56
      vertex 66.3105 -231.272 1469
    endloop
  endfacet
  facet normal 0.172683 -0.954565 -0.242869
    outer loop
      vertex 66.7705 -233.621 1478.56
      vertex 60.272 -232.155 1468.18
      vertex 66.3105 -231.272 1469
    endloop
  endfacet
  facet normal 0.252038 -0.937474 -0.240041
    outer loop
      vertex 79.6362 -228.742 1470.96
      vertex 83.2076 -227.926 1471.52
      vertex 82.2996 -229.83 1478.01
    endloop
  endfacet
  facet normal 0.26104 -0.935479 -0.238194
    outer loop
      vertex 83.2076 -227.926 1471.52
      vertex 83.8006 -227.785 1471.62
      vertex 82.2996 -229.83 1478.01
    endloop
  endfacet
  facet normal 0.294058 -0.928171 -0.228096
    outer loop
      vertex 82.2996 -229.83 1478.01
      vertex 83.8006 -227.785 1471.62
      vertex 98.5859 -223.717 1474.13
    endloop
  endfacet
  facet normal 0.153534 -0.967488 -0.200984
    outer loop
      vertex 49.8452 -238.325 1488.28
      vertex 49.613 -236.343 1478.56
      vertex 66.7705 -233.621 1478.56
    endloop
  endfacet
  facet normal 0.151899 -0.957187 -0.246414
    outer loop
      vertex 49.613 -236.343 1478.56
      vertex 49.6038 -233.326 1466.84
      vertex 66.7705 -233.621 1478.56
    endloop
  endfacet
  facet normal 0.133834 -0.966232 -0.220192
    outer loop
      vertex 66.7705 -233.621 1478.56
      vertex 49.6038 -233.326 1466.84
      vertex 60.272 -232.155 1468.18
    endloop
  endfacet
  facet normal 0.0374054 -0.967054 -0.251807
    outer loop
      vertex 32.1546 -234.187 1464.91
      vertex 32.3245 -234.185 1464.93
      vertex 32.2967 -237.735 1478.56
    endloop
  endfacet
  facet normal 0.0560135 -0.966222 -0.251552
    outer loop
      vertex 32.3245 -234.185 1464.93
      vertex 40.6364 -233.931 1465.8
      vertex 32.2967 -237.735 1478.56
    endloop
  endfacet
  facet normal 0.0778244 -0.968173 -0.237875
    outer loop
      vertex 32.2967 -237.735 1478.56
      vertex 40.6364 -233.931 1465.8
      vertex 49.613 -236.343 1478.56
    endloop
  endfacet
  facet normal 0.0927261 -0.964403 -0.247648
    outer loop
      vertex 40.6364 -233.931 1465.8
      vertex 49.263 -233.356 1466.79
      vertex 49.613 -236.343 1478.56
    endloop
  endfacet
  facet normal 0.112375 -0.962298 -0.247698
    outer loop
      vertex 49.613 -236.343 1478.56
      vertex 49.263 -233.356 1466.79
      vertex 49.6038 -233.326 1466.84
    endloop
  endfacet
  facet normal 0.0124285 -0.96772 -0.25172
    outer loop
      vertex 32.1546 -234.187 1464.91
      vertex 32.2967 -237.735 1478.56
      vertex 20.875 -234.055 1463.85
    endloop
  endfacet
  facet normal 0.00294739 -0.969564 -0.244821
    outer loop
      vertex 32.2967 -237.735 1478.56
      vertex 14.9246 -237.788 1478.56
      vertex 20.875 -234.055 1463.85
    endloop
  endfacet
  facet normal -0.024565 -0.966579 -0.255191
    outer loop
      vertex 20.875 -234.055 1463.85
      vertex 14.9246 -237.788 1478.56
      vertex 15.0713 -233.778 1463.36
    endloop
  endfacet
  facet normal -0.0716747 -0.965103 -0.251872
    outer loop
      vertex -2.39987 -236.501 1478.56
      vertex 1.13381 -232.528 1462.33
      vertex 14.9246 -237.788 1478.56
    endloop
  endfacet
  facet normal -0.0677531 -0.964557 -0.255027
    outer loop
      vertex 1.13381 -232.528 1462.33
      vertex 15.048 -233.776 1463.35
      vertex 14.9246 -237.788 1478.56
    endloop
  endfacet
  facet normal -0.0372541 -0.966169 -0.255205
    outer loop
      vertex 14.9246 -237.788 1478.56
      vertex 15.048 -233.776 1463.35
      vertex 15.0713 -233.778 1463.36
    endloop
  endfacet
  facet normal -0.218745 -0.940709 -0.259262
    outer loop
      vertex -36.4943 -229.948 1478.56
      vertex -18.7024 -229.362 1461.42
      vertex -19.5736 -233.883 1478.56
    endloop
  endfacet
  facet normal -0.155784 -0.953139 -0.259341
    outer loop
      vertex -18.7024 -229.362 1461.42
      vertex -18.4409 -229.36 1461.26
      vertex -19.5736 -233.883 1478.56
    endloop
  endfacet
  facet normal -0.145577 -0.954814 -0.259111
    outer loop
      vertex -19.5736 -233.883 1478.56
      vertex -18.4409 -229.36 1461.26
      vertex -2.39987 -236.501 1478.56
    endloop
  endfacet
  facet normal -0.147172 -0.954954 -0.25769
    outer loop
      vertex -18.4409 -229.36 1461.26
      vertex -1.90468 -232.145 1462.13
      vertex -2.39987 -236.501 1478.56
    endloop
  endfacet
  facet normal -0.104413 -0.960519 -0.257877
    outer loop
      vertex -2.39987 -236.501 1478.56
      vertex -1.90468 -232.145 1462.13
      vertex 1.13381 -232.528 1462.33
    endloop
  endfacet
  facet normal -0.282314 -0.938122 -0.200565
    outer loop
      vertex -47.4246 -226.668 1478.6
      vertex -43.2406 -227.419 1476.22
      vertex -36.4943 -229.948 1478.56
    endloop
  endfacet
  facet normal -0.261895 -0.931518 -0.25236
    outer loop
      vertex -43.2406 -227.419 1476.22
      vertex -30.7899 -228.933 1468.89
      vertex -36.4943 -229.948 1478.56
    endloop
  endfacet
  facet normal -0.153164 -0.969336 -0.192166
    outer loop
      vertex -36.4943 -229.948 1478.56
      vertex -30.7899 -228.933 1468.89
      vertex -18.7024 -229.362 1461.42
    endloop
  endfacet
  facet normal -0.359408 -0.917846 -0.168477
    outer loop
      vertex -55.7168 -224.824 1483.2
      vertex -54.2072 -227.917 1496.83
      vertex -68.1421 -221.166 1489.78
    endloop
  endfacet
  facet normal -0.432708 -0.895624 -0.103058
    outer loop
      vertex -71.3485 -223.079 1515.31
      vertex -82.4075 -215.613 1496.86
      vertex -70.5649 -221.33 1496.83
    endloop
  endfacet
  facet normal -0.433179 -0.896669 -0.0913241
    outer loop
      vertex -82.4075 -215.613 1496.86
      vertex -80.4405 -216.467 1495.92
      vertex -70.5649 -221.33 1496.83
    endloop
  endfacet
  facet normal -0.56633 -0.821336 -0.0683978
    outer loop
      vertex -109.876 -201.45 1520.22
      vertex -113.161 -198.771 1515.26
      vertex -102.56 -206.086 1515.31
    endloop
  endfacet
  facet normal -0.564472 -0.818919 -0.103643
    outer loop
      vertex -113.161 -198.771 1515.26
      vertex -115.828 -196.439 1511.35
      vertex -102.56 -206.086 1515.31
    endloop
  endfacet
  facet normal -0.57225 -0.81686 -0.072589
    outer loop
      vertex -115.828 -196.439 1511.35
      vertex -104.357 -204.065 1506.74
      vertex -102.56 -206.086 1515.31
    endloop
  endfacet
  facet normal -0.541576 -0.836481 -0.0836382
    outer loop
      vertex -104.357 -204.065 1506.74
      vertex -102.111 -205.424 1505.79
      vertex -102.56 -206.086 1515.31
    endloop
  endfacet
  facet normal -0.509905 -0.856167 -0.0835146
    outer loop
      vertex -102.56 -206.086 1515.31
      vertex -102.111 -205.424 1505.79
      vertex -87.2822 -215.185 1515.31
    endloop
  endfacet
  facet normal -0.511558 -0.855493 -0.080251
    outer loop
      vertex -102.111 -205.424 1505.79
      vertex -92.5367 -210.755 1501.58
      vertex -87.2822 -215.185 1515.31
    endloop
  endfacet
  facet normal -0.477695 -0.872948 -0.0988406
    outer loop
      vertex -87.2822 -215.185 1515.31
      vertex -92.5367 -210.755 1501.58
      vertex -86.474 -213.756 1498.79
    endloop
  endfacet
  facet normal -0.508422 -0.860807 -0.0227841
    outer loop
      vertex -87.4848 -215.557 1533.89
      vertex -101.419 -207.326 1533.84
      vertex -87.2822 -215.185 1515.31
    endloop
  endfacet
  facet normal -0.504101 -0.863449 -0.0183671
    outer loop
      vertex -101.419 -207.326 1533.84
      vertex -102.768 -206.49 1531.59
      vertex -87.2822 -215.185 1515.31
    endloop
  endfacet
  facet normal -0.511494 -0.858835 -0.0278668
    outer loop
      vertex -87.2822 -215.185 1515.31
      vertex -102.768 -206.49 1531.59
      vertex -102.56 -206.086 1515.31
    endloop
  endfacet
  facet normal -0.510427 -0.85947 -0.0278689
    outer loop
      vertex -102.768 -206.49 1531.59
      vertex -104.007 -205.688 1529.55
      vertex -102.56 -206.086 1515.31
    endloop
  endfacet
  facet normal -0.550484 -0.834207 -0.0326464
    outer loop
      vertex -102.56 -206.086 1515.31
      vertex -104.007 -205.688 1529.55
      vertex -109.876 -201.45 1520.22
    endloop
  endfacet
  facet normal -0.448292 -0.886255 0.116564
    outer loop
      vertex -86.451 -213.729 1561.19
      vertex -87.2341 -213.536 1559.64
      vertex -86.9726 -214.616 1552.44
    endloop
  endfacet
  facet normal -0.495903 -0.861244 0.111087
    outer loop
      vertex -87.2341 -213.536 1559.64
      vertex -92.653 -211.749 1549.31
      vertex -86.9726 -214.616 1552.44
    endloop
  endfacet
  facet normal -0.474988 -0.878102 0.0576499
    outer loop
      vertex -86.9726 -214.616 1552.44
      vertex -92.653 -211.749 1549.31
      vertex -87.4848 -215.557 1533.89
    endloop
  endfacet
  facet normal -0.493893 -0.868149 0.0488575
    outer loop
      vertex -92.653 -211.749 1549.31
      vertex -98.2547 -209.127 1539.26
      vertex -87.4848 -215.557 1533.89
    endloop
  endfacet
  facet normal -0.508607 -0.860932 0.0107144
    outer loop
      vertex -87.4848 -215.557 1533.89
      vertex -98.2547 -209.127 1539.26
      vertex -101.419 -207.326 1533.84
    endloop
  endfacet
  facet normal -0.451632 -0.886722 -0.0987566
    outer loop
      vertex -86.474 -213.756 1498.79
      vertex -82.4075 -215.613 1496.86
      vertex -87.2822 -215.185 1515.31
    endloop
  endfacet
  facet normal -0.44188 -0.891916 -0.0960592
    outer loop
      vertex -82.4075 -215.613 1496.86
      vertex -71.3485 -223.079 1515.31
      vertex -87.2822 -215.185 1515.31
    endloop
  endfacet
  facet normal -0.443817 -0.895828 -0.022781
    outer loop
      vertex -87.2822 -215.185 1515.31
      vertex -71.3485 -223.079 1515.31
      vertex -87.4848 -215.557 1533.89
    endloop
  endfacet
  facet normal -0.443817 -0.895828 -0.0227812
    outer loop
      vertex -71.3485 -223.079 1515.31
      vertex -71.5218 -223.465 1533.89
      vertex -87.4848 -215.557 1533.89
    endloop
  endfacet
  facet normal -0.443195 -0.894572 0.0576074
    outer loop
      vertex -87.4848 -215.557 1533.89
      vertex -71.5218 -223.465 1533.89
      vertex -86.9726 -214.616 1552.44
    endloop
  endfacet
  facet normal -0.443196 -0.894572 0.057607
    outer loop
      vertex -71.5218 -223.465 1533.89
      vertex -71.0837 -222.488 1552.44
      vertex -86.9726 -214.616 1552.44
    endloop
  endfacet
  facet normal -0.44091 -0.889958 0.1165
    outer loop
      vertex -86.9726 -214.616 1552.44
      vertex -71.0837 -222.488 1552.44
      vertex -86.451 -213.729 1561.19
    endloop
  endfacet
  facet normal -0.442587 -0.889558 0.113154
    outer loop
      vertex -71.0837 -222.488 1552.44
      vertex -70.7547 -221.741 1559.6
      vertex -86.451 -213.729 1561.19
    endloop
  endfacet
  facet normal -0.438653 -0.887466 0.141375
    outer loop
      vertex -86.451 -213.729 1561.19
      vertex -70.7547 -221.741 1559.6
      vertex -82.0293 -214.48 1570.19
    endloop
  endfacet
  facet normal -0.180453 -0.982446 -0.0472849
    outer loop
      vertex -14.7078 -240.352 1518.95
      vertex -20.6824 -239.428 1522.55
      vertex -20.5761 -239.099 1515.31
    endloop
  endfacet
  facet normal -0.226234 -0.972913 -0.0475243
    outer loop
      vertex -20.6824 -239.428 1522.55
      vertex -37.8959 -235.071 1515.31
      vertex -20.5761 -239.099 1515.31
    endloop
  endfacet
  facet normal -0.225285 -0.968831 -0.103023
    outer loop
      vertex -20.5761 -239.099 1515.31
      vertex -37.8959 -235.071 1515.31
      vertex -20.2145 -237.218 1496.83
    endloop
  endfacet
  facet normal -0.225284 -0.968831 -0.103023
    outer loop
      vertex -37.8959 -235.071 1515.31
      vertex -37.3903 -233.224 1496.83
      vertex -20.2145 -237.218 1496.83
    endloop
  endfacet
  facet normal -0.257773 -0.965835 -0.0267483
    outer loop
      vertex -29.664 -237.627 1528.25
      vertex -40.8283 -234.723 1530.98
      vertex -37.8959 -235.071 1515.31
    endloop
  endfacet
  facet normal -0.30072 -0.953067 -0.035069
    outer loop
      vertex -40.8283 -234.723 1530.98
      vertex -54.8537 -229.721 1515.31
      vertex -37.8959 -235.071 1515.31
    endloop
  endfacet
  facet normal -0.299304 -0.94858 -0.103023
    outer loop
      vertex -37.8959 -235.071 1515.31
      vertex -54.8537 -229.721 1515.31
      vertex -37.3903 -233.224 1496.83
    endloop
  endfacet
  facet normal -0.299305 -0.948579 -0.103024
    outer loop
      vertex -54.8537 -229.721 1515.31
      vertex -54.2072 -227.917 1496.83
      vertex -37.3903 -233.224 1496.83
    endloop
  endfacet
  facet normal -0.296283 -0.939004 -0.174609
    outer loop
      vertex -37.3903 -233.224 1496.83
      vertex -54.2072 -227.917 1496.83
      vertex -47.4246 -226.668 1478.6
    endloop
  endfacet
  facet normal -0.298452 -0.938177 -0.175359
    outer loop
      vertex -54.2072 -227.917 1496.83
      vertex -53.2904 -225.413 1481.87
      vertex -47.4246 -226.668 1478.6
    endloop
  endfacet
  facet normal -0.242413 -0.969358 0.0397574
    outer loop
      vertex -29.664 -237.627 1528.25
      vertex -43.9748 -233.644 1538.1
      vertex -40.8283 -234.723 1530.98
    endloop
  endfacet
  facet normal -0.361639 -0.932133 -0.0185932
    outer loop
      vertex -43.9748 -233.644 1538.1
      vertex -54.8353 -229.594 1546.28
      vertex -40.8283 -234.723 1530.98
    endloop
  endfacet
  facet normal -0.300457 -0.952764 0.0443361
    outer loop
      vertex -40.8283 -234.723 1530.98
      vertex -54.8353 -229.594 1546.28
      vertex -54.9967 -230.119 1533.89
    endloop
  endfacet
  facet normal -0.373167 -0.926712 0.0441776
    outer loop
      vertex -54.8353 -229.594 1546.28
      vertex -71.5218 -223.465 1533.89
      vertex -54.9967 -230.119 1533.89
    endloop
  endfacet
  facet normal -0.373435 -0.927377 -0.0227817
    outer loop
      vertex -54.9967 -230.119 1533.89
      vertex -71.5218 -223.465 1533.89
      vertex -54.8537 -229.721 1515.31
    endloop
  endfacet
  facet normal -0.373434 -0.927377 -0.0227812
    outer loop
      vertex -71.5218 -223.465 1533.89
      vertex -71.3485 -223.079 1515.31
      vertex -54.8537 -229.721 1515.31
    endloop
  endfacet
  facet normal -0.371543 -0.922682 -0.103024
    outer loop
      vertex -54.8537 -229.721 1515.31
      vertex -71.3485 -223.079 1515.31
      vertex -54.2072 -227.917 1496.83
    endloop
  endfacet
  facet normal -0.371543 -0.922682 -0.103024
    outer loop
      vertex -71.3485 -223.079 1515.31
      vertex -70.5649 -221.33 1496.83
      vertex -54.2072 -227.917 1496.83
    endloop
  endfacet
  facet normal -0.369402 -0.917364 -0.148273
    outer loop
      vertex -54.2072 -227.917 1496.83
      vertex -70.5649 -221.33 1496.83
      vertex -68.1421 -221.166 1489.78
    endloop
  endfacet
  facet normal -0.423282 -0.890631 -0.166156
    outer loop
      vertex -70.5649 -221.33 1496.83
      vertex -80.4405 -216.467 1495.92
      vertex -68.1421 -221.166 1489.78
    endloop
  endfacet
  facet normal -0.283254 -0.941487 -0.182675
    outer loop
      vertex -47.4246 -226.668 1478.6
      vertex -36.4943 -229.948 1478.56
      vertex -37.3903 -233.224 1496.83
    endloop
  endfacet
  facet normal -0.222681 -0.957638 -0.1826
    outer loop
      vertex -36.4943 -229.948 1478.56
      vertex -19.5736 -233.883 1478.56
      vertex -37.3903 -233.224 1496.83
    endloop
  endfacet
  facet normal -0.222681 -0.957638 -0.1826
    outer loop
      vertex -37.3903 -233.224 1496.83
      vertex -19.5736 -233.883 1478.56
      vertex -20.2145 -237.218 1496.83
    endloop
  endfacet
  facet normal -0.148191 -0.971955 -0.1826
    outer loop
      vertex -19.5736 -233.883 1478.56
      vertex -2.39987 -236.501 1478.56
      vertex -20.2145 -237.218 1496.83
    endloop
  endfacet
  facet normal -0.14819 -0.971955 -0.1826
    outer loop
      vertex -20.2145 -237.218 1496.83
      vertex -2.39987 -236.501 1478.56
      vertex -2.78178 -239.875 1496.83
    endloop
  endfacet
  facet normal -0.0728173 -0.980487 -0.1826
    outer loop
      vertex -2.39987 -236.501 1478.56
      vertex 14.9246 -237.788 1478.56
      vertex -2.78178 -239.875 1496.83
    endloop
  endfacet
  facet normal -0.0728181 -0.980487 -0.1826
    outer loop
      vertex -2.78178 -239.875 1496.83
      vertex 14.9246 -237.788 1478.56
      vertex 14.8039 -241.181 1496.83
    endloop
  endfacet
  facet normal -0.00519469 -0.983164 -0.182651
    outer loop
      vertex 14.9246 -237.788 1478.56
      vertex 28.7334 -241.242 1496.76
      vertex 14.8039 -241.181 1496.83
    endloop
  endfacet
  facet normal -0.00500421 -0.990086 -0.140372
    outer loop
      vertex 14.8039 -241.181 1496.83
      vertex 28.7334 -241.242 1496.76
      vertex 16.7039 -241.958 1502.24
    endloop
  endfacet
  facet normal 0.158061 0.968616 0.191832
    outer loop
      vertex -1.08296 -211.22 1482.07
      vertex -17.3997 -208.557 1482.07
      vertex -18.0597 -211.762 1498.8
    endloop
  endfacet
  facet normal 0.632092 0.773122 -0.0523588
    outer loop
      vertex -113.319 -166.228 1541.32
      vertex -108.851 -169.398 1548.47
      vertex -109.389 -170.021 1532.77
    endloop
  endfacet
  facet normal 0.531057 0.8202 -0.21272
    outer loop
      vertex -95.38 -175.195 1573.05
      vertex -91.3141 -175.626 1581.54
      vertex -94.0324 -177.723 1566.67
    endloop
  endfacet
  facet normal 0.458868 0.847663 -0.266285
    outer loop
      vertex -76.0919 -182.897 1588.99
      vertex -67.3452 -190.679 1579.28
      vertex -78.0956 -183.6 1583.29
    endloop
  endfacet
  facet normal 0.459099 0.865046 -0.202295
    outer loop
      vertex -67.3452 -190.679 1579.28
      vertex -64.42 -192.934 1576.28
      vertex -65.2666 -194.733 1566.67
    endloop
  endfacet
  facet normal 0.196664 0.965556 -0.170365
    outer loop
      vertex -24.1339 -212.418 1542.86
      vertex -34.7559 -209.031 1549.79
      vertex -36.0235 -208.475 1551.48
    endloop
  endfacet
  facet normal 0.177491 0.984076 0.00952303
    outer loop
      vertex -11.6553 -215.313 1534.67
      vertex -8.50692 -215.862 1532.72
      vertex -18.5319 -214.055 1532.77
    endloop
  endfacet
  facet normal 0.0902214 0.993808 0.0648584
    outer loop
      vertex 1.32466 -217.141 1526.96
      vertex 14.7146 -217.889 1519.8
      vertex 15.2041 -217.669 1515.74
    endloop
  endfacet
  facet normal 0.0015176 0.998517 0.054419
    outer loop
      vertex 15.2041 -217.669 1515.74
      vertex 14.7146 -217.889 1519.8
      vertex 28.4204 -217.552 1513.22
    endloop
  endfacet
  facet normal -0.45664 0.872148 0.175607
    outer loop
      vertex 124.997 -185.943 1487.01
      vertex 123.702 -186.302 1485.43
      vertex 111.51 -192.139 1482.71
    endloop
  endfacet
  facet normal -0.463245 0.860068 0.213745
    outer loop
      vertex 124.997 -185.943 1487.01
      vertex 111.51 -192.139 1482.71
      vertex 111.818 -193.393 1488.43
    endloop
  endfacet
  facet normal -0.42228 0.880358 0.215986
    outer loop
      vertex 111.51 -192.139 1482.71
      vertex 108.441 -193.453 1482.07
      vertex 111.818 -193.393 1488.43
    endloop
  endfacet
  facet normal -0.398275 0.894497 0.203106
    outer loop
      vertex 111.818 -193.393 1488.43
      vertex 108.441 -193.453 1482.07
      vertex 98.2723 -199.93 1490.66
    endloop
  endfacet
  facet normal -0.320862 0.922912 0.212794
    outer loop
      vertex 80.7087 -204.134 1482.07
      vertex 84.4543 -205.509 1493.68
      vertex 96.3244 -198.705 1482.07
    endloop
  endfacet
  facet normal -0.322563 0.922741 0.210955
    outer loop
      vertex 84.4543 -205.509 1493.68
      vertex 97.0182 -200.481 1490.9
      vertex 96.3244 -198.705 1482.07
    endloop
  endfacet
  facet normal -0.358334 0.909417 0.211086
    outer loop
      vertex 96.3244 -198.705 1482.07
      vertex 97.0182 -200.481 1490.9
      vertex 98.2723 -199.93 1490.66
    endloop
  endfacet
  facet normal -0.243965 0.948056 0.204136
    outer loop
      vertex 64.6978 -208.254 1482.07
      vertex 70.4614 -210.088 1497.48
      vertex 80.7087 -204.134 1482.07
    endloop
  endfacet
  facet normal -0.246383 0.947797 0.202427
    outer loop
      vertex 70.4614 -210.088 1497.48
      vertex 81.4317 -206.588 1494.44
      vertex 80.7087 -204.134 1482.07
    endloop
  endfacet
  facet normal -0.283765 0.937263 0.202523
    outer loop
      vertex 80.7087 -204.134 1482.07
      vertex 81.4317 -206.588 1494.44
      vertex 84.4543 -205.509 1493.68
    endloop
  endfacet
  facet normal -0.157116 0.972033 0.174546
    outer loop
      vertex 62.9457 -211.594 1496.54
      vertex 48.8182 -214.283 1498.8
      vertex 56.3922 -213.638 1502.02
    endloop
  endfacet
  facet normal -0.141673 0.980444 0.136594
    outer loop
      vertex 48.8182 -214.283 1498.8
      vertex 48.8905 -215.1 1504.74
      vertex 56.3922 -213.638 1502.02
    endloop
  endfacet
  facet normal -0.102088 0.985326 0.136784
    outer loop
      vertex 48.8905 -215.1 1504.74
      vertex 48.8182 -214.283 1498.8
      vertex 42.3456 -216.131 1507.28
    endloop
  endfacet
  facet normal -0.0853395 0.985071 0.149504
    outer loop
      vertex 48.8182 -214.283 1498.8
      vertex 32.0778 -215.733 1498.8
      vertex 42.3456 -216.131 1507.28
    endloop
  endfacet
  facet normal -0.0607923 0.990902 0.120073
    outer loop
      vertex 42.3456 -216.131 1507.28
      vertex 32.0778 -215.733 1498.8
      vertex 32.1199 -217.278 1511.57
    endloop
  endfacet
  facet normal 0.398301 0.908154 -0.128891
    outer loop
      vertex -54.3126 -199.652 1566.63
      vertex -50.1807 -201.983 1562.98
      vertex -50.7766 -203.594 1549.79
    endloop
  endfacet
  facet normal 0.368722 0.920536 -0.129067
    outer loop
      vertex -50.1807 -201.983 1562.98
      vertex -47.2403 -203.514 1560.46
      vertex -50.7766 -203.594 1549.79
    endloop
  endfacet
  facet normal 0.47807 0.850413 -0.219652
    outer loop
      vertex -78.0956 -183.6 1583.29
      vertex -67.3452 -190.679 1579.28
      vertex -80.0015 -186.823 1566.67
    endloop
  endfacet
  facet normal 0.521029 0.810699 -0.267012
    outer loop
      vertex -78.0956 -183.6 1583.29
      vertex -90.5152 -175.623 1583.28
      vertex -87.4734 -175.318 1590.14
    endloop
  endfacet
  facet normal 0.497465 0.822165 -0.27672
    outer loop
      vertex -76.0919 -182.897 1588.99
      vertex -78.0956 -183.6 1583.29
      vertex -77.0935 -181.89 1590.18
    endloop
  endfacet
  facet normal 0.514747 0.811502 -0.276587
    outer loop
      vertex -78.0956 -183.6 1583.29
      vertex -87.4734 -175.318 1590.14
      vertex -77.0935 -181.89 1590.18
    endloop
  endfacet
  facet normal 0.509632 0.80325 -0.308326
    outer loop
      vertex -77.0935 -181.89 1590.18
      vertex -87.4734 -175.318 1590.14
      vertex -83.884 -174.275 1598.79
    endloop
  endfacet
  facet normal 0.607034 0.788933 -0.0953692
    outer loop
      vertex -108.065 -169.896 1549.77
      vertex -104.074 -172.137 1556.63
      vertex -95.3939 -179.643 1549.79
    endloop
  endfacet
  facet normal 0.585801 0.799343 -0.133744
    outer loop
      vertex -104.074 -172.137 1556.63
      vertex -99.6431 -174.03 1564.73
      vertex -95.3939 -179.643 1549.79
    endloop
  endfacet
  facet normal 0.577436 0.804667 -0.138124
    outer loop
      vertex -95.3939 -179.643 1549.79
      vertex -99.6431 -174.03 1564.73
      vertex -94.0324 -177.723 1566.67
    endloop
  endfacet
  facet normal 0.581597 0.796375 -0.165929
    outer loop
      vertex -99.6431 -174.03 1564.73
      vertex -98.635 -174.366 1566.64
      vertex -94.0324 -177.723 1566.67
    endloop
  endfacet
  facet normal 0.578924 0.792537 -0.191656
    outer loop
      vertex -94.0324 -177.723 1566.67
      vertex -98.635 -174.366 1566.64
      vertex -95.38 -175.195 1573.05
    endloop
  endfacet
  facet normal 0.608458 0.790839 -0.0659825
    outer loop
      vertex -108.065 -169.896 1549.77
      vertex -95.3939 -179.643 1549.79
      vertex -108.644 -169.531 1548.81
    endloop
  endfacet
  facet normal 0.608357 0.791716 -0.0555597
    outer loop
      vertex -95.3939 -179.643 1549.79
      vertex -95.9419 -180.416 1532.77
      vertex -108.644 -169.531 1548.81
    endloop
  endfacet
  facet normal 0.606049 0.793277 -0.0584465
    outer loop
      vertex -108.644 -169.531 1548.81
      vertex -95.9419 -180.416 1532.77
      vertex -108.851 -169.398 1548.47
    endloop
  endfacet
  facet normal 0.664239 0.747067 -0.0260239
    outer loop
      vertex -113.319 -166.228 1541.32
      vertex -109.389 -170.021 1532.77
      vertex -118.07 -162.252 1534.22
    endloop
  endfacet
  facet normal 0.667714 0.74436 0.00930681
    outer loop
      vertex -118.07 -162.252 1534.22
      vertex -109.389 -170.021 1532.77
      vertex -119.109 -161.301 1532.73
    endloop
  endfacet
  facet normal 0.667455 0.74415 0.0272934
    outer loop
      vertex -109.389 -170.021 1532.77
      vertex -109.089 -169.665 1515.74
      vertex -119.109 -161.301 1532.73
    endloop
  endfacet
  facet normal 0.671412 0.740416 0.0314634
    outer loop
      vertex -119.109 -161.301 1532.73
      vertex -109.089 -169.665 1515.74
      vertex -121.918 -158.588 1528.83
    endloop
  endfacet
  facet normal 0.729266 0.6793 0.0819892
    outer loop
      vertex -132.408 -146.619 1515.73
      vertex -127.665 -152.391 1521.36
      vertex -121.603 -158.219 1515.74
    endloop
  endfacet
  facet normal 0.711967 0.701023 0.0408529
    outer loop
      vertex -127.665 -152.391 1521.36
      vertex -122.863 -157.629 1527.55
      vertex -121.603 -158.219 1515.74
    endloop
  endfacet
  facet normal 0.684983 0.720933 0.105135
    outer loop
      vertex -116.641 -160.574 1499.55
      vertex -120.477 -157.108 1500.78
      vertex -121.603 -158.219 1515.74
    endloop
  endfacet
  facet normal 0.708102 0.698231 0.105189
    outer loop
      vertex -120.477 -157.108 1500.78
      vertex -125.574 -152.167 1502.29
      vertex -121.603 -158.219 1515.74
    endloop
  endfacet
  facet normal 0.726141 0.676396 0.123318
    outer loop
      vertex -132.408 -146.619 1515.73
      vertex -121.603 -158.219 1515.74
      vertex -132.443 -146.574 1515.69
    endloop
  endfacet
  facet normal 0.728797 0.678749 0.0903014
    outer loop
      vertex -121.603 -158.219 1515.74
      vertex -125.574 -152.167 1502.29
      vertex -132.443 -146.574 1515.69
    endloop
  endfacet
  facet normal 0.740694 0.663966 0.102571
    outer loop
      vertex -132.443 -146.574 1515.69
      vertex -125.574 -152.167 1502.29
      vertex -133.074 -145.761 1514.98
    endloop
  endfacet
  facet normal 0.737814 0.667707 0.0989809
    outer loop
      vertex -125.574 -152.167 1502.29
      vertex -132.255 -145.047 1504.06
      vertex -133.074 -145.761 1514.98
    endloop
  endfacet
  facet normal 0.76142 0.640658 0.0989804
    outer loop
      vertex -133.074 -145.761 1514.98
      vertex -132.255 -145.047 1504.06
      vertex -137.166 -140.218 1510.58
    endloop
  endfacet
  facet normal 0.758628 0.644727 0.0938664
    outer loop
      vertex -132.255 -145.047 1504.06
      vertex -133.98 -143.077 1504.47
      vertex -137.166 -140.218 1510.58
    endloop
  endfacet
  facet normal 0.782729 0.610167 0.122603
    outer loop
      vertex -137.166 -140.218 1510.58
      vertex -133.98 -143.077 1504.47
      vertex -141.8 -133.366 1506.07
    endloop
  endfacet
  facet normal 0.68697 0.725746 0.0369521
    outer loop
      vertex -122.863 -157.629 1527.55
      vertex -121.918 -158.588 1528.83
      vertex -121.603 -158.219 1515.74
    endloop
  endfacet
  facet normal 0.674439 0.737404 0.0369787
    outer loop
      vertex -121.918 -158.588 1528.83
      vertex -109.089 -169.665 1515.74
      vertex -121.603 -158.219 1515.74
    endloop
  endfacet
  facet normal 0.67158 0.734277 0.0990852
    outer loop
      vertex -121.603 -158.219 1515.74
      vertex -109.089 -169.665 1515.74
      vertex -116.641 -160.574 1499.55
    endloop
  endfacet
  facet normal 0.659473 0.743638 0.109991
    outer loop
      vertex -109.089 -169.665 1515.74
      vertex -107.882 -168.23 1498.8
      vertex -116.641 -160.574 1499.55
    endloop
  endfacet
  facet normal 0.657222 0.735846 0.163067
    outer loop
      vertex -116.641 -160.574 1499.55
      vertex -107.882 -168.23 1498.8
      vertex -107.239 -168.24 1496.25
    endloop
  endfacet
  facet normal 0.573815 0.801073 0.170346
    outer loop
      vertex -94.5882 -178.507 1498.8
      vertex -93.7829 -177.408 1490.92
      vertex -97.4339 -175.115 1492.43
    endloop
  endfacet
  facet normal 0.509765 0.839883 0.186377
    outer loop
      vertex -80.4906 -187.65 1498.8
      vertex -79.0827 -185.301 1484.36
      vertex -87.2903 -181.152 1488.11
    endloop
  endfacet
  facet normal 0.42416 0.871675 0.245503
    outer loop
      vertex -63.6521 -191.448 1476.74
      vertex -66.265 -190.554 1478.08
      vertex -64.2587 -192.653 1482.07
    endloop
  endfacet
  facet normal 0.455281 0.861572 0.224528
    outer loop
      vertex -66.265 -190.554 1478.08
      vertex -76.8772 -186.31 1483.32
      vertex -64.2587 -192.653 1482.07
    endloop
  endfacet
  facet normal 0.455855 0.869121 0.191897
    outer loop
      vertex -64.2587 -192.653 1482.07
      vertex -76.8772 -186.31 1483.32
      vertex -65.6857 -195.598 1498.8
    endloop
  endfacet
  facet normal 0.352444 0.897049 0.266622
    outer loop
      vertex -49.0959 -199.242 1482.07
      vertex -47.6855 -195.65 1468.12
      vertex -55.5254 -193.855 1472.45
    endloop
  endfacet
  facet normal 0.2621 0.926374 0.270434
    outer loop
      vertex -28.0808 -201.571 1466.65
      vertex -32.2114 -200.376 1466.56
      vertex -33.4406 -204.556 1482.07
    endloop
  endfacet
  facet normal 0.302849 0.913903 0.270302
    outer loop
      vertex -32.2114 -200.376 1466.56
      vertex -44.7309 -196.192 1466.44
      vertex -33.4406 -204.556 1482.07
    endloop
  endfacet
  facet normal 0.0634506 0.966391 0.249122
    outer loop
      vertex 15.5376 -208.932 1468.96
      vertex 6.2239 -208.141 1468.26
      vertex -1.08296 -211.22 1482.07
    endloop
  endfacet
  facet normal 0.101255 0.958274 0.267318
    outer loop
      vertex 6.2239 -208.141 1468.26
      vertex -0.605041 -207.296 1467.82
      vertex -1.08296 -211.22 1482.07
    endloop
  endfacet
  facet normal 0.155199 0.951077 0.267146
    outer loop
      vertex -1.08296 -211.22 1482.07
      vertex -0.605041 -207.296 1467.82
      vertex -17.3997 -208.557 1482.07
    endloop
  endfacet
  facet normal 0.14476 0.95597 0.255275
    outer loop
      vertex -0.605041 -207.296 1467.82
      vertex -11.0546 -205.563 1467.26
      vertex -17.3997 -208.557 1482.07
    endloop
  endfacet
  facet normal 0.182372 0.945632 0.269298
    outer loop
      vertex -17.3997 -208.557 1482.07
      vertex -11.0546 -205.563 1467.26
      vertex -16.5488 -204.436 1467.02
    endloop
  endfacet
  facet normal -0.0184184 0.970318 0.241131
    outer loop
      vertex 31.7939 -209.324 1470.44
      vertex 23.6294 -209.284 1469.66
      vertex 15.398 -212.525 1482.07
    endloop
  endfacet
  facet normal -0.10027 0.967874 0.230579
    outer loop
      vertex 41.0354 -208.986 1471.43
      vertex 31.9304 -212.464 1482.07
      vertex 48.0749 -208.453 1472.25
    endloop
  endfacet
  facet normal -0.0834263 0.962994 0.256288
    outer loop
      vertex 31.9304 -212.464 1482.07
      vertex 48.4012 -211.037 1482.07
      vertex 48.0749 -208.453 1472.25
    endloop
  endfacet
  facet normal -0.145366 0.955579 0.256395
    outer loop
      vertex 48.0749 -208.453 1472.25
      vertex 48.4012 -211.037 1482.07
      vertex 58.3156 -207.248 1473.57
    endloop
  endfacet
  facet normal -0.181398 0.959378 0.216075
    outer loop
      vertex 58.3156 -207.248 1473.57
      vertex 48.4012 -211.037 1482.07
      vertex 64.2874 -206.305 1474.4
    endloop
  endfacet
  facet normal -0.162945 0.954159 0.251055
    outer loop
      vertex 48.4012 -211.037 1482.07
      vertex 64.6978 -208.254 1482.07
      vertex 64.2874 -206.305 1474.4
    endloop
  endfacet
  facet normal -0.226881 0.940988 0.251129
    outer loop
      vertex 64.2874 -206.305 1474.4
      vertex 64.6978 -208.254 1482.07
      vertex 75.3447 -204.082 1476.06
    endloop
  endfacet
  facet normal -0.242837 0.943673 0.224746
    outer loop
      vertex 64.6978 -208.254 1482.07
      vertex 80.7087 -204.134 1482.07
      vertex 75.3447 -204.082 1476.06
    endloop
  endfacet
  facet normal -0.265878 0.932302 0.245197
    outer loop
      vertex 75.3447 -204.082 1476.06
      vertex 80.7087 -204.134 1482.07
      vertex 80.3333 -202.871 1476.86
    endloop
  endfacet
  facet normal -0.318377 0.915765 0.24497
    outer loop
      vertex 80.7087 -204.134 1482.07
      vertex 96.3244 -198.705 1482.07
      vertex 80.3333 -202.871 1476.86
    endloop
  endfacet
  facet normal -0.299476 0.939148 0.168272
    outer loop
      vertex 80.3333 -202.871 1476.86
      vertex 96.3244 -198.705 1482.07
      vertex 91.9988 -199.512 1478.88
    endloop
  endfacet
  facet normal -0.388302 0.895871 0.215953
    outer loop
      vertex 98.2723 -199.93 1490.66
      vertex 108.441 -193.453 1482.07
      vertex 96.3244 -198.705 1482.07
    endloop
  endfacet
  facet normal -0.39672 0.915221 0.0705925
    outer loop
      vertex 108.441 -193.453 1482.07
      vertex 108.157 -193.571 1482.01
      vertex 96.3244 -198.705 1482.07
    endloop
  endfacet
  facet normal -0.379402 0.877949 0.291992
    outer loop
      vertex 96.3244 -198.705 1482.07
      vertex 108.157 -193.571 1482.01
      vertex 91.9988 -199.512 1478.88
    endloop
  endfacet
  facet normal -0.208664 0.971471 0.112708
    outer loop
      vertex 56.3922 -213.638 1502.02
      vertex 70.4614 -210.088 1497.48
      vertex 62.9457 -211.594 1496.54
    endloop
  endfacet
  facet normal -0.215943 0.956798 0.194693
    outer loop
      vertex 70.4614 -210.088 1497.48
      vertex 64.6978 -208.254 1482.07
      vertex 62.9457 -211.594 1496.54
    endloop
  endfacet
  facet normal -0.151316 0.96702 0.204878
    outer loop
      vertex 62.9457 -211.594 1496.54
      vertex 64.6978 -208.254 1482.07
      vertex 48.8182 -214.283 1498.8
    endloop
  endfacet
  facet normal -0.16521 0.967422 0.191832
    outer loop
      vertex 64.6978 -208.254 1482.07
      vertex 48.4012 -211.037 1482.07
      vertex 48.8182 -214.283 1498.8
    endloop
  endfacet
  facet normal -0.0847066 0.977765 0.191832
    outer loop
      vertex 48.8182 -214.283 1498.8
      vertex 48.4012 -211.037 1482.07
      vertex 32.0778 -215.733 1498.8
    endloop
  endfacet
  facet normal -0.084706 0.977765 0.191833
    outer loop
      vertex 48.4012 -211.037 1482.07
      vertex 31.9304 -212.464 1482.07
      vertex 32.0778 -215.733 1498.8
    endloop
  endfacet
  facet normal -0.00362322 0.981421 0.191833
    outer loop
      vertex 32.0778 -215.733 1498.8
      vertex 31.9304 -212.464 1482.07
      vertex 15.2747 -215.795 1498.8
    endloop
  endfacet
  facet normal 0.240586 0.964382 0.109935
    outer loop
      vertex -34.8919 -209.494 1515.74
      vertex -18.0597 -211.762 1498.8
      vertex -34.3632 -207.695 1498.8
    endloop
  endfacet
  facet normal 0.237558 0.952243 0.191832
    outer loop
      vertex -18.0597 -211.762 1498.8
      vertex -17.3997 -208.557 1482.07
      vertex -34.3632 -207.695 1498.8
    endloop
  endfacet
  facet normal 0.237559 0.952243 0.191833
    outer loop
      vertex -34.3632 -207.695 1498.8
      vertex -17.3997 -208.557 1482.07
      vertex -33.4406 -204.556 1482.07
    endloop
  endfacet
  facet normal 0.233125 0.934469 0.26911
    outer loop
      vertex -17.3997 -208.557 1482.07
      vertex -16.5488 -204.436 1467.02
      vertex -33.4406 -204.556 1482.07
    endloop
  endfacet
  facet normal 0.224954 0.939047 0.259976
    outer loop
      vertex -33.4406 -204.556 1482.07
      vertex -16.5488 -204.436 1467.02
      vertex -28.0808 -201.571 1466.65
    endloop
  endfacet
  facet normal -0.0198192 0.992559 0.120139
    outer loop
      vertex 32.1199 -217.278 1511.57
      vertex 32.0778 -215.733 1498.8
      vertex 28.4204 -217.552 1513.22
    endloop
  endfacet
  facet normal -0.0036632 0.992251 0.124196
    outer loop
      vertex 32.0778 -215.733 1498.8
      vertex 15.2747 -215.795 1498.8
      vertex 28.4204 -217.552 1513.22
    endloop
  endfacet
  facet normal 0.0121361 0.993858 0.109993
    outer loop
      vertex 28.4204 -217.552 1513.22
      vertex 15.2747 -215.795 1498.8
      vertex 15.2041 -217.669 1515.74
    endloop
  endfacet
  facet normal 0.0784717 0.990836 0.109935
    outer loop
      vertex 15.2747 -215.795 1498.8
      vertex -1.70115 -216.33 1515.74
      vertex 15.2041 -217.669 1515.74
    endloop
  endfacet
  facet normal 0.0788487 0.995596 0.0507124
    outer loop
      vertex 15.2041 -217.669 1515.74
      vertex -1.70115 -216.33 1515.74
      vertex 1.32466 -217.141 1526.96
    endloop
  endfacet
  facet normal -0.0631443 0.963311 0.260854
    outer loop
      vertex 41.0354 -208.986 1471.43
      vertex 31.7939 -209.324 1470.44
      vertex 31.9304 -212.464 1482.07
    endloop
  endfacet
  facet normal -0.00356501 0.965408 0.260721
    outer loop
      vertex 31.7939 -209.324 1470.44
      vertex 15.398 -212.525 1482.07
      vertex 31.9304 -212.464 1482.07
    endloop
  endfacet
  facet normal -0.00362414 0.981421 0.191832
    outer loop
      vertex 31.9304 -212.464 1482.07
      vertex 15.398 -212.525 1482.07
      vertex 15.2747 -215.795 1498.8
    endloop
  endfacet
  facet normal 0.0774836 0.978364 0.191832
    outer loop
      vertex 15.398 -212.525 1482.07
      vertex -1.47594 -214.468 1498.8
      vertex 15.2747 -215.795 1498.8
    endloop
  endfacet
  facet normal 0.0784714 0.990836 0.109935
    outer loop
      vertex 15.2747 -215.795 1498.8
      vertex -1.47594 -214.468 1498.8
      vertex -1.70115 -216.33 1515.74
    endloop
  endfacet
  facet normal 0.160076 0.980964 0.109935
    outer loop
      vertex -1.47594 -214.468 1498.8
      vertex -18.438 -213.599 1515.74
      vertex -1.70115 -216.33 1515.74
    endloop
  endfacet
  facet normal 0.32128 0.946591 0.0272837
    outer loop
      vertex -51.118 -204.478 1532.77
      vertex -34.8919 -209.494 1515.74
      vertex -50.9504 -204.044 1515.74
    endloop
  endfacet
  facet normal 0.319451 0.941204 0.109935
    outer loop
      vertex -34.8919 -209.494 1515.74
      vertex -34.3632 -207.695 1498.8
      vertex -50.9504 -204.044 1515.74
    endloop
  endfacet
  facet normal 0.319451 0.941204 0.109934
    outer loop
      vertex -50.9504 -204.044 1515.74
      vertex -34.3632 -207.695 1498.8
      vertex -50.2748 -202.294 1498.8
    endloop
  endfacet
  facet normal 0.31543 0.929357 0.191833
    outer loop
      vertex -34.3632 -207.695 1498.8
      vertex -33.4406 -204.556 1482.07
      vertex -50.2748 -202.294 1498.8
    endloop
  endfacet
  facet normal 0.315429 0.929357 0.191832
    outer loop
      vertex -50.2748 -202.294 1498.8
      vertex -33.4406 -204.556 1482.07
      vertex -49.0959 -199.242 1482.07
    endloop
  endfacet
  facet normal 0.309927 0.913146 0.264784
    outer loop
      vertex -33.4406 -204.556 1482.07
      vertex -44.7309 -196.192 1466.44
      vertex -49.0959 -199.242 1482.07
    endloop
  endfacet
  facet normal 0.318216 0.909805 0.266447
    outer loop
      vertex -49.0959 -199.242 1482.07
      vertex -44.7309 -196.192 1466.44
      vertex -47.6855 -195.65 1468.12
    endloop
  endfacet
  facet normal 0.241963 0.969902 0.0272833
    outer loop
      vertex -35.0231 -209.941 1532.77
      vertex -18.5319 -214.055 1532.77
      vertex -18.438 -213.599 1515.74
    endloop
  endfacet
  facet normal 0.177515 0.983739 0.0272984
    outer loop
      vertex -18.5319 -214.055 1532.77
      vertex -8.50692 -215.862 1532.72
      vertex -18.438 -213.599 1515.74
    endloop
  endfacet
  facet normal 0.16094 0.986258 0.0373227
    outer loop
      vertex -18.438 -213.599 1515.74
      vertex -8.50692 -215.862 1532.72
      vertex -1.70115 -216.33 1515.74
    endloop
  endfacet
  facet normal 0.160572 0.986324 0.0371735
    outer loop
      vertex -8.50692 -215.862 1532.72
      vertex -1.78641 -216.806 1528.74
      vertex -1.70115 -216.33 1515.74
    endloop
  endfacet
  facet normal 0.12801 0.991077 0.0371341
    outer loop
      vertex -1.70115 -216.33 1515.74
      vertex -1.78641 -216.806 1528.74
      vertex 1.32466 -217.141 1526.96
    endloop
  endfacet
  facet normal 0.397931 0.915732 -0.0555531
    outer loop
      vertex -66.2933 -196.851 1549.79
      vertex -51.118 -204.478 1532.77
      vertex -66.7065 -197.704 1532.77
    endloop
  endfacet
  facet normal 0.398398 0.916807 0.0272837
    outer loop
      vertex -51.118 -204.478 1532.77
      vertex -50.9504 -204.044 1515.74
      vertex -66.7065 -197.704 1532.77
    endloop
  endfacet
  facet normal 0.398398 0.916807 0.0272832
    outer loop
      vertex -66.7065 -197.704 1532.77
      vertex -50.9504 -204.044 1515.74
      vertex -66.5036 -197.285 1515.74
    endloop
  endfacet
  facet normal 0.396131 0.911589 0.109934
    outer loop
      vertex -50.9504 -204.044 1515.74
      vertex -50.2748 -202.294 1498.8
      vertex -66.5036 -197.285 1515.74
    endloop
  endfacet
  facet normal 0.396131 0.911589 0.109935
    outer loop
      vertex -66.5036 -197.285 1515.74
      vertex -50.2748 -202.294 1498.8
      vertex -65.6857 -195.598 1498.8
    endloop
  endfacet
  facet normal 0.391145 0.900114 0.191832
    outer loop
      vertex -50.2748 -202.294 1498.8
      vertex -49.0959 -199.242 1482.07
      vertex -65.6857 -195.598 1498.8
    endloop
  endfacet
  facet normal 0.391145 0.900115 0.191832
    outer loop
      vertex -65.6857 -195.598 1498.8
      vertex -49.0959 -199.242 1482.07
      vertex -64.2587 -192.653 1482.07
    endloop
  endfacet
  facet normal 0.386912 0.890374 0.239863
    outer loop
      vertex -49.0959 -199.242 1482.07
      vertex -55.5254 -193.855 1472.45
      vertex -64.2587 -192.653 1482.07
    endloop
  endfacet
  facet normal 0.39231 0.886538 0.24524
    outer loop
      vertex -64.2587 -192.653 1482.07
      vertex -55.5254 -193.855 1472.45
      vertex -63.6521 -191.448 1476.74
    endloop
  endfacet
  facet normal 0.610782 0.790069 -0.0523012
    outer loop
      vertex -108.851 -169.398 1548.47
      vertex -95.9419 -180.416 1532.77
      vertex -109.389 -170.021 1532.77
    endloop
  endfacet
  facet normal 0.611392 0.790858 0.0272842
    outer loop
      vertex -95.9419 -180.416 1532.77
      vertex -95.6728 -180.036 1515.74
      vertex -109.389 -170.021 1532.77
    endloop
  endfacet
  facet normal 0.611392 0.790858 0.0272837
    outer loop
      vertex -109.389 -170.021 1532.77
      vertex -95.6728 -180.036 1515.74
      vertex -109.089 -169.665 1515.74
    endloop
  endfacet
  facet normal 0.607912 0.786357 0.109934
    outer loop
      vertex -95.6728 -180.036 1515.74
      vertex -94.5882 -178.507 1498.8
      vertex -109.089 -169.665 1515.74
    endloop
  endfacet
  facet normal 0.607912 0.786357 0.109935
    outer loop
      vertex -109.089 -169.665 1515.74
      vertex -94.5882 -178.507 1498.8
      vertex -107.882 -168.23 1498.8
    endloop
  endfacet
  facet normal 0.605015 0.78261 0.146554
    outer loop
      vertex -94.5882 -178.507 1498.8
      vertex -97.4339 -175.115 1492.43
      vertex -107.882 -168.23 1498.8
    endloop
  endfacet
  facet normal 0.606107 0.781119 0.14996
    outer loop
      vertex -107.882 -168.23 1498.8
      vertex -97.4339 -175.115 1492.43
      vertex -107.239 -168.24 1496.25
    endloop
  endfacet
  facet normal 0.323836 0.939179 -0.114337
    outer loop
      vertex -47.2403 -203.514 1560.46
      vertex -36.0235 -208.475 1551.48
      vertex -50.7766 -203.594 1549.79
    endloop
  endfacet
  facet normal 0.320601 0.944592 -0.0704279
    outer loop
      vertex -36.0235 -208.475 1551.48
      vertex -34.7559 -209.031 1549.79
      vertex -50.7766 -203.594 1549.79
    endloop
  endfacet
  facet normal 0.320903 0.945481 -0.0555528
    outer loop
      vertex -50.7766 -203.594 1549.79
      vertex -34.7559 -209.031 1549.79
      vertex -35.0231 -209.941 1532.77
    endloop
  endfacet
  facet normal 0.270162 0.961208 -0.0555963
    outer loop
      vertex -34.7559 -209.031 1549.79
      vertex -24.1339 -212.418 1542.86
      vertex -35.0231 -209.941 1532.77
    endloop
  endfacet
  facet normal 0.241989 0.970006 -0.023017
    outer loop
      vertex -35.0231 -209.941 1532.77
      vertex -24.1339 -212.418 1542.86
      vertex -18.5319 -214.055 1532.77
    endloop
  endfacet
  facet normal 0.231364 0.972426 -0.0293114
    outer loop
      vertex -24.1339 -212.418 1542.86
      vertex -18.5302 -213.865 1539.08
      vertex -18.5319 -214.055 1532.77
    endloop
  endfacet
  facet normal 0.187839 0.981754 -0.0295804
    outer loop
      vertex -18.5319 -214.055 1532.77
      vertex -18.5302 -213.865 1539.08
      vertex -11.6553 -215.313 1534.67
    endloop
  endfacet
  facet normal 0.0192356 0.964194 0.264501
    outer loop
      vertex 23.6294 -209.284 1469.66
      vertex 15.5376 -208.932 1468.96
      vertex 15.398 -212.525 1482.07
    endloop
  endfacet
  facet normal 0.0761421 0.961417 0.264346
    outer loop
      vertex 15.5376 -208.932 1468.96
      vertex -1.08296 -211.22 1482.07
      vertex 15.398 -212.525 1482.07
    endloop
  endfacet
  facet normal 0.0774843 0.978364 0.191833
    outer loop
      vertex 15.398 -212.525 1482.07
      vertex -1.08296 -211.22 1482.07
      vertex -1.47594 -214.468 1498.8
    endloop
  endfacet
  facet normal 0.158061 0.968616 0.191833
    outer loop
      vertex -1.08296 -211.22 1482.07
      vertex -18.0597 -211.762 1498.8
      vertex -1.47594 -214.468 1498.8
    endloop
  endfacet
  facet normal 0.160076 0.980964 0.109935
    outer loop
      vertex -1.47594 -214.468 1498.8
      vertex -18.0597 -211.762 1498.8
      vertex -18.438 -213.599 1515.74
    endloop
  endfacet
  facet normal 0.240586 0.964382 0.109935
    outer loop
      vertex -18.0597 -211.762 1498.8
      vertex -34.8919 -209.494 1515.74
      vertex -18.438 -213.599 1515.74
    endloop
  endfacet
  facet normal 0.241963 0.969902 0.0272835
    outer loop
      vertex -18.438 -213.599 1515.74
      vertex -34.8919 -209.494 1515.74
      vertex -35.0231 -209.941 1532.77
    endloop
  endfacet
  facet normal 0.321279 0.946591 0.0272835
    outer loop
      vertex -34.8919 -209.494 1515.74
      vertex -51.118 -204.478 1532.77
      vertex -35.0231 -209.941 1532.77
    endloop
  endfacet
  facet normal 0.320903 0.945482 -0.0555531
    outer loop
      vertex -35.0231 -209.941 1532.77
      vertex -51.118 -204.478 1532.77
      vertex -50.7766 -203.594 1549.79
    endloop
  endfacet
  facet normal 0.397931 0.915732 -0.0555531
    outer loop
      vertex -51.118 -204.478 1532.77
      vertex -66.2933 -196.851 1549.79
      vertex -50.7766 -203.594 1549.79
    endloop
  endfacet
  facet normal 0.395173 0.909385 -0.129836
    outer loop
      vertex -50.7766 -203.594 1549.79
      vertex -66.2933 -196.851 1549.79
      vertex -54.3126 -199.652 1566.63
    endloop
  endfacet
  facet normal 0.405406 0.90365 -0.138067
    outer loop
      vertex -66.2933 -196.851 1549.79
      vertex -65.2666 -194.733 1566.67
      vertex -54.3126 -199.652 1566.63
    endloop
  endfacet
  facet normal 0.403832 0.900308 -0.162373
    outer loop
      vertex -54.3126 -199.652 1566.63
      vertex -65.2666 -194.733 1566.67
      vertex -57.7054 -197.568 1569.75
    endloop
  endfacet
  facet normal 0.415197 0.886904 -0.202518
    outer loop
      vertex -65.2666 -194.733 1566.67
      vertex -64.42 -192.934 1576.28
      vertex -57.7054 -197.568 1569.75
    endloop
  endfacet
  facet normal 0.463317 0.863102 -0.200975
    outer loop
      vertex -67.3452 -190.679 1579.28
      vertex -65.2666 -194.733 1566.67
      vertex -80.0015 -186.823 1566.67
    endloop
  endfacet
  facet normal 0.468442 0.872648 -0.13801
    outer loop
      vertex -65.2666 -194.733 1566.67
      vertex -66.2933 -196.851 1549.79
      vertex -80.0015 -186.823 1566.67
    endloop
  endfacet
  facet normal 0.468442 0.872649 -0.138011
    outer loop
      vertex -80.0015 -186.823 1566.67
      vertex -66.2933 -196.851 1549.79
      vertex -81.1997 -188.849 1549.79
    endloop
  endfacet
  facet normal 0.472237 0.879719 -0.0555531
    outer loop
      vertex -66.2933 -196.851 1549.79
      vertex -66.7065 -197.704 1532.77
      vertex -81.1997 -188.849 1549.79
    endloop
  endfacet
  facet normal 0.472237 0.879719 -0.0555531
    outer loop
      vertex -81.1997 -188.849 1549.79
      vertex -66.7065 -197.704 1532.77
      vertex -81.682 -189.665 1532.77
    endloop
  endfacet
  facet normal 0.472791 0.880752 0.0272832
    outer loop
      vertex -66.7065 -197.704 1532.77
      vertex -66.5036 -197.285 1515.74
      vertex -81.682 -189.665 1532.77
    endloop
  endfacet
  facet normal 0.472792 0.880752 0.0272836
    outer loop
      vertex -81.682 -189.665 1532.77
      vertex -66.5036 -197.285 1515.74
      vertex -81.4451 -189.264 1515.74
    endloop
  endfacet
  facet normal 0.470101 0.875739 0.109935
    outer loop
      vertex -66.5036 -197.285 1515.74
      vertex -65.6857 -195.598 1498.8
      vertex -81.4451 -189.264 1515.74
    endloop
  endfacet
  facet normal 0.4701 0.87574 0.109934
    outer loop
      vertex -81.4451 -189.264 1515.74
      vertex -65.6857 -195.598 1498.8
      vertex -80.4906 -187.65 1498.8
    endloop
  endfacet
  facet normal 0.464933 0.866114 0.18353
    outer loop
      vertex -65.6857 -195.598 1498.8
      vertex -76.8772 -186.31 1483.32
      vertex -80.4906 -187.65 1498.8
    endloop
  endfacet
  facet normal 0.480118 0.857192 0.186302
    outer loop
      vertex -80.4906 -187.65 1498.8
      vertex -76.8772 -186.31 1483.32
      vertex -79.0827 -185.301 1484.36
    endloop
  endfacet
  facet normal 0.524537 0.816204 -0.242222
    outer loop
      vertex -90.5152 -175.623 1583.28
      vertex -78.0956 -183.6 1583.29
      vertex -91.3141 -175.626 1581.54
    endloop
  endfacet
  facet normal 0.525147 0.822196 -0.219578
    outer loop
      vertex -78.0956 -183.6 1583.29
      vertex -80.0015 -186.823 1566.67
      vertex -91.3141 -175.626 1581.54
    endloop
  endfacet
  facet normal 0.531694 0.819773 -0.212776
    outer loop
      vertex -91.3141 -175.626 1581.54
      vertex -80.0015 -186.823 1566.67
      vertex -94.0324 -177.723 1566.67
    endloop
  endfacet
  facet normal 0.538947 0.830957 -0.138011
    outer loop
      vertex -80.0015 -186.823 1566.67
      vertex -81.1997 -188.849 1549.79
      vertex -94.0324 -177.723 1566.67
    endloop
  endfacet
  facet normal 0.538947 0.830957 -0.138011
    outer loop
      vertex -94.0324 -177.723 1566.67
      vertex -81.1997 -188.849 1549.79
      vertex -95.3939 -179.643 1549.79
    endloop
  endfacet
  facet normal 0.543314 0.83769 -0.0555531
    outer loop
      vertex -81.1997 -188.849 1549.79
      vertex -81.682 -189.665 1532.77
      vertex -95.3939 -179.643 1549.79
    endloop
  endfacet
  facet normal 0.543314 0.83769 -0.0555532
    outer loop
      vertex -95.3939 -179.643 1549.79
      vertex -81.682 -189.665 1532.77
      vertex -95.9419 -180.416 1532.77
    endloop
  endfacet
  facet normal 0.543952 0.838673 0.0272836
    outer loop
      vertex -81.682 -189.665 1532.77
      vertex -81.4451 -189.264 1515.74
      vertex -95.9419 -180.416 1532.77
    endloop
  endfacet
  facet normal 0.543952 0.838673 0.0272842
    outer loop
      vertex -95.9419 -180.416 1532.77
      vertex -81.4451 -189.264 1515.74
      vertex -95.6728 -180.036 1515.74
    endloop
  endfacet
  facet normal 0.540856 0.8339 0.109934
    outer loop
      vertex -81.4451 -189.264 1515.74
      vertex -80.4906 -187.65 1498.8
      vertex -95.6728 -180.036 1515.74
    endloop
  endfacet
  facet normal 0.540856 0.8339 0.109934
    outer loop
      vertex -95.6728 -180.036 1515.74
      vertex -80.4906 -187.65 1498.8
      vertex -94.5882 -178.507 1498.8
    endloop
  endfacet
  facet normal 0.536986 0.827932 0.161788
    outer loop
      vertex -80.4906 -187.65 1498.8
      vertex -87.2903 -181.152 1488.11
      vertex -94.5882 -178.507 1498.8
    endloop
  endfacet
  facet normal 0.546425 0.820034 0.170189
    outer loop
      vertex -94.5882 -178.507 1498.8
      vertex -87.2903 -181.152 1488.11
      vertex -93.7829 -177.408 1490.92
    endloop
  endfacet
endsolid Mesh
