solid Mesh
  facet normal 0.133211 -0.96139 0.240799
    outer loop
      vertex -66.9976 123.916 1337.72
      vertex -63.3834 126.023 1344.13
      vertex -67.838 125.146 1343.09
    endloop
  endfacet
  facet normal 0.155887 -0.975484 0.15534
    outer loop
      vertex -63.3834 126.023 1344.13
      vertex -59.3936 127.669 1350.46
      vertex -67.838 125.146 1343.09
    endloop
  endfacet
  facet normal 0.128707 -0.974079 0.186025
    outer loop
      vertex -67.838 125.146 1343.09
      vertex -59.3936 127.669 1350.46
      vertex -68.1055 126.78 1351.83
    endloop
  endfacet
  facet normal 0.121599 -0.983372 0.13488
    outer loop
      vertex -59.3936 127.669 1350.46
      vertex -68.2493 127.269 1355.53
      vertex -68.1055 126.78 1351.83
    endloop
  endfacet
  facet normal 0.19924 -0.945854 0.256249
    outer loop
      vertex -67.5851 123.504 1336.6
      vertex -76.8985 123.302 1343.09
      vertex -76.3583 121.088 1334.5
    endloop
  endfacet
  facet normal 0.212878 -0.92111 0.325944
    outer loop
      vertex -72.4775 119.012 1326.1
      vertex -70.214 121.359 1331.25
      vertex -76.3583 121.088 1334.5
    endloop
  endfacet
  facet normal 0.195492 -0.9363 0.291761
    outer loop
      vertex -70.214 121.359 1331.25
      vertex -68.6446 122.702 1334.51
      vertex -76.3583 121.088 1334.5
    endloop
  endfacet
  facet normal 0.197247 -0.944433 0.262946
    outer loop
      vertex -76.3583 121.088 1334.5
      vertex -68.6446 122.702 1334.51
      vertex -67.5851 123.504 1336.6
    endloop
  endfacet
  facet normal 0.363447 -0.841884 0.398921
    outer loop
      vertex -91.3174 115.362 1331.56
      vertex -83.4439 115.569 1324.82
      vertex -84.1831 115.852 1326.09
    endloop
  endfacet
  facet normal 0.18138 -0.932226 0.31314
    outer loop
      vertex -83.4439 115.569 1324.82
      vertex -75.3762 114.963 1318.34
      vertex -84.1831 115.852 1326.09
    endloop
  endfacet
  facet normal 0.252523 -0.886082 0.388704
    outer loop
      vertex -84.1831 115.852 1326.09
      vertex -75.3762 114.963 1318.34
      vertex -75.673 118.277 1326.09
    endloop
  endfacet
  facet normal 0.222738 -0.893203 0.390609
    outer loop
      vertex -75.3762 114.963 1318.34
      vertex -73.0126 118.368 1324.78
      vertex -75.673 118.277 1326.09
    endloop
  endfacet
  facet normal 0.513863 -0.835932 0.192774
    outer loop
      vertex -106.259 112.52 1345.61
      vertex -111.054 111.215 1352.73
      vertex -113.22 109.906 1352.83
    endloop
  endfacet
  facet normal 0.517604 -0.84828 0.111836
    outer loop
      vertex -111.054 111.215 1352.73
      vertex -112.331 111.481 1360.66
      vertex -113.22 109.906 1352.83
    endloop
  endfacet
  facet normal 0.546178 -0.831047 0.105123
    outer loop
      vertex -113.22 109.906 1352.83
      vertex -112.331 111.481 1360.66
      vertex -119.775 106.518 1360.11
    endloop
  endfacet
  facet normal 0.548652 -0.832093 0.0812509
    outer loop
      vertex -112.331 111.481 1360.66
      vertex -119.767 106.634 1361.24
      vertex -119.775 106.518 1360.11
    endloop
  endfacet
  facet normal 0.619673 -0.781222 0.0754816
    outer loop
      vertex -119.775 106.518 1360.11
      vertex -119.767 106.634 1361.24
      vertex -125.877 102.382 1367.39
    endloop
  endfacet
  facet normal 0.644801 -0.757744 -0.100272
    outer loop
      vertex -125.858 101.093 1386.48
      vertex -127.176 99.8847 1387.14
      vertex -127.748 100.549 1378.44
    endloop
  endfacet
  facet normal 0.652624 -0.751018 -0.100272
    outer loop
      vertex -127.176 99.8847 1387.14
      vertex -127.529 99.5546 1387.31
      vertex -127.748 100.549 1378.44
    endloop
  endfacet
  facet normal 0.669557 -0.739474 -0.0697957
    outer loop
      vertex -131.482 97.5272 1374.64
      vertex -127.748 100.549 1378.44
      vertex -134.246 94.665 1378.45
    endloop
  endfacet
  facet normal 0.667852 -0.73766 -0.0991509
    outer loop
      vertex -127.748 100.549 1378.44
      vertex -127.529 99.5546 1387.31
      vertex -134.246 94.665 1378.45
    endloop
  endfacet
  facet normal 0.670765 -0.734466 -0.103121
    outer loop
      vertex -134.246 94.665 1378.45
      vertex -127.529 99.5546 1387.31
      vertex -134.703 94.1558 1379.1
    endloop
  endfacet
  facet normal 0.671013 -0.734183 -0.103523
    outer loop
      vertex -127.529 99.5546 1387.31
      vertex -134.115 93.5397 1387.28
      vertex -134.703 94.1558 1379.1
    endloop
  endfacet
  facet normal 0.690327 -0.716049 -0.103547
    outer loop
      vertex -134.703 94.1558 1379.1
      vertex -134.115 93.5397 1387.28
      vertex -136.55 91.9876 1381.78
    endloop
  endfacet
  facet normal 0.720451 -0.681867 -0.126522
    outer loop
      vertex -134.115 93.5397 1387.28
      vertex -140.134 87.1781 1387.3
      vertex -136.55 91.9876 1381.78
    endloop
  endfacet
  facet normal 0.768403 -0.615647 -0.174745
    outer loop
      vertex -144.936 79.0173 1395.58
      vertex -141.045 85.8029 1388.78
      vertex -139.819 86.0684 1393.23
    endloop
  endfacet
  facet normal 0.735324 -0.657788 -0.163135
    outer loop
      vertex -141.045 85.8029 1388.78
      vertex -140.487 86.6539 1387.86
      vertex -139.819 86.0684 1393.23
    endloop
  endfacet
  facet normal 0.744665 -0.647193 -0.163141
    outer loop
      vertex -139.819 86.0684 1393.23
      vertex -140.487 86.6539 1387.86
      vertex -139.11 86.9676 1392.9
    endloop
  endfacet
  facet normal 0.73073 -0.664064 -0.158284
    outer loop
      vertex -140.487 86.6539 1387.86
      vertex -140.134 87.1781 1387.3
      vertex -139.11 86.9676 1392.9
    endloop
  endfacet
  facet normal 0.719151 -0.676964 -0.156655
    outer loop
      vertex -139.11 86.9676 1392.9
      vertex -140.134 87.1781 1387.3
      vertex -133.783 93.2129 1390.37
    endloop
  endfacet
  facet normal 0.718141 -0.679727 -0.149147
    outer loop
      vertex -140.134 87.1781 1387.3
      vertex -134.115 93.5397 1387.28
      vertex -133.783 93.2129 1390.37
    endloop
  endfacet
  facet normal 0.69136 -0.706949 -0.149147
    outer loop
      vertex -133.783 93.2129 1390.37
      vertex -134.115 93.5397 1387.28
      vertex -132.735 94.3442 1389.86
    endloop
  endfacet
  facet normal 0.669026 -0.73188 -0.129446
    outer loop
      vertex -134.115 93.5397 1387.28
      vertex -127.529 99.5546 1387.31
      vertex -132.735 94.3442 1389.86
    endloop
  endfacet
  facet normal 0.647477 -0.76147 -0.0306037
    outer loop
      vertex -131.482 97.5272 1374.64
      vertex -127.91 100.753 1369.95
      vertex -127.748 100.549 1378.44
    endloop
  endfacet
  facet normal 0.61426 -0.788509 -0.0306195
    outer loop
      vertex -127.91 100.753 1369.95
      vertex -120.284 106.364 1378.44
      vertex -127.748 100.549 1378.44
    endloop
  endfacet
  facet normal 0.612016 -0.785629 -0.090685
    outer loop
      vertex -127.748 100.549 1378.44
      vertex -120.284 106.364 1378.44
      vertex -125.858 101.093 1386.48
    endloop
  endfacet
  facet normal 0.550854 -0.831725 -0.069238
    outer loop
      vertex -112.396 111.588 1378.44
      vertex -118.529 107.165 1382.78
      vertex -120.284 106.364 1378.44
    endloop
  endfacet
  facet normal 0.581205 -0.809237 -0.0856515
    outer loop
      vertex -118.529 107.165 1382.78
      vertex -120.02 106.013 1383.54
      vertex -120.284 106.364 1378.44
    endloop
  endfacet
  facet normal 0.616497 -0.782685 -0.0856519
    outer loop
      vertex -120.284 106.364 1378.44
      vertex -120.02 106.013 1383.54
      vertex -125.858 101.093 1386.48
    endloop
  endfacet
  facet normal 0.509981 -0.858746 -0.0497442
    outer loop
      vertex -110.15 112.922 1378.44
      vertex -110.801 112.515 1378.79
      vertex -112.396 111.588 1378.44
    endloop
  endfacet
  facet normal 0.512617 -0.855794 -0.0695801
    outer loop
      vertex -110.801 112.515 1378.79
      vertex -112.346 111.524 1379.59
      vertex -112.396 111.588 1378.44
    endloop
  endfacet
  facet normal 0.550515 -0.831894 -0.069889
    outer loop
      vertex -112.396 111.588 1378.44
      vertex -112.346 111.524 1379.59
      vertex -118.529 107.165 1382.78
    endloop
  endfacet
  facet normal 0.378696 -0.925518 0.00234515
    outer loop
      vertex -94.3799 120.899 1370.04
      vertex -95.6285 120.39 1370.72
      vertex -95.6334 120.385 1369.55
    endloop
  endfacet
  facet normal 0.420743 -0.907178 0.0020883
    outer loop
      vertex -95.6285 120.39 1370.72
      vertex -102.732 117.105 1374.53
      vertex -95.6334 120.385 1369.55
    endloop
  endfacet
  facet normal 0.316173 -0.946926 0.0580097
    outer loop
      vertex -85.8068 123.872 1365.36
      vertex -86.7122 123.6 1365.85
      vertex -86.6226 123.312 1360.66
    endloop
  endfacet
  facet normal 0.355109 -0.933029 0.0579111
    outer loop
      vertex -86.7122 123.6 1365.85
      vertex -93.4843 121.252 1369.56
      vertex -86.6226 123.312 1360.66
    endloop
  endfacet
  facet normal 0.249426 -0.968091 0.0242111
    outer loop
      vertex -85.8068 123.872 1365.36
      vertex -77.9097 125.78 1360.31
      vertex -77.0753 126 1360.51
    endloop
  endfacet
  facet normal 0.227137 -0.966945 0.115868
    outer loop
      vertex -77.9097 125.78 1360.31
      vertex -77.2906 124.91 1351.83
      vertex -77.0753 126 1360.51
    endloop
  endfacet
  facet normal 0.205647 -0.971609 0.116987
    outer loop
      vertex -77.0753 126 1360.51
      vertex -77.2906 124.91 1351.83
      vertex -68.2493 127.269 1355.53
    endloop
  endfacet
  facet normal 0.197586 -0.970782 0.136167
    outer loop
      vertex -68.2493 127.269 1355.53
      vertex -77.2906 124.91 1351.83
      vertex -68.1055 126.78 1351.83
    endloop
  endfacet
  facet normal 0.195965 -0.962813 0.18598
    outer loop
      vertex -77.2906 124.91 1351.83
      vertex -76.8985 123.302 1343.09
      vertex -68.1055 126.78 1351.83
    endloop
  endfacet
  facet normal 0.195965 -0.962813 0.185979
    outer loop
      vertex -68.1055 126.78 1351.83
      vertex -76.8985 123.302 1343.09
      vertex -67.838 125.146 1343.09
    endloop
  endfacet
  facet normal 0.193238 -0.949413 0.247536
    outer loop
      vertex -76.8985 123.302 1343.09
      vertex -67.5851 123.504 1336.6
      vertex -67.838 125.146 1343.09
    endloop
  endfacet
  facet normal 0.194027 -0.949255 0.247526
    outer loop
      vertex -67.838 125.146 1343.09
      vertex -67.5851 123.504 1336.6
      vertex -66.9976 123.916 1337.72
    endloop
  endfacet
  facet normal 0.374086 -0.927259 0.015838
    outer loop
      vertex -94.3799 120.899 1370.04
      vertex -95.6334 120.385 1369.55
      vertex -93.4843 121.252 1369.56
    endloop
  endfacet
  facet normal 0.37369 -0.926553 0.0430711
    outer loop
      vertex -95.6334 120.385 1369.55
      vertex -95.4868 120.031 1360.66
      vertex -93.4843 121.252 1369.56
    endloop
  endfacet
  facet normal 0.346645 -0.936633 0.0505453
    outer loop
      vertex -93.4843 121.252 1369.56
      vertex -95.4868 120.031 1360.66
      vertex -86.6226 123.312 1360.66
    endloop
  endfacet
  facet normal 0.344794 -0.931631 0.114806
    outer loop
      vertex -95.4868 120.031 1360.66
      vertex -95.0957 119.088 1351.83
      vertex -86.6226 123.312 1360.66
    endloop
  endfacet
  facet normal 0.344793 -0.931631 0.114807
    outer loop
      vertex -86.6226 123.312 1360.66
      vertex -95.0957 119.088 1351.83
      vertex -86.305 122.341 1351.83
    endloop
  endfacet
  facet normal 0.341033 -0.921471 0.18598
    outer loop
      vertex -95.0957 119.088 1351.83
      vertex -94.4621 117.559 1343.09
      vertex -86.305 122.341 1351.83
    endloop
  endfacet
  facet normal 0.341033 -0.921471 0.18598
    outer loop
      vertex -86.305 122.341 1351.83
      vertex -94.4621 117.559 1343.09
      vertex -85.7907 120.768 1343.09
    endloop
  endfacet
  facet normal 0.335505 -0.906533 0.256192
    outer loop
      vertex -94.4621 117.559 1343.09
      vertex -93.5893 115.453 1334.5
      vertex -85.7907 120.768 1343.09
    endloop
  endfacet
  facet normal 0.335505 -0.906533 0.256191
    outer loop
      vertex -85.7907 120.768 1343.09
      vertex -93.5893 115.453 1334.5
      vertex -85.0821 118.601 1334.5
    endloop
  endfacet
  facet normal 0.274484 -0.959273 0.0667297
    outer loop
      vertex -85.8068 123.872 1365.36
      vertex -86.6226 123.312 1360.66
      vertex -77.9097 125.78 1360.31
    endloop
  endfacet
  facet normal 0.275113 -0.954531 0.114819
    outer loop
      vertex -86.6226 123.312 1360.66
      vertex -86.305 122.341 1351.83
      vertex -77.9097 125.78 1360.31
    endloop
  endfacet
  facet normal 0.272163 -0.954997 0.11793
    outer loop
      vertex -77.9097 125.78 1360.31
      vertex -86.305 122.341 1351.83
      vertex -77.2906 124.91 1351.83
    endloop
  endfacet
  facet normal 0.269294 -0.94493 0.18598
    outer loop
      vertex -86.305 122.341 1351.83
      vertex -85.7907 120.768 1343.09
      vertex -77.2906 124.91 1351.83
    endloop
  endfacet
  facet normal 0.269294 -0.94493 0.18598
    outer loop
      vertex -77.2906 124.91 1351.83
      vertex -85.7907 120.768 1343.09
      vertex -76.8985 123.302 1343.09
    endloop
  endfacet
  facet normal 0.264929 -0.929612 0.256191
    outer loop
      vertex -85.7907 120.768 1343.09
      vertex -85.0821 118.601 1334.5
      vertex -76.8985 123.302 1343.09
    endloop
  endfacet
  facet normal 0.264928 -0.929612 0.256192
    outer loop
      vertex -76.8985 123.302 1343.09
      vertex -85.0821 118.601 1334.5
      vertex -76.3583 121.088 1334.5
    endloop
  endfacet
  facet normal 0.547884 -0.835446 0.0430488
    outer loop
      vertex -112.331 111.481 1360.66
      vertex -112.53 111.808 1369.55
      vertex -119.767 106.634 1361.24
    endloop
  endfacet
  facet normal 0.551776 -0.833116 0.0382084
    outer loop
      vertex -112.53 111.808 1369.55
      vertex -120.435 106.573 1369.55
      vertex -119.767 106.634 1361.24
    endloop
  endfacet
  facet normal 0.599 -0.799634 0.0422498
    outer loop
      vertex -119.767 106.634 1361.24
      vertex -120.435 106.573 1369.55
      vertex -125.877 102.382 1367.39
    endloop
  endfacet
  facet normal 0.613163 -0.789856 -0.0126008
    outer loop
      vertex -120.435 106.573 1369.55
      vertex -127.597 101.013 1369.55
      vertex -125.877 102.382 1367.39
    endloop
  endfacet
  facet normal 0.456845 -0.853255 0.251494
    outer loop
      vertex -98.9406 114.343 1338.5
      vertex -101.802 114.538 1344.36
      vertex -106.259 112.52 1345.61
    endloop
  endfacet
  facet normal 0.447515 -0.875489 0.182343
    outer loop
      vertex -101.802 114.538 1344.36
      vertex -103.611 115.169 1351.83
      vertex -106.259 112.52 1345.61
    endloop
  endfacet
  facet normal 0.478241 -0.862808 0.163855
    outer loop
      vertex -106.259 112.52 1345.61
      vertex -103.611 115.169 1351.83
      vertex -111.054 111.215 1352.73
    endloop
  endfacet
  facet normal 0.476887 -0.871431 0.114836
    outer loop
      vertex -103.611 115.169 1351.83
      vertex -104.073 116.08 1360.66
      vertex -111.054 111.215 1352.73
    endloop
  endfacet
  facet normal 0.483756 -0.868629 0.107071
    outer loop
      vertex -111.054 111.215 1352.73
      vertex -104.073 116.08 1360.66
      vertex -112.331 111.481 1360.66
    endloop
  endfacet
  facet normal 0.486102 -0.872842 0.0430411
    outer loop
      vertex -104.073 116.08 1360.66
      vertex -104.246 116.422 1369.55
      vertex -112.331 111.481 1360.66
    endloop
  endfacet
  facet normal 0.486101 -0.872842 0.0430418
    outer loop
      vertex -112.331 111.481 1360.66
      vertex -104.246 116.422 1369.55
      vertex -112.53 111.808 1369.55
    endloop
  endfacet
  facet normal 0.418053 -0.908419 -0.00256254
    outer loop
      vertex -102.732 117.105 1374.53
      vertex -104.246 116.422 1369.55
      vertex -95.6334 120.385 1369.55
    endloop
  endfacet
  facet normal 0.417666 -0.90758 0.0430411
    outer loop
      vertex -104.246 116.422 1369.55
      vertex -104.073 116.08 1360.66
      vertex -95.6334 120.385 1369.55
    endloop
  endfacet
  facet normal 0.417666 -0.90758 0.0430413
    outer loop
      vertex -95.6334 120.385 1369.55
      vertex -104.073 116.08 1360.66
      vertex -95.4868 120.031 1360.66
    endloop
  endfacet
  facet normal 0.415289 -0.902416 0.114807
    outer loop
      vertex -104.073 116.08 1360.66
      vertex -103.611 115.169 1351.83
      vertex -95.4868 120.031 1360.66
    endloop
  endfacet
  facet normal 0.41529 -0.902416 0.114806
    outer loop
      vertex -95.4868 120.031 1360.66
      vertex -103.611 115.169 1351.83
      vertex -95.0957 119.088 1351.83
    endloop
  endfacet
  facet normal 0.411585 -0.894365 0.175239
    outer loop
      vertex -103.611 115.169 1351.83
      vertex -101.802 114.538 1344.36
      vertex -95.0957 119.088 1351.83
    endloop
  endfacet
  facet normal 0.401256 -0.896873 0.186043
    outer loop
      vertex -95.0957 119.088 1351.83
      vertex -101.802 114.538 1344.36
      vertex -94.4621 117.559 1343.09
    endloop
  endfacet
  facet normal 0.403916 -0.886252 0.226734
    outer loop
      vertex -101.802 114.538 1344.36
      vertex -98.9406 114.343 1338.5
      vertex -94.4621 117.559 1343.09
    endloop
  endfacet
  facet normal 0.376432 -0.890268 0.256362
    outer loop
      vertex -94.4621 117.559 1343.09
      vertex -98.9406 114.343 1338.5
      vertex -93.5893 115.453 1334.5
    endloop
  endfacet
  facet normal 0.445232 -0.815891 0.368905
    outer loop
      vertex -98.9406 114.343 1338.5
      vertex -91.3174 115.362 1331.56
      vertex -93.5893 115.453 1334.5
    endloop
  endfacet
  facet normal 0.332733 -0.899044 0.28462
    outer loop
      vertex -93.5893 115.453 1334.5
      vertex -91.3174 115.362 1331.56
      vertex -85.0821 118.601 1334.5
    endloop
  endfacet
  facet normal 0.310523 -0.893193 0.32524
    outer loop
      vertex -91.3174 115.362 1331.56
      vertex -84.1831 115.852 1326.09
      vertex -85.0821 118.601 1334.5
    endloop
  endfacet
  facet normal 0.25919 -0.909476 0.325075
    outer loop
      vertex -85.0821 118.601 1334.5
      vertex -84.1831 115.852 1326.09
      vertex -76.3583 121.088 1334.5
    endloop
  endfacet
  facet normal 0.25919 -0.909476 0.325075
    outer loop
      vertex -84.1831 115.852 1326.09
      vertex -75.673 118.277 1326.09
      vertex -76.3583 121.088 1334.5
    endloop
  endfacet
  facet normal 0.211046 -0.921773 0.325261
    outer loop
      vertex -76.3583 121.088 1334.5
      vertex -75.673 118.277 1326.09
      vertex -72.4775 119.012 1326.1
    endloop
  endfacet
  facet normal 0.208146 -0.909512 0.35981
    outer loop
      vertex -75.673 118.277 1326.09
      vertex -73.0126 118.368 1324.78
      vertex -72.4775 119.012 1326.1
    endloop
  endfacet
  facet normal 0.455036 -0.890324 -0.0162872
    outer loop
      vertex -102.732 117.105 1374.53
      vertex -104.197 116.342 1375.31
      vertex -104.246 116.422 1369.55
    endloop
  endfacet
  facet normal 0.491577 -0.870681 -0.0163305
    outer loop
      vertex -104.197 116.342 1375.31
      vertex -110.15 112.922 1378.44
      vertex -104.246 116.422 1369.55
    endloop
  endfacet
  facet normal 0.486447 -0.873462 -0.0208278
    outer loop
      vertex -104.246 116.422 1369.55
      vertex -110.15 112.922 1378.44
      vertex -112.53 111.808 1369.55
    endloop
  endfacet
  facet normal 0.510334 -0.859488 -0.0289662
    outer loop
      vertex -110.15 112.922 1378.44
      vertex -112.396 111.588 1378.44
      vertex -112.53 111.808 1369.55
    endloop
  endfacet
  facet normal 0.551948 -0.833376 -0.0289466
    outer loop
      vertex -112.53 111.808 1369.55
      vertex -112.396 111.588 1378.44
      vertex -120.435 106.573 1369.55
    endloop
  endfacet
  facet normal 0.551948 -0.833376 -0.0289461
    outer loop
      vertex -112.396 111.588 1378.44
      vertex -120.284 106.364 1378.44
      vertex -120.435 106.573 1369.55
    endloop
  endfacet
  facet normal 0.612944 -0.789596 -0.028948
    outer loop
      vertex -120.435 106.573 1369.55
      vertex -120.284 106.364 1378.44
      vertex -127.597 101.013 1369.55
    endloop
  endfacet
  facet normal 0.61479 -0.788066 -0.0313886
    outer loop
      vertex -120.284 106.364 1378.44
      vertex -127.91 100.753 1369.95
      vertex -127.597 101.013 1369.55
    endloop
  endfacet
  facet normal -0.382171 0.901164 -0.204568
    outer loop
      vertex -105.358 138.23 1331.5
      vertex -113.046 136.628 1338.8
      vertex -113.252 137.056 1341.08
    endloop
  endfacet
  facet normal -0.601199 0.798418 0.0330006
    outer loop
      vertex -141.728 122.277 1370.41
      vertex -141.739 122.268 1370.42
      vertex -141.543 122.011 1380.23
    endloop
  endfacet
  facet normal -0.653343 0.750293 0.101007
    outer loop
      vertex -149.18 115.417 1380.24
      vertex -149.632 114.939 1380.87
      vertex -149.008 114.251 1390.02
    endloop
  endfacet
  facet normal -0.699273 0.694971 0.167429
    outer loop
      vertex -155.87 107.412 1390.03
      vertex -156.455 106.605 1390.95
      vertex -155.369 105.583 1399.72
    endloop
  endfacet
  facet normal -0.78473 0.577822 0.224321
    outer loop
      vertex -161.092 96.6446 1406.41
      vertex -162.279 97.2439 1400.71
      vertex -166.446 88.4495 1408.79
    endloop
  endfacet
  facet normal -0.64135 0.751752 0.153425
    outer loop
      vertex -144.083 116.866 1398.34
      vertex -140.29 120.485 1396.47
      vertex -140.933 121.254 1390.02
    endloop
  endfacet
  facet normal -0.532922 0.824593 0.189844
    outer loop
      vertex -126.092 131.884 1389.27
      vertex -132.372 127.653 1390.02
      vertex -135.354 124.809 1394
    endloop
  endfacet
  facet normal -0.396689 0.917606 0.0252397
    outer loop
      vertex -106.252 143.222 1378.81
      vertex -104.646 143.941 1377.94
      vertex -104.726 144.114 1370.4
    endloop
  endfacet
  facet normal -0.238123 0.966163 -0.0991265
    outer loop
      vertex -79.392 150.957 1353.66
      vertex -83.9278 149.544 1350.78
      vertex -84.1627 150.49 1360.57
    endloop
  endfacet
  facet normal -0.314835 0.909872 -0.270206
    outer loop
      vertex -95.3978 139.226 1322.6
      vertex -102.502 138.635 1328.88
      vertex -102.766 139.321 1331.5
    endloop
  endfacet
  facet normal -0.296732 0.92699 -0.229433
    outer loop
      vertex -93.6977 145.055 1341.08
      vertex -88.2864 146.079 1338.21
      vertex -92.9967 142.91 1331.5
    endloop
  endfacet
  facet normal -0.297665 0.926867 -0.22872
    outer loop
      vertex -88.2864 146.079 1338.21
      vertex -91.5684 143.37 1331.51
      vertex -92.9967 142.91 1331.5
    endloop
  endfacet
  facet normal -0.294813 0.918476 -0.263604
    outer loop
      vertex -92.9967 142.91 1331.5
      vertex -91.5684 143.37 1331.51
      vertex -92.0751 142.891 1330.41
    endloop
  endfacet
  facet normal -0.28073 0.94557 -0.164581
    outer loop
      vertex -94.2007 146.595 1350.78
      vertex -84.0513 148.772 1345.98
      vertex -93.6977 145.055 1341.08
    endloop
  endfacet
  facet normal -0.283346 0.945661 -0.159503
    outer loop
      vertex -84.0513 148.772 1345.98
      vertex -86.7721 147.133 1341.09
      vertex -93.6977 145.055 1341.08
    endloop
  endfacet
  facet normal -0.281383 0.939367 -0.195991
    outer loop
      vertex -93.6977 145.055 1341.08
      vertex -86.7721 147.133 1341.09
      vertex -88.2864 146.079 1338.21
    endloop
  endfacet
  facet normal -0.208833 0.974811 -0.078312
    outer loop
      vertex -79.392 150.957 1353.66
      vertex -84.1627 150.49 1360.57
      vertex -74.7823 152.5 1360.57
    endloop
  endfacet
  facet normal -0.209347 0.977079 -0.0386157
    outer loop
      vertex -84.1627 150.49 1360.57
      vertex -85.156 150.543 1367.28
      vertex -74.7823 152.5 1360.57
    endloop
  endfacet
  facet normal -0.209767 0.976961 -0.0392999
    outer loop
      vertex -74.7823 152.5 1360.57
      vertex -85.156 150.543 1367.28
      vertex -74.3326 152.623 1361.22
    endloop
  endfacet
  facet normal -0.74749 0.626203 0.221651
    outer loop
      vertex -162.279 97.2439 1400.71
      vertex -161.092 96.6446 1406.41
      vertex -161.732 98.2434 1399.73
    endloop
  endfacet
  facet normal -0.759918 0.611869 0.21941
    outer loop
      vertex -161.092 96.6446 1406.41
      vertex -159.687 98.6181 1405.77
      vertex -161.732 98.2434 1399.73
    endloop
  endfacet
  facet normal -0.73854 0.640543 0.210388
    outer loop
      vertex -159.687 98.6181 1405.77
      vertex -155.369 105.583 1399.72
      vertex -161.732 98.2434 1399.73
    endloop
  endfacet
  facet normal -0.743465 0.64476 0.177607
    outer loop
      vertex -161.732 98.2434 1399.73
      vertex -155.369 105.583 1399.72
      vertex -157.34 105.342 1392.35
    endloop
  endfacet
  facet normal -0.710329 0.683654 0.167478
    outer loop
      vertex -155.369 105.583 1399.72
      vertex -156.455 106.605 1390.95
      vertex -157.34 105.342 1392.35
    endloop
  endfacet
  facet normal -0.706004 0.688352 0.166527
    outer loop
      vertex -155.369 105.583 1399.72
      vertex -149.47 112.032 1398.08
      vertex -155.87 107.412 1390.03
    endloop
  endfacet
  facet normal -0.6974 0.700187 0.152878
    outer loop
      vertex -149.47 112.032 1398.08
      vertex -149.008 114.251 1390.02
      vertex -155.87 107.412 1390.03
    endloop
  endfacet
  facet normal -0.700523 0.703242 0.12132
    outer loop
      vertex -155.87 107.412 1390.03
      vertex -149.008 114.251 1390.02
      vertex -151.665 112.684 1383.76
    endloop
  endfacet
  facet normal -0.671102 0.734449 0.101027
    outer loop
      vertex -149.008 114.251 1390.02
      vertex -149.632 114.939 1380.87
      vertex -151.665 112.684 1383.76
    endloop
  endfacet
  facet normal -0.739095 0.640173 0.209565
    outer loop
      vertex -159.687 98.6181 1405.77
      vertex -154.767 105.046 1403.49
      vertex -155.369 105.583 1399.72
    endloop
  endfacet
  facet normal -0.709591 0.67275 0.209495
    outer loop
      vertex -154.767 105.046 1403.49
      vertex -152.215 108.114 1402.28
      vertex -155.369 105.583 1399.72
    endloop
  endfacet
  facet normal -0.701463 0.688601 0.183786
    outer loop
      vertex -155.369 105.583 1399.72
      vertex -152.215 108.114 1402.28
      vertex -149.47 112.032 1398.08
    endloop
  endfacet
  facet normal -0.655028 0.716451 0.240074
    outer loop
      vertex -152.215 108.114 1402.28
      vertex -144.083 116.866 1398.34
      vertex -149.47 112.032 1398.08
    endloop
  endfacet
  facet normal -0.663501 0.730186 0.163082
    outer loop
      vertex -149.47 112.032 1398.08
      vertex -144.083 116.866 1398.34
      vertex -149.008 114.251 1390.02
    endloop
  endfacet
  facet normal -0.647875 0.747128 0.14852
    outer loop
      vertex -144.083 116.866 1398.34
      vertex -140.933 121.254 1390.02
      vertex -149.008 114.251 1390.02
    endloop
  endfacet
  facet normal -0.651781 0.751633 0.101139
    outer loop
      vertex -149.008 114.251 1390.02
      vertex -140.933 121.254 1390.02
      vertex -149.18 115.417 1380.24
    endloop
  endfacet
  facet normal -0.650202 0.753309 0.0988062
    outer loop
      vertex -140.933 121.254 1390.02
      vertex -141.543 122.011 1380.23
      vertex -149.18 115.417 1380.24
    endloop
  endfacet
  facet normal -0.652073 0.755401 0.064582
    outer loop
      vertex -149.18 115.417 1380.24
      vertex -141.543 122.011 1380.23
      vertex -145.296 119.218 1375
    endloop
  endfacet
  facet normal -0.625815 0.779274 0.0329916
    outer loop
      vertex -141.543 122.011 1380.23
      vertex -141.739 122.268 1370.42
      vertex -145.296 119.218 1375
    endloop
  endfacet
  facet normal -0.560508 0.81188 -0.163344
    outer loop
      vertex -130.664 129.676 1357.25
      vertex -123.367 133.411 1350.78
      vertex -122.507 133.523 1348.38
    endloop
  endfacet
  facet normal -0.472782 0.871675 -0.129072
    outer loop
      vertex -123.367 133.411 1350.78
      vertex -113.972 138.507 1350.78
      vertex -122.507 133.523 1348.38
    endloop
  endfacet
  facet normal -0.46394 0.871328 -0.159836
    outer loop
      vertex -122.507 133.523 1348.38
      vertex -113.972 138.507 1350.78
      vertex -115.348 135.994 1341.07
    endloop
  endfacet
  facet normal -0.445728 0.879899 -0.164635
    outer loop
      vertex -113.972 138.507 1350.78
      vertex -113.252 137.056 1341.08
      vertex -115.348 135.994 1341.07
    endloop
  endfacet
  facet normal -0.442751 0.874217 -0.19929
    outer loop
      vertex -115.348 135.994 1341.07
      vertex -113.252 137.056 1341.08
      vertex -113.868 136.41 1339.61
    endloop
  endfacet
  facet normal -0.433276 0.877685 -0.204795
    outer loop
      vertex -113.252 137.056 1341.08
      vertex -113.046 136.628 1338.8
      vertex -113.868 136.41 1339.61
    endloop
  endfacet
  facet normal -0.476513 0.878552 0.032893
    outer loop
      vertex -123.864 134.253 1380.23
      vertex -114.407 139.383 1380.23
      vertex -124.029 134.532 1370.4
    endloop
  endfacet
  facet normal -0.476513 0.878552 0.0328924
    outer loop
      vertex -114.407 139.383 1380.23
      vertex -114.551 139.673 1370.4
      vertex -124.029 134.532 1370.4
    endloop
  endfacet
  facet normal -0.528743 0.848551 -0.0198027
    outer loop
      vertex -123.863 134.251 1360.57
      vertex -131.698 129.405 1362.13
      vertex -133.11 128.719 1370.4
    endloop
  endfacet
  facet normal -0.547902 0.830683 0.098837
    outer loop
      vertex -132.372 127.653 1390.02
      vertex -126.092 131.884 1389.27
      vertex -132.925 128.452 1380.23
    endloop
  endfacet
  facet normal -0.537092 0.838971 0.087518
    outer loop
      vertex -126.092 131.884 1389.27
      vertex -123.864 134.253 1380.23
      vertex -132.925 128.452 1380.23
    endloop
  endfacet
  facet normal -0.538869 0.841747 0.0328928
    outer loop
      vertex -132.925 128.452 1380.23
      vertex -123.864 134.253 1380.23
      vertex -133.11 128.719 1370.4
    endloop
  endfacet
  facet normal -0.53887 0.841747 0.032893
    outer loop
      vertex -123.864 134.253 1380.23
      vertex -124.029 134.532 1370.4
      vertex -133.11 128.719 1370.4
    endloop
  endfacet
  facet normal -0.538865 0.841739 -0.0331567
    outer loop
      vertex -133.11 128.719 1370.4
      vertex -124.029 134.532 1370.4
      vertex -123.863 134.251 1360.57
    endloop
  endfacet
  facet normal -0.476509 0.878544 -0.0331567
    outer loop
      vertex -124.029 134.532 1370.4
      vertex -114.551 139.673 1370.4
      vertex -123.863 134.251 1360.57
    endloop
  endfacet
  facet normal -0.476509 0.878544 -0.0331563
    outer loop
      vertex -123.863 134.251 1360.57
      vertex -114.551 139.673 1370.4
      vertex -114.406 139.38 1360.57
    endloop
  endfacet
  facet normal -0.606599 0.78008 0.153336
    outer loop
      vertex -140.29 120.485 1396.47
      vertex -135.354 124.809 1394
      vertex -140.933 121.254 1390.02
    endloop
  endfacet
  facet normal -0.594199 0.794904 0.122704
    outer loop
      vertex -135.354 124.809 1394
      vertex -132.372 127.653 1390.02
      vertex -140.933 121.254 1390.02
    endloop
  endfacet
  facet normal -0.595794 0.797038 0.0987983
    outer loop
      vertex -140.933 121.254 1390.02
      vertex -132.372 127.653 1390.02
      vertex -141.543 122.011 1380.23
    endloop
  endfacet
  facet normal -0.595793 0.797038 0.0987976
    outer loop
      vertex -132.372 127.653 1390.02
      vertex -132.925 128.452 1380.23
      vertex -141.543 122.011 1380.23
    endloop
  endfacet
  facet normal -0.598396 0.80052 0.0330047
    outer loop
      vertex -141.543 122.011 1380.23
      vertex -132.925 128.452 1380.23
      vertex -141.728 122.277 1370.41
    endloop
  endfacet
  facet normal -0.598317 0.800584 0.032893
    outer loop
      vertex -132.925 128.452 1380.23
      vertex -133.11 128.719 1370.4
      vertex -141.728 122.277 1370.41
    endloop
  endfacet
  facet normal -0.598639 0.800983 0.00753951
    outer loop
      vertex -141.728 122.277 1370.41
      vertex -133.11 128.719 1370.4
      vertex -138.278 124.896 1366.14
    endloop
  endfacet
  facet normal -0.577789 0.8156 -0.0309101
    outer loop
      vertex -133.11 128.719 1370.4
      vertex -131.698 129.405 1362.13
      vertex -138.278 124.896 1366.14
    endloop
  endfacet
  facet normal -0.597087 0.797935 -0.0823781
    outer loop
      vertex -138.278 124.896 1366.14
      vertex -131.698 129.405 1362.13
      vertex -130.664 129.676 1357.25
    endloop
  endfacet
  facet normal -0.534387 0.842611 -0.0666116
    outer loop
      vertex -131.698 129.405 1362.13
      vertex -123.863 134.251 1360.57
      vertex -130.664 129.676 1357.25
    endloop
  endfacet
  facet normal -0.521713 0.847345 -0.0991074
    outer loop
      vertex -130.664 129.676 1357.25
      vertex -123.863 134.251 1360.57
      vertex -123.367 133.411 1350.78
    endloop
  endfacet
  facet normal -0.474426 0.874704 -0.09906
    outer loop
      vertex -123.863 134.251 1360.57
      vertex -114.406 139.38 1360.57
      vertex -123.367 133.411 1350.78
    endloop
  endfacet
  facet normal -0.474425 0.874704 -0.0990612
    outer loop
      vertex -123.367 133.411 1350.78
      vertex -114.406 139.38 1360.57
      vertex -113.972 138.507 1350.78
    endloop
  endfacet
  facet normal -0.205969 0.966971 -0.150147
    outer loop
      vertex -79.392 150.957 1353.66
      vertex -84.0513 148.772 1345.98
      vertex -83.9278 149.544 1350.78
    endloop
  endfacet
  facet normal -0.273008 0.950894 -0.145837
    outer loop
      vertex -84.0513 148.772 1345.98
      vertex -94.2007 146.595 1350.78
      vertex -83.9278 149.544 1350.78
    endloop
  endfacet
  facet normal -0.274601 0.956442 -0.0990622
    outer loop
      vertex -83.9278 149.544 1350.78
      vertex -94.2007 146.595 1350.78
      vertex -84.1627 150.49 1360.57
    endloop
  endfacet
  facet normal -0.274602 0.956442 -0.099061
    outer loop
      vertex -94.2007 146.595 1350.78
      vertex -94.5036 147.521 1360.57
      vertex -84.1627 150.49 1360.57
    endloop
  endfacet
  facet normal -0.275637 0.960048 -0.0482967
    outer loop
      vertex -84.1627 150.49 1360.57
      vertex -94.5036 147.521 1360.57
      vertex -85.156 150.543 1367.28
    endloop
  endfacet
  facet normal -0.285748 0.957731 -0.0331672
    outer loop
      vertex -94.5036 147.521 1360.57
      vertex -94.6049 147.832 1370.4
      vertex -85.156 150.543 1367.28
    endloop
  endfacet
  facet normal -0.265524 0.963536 0.0330982
    outer loop
      vertex -85.156 150.543 1367.28
      vertex -94.6049 147.832 1370.4
      vertex -95.8226 147.401 1373.16
    endloop
  endfacet
  facet normal -0.526385 0.845275 0.0918101
    outer loop
      vertex -126.092 131.884 1389.27
      vertex -123.492 133.65 1387.92
      vertex -123.864 134.253 1380.23
    endloop
  endfacet
  facet normal -0.4869 0.868628 0.0917279
    outer loop
      vertex -123.492 133.65 1387.92
      vertex -116.368 138.037 1384.19
      vertex -123.864 134.253 1380.23
    endloop
  endfacet
  facet normal -0.475839 0.877308 0.0625088
    outer loop
      vertex -123.864 134.253 1380.23
      vertex -116.368 138.037 1384.19
      vertex -114.407 139.383 1380.23
    endloop
  endfacet
  facet normal -0.408443 0.906629 0.105817
    outer loop
      vertex -116.368 138.037 1384.19
      vertex -106.252 143.222 1378.81
      vertex -114.407 139.383 1380.23
    endloop
  endfacet
  facet normal -0.421066 0.906433 0.032903
    outer loop
      vertex -114.407 139.383 1380.23
      vertex -106.252 143.222 1378.81
      vertex -114.551 139.673 1370.4
    endloop
  endfacet
  facet normal -0.41178 0.911022 0.0218021
    outer loop
      vertex -106.252 143.222 1378.81
      vertex -104.726 144.114 1370.4
      vertex -114.551 139.673 1370.4
    endloop
  endfacet
  facet normal -0.411652 0.910738 -0.0331562
    outer loop
      vertex -114.551 139.673 1370.4
      vertex -104.726 144.114 1370.4
      vertex -114.406 139.38 1360.57
    endloop
  endfacet
  facet normal -0.411651 0.910738 -0.0331568
    outer loop
      vertex -104.726 144.114 1370.4
      vertex -104.602 143.812 1360.57
      vertex -114.406 139.38 1360.57
    endloop
  endfacet
  facet normal -0.409852 0.906757 -0.0990612
    outer loop
      vertex -114.406 139.38 1360.57
      vertex -104.602 143.812 1360.57
      vertex -113.972 138.507 1350.78
    endloop
  endfacet
  facet normal -0.409853 0.906757 -0.0990604
    outer loop
      vertex -104.602 143.812 1360.57
      vertex -104.233 142.909 1350.78
      vertex -113.972 138.507 1350.78
    endloop
  endfacet
  facet normal -0.406265 0.89882 -0.164535
    outer loop
      vertex -113.972 138.507 1350.78
      vertex -104.233 142.909 1350.78
      vertex -113.252 137.056 1341.08
    endloop
  endfacet
  facet normal -0.406265 0.89882 -0.164535
    outer loop
      vertex -104.233 142.909 1350.78
      vertex -103.62 141.41 1341.08
      vertex -113.252 137.056 1341.08
    endloop
  endfacet
  facet normal -0.401589 0.888474 -0.222127
    outer loop
      vertex -113.252 137.056 1341.08
      vertex -103.62 141.41 1341.08
      vertex -105.358 138.23 1331.5
    endloop
  endfacet
  facet normal -0.377342 0.897205 -0.229427
    outer loop
      vertex -103.62 141.41 1341.08
      vertex -102.766 139.321 1331.5
      vertex -105.358 138.23 1331.5
    endloop
  endfacet
  facet normal -0.374768 0.891182 -0.255624
    outer loop
      vertex -105.358 138.23 1331.5
      vertex -102.766 139.321 1331.5
      vertex -104.81 138.315 1330.99
    endloop
  endfacet
  facet normal -0.369982 0.888866 -0.270241
    outer loop
      vertex -102.766 139.321 1331.5
      vertex -102.502 138.635 1328.88
      vertex -104.81 138.315 1330.99
    endloop
  endfacet
  facet normal -0.35315 0.935228 0.0251838
    outer loop
      vertex -104.646 143.941 1377.94
      vertex -95.8226 147.401 1373.16
      vertex -104.726 144.114 1370.4
    endloop
  endfacet
  facet normal -0.344818 0.938652 -0.00580874
    outer loop
      vertex -95.8226 147.401 1373.16
      vertex -94.6049 147.832 1370.4
      vertex -104.726 144.114 1370.4
    endloop
  endfacet
  facet normal -0.344634 0.938151 -0.0331568
    outer loop
      vertex -104.726 144.114 1370.4
      vertex -94.6049 147.832 1370.4
      vertex -104.602 143.812 1360.57
    endloop
  endfacet
  facet normal -0.344634 0.938151 -0.0331565
    outer loop
      vertex -94.6049 147.832 1370.4
      vertex -94.5036 147.521 1360.57
      vertex -104.602 143.812 1360.57
    endloop
  endfacet
  facet normal -0.343128 0.934051 -0.0990604
    outer loop
      vertex -104.602 143.812 1360.57
      vertex -94.5036 147.521 1360.57
      vertex -104.233 142.909 1350.78
    endloop
  endfacet
  facet normal -0.343127 0.934051 -0.099061
    outer loop
      vertex -94.5036 147.521 1360.57
      vertex -94.2007 146.595 1350.78
      vertex -104.233 142.909 1350.78
    endloop
  endfacet
  facet normal -0.340124 0.925875 -0.164535
    outer loop
      vertex -104.233 142.909 1350.78
      vertex -94.2007 146.595 1350.78
      vertex -103.62 141.41 1341.08
    endloop
  endfacet
  facet normal -0.340124 0.925875 -0.164535
    outer loop
      vertex -94.2007 146.595 1350.78
      vertex -93.6977 145.055 1341.08
      vertex -103.62 141.41 1341.08
    endloop
  endfacet
  facet normal -0.335636 0.913659 -0.229295
    outer loop
      vertex -103.62 141.41 1341.08
      vertex -93.6977 145.055 1341.08
      vertex -102.766 139.321 1331.5
    endloop
  endfacet
  facet normal -0.335637 0.913659 -0.229294
    outer loop
      vertex -93.6977 145.055 1341.08
      vertex -92.9967 142.91 1331.5
      vertex -102.766 139.321 1331.5
    endloop
  endfacet
  facet normal -0.330704 0.900231 -0.283229
    outer loop
      vertex -102.766 139.321 1331.5
      vertex -92.9967 142.91 1331.5
      vertex -95.3978 139.226 1322.6
    endloop
  endfacet
  facet normal -0.322234 0.902307 -0.28637
    outer loop
      vertex -92.9967 142.91 1331.5
      vertex -92.0751 142.891 1330.41
      vertex -95.3978 139.226 1322.6
    endloop
  endfacet
  facet normal -0.598547 -0.369254 -0.71091
    outer loop
      vertex -75.3762 114.963 1318.34
      vertex -83.4439 115.569 1324.82
      vertex -95.3978 139.226 1322.6
    endloop
  endfacet
  facet normal -0.598545 -0.369253 -0.710912
    outer loop
      vertex -83.4439 115.569 1324.82
      vertex -91.3174 115.362 1331.56
      vertex -95.3978 139.226 1322.6
    endloop
  endfacet
  facet normal -0.598545 -0.369253 -0.710912
    outer loop
      vertex -95.3978 139.226 1322.6
      vertex -91.3174 115.362 1331.56
      vertex -102.502 138.635 1328.88
    endloop
  endfacet
  facet normal -0.598548 -0.369254 -0.710909
    outer loop
      vertex -91.3174 115.362 1331.56
      vertex -98.9406 114.343 1338.5
      vertex -102.502 138.635 1328.88
    endloop
  endfacet
  facet normal -0.598549 -0.369253 -0.710909
    outer loop
      vertex -102.502 138.635 1328.88
      vertex -98.9406 114.343 1338.5
      vertex -104.81 138.315 1330.99
    endloop
  endfacet
  facet normal -0.59852 -0.369254 -0.710933
    outer loop
      vertex -98.9406 114.343 1338.5
      vertex -105.358 138.23 1331.5
      vertex -104.81 138.315 1330.99
    endloop
  endfacet
  facet normal -0.598548 -0.369255 -0.710908
    outer loop
      vertex -105.358 138.23 1331.5
      vertex -98.9406 114.343 1338.5
      vertex -113.046 136.628 1338.8
    endloop
  endfacet
  facet normal -0.598548 -0.369254 -0.710909
    outer loop
      vertex -98.9406 114.343 1338.5
      vertex -106.259 112.52 1345.61
      vertex -113.046 136.628 1338.8
    endloop
  endfacet
  facet normal -0.598543 -0.369254 -0.710913
    outer loop
      vertex -113.046 136.628 1338.8
      vertex -106.259 112.52 1345.61
      vertex -113.868 136.41 1339.61
    endloop
  endfacet
  facet normal -0.599258 -0.369969 -0.709939
    outer loop
      vertex -141.739 122.268 1370.42
      vertex -141.728 122.277 1370.41
      vertex -125.877 102.382 1367.39
    endloop
  endfacet
  facet normal -0.598542 -0.36925 -0.710916
    outer loop
      vertex -141.728 122.277 1370.41
      vertex -138.278 124.896 1366.14
      vertex -125.877 102.382 1367.39
    endloop
  endfacet
  facet normal -0.598545 -0.369251 -0.710913
    outer loop
      vertex -125.877 102.382 1367.39
      vertex -138.278 124.896 1366.14
      vertex -119.775 106.518 1360.11
    endloop
  endfacet
  facet normal -0.598547 -0.369255 -0.710909
    outer loop
      vertex -138.278 124.896 1366.14
      vertex -130.664 129.676 1357.25
      vertex -119.775 106.518 1360.11
    endloop
  endfacet
  facet normal -0.598551 -0.369257 -0.710905
    outer loop
      vertex -119.775 106.518 1360.11
      vertex -130.664 129.676 1357.25
      vertex -113.22 109.906 1352.83
    endloop
  endfacet
  facet normal -0.598549 -0.369254 -0.710908
    outer loop
      vertex -130.664 129.676 1357.25
      vertex -122.507 133.523 1348.38
      vertex -113.22 109.906 1352.83
    endloop
  endfacet
  facet normal -0.598545 -0.369254 -0.710912
    outer loop
      vertex -113.22 109.906 1352.83
      vertex -122.507 133.523 1348.38
      vertex -106.259 112.52 1345.61
    endloop
  endfacet
  facet normal -0.598544 -0.369253 -0.710913
    outer loop
      vertex -122.507 133.523 1348.38
      vertex -115.348 135.994 1341.07
      vertex -106.259 112.52 1345.61
    endloop
  endfacet
  facet normal -0.598559 -0.369256 -0.710899
    outer loop
      vertex -106.259 112.52 1345.61
      vertex -115.348 135.994 1341.07
      vertex -113.868 136.41 1339.61
    endloop
  endfacet
  facet normal -0.598558 -0.369264 -0.710896
    outer loop
      vertex -125.877 102.382 1367.39
      vertex -127.597 101.013 1369.55
      vertex -141.739 122.268 1370.42
    endloop
  endfacet
  facet normal -0.598464 -0.369197 -0.71101
    outer loop
      vertex -127.597 101.013 1369.55
      vertex -127.91 100.753 1369.95
      vertex -141.739 122.268 1370.42
    endloop
  endfacet
  facet normal -0.598548 -0.369253 -0.71091
    outer loop
      vertex -141.739 122.268 1370.42
      vertex -127.91 100.753 1369.95
      vertex -145.296 119.218 1375
    endloop
  endfacet
  facet normal -0.598553 -0.36926 -0.710902
    outer loop
      vertex -127.91 100.753 1369.95
      vertex -131.482 97.5272 1374.64
      vertex -145.296 119.218 1375
    endloop
  endfacet
  facet normal -0.598549 -0.369257 -0.710907
    outer loop
      vertex -145.296 119.218 1375
      vertex -131.482 97.5272 1374.64
      vertex -149.18 115.417 1380.24
    endloop
  endfacet
  facet normal -0.598546 -0.369254 -0.710911
    outer loop
      vertex -131.482 97.5272 1374.64
      vertex -134.246 94.665 1378.45
      vertex -149.18 115.417 1380.24
    endloop
  endfacet
  facet normal -0.598514 -0.369227 -0.710952
    outer loop
      vertex -149.18 115.417 1380.24
      vertex -134.246 94.665 1378.45
      vertex -149.632 114.939 1380.87
    endloop
  endfacet
  facet normal -0.598548 -0.369258 -0.710907
    outer loop
      vertex -134.246 94.665 1378.45
      vertex -151.665 112.684 1383.76
      vertex -149.632 114.939 1380.87
    endloop
  endfacet
  facet normal -0.598556 -0.369267 -0.710896
    outer loop
      vertex -140.134 87.1781 1387.3
      vertex -140.487 86.6539 1387.86
      vertex -157.34 105.342 1392.35
    endloop
  endfacet
  facet normal -0.598543 -0.36925 -0.710916
    outer loop
      vertex -140.487 86.6539 1387.86
      vertex -141.045 85.8029 1388.78
      vertex -157.34 105.342 1392.35
    endloop
  endfacet
  facet normal -0.598547 -0.369255 -0.710909
    outer loop
      vertex -157.34 105.342 1392.35
      vertex -141.045 85.8029 1388.78
      vertex -161.732 98.2434 1399.73
    endloop
  endfacet
  facet normal -0.598548 -0.369258 -0.710907
    outer loop
      vertex -141.045 85.8029 1388.78
      vertex -144.936 79.0173 1395.58
      vertex -161.732 98.2434 1399.73
    endloop
  endfacet
  facet normal -0.598539 -0.369247 -0.71092
    outer loop
      vertex -161.732 98.2434 1399.73
      vertex -144.936 79.0173 1395.58
      vertex -162.279 97.2439 1400.71
    endloop
  endfacet
  facet normal -0.598547 -0.369258 -0.710908
    outer loop
      vertex -144.936 79.0173 1395.58
      vertex -166.446 88.4495 1408.79
      vertex -162.279 97.2439 1400.71
    endloop
  endfacet
  facet normal -0.598523 -0.369223 -0.710946
    outer loop
      vertex -134.246 94.665 1378.45
      vertex -134.703 94.1558 1379.1
      vertex -151.665 112.684 1383.76
    endloop
  endfacet
  facet normal -0.598547 -0.369253 -0.710911
    outer loop
      vertex -134.703 94.1558 1379.1
      vertex -136.55 91.9876 1381.78
      vertex -151.665 112.684 1383.76
    endloop
  endfacet
  facet normal -0.598547 -0.369253 -0.710911
    outer loop
      vertex -151.665 112.684 1383.76
      vertex -136.55 91.9876 1381.78
      vertex -155.87 107.412 1390.03
    endloop
  endfacet
  facet normal -0.598547 -0.369254 -0.71091
    outer loop
      vertex -136.55 91.9876 1381.78
      vertex -140.134 87.1781 1387.3
      vertex -155.87 107.412 1390.03
    endloop
  endfacet
  facet normal -0.598572 -0.369278 -0.710876
    outer loop
      vertex -155.87 107.412 1390.03
      vertex -140.134 87.1781 1387.3
      vertex -156.455 106.605 1390.95
    endloop
  endfacet
  facet normal -0.598532 -0.369234 -0.710933
    outer loop
      vertex -140.134 87.1781 1387.3
      vertex -157.34 105.342 1392.35
      vertex -156.455 106.605 1390.95
    endloop
  endfacet
  facet normal 0.60349 0.591735 -0.534462
    outer loop
      vertex -74.7823 152.5 1360.57
      vertex -74.3326 152.623 1361.22
      vertex -59.3936 127.669 1350.46
    endloop
  endfacet
  facet normal 0.603511 0.591737 -0.534436
    outer loop
      vertex -74.7823 152.5 1360.57
      vertex -59.3936 127.669 1350.46
      vertex -79.392 150.957 1353.66
    endloop
  endfacet
  facet normal 0.603512 0.591738 -0.534434
    outer loop
      vertex -59.3936 127.669 1350.46
      vertex -63.3834 126.023 1344.13
      vertex -79.392 150.957 1353.66
    endloop
  endfacet
  facet normal 0.603508 0.591737 -0.53444
    outer loop
      vertex -79.392 150.957 1353.66
      vertex -63.3834 126.023 1344.13
      vertex -84.0513 148.772 1345.98
    endloop
  endfacet
  facet normal 0.60351 0.591739 -0.534434
    outer loop
      vertex -84.0513 148.772 1345.98
      vertex -63.3834 126.023 1344.13
      vertex -86.7721 147.133 1341.09
    endloop
  endfacet
  facet normal 0.60351 0.591738 -0.534436
    outer loop
      vertex -63.3834 126.023 1344.13
      vertex -66.9976 123.916 1337.72
      vertex -86.7721 147.133 1341.09
    endloop
  endfacet
  facet normal 0.603507 0.591737 -0.534442
    outer loop
      vertex -86.7721 147.133 1341.09
      vertex -66.9976 123.916 1337.72
      vertex -88.2864 146.079 1338.21
    endloop
  endfacet
  facet normal 0.603514 0.591743 -0.534426
    outer loop
      vertex -66.9976 123.916 1337.72
      vertex -67.5851 123.504 1336.6
      vertex -88.2864 146.079 1338.21
    endloop
  endfacet
  facet normal 0.603507 0.591738 -0.534439
    outer loop
      vertex -67.5851 123.504 1336.6
      vertex -68.6446 122.702 1334.51
      vertex -88.2864 146.079 1338.21
    endloop
  endfacet
  facet normal 0.60351 0.59174 -0.534434
    outer loop
      vertex -88.2864 146.079 1338.21
      vertex -68.6446 122.702 1334.51
      vertex -91.5684 143.37 1331.51
    endloop
  endfacet
  facet normal 0.603509 0.591738 -0.534438
    outer loop
      vertex -68.6446 122.702 1334.51
      vertex -70.214 121.359 1331.25
      vertex -91.5684 143.37 1331.51
    endloop
  endfacet
  facet normal 0.603498 0.591727 -0.534462
    outer loop
      vertex -91.5684 143.37 1331.51
      vertex -70.214 121.359 1331.25
      vertex -92.0751 142.891 1330.41
    endloop
  endfacet
  facet normal 0.603509 0.59174 -0.534435
    outer loop
      vertex -70.214 121.359 1331.25
      vertex -72.4775 119.012 1326.1
      vertex -92.0751 142.891 1330.41
    endloop
  endfacet
  facet normal 0.603508 0.591739 -0.534437
    outer loop
      vertex -92.0751 142.891 1330.41
      vertex -72.4775 119.012 1326.1
      vertex -95.3978 139.226 1322.6
    endloop
  endfacet
  facet normal 0.603498 0.591722 -0.534467
    outer loop
      vertex -72.4775 119.012 1326.1
      vertex -73.0126 118.368 1324.78
      vertex -95.3978 139.226 1322.6
    endloop
  endfacet
  facet normal 0.60351 0.591738 -0.534436
    outer loop
      vertex -95.3978 139.226 1322.6
      vertex -73.0126 118.368 1324.78
      vertex -75.3762 114.963 1318.34
    endloop
  endfacet
  facet normal 0.498014 -0.0743896 0.863972
    outer loop
      vertex -85.156 150.543 1367.28
      vertex -77.0753 126 1360.51
      vertex -74.3326 152.623 1361.22
    endloop
  endfacet
  facet normal 0.498016 -0.0743897 0.863971
    outer loop
      vertex -77.0753 126 1360.51
      vertex -68.2493 127.269 1355.53
      vertex -74.3326 152.623 1361.22
    endloop
  endfacet
  facet normal 0.498012 -0.0743912 0.863973
    outer loop
      vertex -74.3326 152.623 1361.22
      vertex -68.2493 127.269 1355.53
      vertex -59.3936 127.669 1350.46
    endloop
  endfacet
  facet normal 0.498011 -0.0743938 0.863974
    outer loop
      vertex -116.368 138.037 1384.19
      vertex -104.197 116.342 1375.31
      vertex -106.252 143.222 1378.81
    endloop
  endfacet
  facet normal 0.498 -0.0743953 0.86398
    outer loop
      vertex -104.197 116.342 1375.31
      vertex -102.732 117.105 1374.53
      vertex -106.252 143.222 1378.81
    endloop
  endfacet
  facet normal 0.498035 -0.0743875 0.863961
    outer loop
      vertex -106.252 143.222 1378.81
      vertex -102.732 117.105 1374.53
      vertex -104.646 143.941 1377.94
    endloop
  endfacet
  facet normal 0.498015 -0.0743904 0.863972
    outer loop
      vertex -102.732 117.105 1374.53
      vertex -95.6285 120.39 1370.72
      vertex -104.646 143.941 1377.94
    endloop
  endfacet
  facet normal 0.498044 -0.0743745 0.863956
    outer loop
      vertex -95.6285 120.39 1370.72
      vertex -94.3799 120.899 1370.04
      vertex -104.646 143.941 1377.94
    endloop
  endfacet
  facet normal 0.49801 -0.074396 0.863974
    outer loop
      vertex -104.646 143.941 1377.94
      vertex -94.3799 120.899 1370.04
      vertex -95.8226 147.401 1373.16
    endloop
  endfacet
  facet normal 0.497951 -0.0744031 0.864007
    outer loop
      vertex -94.3799 120.899 1370.04
      vertex -93.4843 121.252 1369.56
      vertex -95.8226 147.401 1373.16
    endloop
  endfacet
  facet normal 0.498016 -0.0743923 0.863971
    outer loop
      vertex -93.4843 121.252 1369.56
      vertex -86.7122 123.6 1365.85
      vertex -95.8226 147.401 1373.16
    endloop
  endfacet
  facet normal 0.498021 -0.0743897 0.863968
    outer loop
      vertex -95.8226 147.401 1373.16
      vertex -86.7122 123.6 1365.85
      vertex -85.156 150.543 1367.28
    endloop
  endfacet
  facet normal 0.498033 -0.0743901 0.863962
    outer loop
      vertex -86.7122 123.6 1365.85
      vertex -85.8068 123.872 1365.36
      vertex -85.156 150.543 1367.28
    endloop
  endfacet
  facet normal 0.498012 -0.0743904 0.863973
    outer loop
      vertex -85.156 150.543 1367.28
      vertex -85.8068 123.872 1365.36
      vertex -77.0753 126 1360.51
    endloop
  endfacet
  facet normal 0.49801 -0.0743952 0.863974
    outer loop
      vertex -154.767 105.046 1403.49
      vertex -159.687 98.6181 1405.77
      vertex -144.936 79.0173 1395.58
    endloop
  endfacet
  facet normal 0.49801 -0.0743949 0.863974
    outer loop
      vertex -159.687 98.6181 1405.77
      vertex -161.092 96.6446 1406.41
      vertex -144.936 79.0173 1395.58
    endloop
  endfacet
  facet normal 0.498015 -0.0743888 0.863972
    outer loop
      vertex -144.936 79.0173 1395.58
      vertex -161.092 96.6446 1406.41
      vertex -166.446 88.4495 1408.79
    endloop
  endfacet
  facet normal 0.498019 -0.0743899 0.863969
    outer loop
      vertex -123.492 133.65 1387.92
      vertex -110.801 112.515 1378.79
      vertex -116.368 138.037 1384.19
    endloop
  endfacet
  facet normal 0.497993 -0.0743986 0.863984
    outer loop
      vertex -110.801 112.515 1378.79
      vertex -110.15 112.922 1378.44
      vertex -116.368 138.037 1384.19
    endloop
  endfacet
  facet normal 0.498015 -0.0743905 0.863972
    outer loop
      vertex -116.368 138.037 1384.19
      vertex -110.15 112.922 1378.44
      vertex -104.197 116.342 1375.31
    endloop
  endfacet
  facet normal 0.498014 -0.0743929 0.863972
    outer loop
      vertex -144.936 79.0173 1395.58
      vertex -139.819 86.0684 1393.23
      vertex -154.767 105.046 1403.49
    endloop
  endfacet
  facet normal 0.498044 -0.0743621 0.863958
    outer loop
      vertex -139.819 86.0684 1393.23
      vertex -139.11 86.9676 1392.9
      vertex -154.767 105.046 1403.49
    endloop
  endfacet
  facet normal 0.498027 -0.0743811 0.863966
    outer loop
      vertex -154.767 105.046 1403.49
      vertex -139.11 86.9676 1392.9
      vertex -152.215 108.114 1402.28
    endloop
  endfacet
  facet normal 0.498012 -0.0743941 0.863973
    outer loop
      vertex -139.11 86.9676 1392.9
      vertex -133.783 93.2129 1390.37
      vertex -152.215 108.114 1402.28
    endloop
  endfacet
  facet normal 0.498011 -0.0743954 0.863974
    outer loop
      vertex -152.215 108.114 1402.28
      vertex -133.783 93.2129 1390.37
      vertex -144.083 116.866 1398.34
    endloop
  endfacet
  facet normal 0.498008 -0.0743972 0.863975
    outer loop
      vertex -133.783 93.2129 1390.37
      vertex -132.735 94.3442 1389.86
      vertex -144.083 116.866 1398.34
    endloop
  endfacet
  facet normal 0.498014 -0.0743932 0.863972
    outer loop
      vertex -144.083 116.866 1398.34
      vertex -132.735 94.3442 1389.86
      vertex -140.29 120.485 1396.47
    endloop
  endfacet
  facet normal 0.498013 -0.0743933 0.863972
    outer loop
      vertex -132.735 94.3442 1389.86
      vertex -127.529 99.5546 1387.31
      vertex -140.29 120.485 1396.47
    endloop
  endfacet
  facet normal 0.498135 -0.0742923 0.863911
    outer loop
      vertex -127.529 99.5546 1387.31
      vertex -127.176 99.8847 1387.14
      vertex -140.29 120.485 1396.47
    endloop
  endfacet
  facet normal 0.498011 -0.0743992 0.863973
    outer loop
      vertex -127.176 99.8847 1387.14
      vertex -125.858 101.093 1386.48
      vertex -140.29 120.485 1396.47
    endloop
  endfacet
  facet normal 0.498021 -0.0743897 0.863968
    outer loop
      vertex -140.29 120.485 1396.47
      vertex -125.858 101.093 1386.48
      vertex -135.354 124.809 1394
    endloop
  endfacet
  facet normal 0.498015 -0.0743929 0.863971
    outer loop
      vertex -125.858 101.093 1386.48
      vertex -120.02 106.013 1383.54
      vertex -135.354 124.809 1394
    endloop
  endfacet
  facet normal 0.498017 -0.0743915 0.863971
    outer loop
      vertex -135.354 124.809 1394
      vertex -120.02 106.013 1383.54
      vertex -126.092 131.884 1389.27
    endloop
  endfacet
  facet normal 0.497996 -0.0743987 0.863982
    outer loop
      vertex -120.02 106.013 1383.54
      vertex -118.529 107.165 1382.78
      vertex -126.092 131.884 1389.27
    endloop
  endfacet
  facet normal 0.498003 -0.0743956 0.863978
    outer loop
      vertex -126.092 131.884 1389.27
      vertex -118.529 107.165 1382.78
      vertex -123.492 133.65 1387.92
    endloop
  endfacet
  facet normal 0.498018 -0.0743912 0.86397
    outer loop
      vertex -118.529 107.165 1382.78
      vertex -112.346 111.524 1379.59
      vertex -123.492 133.65 1387.92
    endloop
  endfacet
  facet normal 0.498015 -0.0743934 0.863972
    outer loop
      vertex -123.492 133.65 1387.92
      vertex -112.346 111.524 1379.59
      vertex -110.801 112.515 1378.79
    endloop
  endfacet
endsolid Mesh
