solid Mesh
  facet normal -0.870966 -0.380241 0.311183
    outer loop
      vertex 57.8302 -118.002 1826.4
      vertex 63.0385 -125.585 1831.71
      vertex 58.1705 -116.729 1828.91
    endloop
  endfacet
  facet normal -0.870968 -0.380247 0.31117
    outer loop
      vertex 63.0385 -125.585 1831.71
      vertex 58.5621 -114.961 1832.16
      vertex 58.1705 -116.729 1828.91
    endloop
  endfacet
  facet normal 0.260672 0.652009 -0.711993
    outer loop
      vertex 120.576 -25.1669 1857.55
      vertex 116.547 -19.0107 1861.71
      vertex 170.535 -41.291 1861.07
    endloop
  endfacet
  facet normal 0.260674 0.652004 -0.711997
    outer loop
      vertex 124.938 -33.3707 1851.63
      vertex 124.455 -32.3477 1852.39
      vertex 170.535 -41.291 1861.07
    endloop
  endfacet
  facet normal 0.260674 0.652016 -0.711986
    outer loop
      vertex 124.455 -32.3477 1852.39
      vertex 124.015 -31.4476 1853.05
      vertex 170.535 -41.291 1861.07
    endloop
  endfacet
  facet normal 0.260675 0.652019 -0.711983
    outer loop
      vertex 170.535 -41.291 1861.07
      vertex 124.015 -31.4476 1853.05
      vertex 120.576 -25.1669 1857.55
    endloop
  endfacet
  facet normal 0.260673 0.652019 -0.711983
    outer loop
      vertex 131.584 -58.2508 1831.28
      vertex 131.484 -56.9792 1832.41
      vertex 175.138 -64.752 1841.27
    endloop
  endfacet
  facet normal 0.260672 0.652016 -0.711986
    outer loop
      vertex 128.556 -42.6351 1844.47
      vertex 127.822 -40.442 1846.21
      vertex 170.535 -41.291 1861.07
    endloop
  endfacet
  facet normal 0.260674 0.652009 -0.711993
    outer loop
      vertex 127.822 -40.442 1846.21
      vertex 126.842 -37.8113 1848.26
      vertex 170.535 -41.291 1861.07
    endloop
  endfacet
  facet normal 0.260674 0.65201 -0.711992
    outer loop
      vertex 170.535 -41.291 1861.07
      vertex 126.842 -37.8113 1848.26
      vertex 124.938 -33.3707 1851.63
    endloop
  endfacet
  facet normal 0.260673 0.652016 -0.711987
    outer loop
      vertex 175.138 -64.752 1841.27
      vertex 131.484 -56.9792 1832.41
      vertex 174.291 -56.9817 1848.08
    endloop
  endfacet
  facet normal 0.260675 0.652007 -0.711994
    outer loop
      vertex 131.287 -69.4005 1820.96
      vertex 131.489 -67.5398 1822.74
      vertex 175.29 -72.4223 1834.3
    endloop
  endfacet
  facet normal 0.260674 0.652013 -0.711989
    outer loop
      vertex 131.489 -67.5398 1822.74
      vertex 131.717 -63.2534 1826.75
      vertex 175.29 -72.4223 1834.3
    endloop
  endfacet
  facet normal 0.260674 0.652012 -0.711989
    outer loop
      vertex 175.29 -72.4223 1834.3
      vertex 131.717 -63.2534 1826.75
      vertex 175.138 -64.752 1841.27
    endloop
  endfacet
  facet normal 0.260675 0.65201 -0.711992
    outer loop
      vertex 131.717 -63.2534 1826.75
      vertex 131.707 -60.8852 1828.91
      vertex 175.138 -64.752 1841.27
    endloop
  endfacet
  facet normal 0.260673 0.652023 -0.71198
    outer loop
      vertex 175.138 -64.752 1841.27
      vertex 131.707 -60.8852 1828.91
      vertex 131.584 -58.2508 1831.28
    endloop
  endfacet
  facet normal 0.260676 0.652007 -0.711993
    outer loop
      vertex 131.484 -56.9792 1832.41
      vertex 130.808 -51.8258 1836.88
      vertex 174.291 -56.9817 1848.08
    endloop
  endfacet
  facet normal 0.260673 0.652037 -0.711968
    outer loop
      vertex 130.808 -51.8258 1836.88
      vertex 130.589 -50.6194 1837.9
      vertex 174.291 -56.9817 1848.08
    endloop
  endfacet
  facet normal 0.260674 0.652009 -0.711992
    outer loop
      vertex 174.291 -56.9817 1848.08
      vertex 130.589 -50.6194 1837.9
      vertex 172.754 -49.1487 1854.69
    endloop
  endfacet
  facet normal 0.260675 0.652006 -0.711994
    outer loop
      vertex 130.589 -50.6194 1837.9
      vertex 130.286 -49.1318 1839.16
      vertex 172.754 -49.1487 1854.69
    endloop
  endfacet
  facet normal 0.260673 0.652014 -0.711988
    outer loop
      vertex 172.754 -49.1487 1854.69
      vertex 130.286 -49.1318 1839.16
      vertex 170.535 -41.291 1861.07
    endloop
  endfacet
  facet normal 0.260674 0.652013 -0.711989
    outer loop
      vertex 130.286 -49.1318 1839.16
      vertex 129.038 -44.216 1843.2
      vertex 170.535 -41.291 1861.07
    endloop
  endfacet
  facet normal 0.260672 0.652017 -0.711986
    outer loop
      vertex 170.535 -41.291 1861.07
      vertex 129.038 -44.216 1843.2
      vertex 128.556 -42.6351 1844.47
    endloop
  endfacet
  facet normal -0.367235 0.702587 -0.609516
    outer loop
      vertex 78.881 -97.958 1847.81
      vertex 81.7159 -94.2734 1850.35
      vertex 83.8449 -98.2688 1844.46
    endloop
  endfacet
  facet normal -0.639448 0.14027 -0.75593
    outer loop
      vertex 112.255 -31.5212 1864.44
      vertex 111.229 -36.1953 1864.44
      vertex 110.593 -34.8915 1865.22
    endloop
  endfacet
  facet normal -0.787306 0.260083 -0.559023
    outer loop
      vertex 129.038 -44.216 1843.2
      vertex 130.286 -49.1318 1839.16
      vertex 126.91 -47.9521 1844.46
    endloop
  endfacet
  facet normal -0.788799 0.371847 -0.489414
    outer loop
      vertex 131.484 -56.9792 1832.41
      vertex 131.584 -58.2508 1831.28
      vertex 128.714 -56.9766 1836.87
    endloop
  endfacet
  facet normal -0.801117 0.431032 -0.415239
    outer loop
      vertex 131.717 -63.2534 1826.75
      vertex 131.489 -67.5398 1822.74
      vertex 129.019 -66.1885 1828.91
    endloop
  endfacet
  facet normal -0.179457 0.873449 -0.452639
    outer loop
      vertex 64.9603 -115.333 1828.91
      vertex 58.1705 -116.729 1828.91
      vertex 58.5621 -114.961 1832.16
    endloop
  endfacet
  facet normal -0.186257 0.886068 -0.42449
    outer loop
      vertex 66.5214 -115.644 1827.51
      vertex 57.8302 -118.002 1826.4
      vertex 58.1705 -116.729 1828.91
    endloop
  endfacet
  facet normal -0.184115 0.896056 -0.403962
    outer loop
      vertex 58.1705 -116.729 1828.91
      vertex 64.9603 -115.333 1828.91
      vertex 66.5214 -115.644 1827.51
    endloop
  endfacet
  facet normal -0.24441 0.852773 -0.461564
    outer loop
      vertex 64.9603 -115.333 1828.91
      vertex 72.9489 -113.044 1828.91
      vertex 66.5214 -115.644 1827.51
    endloop
  endfacet
  facet normal -0.253072 0.862072 -0.439075
    outer loop
      vertex 66.5214 -115.644 1827.51
      vertex 72.9489 -113.044 1828.91
      vertex 73.0692 -113.415 1828.11
    endloop
  endfacet
  facet normal -0.318297 0.839209 -0.440926
    outer loop
      vertex 80.7191 -110.097 1828.91
      vertex 80.7874 -110.261 1828.55
      vertex 72.9489 -113.044 1828.91
    endloop
  endfacet
  facet normal -0.307306 0.798236 -0.518056
    outer loop
      vertex 80.7874 -110.261 1828.55
      vertex 75.0572 -112.658 1828.25
      vertex 72.9489 -113.044 1828.91
    endloop
  endfacet
  facet normal -0.2921 0.849601 -0.439154
    outer loop
      vertex 72.9489 -113.044 1828.91
      vertex 75.0572 -112.658 1828.25
      vertex 73.0692 -113.415 1828.11
    endloop
  endfacet
  facet normal -0.398524 0.803961 -0.441391
    outer loop
      vertex 88.2167 -106.512 1828.91
      vertex 88.2721 -106.617 1828.67
      vertex 83.3807 -109.066 1828.62
    endloop
  endfacet
  facet normal -0.467235 0.766493 -0.44066
    outer loop
      vertex 95.3898 -102.316 1828.91
      vertex 95.5065 -102.494 1828.47
      vertex 91.4361 -104.89 1828.62
    endloop
  endfacet
  facet normal -0.565376 0.698595 -0.438537
    outer loop
      vertex 106.529 -94.9039 1827.51
      vertex 102.471 -97.8986 1827.97
      vertex 102.188 -97.5372 1828.91
    endloop
  endfacet
  facet normal -0.532946 0.723704 -0.438431
    outer loop
      vertex 102.471 -97.8986 1827.97
      vertex 99.1694 -100.159 1828.25
      vertex 102.188 -97.5372 1828.91
    endloop
  endfacet
  facet normal -0.595306 0.675708 -0.434776
    outer loop
      vertex 108.565 -92.2083 1828.91
      vertex 109.144 -92.8363 1827.14
      vertex 106.529 -94.9039 1827.51
    endloop
  endfacet
  facet normal -0.681948 0.59198 -0.429542
    outer loop
      vertex 119.932 -82.9678 1824.93
      vertex 115.499 -87.3091 1825.98
      vertex 114.476 -86.3669 1828.91
    endloop
  endfacet
  facet normal -0.654012 0.622633 -0.429648
    outer loop
      vertex 115.499 -87.3091 1825.98
      vertex 113.465 -89.1608 1826.4
      vertex 114.476 -86.3669 1828.91
    endloop
  endfacet
  facet normal -0.708677 0.56463 -0.423048
    outer loop
      vertex 119.88 -80.0533 1828.91
      vertex 121.503 -81.3194 1824.5
      vertex 119.932 -82.9678 1824.93
    endloop
  endfacet
  facet normal -0.758915 0.501869 -0.41494
    outer loop
      vertex 124.739 -73.3116 1828.91
      vertex 127.118 -74.8704 1822.67
      vertex 125.886 -76.3663 1823.11
    endloop
  endfacet
  facet normal -0.773421 0.317058 -0.548902
    outer loop
      vertex 124.156 -54.9628 1844.46
      vertex 130.589 -50.6194 1837.9
      vertex 128.714 -56.9766 1836.87
    endloop
  endfacet
  facet normal -0.779012 0.317384 -0.540748
    outer loop
      vertex 130.589 -50.6194 1837.9
      vertex 130.808 -51.8258 1836.88
      vertex 128.714 -56.9766 1836.87
    endloop
  endfacet
  facet normal -0.803003 0.327086 -0.498198
    outer loop
      vertex 128.714 -56.9766 1836.87
      vertex 130.808 -51.8258 1836.88
      vertex 131.484 -56.9792 1832.41
    endloop
  endfacet
  facet normal -0.755045 0.204233 -0.623054
    outer loop
      vertex 127.822 -40.442 1846.21
      vertex 123.658 -39.3586 1851.61
      vertex 126.842 -37.8113 1848.26
    endloop
  endfacet
  facet normal -0.751726 0.162615 -0.639112
    outer loop
      vertex 123.658 -39.3586 1851.61
      vertex 124.938 -33.3707 1851.63
      vertex 126.842 -37.8113 1848.26
    endloop
  endfacet
  facet normal -0.701763 0.0875578 -0.70701
    outer loop
      vertex 119.859 -24.9249 1858.29
      vertex 120.576 -25.1669 1857.55
      vertex 119.047 -31.4283 1858.29
    endloop
  endfacet
  facet normal -0.721872 0.095017 -0.685473
    outer loop
      vertex 120.576 -25.1669 1857.55
      vertex 124.015 -31.4476 1853.05
      vertex 119.047 -31.4283 1858.29
    endloop
  endfacet
  facet normal -0.716643 0.151801 -0.68072
    outer loop
      vertex 119.047 -31.4283 1858.29
      vertex 124.015 -31.4476 1853.05
      vertex 124.455 -32.3477 1852.39
    endloop
  endfacet
  facet normal -0.682462 0.0645813 -0.728062
    outer loop
      vertex 114.997 -24.5233 1862.88
      vertex 115.015 -24.4687 1862.87
      vertex 119.859 -24.9249 1858.29
    endloop
  endfacet
  facet normal -0.684763 0.0375203 -0.7278
    outer loop
      vertex 115.015 -24.4687 1862.87
      vertex 116.547 -19.0107 1861.71
      vertex 119.859 -24.9249 1858.29
    endloop
  endfacet
  facet normal -0.719066 -0.000695138 -0.694942
    outer loop
      vertex 119.859 -24.9249 1858.29
      vertex 116.547 -19.0107 1861.71
      vertex 120.576 -25.1669 1857.55
    endloop
  endfacet
  facet normal -0.679533 0.0942937 -0.72756
    outer loop
      vertex 114.997 -24.5233 1862.88
      vertex 119.859 -24.9249 1858.29
      vertex 113.025 -29.7746 1864.04
    endloop
  endfacet
  facet normal -0.676153 0.0843625 -0.731916
    outer loop
      vertex 119.859 -24.9249 1858.29
      vertex 119.047 -31.4283 1858.29
      vertex 113.025 -29.7746 1864.04
    endloop
  endfacet
  facet normal -0.668067 0.121473 -0.734119
    outer loop
      vertex 113.025 -29.7746 1864.04
      vertex 119.047 -31.4283 1858.29
      vertex 112.766 -30.3772 1864.18
    endloop
  endfacet
  facet normal -0.66212 0.145247 -0.735187
    outer loop
      vertex 111.229 -36.1953 1864.44
      vertex 112.255 -31.5212 1864.44
      vertex 117.697 -37.8416 1858.29
    endloop
  endfacet
  facet normal -0.723954 0.156772 -0.671799
    outer loop
      vertex 124.938 -33.3707 1851.63
      vertex 123.658 -39.3586 1851.61
      vertex 124.455 -32.3477 1852.39
    endloop
  endfacet
  facet normal -0.71869 0.156797 -0.677421
    outer loop
      vertex 123.658 -39.3586 1851.61
      vertex 117.697 -37.8416 1858.29
      vertex 124.455 -32.3477 1852.39
    endloop
  endfacet
  facet normal -0.716811 0.150926 -0.680737
    outer loop
      vertex 124.455 -32.3477 1852.39
      vertex 117.697 -37.8416 1858.29
      vertex 119.047 -31.4283 1858.29
    endloop
  endfacet
  facet normal -0.665605 0.140145 -0.733027
    outer loop
      vertex 117.697 -37.8416 1858.29
      vertex 112.255 -31.5212 1864.44
      vertex 119.047 -31.4283 1858.29
    endloop
  endfacet
  facet normal -0.666376 0.131005 -0.734017
    outer loop
      vertex 119.047 -31.4283 1858.29
      vertex 112.255 -31.5212 1864.44
      vertex 112.766 -30.3772 1864.18
    endloop
  endfacet
  facet normal -0.588642 0.219969 -0.777891
    outer loop
      vertex 104.469 -44.4182 1867.55
      vertex 107.734 -39.784 1866.39
      vertex 109.509 -41.9407 1864.44
    endloop
  endfacet
  facet normal -0.620895 0.179917 -0.762968
    outer loop
      vertex 107.734 -39.784 1866.39
      vertex 110.593 -34.8915 1865.22
      vertex 109.509 -41.9407 1864.44
    endloop
  endfacet
  facet normal -0.562693 0.279608 -0.777944
    outer loop
      vertex 100.819 -48.7619 1868.69
      vertex 103.387 -45.7855 1867.91
      vertex 107.316 -47.5228 1864.44
    endloop
  endfacet
  facet normal -0.574467 0.253596 -0.778252
    outer loop
      vertex 103.387 -45.7855 1867.91
      vertex 104.469 -44.4182 1867.55
      vertex 107.316 -47.5228 1864.44
    endloop
  endfacet
  facet normal -0.530246 0.32454 -0.783271
    outer loop
      vertex 96.8116 -52.785 1869.81
      vertex 99.5507 -50.1103 1869.06
      vertex 104.666 -52.9028 1864.44
    endloop
  endfacet
  facet normal -0.544318 0.299375 -0.78364
    outer loop
      vertex 99.5507 -50.1103 1869.06
      vertex 100.819 -48.7619 1868.69
      vertex 104.666 -52.9028 1864.44
    endloop
  endfacet
  facet normal -0.478292 0.406076 -0.778677
    outer loop
      vertex 94.3137 -67.0895 1864.57
      vertex 95.8391 -60.0312 1867.31
      vertex 98.0697 -62.9088 1864.44
    endloop
  endfacet
  facet normal -0.53955 0.347044 -0.767103
    outer loop
      vertex 95.8391 -60.0312 1867.31
      vertex 96.6 -54.7907 1869.15
      vertex 98.0697 -62.9088 1864.44
    endloop
  endfacet
  facet normal -0.445117 0.528627 -0.72279
    outer loop
      vertex 89.6494 -80.4537 1858.41
      vertex 92.2458 -73.9124 1861.59
      vertex 94.394 -76.6197 1858.29
    endloop
  endfacet
  facet normal -0.511651 0.470839 -0.718696
    outer loop
      vertex 92.2458 -73.9124 1861.59
      vertex 94.2051 -67.505 1864.39
      vertex 94.394 -76.6197 1858.29
    endloop
  endfacet
  facet normal -0.477612 0.593692 -0.647624
    outer loop
      vertex 87.3275 -89.766 1851.61
      vertex 86.5419 -86.6693 1855.03
      vertex 89.4373 -80.9241 1858.16
    endloop
  endfacet
  facet normal -0.382627 0.639242 -0.667057
    outer loop
      vertex 86.5419 -86.6693 1855.03
      vertex 87.3275 -89.766 1851.61
      vertex 82.9443 -92.5173 1851.49
    endloop
  endfacet
  facet normal -0.406721 0.675323 -0.615238
    outer loop
      vertex 87.3275 -89.766 1851.61
      vertex 90.3464 -94.4654 1844.46
      vertex 82.9443 -92.5173 1851.49
    endloop
  endfacet
  facet normal -0.402625 0.680398 -0.612333
    outer loop
      vertex 82.9443 -92.5173 1851.49
      vertex 90.3464 -94.4654 1844.46
      vertex 81.7159 -94.2734 1850.35
    endloop
  endfacet
  facet normal -0.28884 0.730692 -0.618596
    outer loop
      vertex 78.881 -97.958 1847.81
      vertex 77.0491 -101.517 1844.46
      vertex 74.3794 -102.955 1844.01
    endloop
  endfacet
  facet normal -0.322377 0.77113 -0.549028
    outer loop
      vertex 77.0491 -101.517 1844.46
      vertex 79.0091 -106.099 1836.87
      vertex 74.3794 -102.955 1844.01
    endloop
  endfacet
  facet normal -0.304454 0.782889 -0.54258
    outer loop
      vertex 74.3794 -102.955 1844.01
      vertex 79.0091 -106.099 1836.87
      vertex 70.7346 -106.39 1841.1
    endloop
  endfacet
  facet normal -0.299995 0.790953 -0.533288
    outer loop
      vertex 79.0091 -106.099 1836.87
      vertex 71.5778 -108.918 1836.87
      vertex 70.7346 -106.39 1841.1
    endloop
  endfacet
  facet normal -0.272419 0.800665 -0.533595
    outer loop
      vertex 70.7346 -106.39 1841.1
      vertex 71.5778 -108.918 1836.87
      vertex 69.4698 -107.474 1840.12
    endloop
  endfacet
  facet normal -0.235228 0.821864 -0.518852
    outer loop
      vertex 71.5778 -108.918 1836.87
      vertex 64.1855 -111.485 1836.16
      vertex 69.4698 -107.474 1840.12
    endloop
  endfacet
  facet normal -0.191813 0.858695 -0.475237
    outer loop
      vertex 58.5621 -114.961 1832.16
      vertex 64.0514 -111.577 1836.06
      vertex 64.9603 -115.333 1828.91
    endloop
  endfacet
  facet normal -0.234477 0.848115 -0.475102
    outer loop
      vertex 64.0514 -111.577 1836.06
      vertex 64.1855 -111.485 1836.16
      vertex 64.9603 -115.333 1828.91
    endloop
  endfacet
  facet normal -0.242472 0.846011 -0.47484
    outer loop
      vertex 64.9603 -115.333 1828.91
      vertex 64.1855 -111.485 1836.16
      vertex 72.9489 -113.044 1828.91
    endloop
  endfacet
  facet normal -0.246331 0.842666 -0.478785
    outer loop
      vertex 64.1855 -111.485 1836.16
      vertex 71.5778 -108.918 1836.87
      vertex 72.9489 -113.044 1828.91
    endloop
  endfacet
  facet normal -0.311357 0.820911 -0.478709
    outer loop
      vertex 72.9489 -113.044 1828.91
      vertex 71.5778 -108.918 1836.87
      vertex 80.7191 -110.097 1828.91
    endloop
  endfacet
  facet normal -0.311357 0.82091 -0.478709
    outer loop
      vertex 71.5778 -108.918 1836.87
      vertex 79.0091 -106.099 1836.87
      vertex 80.7191 -110.097 1828.91
    endloop
  endfacet
  facet normal -0.400415 0.684479 -0.609226
    outer loop
      vertex 81.7159 -94.2734 1850.35
      vertex 90.3464 -94.4654 1844.46
      vertex 83.8449 -98.2688 1844.46
    endloop
  endfacet
  facet normal -0.422136 0.72161 -0.548707
    outer loop
      vertex 90.3464 -94.4654 1844.46
      vertex 93.0398 -98.6582 1836.87
      vertex 83.8449 -98.2688 1844.46
    endloop
  endfacet
  facet normal -0.422136 0.72161 -0.548708
    outer loop
      vertex 83.8449 -98.2688 1844.46
      vertex 93.0398 -98.6582 1836.87
      vertex 86.1797 -102.671 1836.87
    endloop
  endfacet
  facet normal -0.443323 0.757827 -0.478709
    outer loop
      vertex 93.0398 -98.6582 1836.87
      vertex 95.3898 -102.316 1828.91
      vertex 86.1797 -102.671 1836.87
    endloop
  endfacet
  facet normal -0.443324 0.757826 -0.47871
    outer loop
      vertex 86.1797 -102.671 1836.87
      vertex 95.3898 -102.316 1828.91
      vertex 88.2167 -106.512 1828.91
    endloop
  endfacet
  facet normal -0.395972 0.676883 -0.620512
    outer loop
      vertex 95.3898 -102.316 1828.91
      vertex 91.4361 -104.89 1828.62
      vertex 88.2167 -106.512 1828.91
    endloop
  endfacet
  facet normal -0.43464 0.784965 -0.441495
    outer loop
      vertex 88.2167 -106.512 1828.91
      vertex 91.4361 -104.89 1828.62
      vertex 88.2721 -106.617 1828.67
    endloop
  endfacet
  facet normal -0.349508 0.731146 -0.585892
    outer loop
      vertex 78.881 -97.958 1847.81
      vertex 83.8449 -98.2688 1844.46
      vertex 77.0491 -101.517 1844.46
    endloop
  endfacet
  facet normal -0.36056 0.754265 -0.548708
    outer loop
      vertex 83.8449 -98.2688 1844.46
      vertex 86.1797 -102.671 1836.87
      vertex 77.0491 -101.517 1844.46
    endloop
  endfacet
  facet normal -0.36056 0.754266 -0.548707
    outer loop
      vertex 77.0491 -101.517 1844.46
      vertex 86.1797 -102.671 1836.87
      vertex 79.0091 -106.099 1836.87
    endloop
  endfacet
  facet normal -0.378656 0.792122 -0.478709
    outer loop
      vertex 86.1797 -102.671 1836.87
      vertex 88.2167 -106.512 1828.91
      vertex 79.0091 -106.099 1836.87
    endloop
  endfacet
  facet normal -0.378656 0.792122 -0.478709
    outer loop
      vertex 79.0091 -106.099 1836.87
      vertex 88.2167 -106.512 1828.91
      vertex 80.7191 -110.097 1828.91
    endloop
  endfacet
  facet normal -0.342269 0.716004 -0.608432
    outer loop
      vertex 88.2167 -106.512 1828.91
      vertex 83.3807 -109.066 1828.62
      vertex 80.7191 -110.097 1828.91
    endloop
  endfacet
  facet normal -0.364696 0.820067 -0.441007
    outer loop
      vertex 80.7191 -110.097 1828.91
      vertex 83.3807 -109.066 1828.62
      vertex 80.7874 -110.261 1828.55
    endloop
  endfacet
  facet normal -0.563203 0.67397 -0.478087
    outer loop
      vertex 106.529 -94.9039 1827.51
      vertex 102.188 -97.5372 1828.91
      vertex 108.565 -92.2083 1828.91
    endloop
  endfacet
  facet normal -0.562986 0.673709 -0.478709
    outer loop
      vertex 102.188 -97.5372 1828.91
      vertex 99.5418 -94.0875 1836.87
      vertex 108.565 -92.2083 1828.91
    endloop
  endfacet
  facet normal -0.562986 0.673709 -0.478709
    outer loop
      vertex 108.565 -92.2083 1828.91
      vertex 99.5418 -94.0875 1836.87
      vertex 105.641 -88.9912 1836.87
    endloop
  endfacet
  facet normal -0.53608 0.641512 -0.548708
    outer loop
      vertex 99.5418 -94.0875 1836.87
      vertex 96.5085 -90.1337 1844.46
      vertex 105.641 -88.9912 1836.87
    endloop
  endfacet
  facet normal -0.53608 0.641512 -0.548707
    outer loop
      vertex 105.641 -88.9912 1836.87
      vertex 96.5085 -90.1337 1844.46
      vertex 102.288 -85.3038 1844.46
    endloop
  endfacet
  facet normal -0.505598 0.605034 -0.615065
    outer loop
      vertex 96.5085 -90.1337 1844.46
      vertex 93.1087 -85.7021 1851.61
      vertex 102.288 -85.3038 1844.46
    endloop
  endfacet
  facet normal -0.505598 0.605034 -0.615065
    outer loop
      vertex 102.288 -85.3038 1844.46
      vertex 93.1087 -85.7021 1851.61
      vertex 98.5312 -81.1707 1851.61
    endloop
  endfacet
  facet normal -0.470846 0.561774 -0.680231
    outer loop
      vertex 89.6494 -80.4537 1858.41
      vertex 94.394 -76.6197 1858.29
      vertex 89.5487 -80.678 1858.29
    endloop
  endfacet
  facet normal -0.47256 0.563822 -0.677341
    outer loop
      vertex 94.394 -76.6197 1858.29
      vertex 98.5312 -81.1707 1851.61
      vertex 89.5487 -80.678 1858.29
    endloop
  endfacet
  facet normal -0.472401 0.56418 -0.677155
    outer loop
      vertex 89.5487 -80.678 1858.29
      vertex 98.5312 -81.1707 1851.61
      vertex 89.4373 -80.9241 1858.16
    endloop
  endfacet
  facet normal -0.472087 0.564933 -0.676746
    outer loop
      vertex 98.5312 -81.1707 1851.61
      vertex 93.1087 -85.7021 1851.61
      vertex 89.4373 -80.9241 1858.16
    endloop
  endfacet
  facet normal -0.423399 0.602312 -0.676723
    outer loop
      vertex 89.4373 -80.9241 1858.16
      vertex 93.1087 -85.7021 1851.61
      vertex 87.3275 -89.766 1851.61
    endloop
  endfacet
  facet normal -0.453441 0.645048 -0.615065
    outer loop
      vertex 93.1087 -85.7021 1851.61
      vertex 96.5085 -90.1337 1844.46
      vertex 87.3275 -89.766 1851.61
    endloop
  endfacet
  facet normal -0.453441 0.645047 -0.615065
    outer loop
      vertex 87.3275 -89.766 1851.61
      vertex 96.5085 -90.1337 1844.46
      vertex 90.3464 -94.4654 1844.46
    endloop
  endfacet
  facet normal -0.48078 0.683938 -0.548707
    outer loop
      vertex 96.5085 -90.1337 1844.46
      vertex 99.5418 -94.0875 1836.87
      vertex 90.3464 -94.4654 1844.46
    endloop
  endfacet
  facet normal -0.48078 0.683938 -0.548708
    outer loop
      vertex 90.3464 -94.4654 1844.46
      vertex 99.5418 -94.0875 1836.87
      vertex 93.0398 -98.6582 1836.87
    endloop
  endfacet
  facet normal -0.50491 0.718264 -0.478709
    outer loop
      vertex 99.5418 -94.0875 1836.87
      vertex 102.188 -97.5372 1828.91
      vertex 93.0398 -98.6582 1836.87
    endloop
  endfacet
  facet normal -0.50491 0.718265 -0.478709
    outer loop
      vertex 93.0398 -98.6582 1836.87
      vertex 102.188 -97.5372 1828.91
      vertex 95.3898 -102.316 1828.91
    endloop
  endfacet
  facet normal -0.488482 0.694896 -0.527735
    outer loop
      vertex 102.188 -97.5372 1828.91
      vertex 99.1694 -100.159 1828.25
      vertex 95.3898 -102.316 1828.91
    endloop
  endfacet
  facet normal -0.501597 0.744343 -0.440856
    outer loop
      vertex 95.3898 -102.316 1828.91
      vertex 99.1694 -100.159 1828.25
      vertex 95.5065 -102.494 1828.47
    endloop
  endfacet
  facet normal -0.683186 0.584727 -0.437437
    outer loop
      vertex 119.932 -82.9678 1824.93
      vertex 114.476 -86.3669 1828.91
      vertex 119.88 -80.0533 1828.91
    endloop
  endfacet
  facet normal -0.667022 0.570893 -0.478709
    outer loop
      vertex 114.476 -86.3669 1828.91
      vertex 111.293 -83.4045 1836.87
      vertex 119.88 -80.0533 1828.91
    endloop
  endfacet
  facet normal -0.667022 0.570893 -0.478709
    outer loop
      vertex 119.88 -80.0533 1828.91
      vertex 111.293 -83.4045 1836.87
      vertex 116.461 -77.3663 1836.87
    endloop
  endfacet
  facet normal -0.635145 0.543609 -0.548708
    outer loop
      vertex 111.293 -83.4045 1836.87
      vertex 107.646 -80.0091 1844.46
      vertex 116.461 -77.3663 1836.87
    endloop
  endfacet
  facet normal -0.635145 0.54361 -0.548707
    outer loop
      vertex 116.461 -77.3663 1836.87
      vertex 107.646 -80.0091 1844.46
      vertex 112.544 -74.2866 1844.46
    endloop
  endfacet
  facet normal -0.599029 0.512699 -0.615065
    outer loop
      vertex 107.646 -80.0091 1844.46
      vertex 103.557 -76.2034 1851.61
      vertex 112.544 -74.2866 1844.46
    endloop
  endfacet
  facet normal -0.599029 0.512699 -0.615065
    outer loop
      vertex 112.544 -74.2866 1844.46
      vertex 103.557 -76.2034 1851.61
      vertex 108.152 -70.8347 1851.61
    endloop
  endfacet
  facet normal -0.558924 0.478374 -0.67732
    outer loop
      vertex 103.557 -76.2034 1851.61
      vertex 99.0555 -72.0128 1858.29
      vertex 108.152 -70.8347 1851.61
    endloop
  endfacet
  facet normal -0.558924 0.478374 -0.67732
    outer loop
      vertex 108.152 -70.8347 1851.61
      vertex 99.0555 -72.0128 1858.29
      vertex 103.317 -67.0337 1858.29
    endloop
  endfacet
  facet normal -0.512897 0.438397 -0.738068
    outer loop
      vertex 94.3137 -67.0895 1864.57
      vertex 98.0697 -62.9088 1864.44
      vertex 94.2359 -67.3878 1864.44
    endloop
  endfacet
  facet normal -0.515361 0.440508 -0.735089
    outer loop
      vertex 98.0697 -62.9088 1864.44
      vertex 103.317 -67.0337 1858.29
      vertex 94.2359 -67.3878 1864.44
    endloop
  endfacet
  facet normal -0.515288 0.4408 -0.734965
    outer loop
      vertex 94.2359 -67.3878 1864.44
      vertex 103.317 -67.0337 1858.29
      vertex 94.2051 -67.505 1864.39
    endloop
  endfacet
  facet normal -0.515243 0.440988 -0.734884
    outer loop
      vertex 103.317 -67.0337 1858.29
      vertex 99.0555 -72.0128 1858.29
      vertex 94.2051 -67.505 1864.39
    endloop
  endfacet
  facet normal -0.476736 0.482392 -0.734862
    outer loop
      vertex 94.2051 -67.505 1864.39
      vertex 99.0555 -72.0128 1858.29
      vertex 94.394 -76.6197 1858.29
    endloop
  endfacet
  facet normal -0.517134 0.523269 -0.677319
    outer loop
      vertex 99.0555 -72.0128 1858.29
      vertex 103.557 -76.2034 1851.61
      vertex 94.394 -76.6197 1858.29
    endloop
  endfacet
  facet normal -0.517134 0.523269 -0.677319
    outer loop
      vertex 94.394 -76.6197 1858.29
      vertex 103.557 -76.2034 1851.61
      vertex 98.5312 -81.1707 1851.61
    endloop
  endfacet
  facet normal -0.55424 0.560815 -0.615065
    outer loop
      vertex 103.557 -76.2034 1851.61
      vertex 107.646 -80.0091 1844.46
      vertex 98.5312 -81.1707 1851.61
    endloop
  endfacet
  facet normal -0.55424 0.560815 -0.615065
    outer loop
      vertex 98.5312 -81.1707 1851.61
      vertex 107.646 -80.0091 1844.46
      vertex 102.288 -85.3038 1844.46
    endloop
  endfacet
  facet normal -0.587655 0.594627 -0.548708
    outer loop
      vertex 107.646 -80.0091 1844.46
      vertex 111.293 -83.4045 1836.87
      vertex 102.288 -85.3038 1844.46
    endloop
  endfacet
  facet normal -0.587655 0.594628 -0.548707
    outer loop
      vertex 102.288 -85.3038 1844.46
      vertex 111.293 -83.4045 1836.87
      vertex 105.641 -88.9912 1836.87
    endloop
  endfacet
  facet normal -0.617149 0.624472 -0.478709
    outer loop
      vertex 111.293 -83.4045 1836.87
      vertex 114.476 -86.3669 1828.91
      vertex 105.641 -88.9912 1836.87
    endloop
  endfacet
  facet normal -0.617149 0.624471 -0.478709
    outer loop
      vertex 105.641 -88.9912 1836.87
      vertex 114.476 -86.3669 1828.91
      vertex 108.565 -92.2083 1828.91
    endloop
  endfacet
  facet normal -0.626545 0.633979 -0.453334
    outer loop
      vertex 114.476 -86.3669 1828.91
      vertex 113.465 -89.1608 1826.4
      vertex 108.565 -92.2083 1828.91
    endloop
  endfacet
  facet normal -0.625606 0.647757 -0.434774
    outer loop
      vertex 108.565 -92.2083 1828.91
      vertex 113.465 -89.1608 1826.4
      vertex 109.144 -92.8363 1827.14
    endloop
  endfacet
  facet normal -0.59534 0.178253 -0.783452
    outer loop
      vertex 110.593 -34.8915 1865.22
      vertex 111.229 -36.1953 1864.44
      vertex 109.509 -41.9407 1864.44
    endloop
  endfacet
  facet normal -0.649492 0.194467 -0.73508
    outer loop
      vertex 111.229 -36.1953 1864.44
      vertex 117.697 -37.8416 1858.29
      vertex 109.509 -41.9407 1864.44
    endloop
  endfacet
  facet normal -0.649492 0.194467 -0.73508
    outer loop
      vertex 109.509 -41.9407 1864.44
      vertex 117.697 -37.8416 1858.29
      vertex 115.817 -44.12 1858.29
    endloop
  endfacet
  facet normal -0.704776 0.21102 -0.677319
    outer loop
      vertex 117.697 -37.8416 1858.29
      vertex 123.658 -39.3586 1851.61
      vertex 115.817 -44.12 1858.29
    endloop
  endfacet
  facet normal -0.704776 0.21102 -0.67732
    outer loop
      vertex 115.817 -44.12 1858.29
      vertex 123.658 -39.3586 1851.61
      vertex 121.631 -46.1283 1851.61
    endloop
  endfacet
  facet normal -0.749492 0.224408 -0.622819
    outer loop
      vertex 123.658 -39.3586 1851.61
      vertex 127.822 -40.442 1846.21
      vertex 121.631 -46.1283 1851.61
    endloop
  endfacet
  facet normal -0.752532 0.234933 -0.615225
    outer loop
      vertex 121.631 -46.1283 1851.61
      vertex 127.822 -40.442 1846.21
      vertex 126.91 -47.9521 1844.46
    endloop
  endfacet
  facet normal -0.753716 0.234754 -0.613843
    outer loop
      vertex 127.822 -40.442 1846.21
      vertex 128.556 -42.6351 1844.47
      vertex 126.91 -47.9521 1844.46
    endloop
  endfacet
  facet normal -0.770525 0.239904 -0.590539
    outer loop
      vertex 126.91 -47.9521 1844.46
      vertex 128.556 -42.6351 1844.47
      vertex 129.038 -44.216 1843.2
    endloop
  endfacet
  facet normal -0.591246 0.232262 -0.772323
    outer loop
      vertex 104.469 -44.4182 1867.55
      vertex 109.509 -41.9407 1864.44
      vertex 107.316 -47.5228 1864.44
    endloop
  endfacet
  facet normal -0.631036 0.247893 -0.73508
    outer loop
      vertex 109.509 -41.9407 1864.44
      vertex 115.817 -44.12 1858.29
      vertex 107.316 -47.5228 1864.44
    endloop
  endfacet
  facet normal -0.631036 0.247894 -0.73508
    outer loop
      vertex 107.316 -47.5228 1864.44
      vertex 115.817 -44.12 1858.29
      vertex 113.421 -50.2201 1858.29
    endloop
  endfacet
  facet normal -0.684749 0.268994 -0.677319
    outer loop
      vertex 115.817 -44.12 1858.29
      vertex 121.631 -46.1283 1851.61
      vertex 113.421 -50.2201 1858.29
    endloop
  endfacet
  facet normal -0.684749 0.268993 -0.67732
    outer loop
      vertex 113.421 -50.2201 1858.29
      vertex 121.631 -46.1283 1851.61
      vertex 119.047 -52.7056 1851.61
    endloop
  endfacet
  facet normal -0.733881 0.288294 -0.615065
    outer loop
      vertex 121.631 -46.1283 1851.61
      vertex 126.91 -47.9521 1844.46
      vertex 119.047 -52.7056 1851.61
    endloop
  endfacet
  facet normal -0.733881 0.288295 -0.615065
    outer loop
      vertex 119.047 -52.7056 1851.61
      vertex 126.91 -47.9521 1844.46
      vertex 124.156 -54.9628 1844.46
    endloop
  endfacet
  facet normal -0.77188 0.303222 -0.5588
    outer loop
      vertex 126.91 -47.9521 1844.46
      vertex 130.286 -49.1318 1839.16
      vertex 124.156 -54.9628 1844.46
    endloop
  endfacet
  facet normal -0.773094 0.308843 -0.554024
    outer loop
      vertex 124.156 -54.9628 1844.46
      vertex 130.286 -49.1318 1839.16
      vertex 130.589 -50.6194 1837.9
    endloop
  endfacet
  facet normal -0.562764 0.277218 -0.778747
    outer loop
      vertex 100.819 -48.7619 1868.69
      vertex 107.316 -47.5228 1864.44
      vertex 104.666 -52.9028 1864.44
    endloop
  endfacet
  facet normal -0.608194 0.299596 -0.73508
    outer loop
      vertex 107.316 -47.5228 1864.44
      vertex 113.421 -50.2201 1858.29
      vertex 104.666 -52.9028 1864.44
    endloop
  endfacet
  facet normal -0.608194 0.299596 -0.73508
    outer loop
      vertex 104.666 -52.9028 1864.44
      vertex 113.421 -50.2201 1858.29
      vertex 110.525 -56.0993 1858.29
    endloop
  endfacet
  facet normal -0.659962 0.325097 -0.67732
    outer loop
      vertex 113.421 -50.2201 1858.29
      vertex 119.047 -52.7056 1851.61
      vertex 110.525 -56.0993 1858.29
    endloop
  endfacet
  facet normal -0.659962 0.325098 -0.67732
    outer loop
      vertex 110.525 -56.0993 1858.29
      vertex 119.047 -52.7056 1851.61
      vertex 115.924 -59.0448 1851.61
    endloop
  endfacet
  facet normal -0.707316 0.348424 -0.615065
    outer loop
      vertex 119.047 -52.7056 1851.61
      vertex 124.156 -54.9628 1844.46
      vertex 115.924 -59.0448 1851.61
    endloop
  endfacet
  facet normal -0.707316 0.348424 -0.615065
    outer loop
      vertex 115.924 -59.0448 1851.61
      vertex 124.156 -54.9628 1844.46
      vertex 120.828 -61.7198 1844.46
    endloop
  endfacet
  facet normal -0.74996 0.369431 -0.548708
    outer loop
      vertex 124.156 -54.9628 1844.46
      vertex 128.714 -56.9766 1836.87
      vertex 120.828 -61.7198 1844.46
    endloop
  endfacet
  facet normal -0.74996 0.369433 -0.548707
    outer loop
      vertex 120.828 -61.7198 1844.46
      vertex 128.714 -56.9766 1836.87
      vertex 125.202 -64.1063 1836.87
    endloop
  endfacet
  facet normal -0.782388 0.385407 -0.489214
    outer loop
      vertex 128.714 -56.9766 1836.87
      vertex 131.584 -58.2508 1831.28
      vertex 125.202 -64.1063 1836.87
    endloop
  endfacet
  facet normal -0.783337 0.396337 -0.478853
    outer loop
      vertex 125.202 -64.1063 1836.87
      vertex 131.584 -58.2508 1831.28
      vertex 129.019 -66.1885 1828.91
    endloop
  endfacet
  facet normal -0.781443 0.396586 -0.481732
    outer loop
      vertex 131.584 -58.2508 1831.28
      vertex 131.707 -60.8852 1828.91
      vertex 129.019 -66.1885 1828.91
    endloop
  endfacet
  facet normal -0.797828 0.404849 -0.44673
    outer loop
      vertex 129.019 -66.1885 1828.91
      vertex 131.707 -60.8852 1828.91
      vertex 131.717 -63.2534 1826.75
    endloop
  endfacet
  facet normal -0.783848 0.471216 -0.404399
    outer loop
      vertex 131.287 -69.4005 1820.96
      vertex 127.118 -74.8704 1822.67
      vertex 131.489 -67.5398 1822.74
    endloop
  endfacet
  facet normal -0.779838 0.468921 -0.414686
    outer loop
      vertex 127.118 -74.8704 1822.67
      vertex 124.739 -73.3116 1828.91
      vertex 131.489 -67.5398 1822.74
    endloop
  endfacet
  facet normal -0.779857 0.468644 -0.414966
    outer loop
      vertex 131.489 -67.5398 1822.74
      vertex 124.739 -73.3116 1828.91
      vertex 129.019 -66.1885 1828.91
    endloop
  endfacet
  facet normal -0.752545 0.452231 -0.478709
    outer loop
      vertex 124.739 -73.3116 1828.91
      vertex 121.108 -70.9187 1836.87
      vertex 129.019 -66.1885 1828.91
    endloop
  endfacet
  facet normal -0.752545 0.452231 -0.47871
    outer loop
      vertex 129.019 -66.1885 1828.91
      vertex 121.108 -70.9187 1836.87
      vertex 125.202 -64.1063 1836.87
    endloop
  endfacet
  facet normal -0.716581 0.430618 -0.548707
    outer loop
      vertex 121.108 -70.9187 1836.87
      vertex 116.948 -68.176 1844.46
      vertex 125.202 -64.1063 1836.87
    endloop
  endfacet
  facet normal -0.716581 0.430619 -0.548707
    outer loop
      vertex 125.202 -64.1063 1836.87
      vertex 116.948 -68.176 1844.46
      vertex 120.828 -61.7198 1844.46
    endloop
  endfacet
  facet normal -0.675834 0.406133 -0.615065
    outer loop
      vertex 116.948 -68.176 1844.46
      vertex 112.284 -65.1019 1851.61
      vertex 120.828 -61.7198 1844.46
    endloop
  endfacet
  facet normal -0.675834 0.406133 -0.615065
    outer loop
      vertex 120.828 -61.7198 1844.46
      vertex 112.284 -65.1019 1851.61
      vertex 115.924 -59.0448 1851.61
    endloop
  endfacet
  facet normal -0.630587 0.378943 -0.67732
    outer loop
      vertex 112.284 -65.1019 1851.61
      vertex 107.149 -61.7168 1858.29
      vertex 115.924 -59.0448 1851.61
    endloop
  endfacet
  facet normal -0.630587 0.378943 -0.67732
    outer loop
      vertex 115.924 -59.0448 1851.61
      vertex 107.149 -61.7168 1858.29
      vertex 110.525 -56.0993 1858.29
    endloop
  endfacet
  facet normal -0.581123 0.349218 -0.73508
    outer loop
      vertex 107.149 -61.7168 1858.29
      vertex 101.576 -58.0434 1864.44
      vertex 110.525 -56.0993 1858.29
    endloop
  endfacet
  facet normal -0.581123 0.349218 -0.73508
    outer loop
      vertex 110.525 -56.0993 1858.29
      vertex 101.576 -58.0434 1864.44
      vertex 104.666 -52.9028 1864.44
    endloop
  endfacet
  facet normal -0.532262 0.314482 -0.786001
    outer loop
      vertex 96.8116 -52.785 1869.81
      vertex 104.666 -52.9028 1864.44
      vertex 96.6 -54.7907 1869.15
    endloop
  endfacet
  facet normal -0.532256 0.319852 -0.783836
    outer loop
      vertex 104.666 -52.9028 1864.44
      vertex 101.576 -58.0434 1864.44
      vertex 96.6 -54.7907 1869.15
    endloop
  endfacet
  facet normal -0.503863 0.363148 -0.783738
    outer loop
      vertex 96.6 -54.7907 1869.15
      vertex 101.576 -58.0434 1864.44
      vertex 98.0697 -62.9088 1864.44
    endloop
  endfacet
  facet normal -0.550014 0.396411 -0.73508
    outer loop
      vertex 101.576 -58.0434 1864.44
      vertex 107.149 -61.7168 1858.29
      vertex 98.0697 -62.9088 1864.44
    endloop
  endfacet
  facet normal -0.550014 0.396411 -0.73508
    outer loop
      vertex 98.0697 -62.9088 1864.44
      vertex 107.149 -61.7168 1858.29
      vertex 103.317 -67.0337 1858.29
    endloop
  endfacet
  facet normal -0.59683 0.430153 -0.67732
    outer loop
      vertex 107.149 -61.7168 1858.29
      vertex 112.284 -65.1019 1851.61
      vertex 103.317 -67.0337 1858.29
    endloop
  endfacet
  facet normal -0.59683 0.430153 -0.67732
    outer loop
      vertex 103.317 -67.0337 1858.29
      vertex 112.284 -65.1019 1851.61
      vertex 108.152 -70.8347 1851.61
    endloop
  endfacet
  facet normal -0.639655 0.461018 -0.615065
    outer loop
      vertex 112.284 -65.1019 1851.61
      vertex 116.948 -68.176 1844.46
      vertex 108.152 -70.8347 1851.61
    endloop
  endfacet
  facet normal -0.639655 0.461017 -0.615065
    outer loop
      vertex 108.152 -70.8347 1851.61
      vertex 116.948 -68.176 1844.46
      vertex 112.544 -74.2866 1844.46
    endloop
  endfacet
  facet normal -0.67822 0.488813 -0.548707
    outer loop
      vertex 116.948 -68.176 1844.46
      vertex 121.108 -70.9187 1836.87
      vertex 112.544 -74.2866 1844.46
    endloop
  endfacet
  facet normal -0.67822 0.488813 -0.548707
    outer loop
      vertex 112.544 -74.2866 1844.46
      vertex 121.108 -70.9187 1836.87
      vertex 116.461 -77.3663 1836.87
    endloop
  endfacet
  facet normal -0.712259 0.513346 -0.478709
    outer loop
      vertex 121.108 -70.9187 1836.87
      vertex 124.739 -73.3116 1828.91
      vertex 116.461 -77.3663 1836.87
    endloop
  endfacet
  facet normal -0.712259 0.513346 -0.478709
    outer loop
      vertex 116.461 -77.3663 1836.87
      vertex 124.739 -73.3116 1828.91
      vertex 119.88 -80.0533 1828.91
    endloop
  endfacet
  facet normal -0.734493 0.52937 -0.424603
    outer loop
      vertex 124.739 -73.3116 1828.91
      vertex 125.886 -76.3663 1823.11
      vertex 119.88 -80.0533 1828.91
    endloop
  endfacet
  facet normal -0.734041 0.531401 -0.422843
    outer loop
      vertex 119.88 -80.0533 1828.91
      vertex 125.886 -76.3663 1823.11
      vertex 121.503 -81.3194 1824.5
    endloop
  endfacet
  facet normal 0.0873502 0.183642 0.979104
    outer loop
      vertex 161.33 -45.4357 1862.67
      vertex 170.535 -41.291 1861.07
      vertex 116.547 -19.0107 1861.71
    endloop
  endfacet
  facet normal 0.0873429 0.183637 0.979106
    outer loop
      vertex 115.015 -24.4687 1862.87
      vertex 142.214 -52.0246 1865.61
      vertex 116.547 -19.0107 1861.71
    endloop
  endfacet
  facet normal 0.0873496 0.183642 0.979105
    outer loop
      vertex 142.214 -52.0246 1865.61
      vertex 151.878 -49.0179 1864.19
      vertex 116.547 -19.0107 1861.71
    endloop
  endfacet
  facet normal 0.0873508 0.183644 0.979104
    outer loop
      vertex 116.547 -19.0107 1861.71
      vertex 151.878 -49.0179 1864.19
      vertex 161.33 -45.4357 1862.67
    endloop
  endfacet
  facet normal 0.0885535 0.184799 0.978779
    outer loop
      vertex 115.015 -24.4687 1862.87
      vertex 114.997 -24.5233 1862.88
      vertex 142.214 -52.0246 1865.61
    endloop
  endfacet
  facet normal 0.0873401 0.183631 0.979107
    outer loop
      vertex 114.997 -24.5233 1862.88
      vertex 113.025 -29.7746 1864.04
      vertex 142.214 -52.0246 1865.61
    endloop
  endfacet
  facet normal 0.0873387 0.183629 0.979108
    outer loop
      vertex 142.214 -52.0246 1865.61
      vertex 113.025 -29.7746 1864.04
      vertex 112.766 -30.3772 1864.18
    endloop
  endfacet
  facet normal 0.0873579 0.183655 0.979101
    outer loop
      vertex 112.766 -30.3772 1864.18
      vertex 112.255 -31.5212 1864.44
      vertex 142.214 -52.0246 1865.61
    endloop
  endfacet
  facet normal 0.0873425 0.183633 0.979107
    outer loop
      vertex 112.255 -31.5212 1864.44
      vertex 110.593 -34.8915 1865.22
      vertex 142.214 -52.0246 1865.61
    endloop
  endfacet
  facet normal 0.0873455 0.183638 0.979106
    outer loop
      vertex 142.214 -52.0246 1865.61
      vertex 110.593 -34.8915 1865.22
      vertex 138.312 -58.7022 1867.21
    endloop
  endfacet
  facet normal 0.0873589 0.183654 0.979102
    outer loop
      vertex 110.593 -34.8915 1865.22
      vertex 107.734 -39.784 1866.39
      vertex 138.312 -58.7022 1867.21
    endloop
  endfacet
  facet normal 0.0873506 0.18364 0.979105
    outer loop
      vertex 138.312 -58.7022 1867.21
      vertex 107.734 -39.784 1866.39
      vertex 133.91 -65.0647 1868.8
    endloop
  endfacet
  facet normal 0.0873508 0.183641 0.979105
    outer loop
      vertex 107.734 -39.784 1866.39
      vertex 104.469 -44.4182 1867.55
      vertex 133.91 -65.0647 1868.8
    endloop
  endfacet
  facet normal 0.0873498 0.183639 0.979105
    outer loop
      vertex 133.91 -65.0647 1868.8
      vertex 104.469 -44.4182 1867.55
      vertex 129.032 -71.0764 1870.36
    endloop
  endfacet
  facet normal 0.0873539 0.183643 0.979104
    outer loop
      vertex 104.469 -44.4182 1867.55
      vertex 103.387 -45.7855 1867.91
      vertex 129.032 -71.0764 1870.36
    endloop
  endfacet
  facet normal 0.0873468 0.183636 0.979106
    outer loop
      vertex 129.032 -71.0764 1870.36
      vertex 103.387 -45.7855 1867.91
      vertex 127.193 -73.1178 1870.91
    endloop
  endfacet
  facet normal 0.087344 0.183634 0.979107
    outer loop
      vertex 103.387 -45.7855 1867.91
      vertex 100.819 -48.7619 1868.69
      vertex 127.193 -73.1178 1870.91
    endloop
  endfacet
  facet normal 0.0873495 0.183639 0.979105
    outer loop
      vertex 100.819 -48.7619 1868.69
      vertex 99.5507 -50.1103 1869.06
      vertex 127.193 -73.1178 1870.91
    endloop
  endfacet
  facet normal 0.0873571 0.183648 0.979103
    outer loop
      vertex 127.193 -73.1178 1870.91
      vertex 99.5507 -50.1103 1869.06
      vertex 123.706 -76.7037 1871.89
    endloop
  endfacet
  facet normal 0.0873447 0.183637 0.979106
    outer loop
      vertex 99.5507 -50.1103 1869.06
      vertex 96.8116 -52.785 1869.81
      vertex 123.706 -76.7037 1871.89
    endloop
  endfacet
  facet normal 0.087345 0.183638 0.979106
    outer loop
      vertex 123.706 -76.7037 1871.89
      vertex 96.8116 -52.785 1869.81
      vertex 121.119 -79.1491 1872.58
    endloop
  endfacet
  facet normal 0.0873479 0.18364 0.979105
    outer loop
      vertex 96.8116 -52.785 1869.81
      vertex 117.962 -81.915 1873.38
      vertex 121.119 -79.1491 1872.58
    endloop
  endfacet
  facet normal 0.231436 -0.446468 -0.864352
    outer loop
      vertex 63.0385 -125.585 1831.71
      vertex 57.8302 -118.002 1826.4
      vertex 66.5214 -115.644 1827.51
    endloop
  endfacet
  facet normal 0.23144 -0.446469 -0.86435
    outer loop
      vertex 63.0385 -125.585 1831.71
      vertex 66.5214 -115.644 1827.51
      vertex 100.073 -138.519 1848.31
    endloop
  endfacet
  facet normal 0.231441 -0.446468 -0.86435
    outer loop
      vertex 66.5214 -115.644 1827.51
      vertex 73.0692 -113.415 1828.11
      vertex 100.073 -138.519 1848.31
    endloop
  endfacet
  facet normal 0.231446 -0.446464 -0.864351
    outer loop
      vertex 100.073 -138.519 1848.31
      vertex 73.0692 -113.415 1828.11
      vertex 75.0572 -112.658 1828.25
    endloop
  endfacet
  facet normal 0.23143 -0.446477 -0.864348
    outer loop
      vertex 75.0572 -112.658 1828.25
      vertex 80.7874 -110.261 1828.55
      vertex 100.073 -138.519 1848.31
    endloop
  endfacet
  facet normal 0.231448 -0.446466 -0.86435
    outer loop
      vertex 80.7874 -110.261 1828.55
      vertex 83.3807 -109.066 1828.62
      vertex 100.073 -138.519 1848.31
    endloop
  endfacet
  facet normal 0.231432 -0.446475 -0.864349
    outer loop
      vertex 100.073 -138.519 1848.31
      vertex 83.3807 -109.066 1828.62
      vertex 107.637 -134.542 1848.28
    endloop
  endfacet
  facet normal 0.231431 -0.446476 -0.864349
    outer loop
      vertex 83.3807 -109.066 1828.62
      vertex 88.2721 -106.617 1828.67
      vertex 107.637 -134.542 1848.28
    endloop
  endfacet
  facet normal 0.231449 -0.446464 -0.86435
    outer loop
      vertex 107.637 -134.542 1848.28
      vertex 88.2721 -106.617 1828.67
      vertex 91.4361 -104.89 1828.62
    endloop
  endfacet
  facet normal 0.231439 -0.446468 -0.864351
    outer loop
      vertex 102.471 -97.8986 1827.97
      vertex 120.663 -126.505 1847.61
      vertex 99.1694 -100.159 1828.25
    endloop
  endfacet
  facet normal 0.231436 -0.44647 -0.86435
    outer loop
      vertex 120.663 -126.505 1847.61
      vertex 119.468 -127.31 1847.71
      vertex 99.1694 -100.159 1828.25
    endloop
  endfacet
  facet normal 0.231435 -0.446471 -0.86435
    outer loop
      vertex 99.1694 -100.159 1828.25
      vertex 119.468 -127.31 1847.71
      vertex 95.5065 -102.494 1828.47
    endloop
  endfacet
  facet normal 0.231429 -0.446478 -0.864348
    outer loop
      vertex 119.932 -82.9678 1824.93
      vertex 121.503 -81.3194 1824.5
      vertex 147.732 -103.64 1843.05
    endloop
  endfacet
  facet normal 0.231424 -0.44648 -0.864349
    outer loop
      vertex 119.468 -127.31 1847.71
      vertex 115.516 -129.872 1847.97
      vertex 95.5065 -102.494 1828.47
    endloop
  endfacet
  facet normal 0.23144 -0.446469 -0.86435
    outer loop
      vertex 115.516 -129.872 1847.97
      vertex 111.553 -132.291 1848.16
      vertex 95.5065 -102.494 1828.47
    endloop
  endfacet
  facet normal 0.231444 -0.446467 -0.86435
    outer loop
      vertex 95.5065 -102.494 1828.47
      vertex 111.553 -132.291 1848.16
      vertex 91.4361 -104.89 1828.62
    endloop
  endfacet
  facet normal 0.231431 -0.446476 -0.864349
    outer loop
      vertex 111.553 -132.291 1848.16
      vertex 110.581 -132.863 1848.2
      vertex 91.4361 -104.89 1828.62
    endloop
  endfacet
  facet normal 0.231455 -0.446461 -0.86435
    outer loop
      vertex 91.4361 -104.89 1828.62
      vertex 110.581 -132.863 1848.2
      vertex 107.637 -134.542 1848.28
    endloop
  endfacet
  facet normal 0.231429 -0.446478 -0.864348
    outer loop
      vertex 106.529 -94.9039 1827.51
      vertex 126.939 -122.028 1846.98
      vertex 102.471 -97.8986 1827.97
    endloop
  endfacet
  facet normal 0.231441 -0.446468 -0.864351
    outer loop
      vertex 126.939 -122.028 1846.98
      vertex 123.523 -124.518 1847.35
      vertex 102.471 -97.8986 1827.97
    endloop
  endfacet
  facet normal 0.231447 -0.446463 -0.864351
    outer loop
      vertex 102.471 -97.8986 1827.97
      vertex 123.523 -124.518 1847.35
      vertex 120.663 -126.505 1847.61
    endloop
  endfacet
  facet normal 0.231438 -0.44647 -0.86435
    outer loop
      vertex 147.732 -103.64 1843.05
      vertex 121.503 -81.3194 1824.5
      vertex 155.505 -94.9159 1840.63
    endloop
  endfacet
  facet normal 0.23143 -0.446478 -0.864348
    outer loop
      vertex 113.465 -89.1608 1826.4
      vertex 136.263 -114.532 1845.61
      vertex 109.144 -92.8363 1827.14
    endloop
  endfacet
  facet normal 0.231442 -0.446466 -0.864351
    outer loop
      vertex 136.263 -114.532 1845.61
      vertex 130.255 -119.485 1846.56
      vertex 109.144 -92.8363 1827.14
    endloop
  endfacet
  facet normal 0.231454 -0.446458 -0.864352
    outer loop
      vertex 109.144 -92.8363 1827.14
      vertex 130.255 -119.485 1846.56
      vertex 106.529 -94.9039 1827.51
    endloop
  endfacet
  facet normal 0.231439 -0.44647 -0.86435
    outer loop
      vertex 130.255 -119.485 1846.56
      vertex 127.65 -121.493 1846.9
      vertex 106.529 -94.9039 1827.51
    endloop
  endfacet
  facet normal 0.23142 -0.446484 -0.864348
    outer loop
      vertex 106.529 -94.9039 1827.51
      vertex 127.65 -121.493 1846.9
      vertex 126.939 -122.028 1846.98
    endloop
  endfacet
  facet normal 0.231437 -0.446471 -0.86435
    outer loop
      vertex 175.29 -72.4223 1834.3
      vertex 168.876 -76.14 1834.51
      vertex 131.287 -69.4005 1820.96
    endloop
  endfacet
  facet normal 0.231439 -0.446467 -0.864351
    outer loop
      vertex 168.876 -76.14 1834.51
      vertex 162.568 -85.7298 1837.77
      vertex 131.287 -69.4005 1820.96
    endloop
  endfacet
  facet normal 0.231438 -0.446468 -0.864351
    outer loop
      vertex 131.287 -69.4005 1820.96
      vertex 162.568 -85.7298 1837.77
      vertex 127.118 -74.8704 1822.67
    endloop
  endfacet
  facet normal 0.231437 -0.44647 -0.86435
    outer loop
      vertex 162.568 -85.7298 1837.77
      vertex 155.505 -94.9159 1840.63
      vertex 127.118 -74.8704 1822.67
    endloop
  endfacet
  facet normal 0.23143 -0.446477 -0.864348
    outer loop
      vertex 127.118 -74.8704 1822.67
      vertex 155.505 -94.9159 1840.63
      vertex 125.886 -76.3663 1823.11
    endloop
  endfacet
  facet normal 0.23144 -0.446465 -0.864352
    outer loop
      vertex 155.505 -94.9159 1840.63
      vertex 121.503 -81.3194 1824.5
      vertex 125.886 -76.3663 1823.11
    endloop
  endfacet
  facet normal 0.231428 -0.446479 -0.864348
    outer loop
      vertex 147.732 -103.64 1843.05
      vertex 146.475 -104.938 1843.38
      vertex 119.932 -82.9678 1824.93
    endloop
  endfacet
  facet normal 0.231433 -0.446475 -0.864349
    outer loop
      vertex 146.475 -104.938 1843.38
      vertex 145.462 -105.965 1843.64
      vertex 119.932 -82.9678 1824.93
    endloop
  endfacet
  facet normal 0.231442 -0.446466 -0.864351
    outer loop
      vertex 119.932 -82.9678 1824.93
      vertex 145.462 -105.965 1843.64
      vertex 115.499 -87.3091 1825.98
    endloop
  endfacet
  facet normal 0.231432 -0.446478 -0.864347
    outer loop
      vertex 145.462 -105.965 1843.64
      vertex 140.751 -110.513 1844.73
      vertex 115.499 -87.3091 1825.98
    endloop
  endfacet
  facet normal 0.231438 -0.446472 -0.864349
    outer loop
      vertex 115.499 -87.3091 1825.98
      vertex 140.751 -110.513 1844.73
      vertex 113.465 -89.1608 1826.4
    endloop
  endfacet
  facet normal 0.231446 -0.446464 -0.864351
    outer loop
      vertex 140.751 -110.513 1844.73
      vertex 139.297 -111.847 1845.03
      vertex 113.465 -89.1608 1826.4
    endloop
  endfacet
  facet normal 0.231436 -0.446474 -0.864349
    outer loop
      vertex 113.465 -89.1608 1826.4
      vertex 139.297 -111.847 1845.03
      vertex 136.263 -114.532 1845.61
    endloop
  endfacet
  facet normal 0.55192 -0.542465 0.633337
    outer loop
      vertex 115.096 -90.2867 1869.55
      vertex 113.511 -95.3827 1866.57
      vertex 119.679 -89.1078 1866.57
    endloop
  endfacet
  facet normal 0.443489 -0.551568 0.706463
    outer loop
      vertex 113.511 -95.3827 1866.57
      vertex 115.096 -90.2867 1869.55
      vertex 111.609 -98.3017 1865.49
    endloop
  endfacet
  facet normal 0.622047 -0.588828 0.51608
    outer loop
      vertex 124.539 -101.223 1849.73
      vertex 128.855 -97.3878 1848.91
      vertex 127.711 -96.3687 1851.45
    endloop
  endfacet
  facet normal 0.676195 -0.531678 0.50998
    outer loop
      vertex 132.829 -93.5835 1848.01
      vertex 135.922 -90.4224 1847.2
      vertex 133.911 -88.9057 1851.45
    endloop
  endfacet
  facet normal 0.762604 -0.366937 0.532722
    outer loop
      vertex 146.354 -71.4773 1849.31
      vertex 145.539 -65.0283 1854.92
      vertex 144.34 -72.5612 1851.45
    endloop
  endfacet
  facet normal 0.627804 -0.433051 0.646783
    outer loop
      vertex 123.706 -76.7037 1871.89
      vertex 125.301 -82.3402 1866.57
      vertex 127.193 -73.1178 1870.91
    endloop
  endfacet
  facet normal 0.621655 -0.434209 0.651926
    outer loop
      vertex 125.301 -82.3402 1866.57
      vertex 130.339 -75.1271 1866.57
      vertex 127.193 -73.1178 1870.91
    endloop
  endfacet
  facet normal 0.641757 -0.403404 0.652237
    outer loop
      vertex 127.193 -73.1178 1870.91
      vertex 130.339 -75.1271 1866.57
      vertex 129.032 -71.0764 1870.36
    endloop
  endfacet
  facet normal 0.671416 -0.379267 0.636677
    outer loop
      vertex 130.339 -75.1271 1866.57
      vertex 133.91 -65.0647 1868.8
      vertex 129.032 -71.0764 1870.36
    endloop
  endfacet
  facet normal 0.64849 -0.376635 0.661519
    outer loop
      vertex 130.339 -75.1271 1866.57
      vertex 134.758 -67.5188 1866.57
      vertex 133.91 -65.0647 1868.8
    endloop
  endfacet
  facet normal 0.700271 -0.331937 0.632011
    outer loop
      vertex 134.758 -67.5188 1866.57
      vertex 138.527 -59.5684 1866.57
      vertex 133.91 -65.0647 1868.8
    endloop
  endfacet
  facet normal 0.689029 -0.313887 0.653233
    outer loop
      vertex 133.91 -65.0647 1868.8
      vertex 138.527 -59.5684 1866.57
      vertex 138.312 -58.7022 1867.21
    endloop
  endfacet
  facet normal 0.746112 -0.438193 0.501302
    outer loop
      vertex 142.58 -82.9212 1845.11
      vertex 146.596 -77.85 1843.57
      vertex 146.503 -73.7054 1847.33
    endloop
  endfacet
  facet normal 0.759024 -0.404061 0.510506
    outer loop
      vertex 146.354 -71.4773 1849.31
      vertex 144.34 -72.5612 1851.45
      vertex 146.503 -73.7054 1847.33
    endloop
  endfacet
  facet normal 0.743715 -0.431938 0.510213
    outer loop
      vertex 144.34 -72.5612 1851.45
      vertex 139.467 -80.9513 1851.45
      vertex 146.503 -73.7054 1847.33
    endloop
  endfacet
  facet normal 0.745474 -0.438157 0.502281
    outer loop
      vertex 146.503 -73.7054 1847.33
      vertex 139.467 -80.9513 1851.45
      vertex 142.58 -82.9212 1845.11
    endloop
  endfacet
  facet normal 0.689302 -0.514502 0.510049
    outer loop
      vertex 135.922 -90.4224 1847.2
      vertex 136.774 -89.5173 1846.96
      vertex 133.911 -88.9057 1851.45
    endloop
  endfacet
  facet normal 0.693596 -0.506974 0.511763
    outer loop
      vertex 136.774 -89.5173 1846.96
      vertex 137.383 -88.8618 1846.79
      vertex 133.911 -88.9057 1851.45
    endloop
  endfacet
  facet normal 0.701392 -0.489904 0.51773
    outer loop
      vertex 133.911 -88.9057 1851.45
      vertex 137.383 -88.8618 1846.79
      vertex 139.467 -80.9513 1851.45
    endloop
  endfacet
  facet normal 0.702164 -0.489638 0.516934
    outer loop
      vertex 137.383 -88.8618 1846.79
      vertex 139.865 -86.1041 1846.03
      vertex 139.467 -80.9513 1851.45
    endloop
  endfacet
  facet normal 0.723943 -0.472711 0.502445
    outer loop
      vertex 139.467 -80.9513 1851.45
      vertex 139.865 -86.1041 1846.03
      vertex 142.58 -82.9212 1845.11
    endloop
  endfacet
  facet normal 0.658866 -0.547372 0.516024
    outer loop
      vertex 127.711 -96.3687 1851.45
      vertex 128.855 -97.3878 1848.91
      vertex 133.911 -88.9057 1851.45
    endloop
  endfacet
  facet normal 0.641194 -0.544299 0.540933
    outer loop
      vertex 128.855 -97.3878 1848.91
      vertex 132.497 -93.9118 1848.09
      vertex 133.911 -88.9057 1851.45
    endloop
  endfacet
  facet normal 0.660087 -0.538258 0.523988
    outer loop
      vertex 133.911 -88.9057 1851.45
      vertex 132.497 -93.9118 1848.09
      vertex 132.829 -93.5835 1848.01
    endloop
  endfacet
  facet normal 0.512248 -0.59535 0.618999
    outer loop
      vertex 116.043 -107.991 1850.95
      vertex 120.91 -103.289 1851.45
      vertex 113.555 -109.617 1851.45
    endloop
  endfacet
  facet normal 0.530775 -0.611177 0.587146
    outer loop
      vertex 116.043 -107.991 1850.95
      vertex 117.877 -106.611 1850.73
      vertex 120.91 -103.289 1851.45
    endloop
  endfacet
  facet normal 0.570629 -0.633603 0.522427
    outer loop
      vertex 117.877 -106.611 1850.73
      vertex 121.307 -103.913 1850.26
      vertex 120.91 -103.289 1851.45
    endloop
  endfacet
  facet normal 0.610135 -0.599681 0.517801
    outer loop
      vertex 120.91 -103.289 1851.45
      vertex 121.307 -103.913 1850.26
      vertex 127.711 -96.3687 1851.45
    endloop
  endfacet
  facet normal 0.568957 -0.575695 0.587251
    outer loop
      vertex 121.307 -103.913 1850.26
      vertex 123.684 -101.95 1849.88
      vertex 127.711 -96.3687 1851.45
    endloop
  endfacet
  facet normal 0.590595 -0.583054 0.557895
    outer loop
      vertex 127.711 -96.3687 1851.45
      vertex 123.684 -101.95 1849.88
      vertex 124.539 -101.223 1849.73
    endloop
  endfacet
  facet normal 0.44978 -0.589206 0.671218
    outer loop
      vertex 108.746 -113.082 1851.63
      vertex 111.693 -111.099 1851.4
      vertex 113.555 -109.617 1851.45
    endloop
  endfacet
  facet normal 0.534217 -0.688684 0.490231
    outer loop
      vertex 111.693 -111.099 1851.4
      vertex 114.677 -108.991 1851.11
      vertex 113.555 -109.617 1851.45
    endloop
  endfacet
  facet normal 0.526925 -0.633881 0.566167
    outer loop
      vertex 113.555 -109.617 1851.45
      vertex 114.677 -108.991 1851.11
      vertex 116.043 -107.991 1850.95
    endloop
  endfacet
  facet normal 0.467186 -0.687072 0.556479
    outer loop
      vertex 105.94 -114.881 1851.81
      vertex 107.061 -114.172 1851.74
      vertex 105.495 -109.188 1859.21
    endloop
  endfacet
  facet normal 0.397309 -0.712881 0.577881
    outer loop
      vertex 97.6531 -119.727 1852.09
      vertex 97.8951 -119.595 1852.09
      vertex 102.861 -113.067 1856.73
    endloop
  endfacet
  facet normal 0.411991 -0.714884 0.564982
    outer loop
      vertex 97.8951 -119.595 1852.09
      vertex 100.561 -118.103 1852.03
      vertex 102.861 -113.067 1856.73
    endloop
  endfacet
  facet normal 0.488706 -0.67714 0.550134
    outer loop
      vertex 105.495 -109.188 1859.21
      vertex 103.553 -112.085 1857.37
      vertex 105.94 -114.881 1851.81
    endloop
  endfacet
  facet normal 0.470221 -0.690909 0.549123
    outer loop
      vertex 103.553 -112.085 1857.37
      vertex 102.861 -113.067 1856.73
      vertex 105.94 -114.881 1851.81
    endloop
  endfacet
  facet normal 0.456974 -0.702792 0.545213
    outer loop
      vertex 105.94 -114.881 1851.81
      vertex 102.861 -113.067 1856.73
      vertex 103.25 -116.529 1851.94
    endloop
  endfacet
  facet normal 0.436011 -0.712121 0.550253
    outer loop
      vertex 102.861 -113.067 1856.73
      vertex 100.561 -118.103 1852.03
      vertex 103.25 -116.529 1851.94
    endloop
  endfacet
  facet normal 0.47775 -0.681174 0.554759
    outer loop
      vertex 107.061 -114.172 1851.74
      vertex 108.746 -113.082 1851.63
      vertex 105.495 -109.188 1859.21
    endloop
  endfacet
  facet normal 0.49744 -0.666273 0.555548
    outer loop
      vertex 108.746 -113.082 1851.63
      vertex 110.358 -105.571 1859.19
      vertex 105.495 -109.188 1859.21
    endloop
  endfacet
  facet normal 0.487877 -0.653307 0.578935
    outer loop
      vertex 105.495 -109.188 1859.21
      vertex 110.358 -105.571 1859.19
      vertex 107.522 -105.911 1861.2
    endloop
  endfacet
  facet normal 0.496379 -0.632645 0.594448
    outer loop
      vertex 110.358 -105.571 1859.19
      vertex 108.822 -103.651 1862.52
      vertex 107.522 -105.911 1861.2
    endloop
  endfacet
  facet normal 0.60222 -0.45135 0.658494
    outer loop
      vertex 123.706 -76.7037 1871.89
      vertex 121.119 -79.1491 1872.58
      vertex 125.301 -82.3402 1866.57
    endloop
  endfacet
  facet normal 0.58345 -0.475611 0.658316
    outer loop
      vertex 121.119 -79.1491 1872.58
      vertex 117.962 -81.915 1873.38
      vertex 125.301 -82.3402 1866.57
    endloop
  endfacet
  facet normal 0.5807 -0.482433 0.655779
    outer loop
      vertex 125.301 -82.3402 1866.57
      vertex 117.962 -81.915 1873.38
      vertex 119.679 -89.1078 1866.57
    endloop
  endfacet
  facet normal 0.585335 -0.479475 0.653825
    outer loop
      vertex 117.962 -81.915 1873.38
      vertex 116.55 -86.3104 1871.42
      vertex 119.679 -89.1078 1866.57
    endloop
  endfacet
  facet normal 0.557434 -0.511237 0.654144
    outer loop
      vertex 119.679 -89.1078 1866.57
      vertex 116.55 -86.3104 1871.42
      vertex 115.096 -90.2867 1869.55
    endloop
  endfacet
  facet normal 0.529815 -0.605274 0.594087
    outer loop
      vertex 108.822 -103.651 1862.52
      vertex 110.358 -105.571 1859.19
      vertex 111.609 -98.3017 1865.49
    endloop
  endfacet
  facet normal 0.522711 -0.607511 0.598084
    outer loop
      vertex 110.358 -105.571 1859.19
      vertex 117.387 -99.5237 1859.19
      vertex 111.609 -98.3017 1865.49
    endloop
  endfacet
  facet normal 0.541201 -0.579241 0.609575
    outer loop
      vertex 111.609 -98.3017 1865.49
      vertex 117.387 -99.5237 1859.19
      vertex 113.511 -95.3827 1866.57
    endloop
  endfacet
  facet normal 0.565549 -0.55586 0.609241
    outer loop
      vertex 117.387 -99.5237 1859.19
      vertex 123.886 -92.9111 1859.19
      vertex 113.511 -95.3827 1866.57
    endloop
  endfacet
  facet normal 0.565549 -0.55586 0.60924
    outer loop
      vertex 113.511 -95.3827 1866.57
      vertex 123.886 -92.9111 1859.19
      vertex 119.679 -89.1078 1866.57
    endloop
  endfacet
  facet normal 0.609954 -0.506737 0.60924
    outer loop
      vertex 123.886 -92.9111 1859.19
      vertex 129.811 -85.7792 1859.19
      vertex 119.679 -89.1078 1866.57
    endloop
  endfacet
  facet normal 0.609954 -0.506736 0.609241
    outer loop
      vertex 119.679 -89.1078 1866.57
      vertex 129.811 -85.7792 1859.19
      vertex 125.301 -82.3402 1866.57
    endloop
  endfacet
  facet normal 0.650105 -0.45408 0.609241
    outer loop
      vertex 129.811 -85.7792 1859.19
      vertex 135.121 -78.1778 1859.19
      vertex 125.301 -82.3402 1866.57
    endloop
  endfacet
  facet normal 0.650105 -0.454081 0.609241
    outer loop
      vertex 125.301 -82.3402 1866.57
      vertex 135.121 -78.1778 1859.19
      vertex 130.339 -75.1271 1866.57
    endloop
  endfacet
  facet normal 0.685723 -0.398259 0.609241
    outer loop
      vertex 135.121 -78.1778 1859.19
      vertex 139.777 -70.16 1859.19
      vertex 130.339 -75.1271 1866.57
    endloop
  endfacet
  facet normal 0.685723 -0.398259 0.60924
    outer loop
      vertex 130.339 -75.1271 1866.57
      vertex 139.777 -70.16 1859.19
      vertex 134.758 -67.5188 1866.57
    endloop
  endfacet
  facet normal 0.71656 -0.339658 0.60924
    outer loop
      vertex 139.777 -70.16 1859.19
      vertex 143.749 -61.7816 1859.19
      vertex 134.758 -67.5188 1866.57
    endloop
  endfacet
  facet normal 0.71656 -0.339658 0.609241
    outer loop
      vertex 134.758 -67.5188 1866.57
      vertex 143.749 -61.7816 1859.19
      vertex 138.527 -59.5684 1866.57
    endloop
  endfacet
  facet normal 0.740145 -0.284386 0.609353
    outer loop
      vertex 143.749 -61.7816 1859.19
      vertex 142.214 -52.0246 1865.61
      vertex 138.527 -59.5684 1866.57
    endloop
  endfacet
  facet normal 0.73246 -0.279158 0.620945
    outer loop
      vertex 138.527 -59.5684 1866.57
      vertex 142.214 -52.0246 1865.61
      vertex 138.312 -58.7022 1867.21
    endloop
  endfacet
  facet normal 0.500258 -0.665391 0.554072
    outer loop
      vertex 108.746 -113.082 1851.63
      vertex 113.555 -109.617 1851.45
      vertex 110.358 -105.571 1859.19
    endloop
  endfacet
  facet normal 0.54305 -0.631149 0.553849
    outer loop
      vertex 113.555 -109.617 1851.45
      vertex 120.91 -103.289 1851.45
      vertex 110.358 -105.571 1859.19
    endloop
  endfacet
  facet normal 0.54305 -0.631149 0.553849
    outer loop
      vertex 110.358 -105.571 1859.19
      vertex 120.91 -103.289 1851.45
      vertex 117.387 -99.5237 1859.19
    endloop
  endfacet
  facet normal 0.593814 -0.583641 0.553849
    outer loop
      vertex 120.91 -103.289 1851.45
      vertex 127.711 -96.3687 1851.45
      vertex 117.387 -99.5237 1859.19
    endloop
  endfacet
  facet normal 0.593814 -0.583641 0.553848
    outer loop
      vertex 117.387 -99.5237 1859.19
      vertex 127.711 -96.3687 1851.45
      vertex 123.886 -92.9111 1859.19
    endloop
  endfacet
  facet normal 0.640438 -0.532063 0.553848
    outer loop
      vertex 127.711 -96.3687 1851.45
      vertex 133.911 -88.9057 1851.45
      vertex 123.886 -92.9111 1859.19
    endloop
  endfacet
  facet normal 0.640438 -0.532063 0.553848
    outer loop
      vertex 123.886 -92.9111 1859.19
      vertex 133.911 -88.9057 1851.45
      vertex 129.811 -85.7792 1859.19
    endloop
  endfacet
  facet normal 0.682596 -0.476775 0.553848
    outer loop
      vertex 133.911 -88.9057 1851.45
      vertex 139.467 -80.9513 1851.45
      vertex 129.811 -85.7792 1859.19
    endloop
  endfacet
  facet normal 0.682597 -0.476774 0.553849
    outer loop
      vertex 129.811 -85.7792 1859.19
      vertex 139.467 -80.9513 1851.45
      vertex 135.121 -78.1778 1859.19
    endloop
  endfacet
  facet normal 0.719995 -0.418162 0.553849
    outer loop
      vertex 139.467 -80.9513 1851.45
      vertex 144.34 -72.5612 1851.45
      vertex 135.121 -78.1778 1859.19
    endloop
  endfacet
  facet normal 0.719995 -0.418163 0.553847
    outer loop
      vertex 135.121 -78.1778 1859.19
      vertex 144.34 -72.5612 1851.45
      vertex 139.777 -70.16 1859.19
    endloop
  endfacet
  facet normal 0.743793 -0.373803 0.554115
    outer loop
      vertex 144.34 -72.5612 1851.45
      vertex 145.539 -65.0283 1854.92
      vertex 139.777 -70.16 1859.19
    endloop
  endfacet
  facet normal 0.738826 -0.350213 0.57575
    outer loop
      vertex 139.777 -70.16 1859.19
      vertex 145.539 -65.0283 1854.92
      vertex 143.749 -61.7816 1859.19
    endloop
  endfacet
  facet normal 0.779289 -0.296647 0.552005
    outer loop
      vertex 145.539 -65.0283 1854.92
      vertex 144.157 -58.5337 1860.36
      vertex 143.749 -61.7816 1859.19
    endloop
  endfacet
  facet normal 0.686562 -0.321086 0.652332
    outer loop
      vertex 143.749 -61.7816 1859.19
      vertex 144.157 -58.5337 1860.36
      vertex 142.214 -52.0246 1865.61
    endloop
  endfacet
  facet normal 0.30497 -0.651856 0.694318
    outer loop
      vertex 157.871 -77.0611 1839.36
      vertex 156.329 -74.2778 1842.65
      vertex 146.596 -77.85 1843.57
    endloop
  endfacet
  facet normal 0.28836 -0.547445 0.78559
    outer loop
      vertex 144.157 -58.5337 1860.36
      vertex 148.512 -58.9051 1858.51
      vertex 142.214 -52.0246 1865.61
    endloop
  endfacet
  facet normal 0.269486 -0.601404 0.752124
    outer loop
      vertex 148.512 -58.9051 1858.51
      vertex 144.157 -58.5337 1860.36
      vertex 152.509 -66.7657 1850.79
    endloop
  endfacet
  facet normal 0.308519 -0.57146 0.760427
    outer loop
      vertex 144.157 -58.5337 1860.36
      vertex 145.539 -65.0283 1854.92
      vertex 152.509 -66.7657 1850.79
    endloop
  endfacet
  facet normal 0.287663 -0.607494 0.740406
    outer loop
      vertex 145.539 -65.0283 1854.92
      vertex 146.354 -71.4773 1849.31
      vertex 152.509 -66.7657 1850.79
    endloop
  endfacet
  facet normal 0.305497 -0.624133 0.719117
    outer loop
      vertex 152.509 -66.7657 1850.79
      vertex 146.354 -71.4773 1849.31
      vertex 156.329 -74.2778 1842.65
    endloop
  endfacet
  facet normal 0.307202 -0.621585 0.720596
    outer loop
      vertex 146.354 -71.4773 1849.31
      vertex 146.503 -73.7054 1847.33
      vertex 156.329 -74.2778 1842.65
    endloop
  endfacet
  facet normal 0.301015 -0.63716 0.709519
    outer loop
      vertex 156.329 -74.2778 1842.65
      vertex 146.503 -73.7054 1847.33
      vertex 146.596 -77.85 1843.57
    endloop
  endfacet
  facet normal 0.368389 -0.521271 0.769783
    outer loop
      vertex 172.754 -49.1487 1854.69
      vertex 170.535 -41.291 1861.07
      vertex 161.33 -45.4357 1862.67
    endloop
  endfacet
  facet normal 0.384689 -0.493365 0.780132
    outer loop
      vertex 161.33 -45.4357 1862.67
      vertex 164.914 -49.227 1858.51
      vertex 172.754 -49.1487 1854.69
    endloop
  endfacet
  facet normal 0.371747 -0.543621 0.752516
    outer loop
      vertex 164.914 -49.227 1858.51
      vertex 169.862 -56.5266 1850.79
      vertex 172.754 -49.1487 1854.69
    endloop
  endfacet
  facet normal 0.395775 -0.545698 0.738631
    outer loop
      vertex 172.754 -49.1487 1854.69
      vertex 169.862 -56.5266 1850.79
      vertex 174.291 -56.9817 1848.08
    endloop
  endfacet
  facet normal 0.380131 -0.581709 0.719108
    outer loop
      vertex 169.862 -56.5266 1850.79
      vertex 174.591 -63.5025 1842.65
      vertex 174.291 -56.9817 1848.08
    endloop
  endfacet
  facet normal 0.467058 -0.553255 0.689757
    outer loop
      vertex 174.291 -56.9817 1848.08
      vertex 174.591 -63.5025 1842.65
      vertex 175.138 -64.752 1841.27
    endloop
  endfacet
  facet normal 0.328885 -0.540121 0.774664
    outer loop
      vertex 161.33 -45.4357 1862.67
      vertex 151.878 -49.0179 1864.19
      vertex 164.914 -49.227 1858.51
    endloop
  endfacet
  facet normal 0.332737 -0.525588 0.782971
    outer loop
      vertex 151.878 -49.0179 1864.19
      vertex 156.865 -54.3229 1858.51
      vertex 164.914 -49.227 1858.51
    endloop
  endfacet
  facet normal 0.352365 -0.556592 0.752359
    outer loop
      vertex 164.914 -49.227 1858.51
      vertex 156.865 -54.3229 1858.51
      vertex 169.862 -56.5266 1850.79
    endloop
  endfacet
  facet normal 0.352365 -0.556592 0.752359
    outer loop
      vertex 156.865 -54.3229 1858.51
      vertex 161.346 -61.9179 1850.79
      vertex 169.862 -56.5266 1850.79
    endloop
  endfacet
  facet normal 0.371766 -0.587237 0.718987
    outer loop
      vertex 169.862 -56.5266 1850.79
      vertex 161.346 -61.9179 1850.79
      vertex 174.591 -63.5025 1842.65
    endloop
  endfacet
  facet normal 0.371766 -0.587238 0.718987
    outer loop
      vertex 161.346 -61.9179 1850.79
      vertex 165.629 -69.1762 1842.65
      vertex 174.591 -63.5025 1842.65
    endloop
  endfacet
  facet normal 0.381588 -0.602752 0.700771
    outer loop
      vertex 174.591 -63.5025 1842.65
      vertex 165.629 -69.1762 1842.65
      vertex 175.138 -64.752 1841.27
    endloop
  endfacet
  facet normal 0.386616 -0.618824 0.683802
    outer loop
      vertex 165.629 -69.1762 1842.65
      vertex 168.876 -76.14 1834.51
      vertex 175.138 -64.752 1841.27
    endloop
  endfacet
  facet normal 0.3799 -0.61787 0.688413
    outer loop
      vertex 175.138 -64.752 1841.27
      vertex 168.876 -76.14 1834.51
      vertex 175.29 -72.4223 1834.3
    endloop
  endfacet
  facet normal 0.288817 -0.559982 0.776534
    outer loop
      vertex 151.878 -49.0179 1864.19
      vertex 142.214 -52.0246 1865.61
      vertex 156.865 -54.3229 1858.51
    endloop
  endfacet
  facet normal 0.296805 -0.541045 0.786878
    outer loop
      vertex 142.214 -52.0246 1865.61
      vertex 148.512 -58.9051 1858.51
      vertex 156.865 -54.3229 1858.51
    endloop
  endfacet
  facet normal 0.316835 -0.577557 0.752359
    outer loop
      vertex 156.865 -54.3229 1858.51
      vertex 148.512 -58.9051 1858.51
      vertex 161.346 -61.9179 1850.79
    endloop
  endfacet
  facet normal 0.316835 -0.577557 0.752359
    outer loop
      vertex 148.512 -58.9051 1858.51
      vertex 152.509 -66.7657 1850.79
      vertex 161.346 -61.9179 1850.79
    endloop
  endfacet
  facet normal 0.334279 -0.609357 0.718987
    outer loop
      vertex 161.346 -61.9179 1850.79
      vertex 152.509 -66.7657 1850.79
      vertex 165.629 -69.1762 1842.65
    endloop
  endfacet
  facet normal 0.33428 -0.609356 0.718987
    outer loop
      vertex 152.509 -66.7657 1850.79
      vertex 156.329 -74.2778 1842.65
      vertex 165.629 -69.1762 1842.65
    endloop
  endfacet
  facet normal 0.350066 -0.638133 0.685741
    outer loop
      vertex 165.629 -69.1762 1842.65
      vertex 156.329 -74.2778 1842.65
      vertex 168.876 -76.14 1834.51
    endloop
  endfacet
  facet normal 0.358353 -0.623225 0.695107
    outer loop
      vertex 156.329 -74.2778 1842.65
      vertex 157.871 -77.0611 1839.36
      vertex 168.876 -76.14 1834.51
    endloop
  endfacet
  facet normal -0.464119 -0.232026 0.854843
    outer loop
      vertex 64.0514 -111.577 1836.06
      vertex 58.5621 -114.961 1832.16
      vertex 63.0385 -125.585 1831.71
    endloop
  endfacet
  facet normal -0.464014 -0.23205 0.854894
    outer loop
      vertex 64.0514 -111.577 1836.06
      vertex 63.0385 -125.585 1831.71
      vertex 64.1855 -111.485 1836.16
    endloop
  endfacet
  facet normal -0.464124 -0.232018 0.854843
    outer loop
      vertex 96.8116 -52.785 1869.81
      vertex 96.6 -54.7907 1869.15
      vertex 117.962 -81.915 1873.38
    endloop
  endfacet
  facet normal -0.464135 -0.232027 0.854835
    outer loop
      vertex 96.6 -54.7907 1869.15
      vertex 95.8391 -60.0312 1867.31
      vertex 117.962 -81.915 1873.38
    endloop
  endfacet
  facet normal -0.46413 -0.232022 0.854839
    outer loop
      vertex 117.962 -81.915 1873.38
      vertex 95.8391 -60.0312 1867.31
      vertex 94.3137 -67.0895 1864.57
    endloop
  endfacet
  facet normal -0.46413 -0.232023 0.854839
    outer loop
      vertex 78.881 -97.958 1847.81
      vertex 74.3794 -102.955 1844.01
      vertex 97.6531 -119.727 1852.09
    endloop
  endfacet
  facet normal -0.464131 -0.232023 0.854838
    outer loop
      vertex 63.0385 -125.585 1831.71
      vertex 100.073 -138.519 1848.31
      vertex 64.1855 -111.485 1836.16
    endloop
  endfacet
  facet normal -0.464131 -0.232022 0.854838
    outer loop
      vertex 100.073 -138.519 1848.31
      vertex 99.2111 -129.116 1850.39
      vertex 64.1855 -111.485 1836.16
    endloop
  endfacet
  facet normal -0.46413 -0.232019 0.85484
    outer loop
      vertex 64.1855 -111.485 1836.16
      vertex 99.2111 -129.116 1850.39
      vertex 69.4698 -107.474 1840.12
    endloop
  endfacet
  facet normal -0.464131 -0.232022 0.854838
    outer loop
      vertex 99.2111 -129.116 1850.39
      vertex 97.6531 -119.727 1852.09
      vertex 69.4698 -107.474 1840.12
    endloop
  endfacet
  facet normal -0.464134 -0.232031 0.854834
    outer loop
      vertex 69.4698 -107.474 1840.12
      vertex 97.6531 -119.727 1852.09
      vertex 70.7346 -106.39 1841.1
    endloop
  endfacet
  facet normal -0.464133 -0.23203 0.854835
    outer loop
      vertex 97.6531 -119.727 1852.09
      vertex 74.3794 -102.955 1844.01
      vertex 70.7346 -106.39 1841.1
    endloop
  endfacet
  facet normal -0.464073 -0.231892 0.854905
    outer loop
      vertex 94.3137 -67.0895 1864.57
      vertex 94.2359 -67.3878 1864.44
      vertex 117.962 -81.915 1873.38
    endloop
  endfacet
  facet normal -0.464345 -0.232532 0.854584
    outer loop
      vertex 94.2359 -67.3878 1864.44
      vertex 94.2051 -67.505 1864.39
      vertex 117.962 -81.915 1873.38
    endloop
  endfacet
  facet normal -0.464135 -0.232031 0.854833
    outer loop
      vertex 117.962 -81.915 1873.38
      vertex 94.2051 -67.505 1864.39
      vertex 116.55 -86.3104 1871.42
    endloop
  endfacet
  facet normal -0.464128 -0.23202 0.85484
    outer loop
      vertex 94.2051 -67.505 1864.39
      vertex 92.2458 -73.9124 1861.59
      vertex 116.55 -86.3104 1871.42
    endloop
  endfacet
  facet normal -0.464125 -0.232012 0.854844
    outer loop
      vertex 116.55 -86.3104 1871.42
      vertex 92.2458 -73.9124 1861.59
      vertex 115.096 -90.2867 1869.55
    endloop
  endfacet
  facet normal -0.464128 -0.232018 0.854841
    outer loop
      vertex 92.2458 -73.9124 1861.59
      vertex 89.6494 -80.4537 1858.41
      vertex 115.096 -90.2867 1869.55
    endloop
  endfacet
  facet normal -0.464131 -0.232029 0.854837
    outer loop
      vertex 115.096 -90.2867 1869.55
      vertex 89.6494 -80.4537 1858.41
      vertex 111.609 -98.3017 1865.49
    endloop
  endfacet
  facet normal -0.464134 -0.23203 0.854834
    outer loop
      vertex 86.5419 -86.6693 1855.03
      vertex 108.822 -103.651 1862.52
      vertex 89.4373 -80.9241 1858.16
    endloop
  endfacet
  facet normal -0.464126 -0.232021 0.854841
    outer loop
      vertex 108.822 -103.651 1862.52
      vertex 111.609 -98.3017 1865.49
      vertex 89.4373 -80.9241 1858.16
    endloop
  endfacet
  facet normal -0.464153 -0.232067 0.854814
    outer loop
      vertex 89.4373 -80.9241 1858.16
      vertex 111.609 -98.3017 1865.49
      vertex 89.5487 -80.678 1858.29
    endloop
  endfacet
  facet normal -0.464102 -0.231982 0.854865
    outer loop
      vertex 111.609 -98.3017 1865.49
      vertex 89.6494 -80.4537 1858.41
      vertex 89.5487 -80.678 1858.29
    endloop
  endfacet
  facet normal -0.464129 -0.232022 0.854839
    outer loop
      vertex 78.881 -97.958 1847.81
      vertex 97.6531 -119.727 1852.09
      vertex 81.7159 -94.2734 1850.35
    endloop
  endfacet
  facet normal -0.464127 -0.232021 0.854841
    outer loop
      vertex 97.6531 -119.727 1852.09
      vertex 102.861 -113.067 1856.73
      vertex 81.7159 -94.2734 1850.35
    endloop
  endfacet
  facet normal -0.464121 -0.232012 0.854846
    outer loop
      vertex 81.7159 -94.2734 1850.35
      vertex 102.861 -113.067 1856.73
      vertex 82.9443 -92.5173 1851.49
    endloop
  endfacet
  facet normal -0.464155 -0.232053 0.854817
    outer loop
      vertex 102.861 -113.067 1856.73
      vertex 103.553 -112.085 1857.37
      vertex 82.9443 -92.5173 1851.49
    endloop
  endfacet
  facet normal -0.464126 -0.232015 0.854843
    outer loop
      vertex 103.553 -112.085 1857.37
      vertex 105.495 -109.188 1859.21
      vertex 82.9443 -92.5173 1851.49
    endloop
  endfacet
  facet normal -0.464129 -0.232021 0.854839
    outer loop
      vertex 82.9443 -92.5173 1851.49
      vertex 105.495 -109.188 1859.21
      vertex 86.5419 -86.6693 1855.03
    endloop
  endfacet
  facet normal -0.464127 -0.232019 0.854841
    outer loop
      vertex 105.495 -109.188 1859.21
      vertex 107.522 -105.911 1861.2
      vertex 86.5419 -86.6693 1855.03
    endloop
  endfacet
  facet normal -0.464132 -0.232025 0.854837
    outer loop
      vertex 86.5419 -86.6693 1855.03
      vertex 107.522 -105.911 1861.2
      vertex 108.822 -103.651 1862.52
    endloop
  endfacet
  facet normal 0.298794 -0.0339096 0.953715
    outer loop
      vertex 148.053 -94.6872 1843.36
      vertex 136.749 -93.8827 1846.93
      vertex 136.196 -98.7525 1846.93
    endloop
  endfacet
  facet normal 0.313332 -0.0592771 0.947792
    outer loop
      vertex 146.475 -104.938 1843.38
      vertex 147.732 -103.64 1843.05
      vertex 147.393 -100.502 1843.36
    endloop
  endfacet
  facet normal 0.35191 -0.053806 0.934486
    outer loop
      vertex 147.732 -103.64 1843.05
      vertex 155.505 -94.9159 1840.63
      vertex 147.393 -100.502 1843.36
    endloop
  endfacet
  facet normal 0.443131 -0.0629106 0.894247
    outer loop
      vertex 162.568 -85.7298 1837.77
      vertex 159.338 -88.6951 1839.16
      vertex 155.505 -94.9159 1840.63
    endloop
  endfacet
  facet normal 0.150066 -0.15224 0.976884
    outer loop
      vertex 99.2111 -129.116 1850.39
      vertex 100.666 -131.066 1849.86
      vertex 97.6531 -119.727 1852.09
    endloop
  endfacet
  facet normal 0.0987522 -0.166692 0.981051
    outer loop
      vertex 100.666 -131.066 1849.86
      vertex 104.051 -129.06 1849.86
      vertex 97.6531 -119.727 1852.09
    endloop
  endfacet
  facet normal 0.103294 -0.163591 0.981106
    outer loop
      vertex 97.6531 -119.727 1852.09
      vertex 104.051 -129.06 1849.86
      vertex 97.8951 -119.595 1852.09
    endloop
  endfacet
  facet normal 0.112302 -0.157726 0.981076
    outer loop
      vertex 104.051 -129.06 1849.86
      vertex 107.257 -126.778 1849.86
      vertex 97.8951 -119.595 1852.09
    endloop
  endfacet
  facet normal 0.110424 -0.160119 0.980902
    outer loop
      vertex 97.8951 -119.595 1852.09
      vertex 107.257 -126.778 1849.86
      vertex 100.561 -118.103 1852.03
    endloop
  endfacet
  facet normal 0.125645 -0.148374 0.980917
    outer loop
      vertex 107.257 -126.778 1849.86
      vertex 110.26 -124.235 1849.86
      vertex 100.561 -118.103 1852.03
    endloop
  endfacet
  facet normal 0.123136 -0.152246 0.980642
    outer loop
      vertex 100.561 -118.103 1852.03
      vertex 110.26 -124.235 1849.86
      vertex 103.25 -116.529 1851.94
    endloop
  endfacet
  facet normal 0.138548 -0.13823 0.980661
    outer loop
      vertex 110.26 -124.235 1849.86
      vertex 113.04 -121.449 1849.86
      vertex 103.25 -116.529 1851.94
    endloop
  endfacet
  facet normal 0.135696 -0.143739 0.980268
    outer loop
      vertex 103.25 -116.529 1851.94
      vertex 113.04 -121.449 1849.86
      vertex 105.94 -114.881 1851.81
    endloop
  endfacet
  facet normal 0.174718 -0.102965 0.97922
    outer loop
      vertex 119.849 -111.838 1849.86
      vertex 111.693 -111.099 1851.4
      vertex 117.851 -115.229 1849.86
    endloop
  endfacet
  facet normal 0.161014 -0.123396 0.979208
    outer loop
      vertex 111.693 -111.099 1851.4
      vertex 108.746 -113.082 1851.63
      vertex 117.851 -115.229 1849.86
    endloop
  endfacet
  facet normal 0.187471 -0.0920748 0.977945
    outer loop
      vertex 117.877 -106.611 1850.73
      vertex 116.043 -107.991 1850.95
      vertex 119.849 -111.838 1849.86
    endloop
  endfacet
  facet normal 0.180699 -0.0989462 0.978549
    outer loop
      vertex 116.043 -107.991 1850.95
      vertex 114.677 -108.991 1851.11
      vertex 119.849 -111.838 1849.86
    endloop
  endfacet
  facet normal 0.173807 -0.111426 0.978456
    outer loop
      vertex 119.849 -111.838 1849.86
      vertex 114.677 -108.991 1851.11
      vertex 111.693 -111.099 1851.4
    endloop
  endfacet
  facet normal 0.189544 -0.0912394 0.977624
    outer loop
      vertex 119.849 -111.838 1849.86
      vertex 121.556 -108.292 1849.86
      vertex 117.877 -106.611 1850.73
    endloop
  endfacet
  facet normal 0.196872 -0.0751664 0.977544
    outer loop
      vertex 121.556 -108.292 1849.86
      vertex 122.96 -104.616 1849.86
      vertex 117.877 -106.611 1850.73
    endloop
  endfacet
  facet normal 0.199075 -0.0811841 0.976616
    outer loop
      vertex 117.877 -106.611 1850.73
      vertex 122.96 -104.616 1849.86
      vertex 121.307 -103.913 1850.26
    endloop
  endfacet
  facet normal 0.232198 -0.0781994 0.96952
    outer loop
      vertex 123.684 -101.95 1849.88
      vertex 133.879 -108.268 1846.93
      vertex 124.539 -101.223 1849.73
    endloop
  endfacet
  facet normal 0.238923 -0.068915 0.96859
    outer loop
      vertex 133.879 -108.268 1846.93
      vertex 135.237 -103.559 1846.93
      vertex 124.539 -101.223 1849.73
    endloop
  endfacet
  facet normal 0.240447 -0.0620391 0.968678
    outer loop
      vertex 124.539 -101.223 1849.73
      vertex 135.237 -103.559 1846.93
      vertex 128.855 -97.3878 1848.91
    endloop
  endfacet
  facet normal 0.258063 -0.0426993 0.965184
    outer loop
      vertex 135.237 -103.559 1846.93
      vertex 132.497 -93.9118 1848.09
      vertex 128.855 -97.3878 1848.91
    endloop
  endfacet
  facet normal 0.312942 0.0411122 0.948882
    outer loop
      vertex 146.596 -77.85 1843.57
      vertex 142.58 -82.9212 1845.11
      vertex 147.902 -82.9951 1843.36
    endloop
  endfacet
  facet normal 0.31277 0.00691227 0.949804
    outer loop
      vertex 142.58 -82.9212 1845.11
      vertex 139.865 -86.1041 1846.03
      vertex 147.902 -82.9951 1843.36
    endloop
  endfacet
  facet normal 0.326808 -0.0339469 0.944481
    outer loop
      vertex 147.902 -82.9951 1843.36
      vertex 139.865 -86.1041 1846.03
      vertex 137.383 -88.8618 1846.79
    endloop
  endfacet
  facet normal 0.279244 -0.00923971 0.960176
    outer loop
      vertex 135.922 -90.4224 1847.2
      vertex 136.749 -93.8827 1846.93
      vertex 136.774 -89.5173 1846.96
    endloop
  endfacet
  facet normal 0.300547 -0.00931338 0.953722
    outer loop
      vertex 136.749 -93.8827 1846.93
      vertex 148.053 -94.6872 1843.36
      vertex 136.774 -89.5173 1846.96
    endloop
  endfacet
  facet normal 0.296314 -0.0193658 0.954894
    outer loop
      vertex 136.774 -89.5173 1846.96
      vertex 148.053 -94.6872 1843.36
      vertex 137.383 -88.8618 1846.79
    endloop
  endfacet
  facet normal 0.30161 -0.00877939 0.953391
    outer loop
      vertex 148.053 -94.6872 1843.36
      vertex 148.223 -88.838 1843.36
      vertex 137.383 -88.8618 1846.79
    endloop
  endfacet
  facet normal 0.30153 0.0165411 0.953313
    outer loop
      vertex 137.383 -88.8618 1846.79
      vertex 148.223 -88.838 1843.36
      vertex 147.902 -82.9951 1843.36
    endloop
  endfacet
  facet normal 0.352828 0.0193551 0.935488
    outer loop
      vertex 148.223 -88.838 1843.36
      vertex 158.967 -81.9212 1839.16
      vertex 147.902 -82.9951 1843.36
    endloop
  endfacet
  facet normal 0.349744 0.0509985 0.935456
    outer loop
      vertex 147.902 -82.9951 1843.36
      vertex 158.967 -81.9212 1839.16
      vertex 146.596 -77.85 1843.57
    endloop
  endfacet
  facet normal 0.347084 0.0413305 0.936923
    outer loop
      vertex 158.967 -81.9212 1839.16
      vertex 157.871 -77.0611 1839.36
      vertex 146.596 -77.85 1843.57
    endloop
  endfacet
  facet normal 0.287133 -0.0828208 0.954304
    outer loop
      vertex 133.879 -108.268 1846.93
      vertex 145.462 -105.965 1843.64
      vertex 135.237 -103.559 1846.93
    endloop
  endfacet
  facet normal 0.29289 -0.0584308 0.954359
    outer loop
      vertex 145.462 -105.965 1843.64
      vertex 136.196 -98.7525 1846.93
      vertex 135.237 -103.559 1846.93
    endloop
  endfacet
  facet normal 0.240932 -0.0480652 0.969351
    outer loop
      vertex 135.237 -103.559 1846.93
      vertex 136.196 -98.7525 1846.93
      vertex 132.497 -93.9118 1848.09
    endloop
  endfacet
  facet normal 0.263164 -0.029866 0.964289
    outer loop
      vertex 136.196 -98.7525 1846.93
      vertex 136.749 -93.8827 1846.93
      vertex 132.497 -93.9118 1848.09
    endloop
  endfacet
  facet normal 0.263165 -0.0288955 0.964318
    outer loop
      vertex 132.497 -93.9118 1848.09
      vertex 136.749 -93.8827 1846.93
      vertex 132.829 -93.5835 1848.01
    endloop
  endfacet
  facet normal 0.264373 -0.0131231 0.964331
    outer loop
      vertex 136.749 -93.8827 1846.93
      vertex 135.922 -90.4224 1847.2
      vertex 132.829 -93.5835 1848.01
    endloop
  endfacet
  facet normal 0.229813 -0.151449 0.961379
    outer loop
      vertex 126.939 -122.028 1846.98
      vertex 127.65 -121.493 1846.9
      vertex 127.517 -121.485 1846.93
    endloop
  endfacet
  facet normal 0.231178 -0.136703 0.96326
    outer loop
      vertex 127.65 -121.493 1846.9
      vertex 130.255 -119.485 1846.56
      vertex 127.517 -121.485 1846.93
    endloop
  endfacet
  facet normal 0.230641 -0.135923 0.963499
    outer loop
      vertex 127.517 -121.485 1846.93
      vertex 130.255 -119.485 1846.56
      vertex 130.005 -117.263 1846.93
    endloop
  endfacet
  facet normal 0.259633 -0.131515 0.95671
    outer loop
      vertex 130.255 -119.485 1846.56
      vertex 136.263 -114.532 1845.61
      vertex 130.005 -117.263 1846.93
    endloop
  endfacet
  facet normal 0.256532 -0.123485 0.958615
    outer loop
      vertex 130.005 -117.263 1846.93
      vertex 136.263 -114.532 1845.61
      vertex 132.131 -112.847 1846.93
    endloop
  endfacet
  facet normal 0.267364 -0.0969971 0.958701
    outer loop
      vertex 136.263 -114.532 1845.61
      vertex 139.297 -111.847 1845.03
      vertex 132.131 -112.847 1846.93
    endloop
  endfacet
  facet normal 0.267916 -0.102291 0.957997
    outer loop
      vertex 132.131 -112.847 1846.93
      vertex 139.297 -111.847 1845.03
      vertex 133.879 -108.268 1846.93
    endloop
  endfacet
  facet normal 0.27735 -0.0873678 0.956788
    outer loop
      vertex 139.297 -111.847 1845.03
      vertex 140.751 -110.513 1844.73
      vertex 133.879 -108.268 1846.93
    endloop
  endfacet
  facet normal 0.284338 -0.0656668 0.956473
    outer loop
      vertex 133.879 -108.268 1846.93
      vertex 140.751 -110.513 1844.73
      vertex 145.462 -105.965 1843.64
    endloop
  endfacet
  facet normal 0.200831 -0.142298 0.969236
    outer loop
      vertex 126.939 -122.028 1846.98
      vertex 117.851 -115.229 1849.86
      vertex 115.576 -118.44 1849.86
    endloop
  endfacet
  facet normal 0.163001 -0.115493 0.979843
    outer loop
      vertex 117.851 -115.229 1849.86
      vertex 108.746 -113.082 1851.63
      vertex 115.576 -118.44 1849.86
    endloop
  endfacet
  facet normal 0.152664 -0.128677 0.979865
    outer loop
      vertex 115.576 -118.44 1849.86
      vertex 108.746 -113.082 1851.63
      vertex 113.04 -121.449 1849.86
    endloop
  endfacet
  facet normal 0.149545 -0.130333 0.980127
    outer loop
      vertex 108.746 -113.082 1851.63
      vertex 107.061 -114.172 1851.74
      vertex 113.04 -121.449 1849.86
    endloop
  endfacet
  facet normal 0.143383 -0.135454 0.980354
    outer loop
      vertex 113.04 -121.449 1849.86
      vertex 107.061 -114.172 1851.74
      vertex 105.94 -114.881 1851.81
    endloop
  endfacet
  facet normal 0.153933 -0.181778 0.971216
    outer loop
      vertex 107.257 -126.778 1849.86
      vertex 115.516 -129.872 1847.97
      vertex 110.26 -124.235 1849.86
    endloop
  endfacet
  facet normal 0.172075 -0.164858 0.971191
    outer loop
      vertex 115.516 -129.872 1847.97
      vertex 119.468 -127.31 1847.71
      vertex 110.26 -124.235 1849.86
    endloop
  endfacet
  facet normal 0.17027 -0.169879 0.970644
    outer loop
      vertex 110.26 -124.235 1849.86
      vertex 119.468 -127.31 1847.71
      vertex 113.04 -121.449 1849.86
    endloop
  endfacet
  facet normal 0.183032 -0.15589 0.970668
    outer loop
      vertex 119.468 -127.31 1847.71
      vertex 120.663 -126.505 1847.61
      vertex 113.04 -121.449 1849.86
    endloop
  endfacet
  facet normal 0.183727 -0.154859 0.970702
    outer loop
      vertex 113.04 -121.449 1849.86
      vertex 120.663 -126.505 1847.61
      vertex 115.576 -118.44 1849.86
    endloop
  endfacet
  facet normal 0.192182 -0.149312 0.969934
    outer loop
      vertex 120.663 -126.505 1847.61
      vertex 123.523 -124.518 1847.35
      vertex 115.576 -118.44 1849.86
    endloop
  endfacet
  facet normal 0.203416 -0.134568 0.969801
    outer loop
      vertex 115.576 -118.44 1849.86
      vertex 123.523 -124.518 1847.35
      vertex 126.939 -122.028 1846.98
    endloop
  endfacet
  facet normal 0.0727491 -0.209442 0.975111
    outer loop
      vertex 99.2111 -129.116 1850.39
      vertex 100.073 -138.519 1848.31
      vertex 100.666 -131.066 1849.86
    endloop
  endfacet
  facet normal 0.115076 -0.211843 0.970505
    outer loop
      vertex 100.073 -138.519 1848.31
      vertex 107.637 -134.542 1848.28
      vertex 100.666 -131.066 1849.86
    endloop
  endfacet
  facet normal 0.120011 -0.202576 0.971885
    outer loop
      vertex 100.666 -131.066 1849.86
      vertex 107.637 -134.542 1848.28
      vertex 104.051 -129.06 1849.86
    endloop
  endfacet
  facet normal 0.135806 -0.19225 0.971904
    outer loop
      vertex 107.637 -134.542 1848.28
      vertex 110.581 -132.863 1848.2
      vertex 104.051 -129.06 1849.86
    endloop
  endfacet
  facet normal 0.136303 -0.191436 0.971995
    outer loop
      vertex 104.051 -129.06 1849.86
      vertex 110.581 -132.863 1848.2
      vertex 107.257 -126.778 1849.86
    endloop
  endfacet
  facet normal 0.144702 -0.186765 0.971689
    outer loop
      vertex 110.581 -132.863 1848.2
      vertex 111.553 -132.291 1848.16
      vertex 107.257 -126.778 1849.86
    endloop
  endfacet
  facet normal 0.155241 -0.178529 0.971611
    outer loop
      vertex 107.257 -126.778 1849.86
      vertex 111.553 -132.291 1848.16
      vertex 115.516 -129.872 1847.97
    endloop
  endfacet
  facet normal 0.210135 -0.129774 0.969021
    outer loop
      vertex 126.939 -122.028 1846.98
      vertex 127.517 -121.485 1846.93
      vertex 117.851 -115.229 1849.86
    endloop
  endfacet
  facet normal 0.212907 -0.125472 0.968983
    outer loop
      vertex 127.517 -121.485 1846.93
      vertex 130.005 -117.263 1846.93
      vertex 117.851 -115.229 1849.86
    endloop
  endfacet
  facet normal 0.212908 -0.125472 0.968983
    outer loop
      vertex 117.851 -115.229 1849.86
      vertex 130.005 -117.263 1846.93
      vertex 119.849 -111.838 1849.86
    endloop
  endfacet
  facet normal 0.222674 -0.107187 0.968983
    outer loop
      vertex 130.005 -117.263 1846.93
      vertex 132.131 -112.847 1846.93
      vertex 119.849 -111.838 1849.86
    endloop
  endfacet
  facet normal 0.222674 -0.107187 0.968983
    outer loop
      vertex 119.849 -111.838 1849.86
      vertex 132.131 -112.847 1846.93
      vertex 121.556 -108.292 1849.86
    endloop
  endfacet
  facet normal 0.230874 -0.088148 0.968983
    outer loop
      vertex 132.131 -112.847 1846.93
      vertex 133.879 -108.268 1846.93
      vertex 121.556 -108.292 1849.86
    endloop
  endfacet
  facet normal 0.230874 -0.0881485 0.968983
    outer loop
      vertex 121.556 -108.292 1849.86
      vertex 133.879 -108.268 1846.93
      vertex 122.96 -104.616 1849.86
    endloop
  endfacet
  facet normal 0.236737 -0.0706354 0.969003
    outer loop
      vertex 133.879 -108.268 1846.93
      vertex 123.684 -101.95 1849.88
      vertex 122.96 -104.616 1849.86
    endloop
  endfacet
  facet normal 0.20692 -0.0625835 0.976354
    outer loop
      vertex 122.96 -104.616 1849.86
      vertex 123.684 -101.95 1849.88
      vertex 121.307 -103.913 1850.26
    endloop
  endfacet
  facet normal 0.399191 0.0490751 0.915553
    outer loop
      vertex 168.876 -76.14 1834.51
      vertex 157.871 -77.0611 1839.36
      vertex 162.568 -85.7298 1837.77
    endloop
  endfacet
  facet normal 0.411783 0.0570047 0.909497
    outer loop
      vertex 157.871 -77.0611 1839.36
      vertex 158.967 -81.9212 1839.16
      vertex 162.568 -85.7298 1837.77
    endloop
  endfacet
  facet normal 0.379489 0.0208181 0.924962
    outer loop
      vertex 162.568 -85.7298 1837.77
      vertex 158.967 -81.9212 1839.16
      vertex 159.338 -88.6951 1839.16
    endloop
  endfacet
  facet normal 0.352827 0.0193555 0.935488
    outer loop
      vertex 158.967 -81.9212 1839.16
      vertex 148.223 -88.838 1843.36
      vertex 159.338 -88.6951 1839.16
    endloop
  endfacet
  facet normal 0.353085 0.00229552 0.935589
    outer loop
      vertex 159.338 -88.6951 1839.16
      vertex 148.223 -88.838 1843.36
      vertex 155.505 -94.9159 1840.63
    endloop
  endfacet
  facet normal 0.344052 -0.0100148 0.938897
    outer loop
      vertex 148.223 -88.838 1843.36
      vertex 148.053 -94.6872 1843.36
      vertex 155.505 -94.9159 1840.63
    endloop
  endfacet
  facet normal 0.343026 -0.0389298 0.938519
    outer loop
      vertex 155.505 -94.9159 1840.63
      vertex 148.053 -94.6872 1843.36
      vertex 147.393 -100.502 1843.36
    endloop
  endfacet
  facet normal 0.298794 -0.03391 0.953715
    outer loop
      vertex 148.053 -94.6872 1843.36
      vertex 136.196 -98.7525 1846.93
      vertex 147.393 -100.502 1843.36
    endloop
  endfacet
  facet normal 0.295427 -0.0555391 0.95375
    outer loop
      vertex 147.393 -100.502 1843.36
      vertex 136.196 -98.7525 1846.93
      vertex 146.475 -104.938 1843.38
    endloop
  endfacet
  facet normal 0.297029 -0.0526836 0.953414
    outer loop
      vertex 136.196 -98.7525 1846.93
      vertex 145.462 -105.965 1843.64
      vertex 146.475 -104.938 1843.38
    endloop
  endfacet
endsolid Mesh
